<svg width="239" height="299" viewBox="0 0 239 299" fill="none" xmlns="http://www.w3.org/2000/svg">
<g clip-path="url(#clip0_155_1410)">
<path d="M211.071 110.139C211.005 111.293 210.807 112.447 210.148 113.403C209.554 114.326 208.532 115.018 207.444 114.952C206.29 114.886 205.334 113.93 204.707 112.974C203.454 111.062 201.904 106.711 203.619 104.634C203.751 104.502 203.916 104.403 204.081 104.304C192.704 95.8648 179.317 90.9858 164.94 90.9858C154.421 90.9858 144.232 93.5572 134.669 98.6669C129.591 101.469 127.415 108.557 129.789 114.458C131.437 118.578 135.065 121.281 138.989 121.281C140.505 121.281 141.956 120.919 143.275 120.161C150.101 116.567 157.388 114.721 164.94 114.721C194.551 114.721 218.655 143.5 218.655 178.873C218.655 189.554 216.446 199.641 212.555 208.542C214.797 208.608 217.468 209.564 218.589 210.289C219.117 210.619 219.645 211.08 219.678 211.707C219.678 212.003 219.612 212.3 219.513 212.564C219.183 213.553 218.754 214.542 217.93 215.168C216.578 216.19 214.665 215.893 213.05 215.366C212.027 215.036 211.038 214.674 210.214 213.981C210.148 213.915 210.082 213.849 209.983 213.751C200.387 231.354 183.801 243.024 164.94 243.024C163.093 243.024 159.301 242.662 159.268 242.662L155.971 242.365L155.905 246.255C155.74 255.09 153.069 260.43 153.069 260.496L150.497 265.309L155.311 266.067C158.477 266.562 161.741 266.826 164.973 266.826C172.491 266.826 179.91 265.474 187.033 262.837C218.128 251.299 239.001 217.575 239.001 178.939C239.001 151.148 228.053 126.358 211.071 110.238V110.139ZM148.057 110.568C147.628 110.93 147.067 111.095 146.54 111.227C145.089 111.524 143.539 111.425 142.253 110.732C141.923 110.535 141.594 110.304 141.429 109.974C140.374 108.062 142.385 103.348 144.891 103.711C145.617 103.81 146.177 104.337 146.672 104.864C147.463 105.656 148.254 106.48 148.617 107.535C149.013 108.59 148.881 109.908 148.024 110.601L148.057 110.568ZM190.495 254.529C190.231 255.189 189.539 255.584 188.846 255.683C188.154 255.782 187.428 255.683 186.736 255.65C185.911 255.584 185.054 255.65 184.296 255.288C179.778 253.211 185.417 246.024 189.44 249.551C190.561 250.507 190.726 252.156 190.66 253.639C190.66 253.936 190.66 254.266 190.528 254.562L190.495 254.529ZM224.822 159.489C223.634 158.566 223.074 156.917 223.404 155.467C223.437 155.302 223.503 155.137 223.634 155.005C223.766 154.907 223.931 154.841 224.096 154.808C224.624 154.709 225.184 154.61 225.745 154.511C226.042 154.445 226.338 154.412 226.635 154.511C226.965 154.61 227.229 154.874 227.46 155.104C228.251 156.027 230.295 158.236 229.801 159.621C229.075 161.533 225.943 160.346 224.855 159.489H224.822Z" fill="#FF4D00"/>
<path d="M117.785 41.1084C117.785 41.1084 106.112 54.031 122.171 58.9759L125.138 56.4375C123.457 55.3167 121.874 53.4376 122.237 48.7235C122.632 43.6468 120.06 42.0644 117.818 41.1084H117.785Z" fill="#FF4D00"/>
<path d="M117.918 173.73C114.983 181.839 112.807 191.004 111.224 200.201C114.225 199.971 117.918 201.52 116.533 204.388C116.137 205.179 115.247 205.575 114.39 205.74C113.071 206.003 111.653 205.904 110.367 205.476C106.212 233.365 107.003 260.364 107.003 260.364C96.0887 238.079 109.773 184.312 109.773 154.049C109.773 150.423 109.443 147.159 108.85 144.258C108.685 144.258 108.553 144.291 108.388 144.39C108.223 144.489 108.091 144.654 107.927 144.819C107.465 145.247 106.773 145.379 106.113 145.28C105.487 145.181 104.893 144.885 104.332 144.588C103.97 144.39 103.64 144.192 103.409 143.863C103.145 143.5 103.112 143.039 103.079 142.61C102.914 140.599 104.069 137.072 106.245 136.083C99.7819 121.545 86.724 116.501 86.724 102.326C86.724 91.0515 90.4831 78.986 94.2751 71.4038C100.606 64.9096 113.104 71.4698 119.369 73.7444C125.634 76.0191 129.327 72.1291 131.602 69.1951C131.965 68.7336 132.13 68.338 132.163 68.0084H132.196L132.724 56.0088C132.757 55.2506 131.866 54.7891 131.273 55.3165L121.842 63.4261C107.861 58.2505 108.289 51.6903 111.389 44.1081C114.653 36.0974 121.314 33.2624 133.251 31.1855L140.637 41.339C141.165 42.0643 142.253 41.8005 142.451 40.9434L145.452 27.2626C149.936 23.8012 150.134 18.8563 149.508 16.6146C148.123 11.7687 141.923 12.0654 133.284 8.70284C127.481 6.4282 123.128 0.922908 111.851 2.07671C100.936 3.23052 90.9777 8.83471 90.9777 8.83471C88.7024 8.24132 76.6007 2.90086 73.8639 1.51629C71.127 0.131729 68.7528 -0.82428 67.6976 1.35146C66.6424 3.56017 65.7851 12.7906 70.3685 19.6475C75.1499 26.834 75.0509 43.4488 75.0509 43.4488C71.127 30.8888 66.6094 28.1197 66.6094 28.1197C61.7952 32.1745 57.6733 36.3282 54.145 40.5149C54.9035 40.416 55.6948 40.4489 56.3543 40.7127C58.8934 41.7016 58.4977 44.24 58.5307 46.4487C58.5307 47.0421 58.5307 47.6355 58.3328 48.1959C58.102 48.8552 57.6403 49.4156 57.1128 49.9101C55.6619 51.2288 53.6834 52.0529 51.7379 51.8221C50.0232 51.6243 48.4075 50.5694 47.682 49.02C38.2513 62.9316 35.0527 75.7224 35.0527 82.2166C35.0527 101.106 49.7924 110.04 49.7924 110.04C23.6765 104.436 26.3474 78.0959 26.3474 78.0959C7.55191 104.732 -0.427944 140.632 0.000725668 173.895C0.627243 173.334 1.31971 172.906 1.9792 172.774C4.81502 172.18 6.46375 176.169 6.49672 178.444C6.5297 179.762 6.06805 181.147 5.07882 182.037C4.12255 182.894 2.73762 183.224 1.41863 183.092C1.05591 183.059 0.693192 182.96 0.330472 182.861C0.89104 192.322 2.14408 201.487 4.02363 210.058C13.0257 250.837 2.63869 266.298 0.330472 277.803C-0.427944 281.66 0.330472 284.923 2.27597 287.528C2.60572 285.253 3.82578 281.627 7.91463 279.187C7.91463 279.187 3.85876 286.473 7.58489 291.385C7.58489 291.385 8.37628 292.044 9.36551 292.637C10.2558 292.967 11.1461 293.297 12.1354 293.561C12.1354 293.495 11.311 284.989 16.7518 281.429C16.7518 281.429 13.4544 290.627 18.3016 294.385L24.0722 294.451C24.0722 294.451 24.2041 294.451 24.27 294.451C24.2041 294.286 21.8299 286.341 26.0507 282.088C26.0507 282.088 25.1933 291.879 30.5352 293C37.7567 289.769 38.7789 282.088 39.2405 277.572C44.6813 223.047 23.8084 199.212 23.8084 199.212C54.244 218.794 47.5501 270.188 47.5501 270.188C59.5199 272.957 66.4446 269.957 66.4446 269.957C58.135 221.563 78.876 204.751 78.876 204.751C75.4466 210.915 73.3692 220.475 72.413 231.057C72.4459 231.057 72.5119 231.057 72.5449 231.024C73.9958 230.728 76.5018 230.497 77.7549 231.42C77.9527 231.585 78.1506 231.783 78.2495 232.013C78.3484 232.244 78.3484 232.508 78.3484 232.772C78.3484 234.552 77.8868 236.332 77.0954 237.914C76.9305 238.244 76.7326 238.541 76.4359 238.738C76.1391 238.936 75.7764 239.002 75.4466 239.035C74.4244 239.167 73.4022 239.2 72.38 239.101C72.2151 239.101 72.0502 239.035 71.8854 239.035C70.9951 261.353 74.3585 285.682 79.7993 292.539C81.3161 294.451 83.0967 295.835 85.0093 296.824C85.1741 296.429 86.9878 292.275 86.658 285.22C86.658 285.22 90.9777 288.682 90.4831 298.637C92.2637 298.934 94.1103 299.033 95.9239 298.934C96.0228 298.703 98.9246 290.132 95.693 284.923C95.693 284.923 100.573 288.484 101.628 296.396C102.453 296.923 102.882 297.187 103.706 297.714L106.542 296.857C106.542 296.857 106.707 296.791 106.805 296.758C106.838 296.626 109.378 287.429 105.256 284.231C105.256 284.231 110.136 286.275 112.081 294.582C112.378 294.418 112.708 294.286 112.972 294.121C121.644 289.506 111.818 274.539 111.818 274.539C134.471 274.539 144.001 269.858 147.331 257.727C155.674 227.299 144.199 208.542 131.8 196.278C122.534 187.114 117.819 173.697 117.819 173.697L117.918 173.73ZM136.318 16.8784L140.868 14.5708C140.868 14.5708 147.133 14.9993 145.122 21.1969L136.582 19.2519C135.427 18.9882 135.23 17.4388 136.285 16.8784H136.318ZM108.355 8.86767C117.489 3.29645 128.008 11.9994 128.008 11.9994C115.874 11.0764 110.696 17.4058 110.696 17.4058C105.585 12.6587 108.355 8.86767 108.355 8.86767ZM23.05 255.353C22.3575 256.243 21.2034 256.672 20.0823 256.771C19.1919 256.87 18.2027 256.771 17.4773 256.177C16.554 255.419 16.3232 254.1 16.488 252.914C16.6859 251.496 17.7081 248.694 19.4557 248.562C21.1375 248.43 22.1267 251.199 23.083 252.254C23.8743 253.078 23.7424 254.463 23.083 255.353H23.05ZM26.8421 121.248C25.655 122.896 23.3138 123.819 21.5331 122.863C20.3461 122.204 19.6536 120.886 19.3568 119.567C18.4335 115.743 21.731 105.293 26.7431 111.227C27.2378 111.82 27.7653 112.446 28.0291 113.204C28.2929 113.93 28.3259 114.721 28.3259 115.479C28.3259 117.49 28.0291 119.633 26.8421 121.281V121.248ZM54.8045 211.542C54.6726 211.772 54.5407 212.003 54.3099 212.135C54.0791 212.3 53.7493 212.3 53.4855 212.333C52.6942 212.366 51.8698 212.366 51.1114 212.135C47.0885 210.882 50.4849 204.157 53.3536 203.267C59.0253 201.52 56.0905 209.234 54.8375 211.542H54.8045ZM62.5536 146.005C62.3557 146.269 62.0589 146.434 61.7622 146.599C60.5091 147.258 59.1242 147.654 57.7063 147.654C56.7171 147.654 55.6289 147.456 54.9694 146.731C54.3429 146.071 54.178 145.115 54.3429 144.258C54.6067 142.94 56.1565 140.533 57.6733 140.5C58.6626 140.467 60.9378 142.181 61.7951 142.742C62.4876 143.236 62.9163 144.061 62.9163 144.918C62.9163 145.313 62.7844 145.676 62.5536 146.005ZM77.0624 90.9196C76.9305 91.4141 76.6997 91.8756 76.304 92.2382C75.6115 92.8646 74.5563 92.8316 73.633 92.7657C71.9513 92.6668 70.2696 92.5679 68.7198 91.9086C68.5549 91.8426 68.423 91.7767 68.3241 91.6449C68.1922 91.48 68.1922 91.2493 68.1592 91.0185C68.0933 88.3812 69.4123 84.3264 72.8416 85.1836C75.4796 85.8429 77.9527 87.9527 77.0624 90.9196ZM92.4945 168.422C91.2744 170.104 89.0651 170.763 86.9877 170.829C85.2401 170.895 83.2616 170.433 82.4373 168.884C82.2064 168.422 82.0745 167.928 82.0745 167.4C81.9756 164.334 85.6358 160.642 88.7684 160.51C90.4831 160.445 90.8128 161.433 90.9117 162.983C91.0107 164.433 90.9117 164.203 91.7361 165.225C92.2967 165.884 93.0881 166.279 92.9562 167.334C92.9232 167.73 92.6924 168.126 92.4615 168.422H92.4945ZM134.306 251.133C133.911 251.562 133.383 251.826 132.888 252.122C131.8 252.749 130.646 253.507 129.426 253.243C125.37 252.353 128.305 246.617 130.679 245.529C134.01 244.013 136.648 248.595 134.306 251.133Z" fill="#FF4D00"/>
</g>
<defs>
<clipPath id="clip0_155_1410">
<rect width="239" height="299" fill="white"/>
</clipPath>
</defs>
</svg>
