<?xml version="1.0" standalone="no"?>
<!DOCTYPE svg PUBLIC "-//W3C//DTD SVG 1.1//EN" "http://www.w3.org/Graphics/SVG/1.1/DTD/svg11.dtd" >
<svg xmlns="http://www.w3.org/2000/svg" xmlns:xlink="http://www.w3.org/1999/xlink" version="1.1">
<metadata>
Created by FontForge 20170731 at Thu Feb  9 22:52:18 2023
 By Aleksey,,,
Copyright (c) 2013 Schick Toikka. All rights reserved. Saol Display is a trademark of Schick Toikka. Unauthorised copying or modification of any of its data is illegal.
</metadata>
<defs>
<font id="SaolDisplay-Regular" horiz-adv-x="598" >
  <font-face 
    font-family="Saol Display Regular"
    font-weight="400"
    font-stretch="normal"
    units-per-em="2048"
    panose-1="0 0 0 0 0 0 0 0 0 0"
    ascent="1536"
    descent="-512"
    x-height="1004"
    cap-height="1395"
    bbox="-463 -512 2417 2171"
    underline-thickness="102"
    underline-position="-511"
    unicode-range="U+0020-FB02"
  />
<missing-glyph horiz-adv-x="1206" 
d="M1110 -463h-1012v2052h1012v-2052zM1073 -442l-469 981l-471 -981h940zM1087 -422v1970l-471 -985zM119 1548v-1970l471 985zM604 588l469 981h-940z" />
    <glyph glyph-name="fi" unicode="fi" horiz-adv-x="1163" 
d="M506 0h-62q-30 0 -87 3t-97 3q-34 0 -84 -3q-49 -3 -74 -3h-39v14h5q67 0 88 23q20 21 20 90v729q0 77 14 129h-151v19h154q34 133 112 227q159 201 412 201q83 0 141 -23q57 -23 57 -66q0 -27 -18 -45t-47 -18q-42 0 -138 41t-157 41q-92 0 -152 -65q-59 -63 -59 -205
v-88h305v-19h-305v-858q0 -64 30 -88q31 -25 99 -25h33v-14zM1102 0h-39q-27 0 -76 3t-84 3t-83 -3t-75 -3h-38v14h4q68 0 89 24t21 89v682q0 65 -21 88t-89 23h-4v16h24q72 0 152 26q77 25 92 60h12v-895q0 -64 22 -89q21 -24 89 -24h4v-14z" />
    <glyph glyph-name="fl" unicode="fl" horiz-adv-x="1148" 
d="M649 985h-305v-858q0 -64 30 -88q31 -25 99 -25h33v-14h-62q-30 0 -87 3t-97 3q-34 0 -84 -3q-49 -3 -74 -3h-39v14h5q67 0 88 23q20 21 20 90v723q0 47 8 135h-145v19h147q33 199 138 311t280 112q127 0 211 -81q136 77 143 137h15v-1356q0 -69 20 -90q21 -23 88 -23h4
v-14h-38q-25 0 -74 3t-84 3t-84 -3t-74 -3h-39v14h4q67 0 88 23t21 90v1200q-82 82 -201 82q-260 0 -260 -336v-69h305v-19z" />
    <glyph glyph-name="fb" unicode="fb" horiz-adv-x="1742" 
d="M506 0h-62q-30 0 -87 3t-97 3q-34 0 -84 -3q-49 -3 -74 -3h-39v14h5q67 0 88 23q20 21 20 90v723q0 47 8 135h-145v19h147q33 199 138 311t280 112q126 0 207 -81q134 73 145 137h15v-590q140 127 303 127q151 0 265 -126t114 -392t-114 -392t-265 -126q-169 0 -309 133
q-140 -77 -150 -137h-12v1347q-82 82 -199 82q-260 0 -260 -336v-69h305v-19h-305v-858q0 -64 30 -88q31 -25 99 -25h33v-14zM1260 6q46 0 81 19q34 19 64 68t45 152q14 95 14 257t-14 257q-15 101 -45 151q-31 51 -64 69t-81 18q-145 0 -289 -129v-733q140 -129 289 -129z
" />
    <glyph glyph-name="fj" unicode="fj" horiz-adv-x="1136" 
d="M506 0h-62q-30 0 -87 3t-97 3q-34 0 -84 -3q-49 -3 -74 -3h-39v14h5q67 0 88 23q20 21 20 90v729q0 77 14 129h-151v19h154q34 133 112 227q159 201 412 201q83 0 141 -23q57 -23 57 -66q0 -27 -18 -45t-47 -18q-42 0 -138 41t-157 41q-92 0 -152 -65q-59 -63 -59 -205
v-88h305v-19h-305v-858q0 -64 30 -88q31 -25 99 -25h33v-14zM569 -483q-34 0 -55 17q-22 18 -22 46t18 45q19 17 49 17q28 0 83 -20q53 -19 87 -19q50 0 71 37q21 38 21 120v1049q0 65 -21 88t-89 23h-4v16h24q72 0 152 26q77 25 92 60h12v-936q0 -220 -108 -383
q-127 -186 -310 -186z" />
    <glyph glyph-name="fh" unicode="fh" horiz-adv-x="1746" 
d="M649 985h-305v-858q0 -64 30 -88q31 -25 99 -25h33v-14h-62q-30 0 -87 3t-97 3q-34 0 -84 -3q-49 -3 -74 -3h-39v14h5q67 0 88 23q20 21 20 90v723q0 47 8 135h-145v19h147q33 199 138 311t280 112q127 0 211 -81q136 77 143 137h15v-617l221 86q171 68 252 68
q131 0 131 -148v-745q0 -69 20 -90q21 -23 89 -23h4v-14h-39q-25 0 -74 3t-84 3t-84 -3t-74 -3h-39v14h4q68 0 89 23q20 21 20 90v750q0 94 -72 94q-33 0 -161 -45l-203 -78v-721q0 -69 20 -90q21 -23 88 -23h4v-14h-38q-25 0 -74 3t-84 3t-84 -3t-74 -3h-39v14h4
q67 0 88 23t21 90v1200q-82 82 -201 82q-260 0 -260 -336v-69h305v-19z" />
    <glyph glyph-name="fk" unicode="fk" horiz-adv-x="1740" 
d="M649 985h-305v-858q0 -64 30 -88q31 -25 99 -25h33v-14h-62q-30 0 -87 3t-97 3q-34 0 -84 -3q-49 -3 -74 -3h-39v14h5q67 0 88 23q20 21 20 90v723q0 47 8 135h-145v19h147q33 199 138 311t280 112q127 0 211 -81q136 77 143 137h15v-1096l166 170l-62 105h51h61h52
l135 143q68 73 68 117q0 67 -98 67h-7v15h31q8 0 70 -4q47 -3 82 -3q38 0 84 3q62 4 69 4h33v-15h-4q-126 0 -311 -192l-127 -135l319 -545q33 -59 64 -82q29 -21 80 -21h4v-14h-41q-14 0 -61 3t-85 3q-36 0 -89 -3t-66 -3h-56v14h4q84 0 84 41q0 16 -14 41l-260 445
l-176 -181v-233q0 -69 20 -90q21 -23 88 -23h4v-14h-38q-25 0 -74 3t-84 3t-84 -3t-74 -3h-39v14h4q67 0 88 23t21 90v1200q-82 82 -201 82q-260 0 -260 -336v-69h305v-19z" />
    <glyph glyph-name=".notdef" horiz-adv-x="1206" 
d="M1110 -463h-1012v2052h1012v-2052zM1073 -442l-469 981l-471 -981h940zM1087 -422v1970l-471 -985zM119 1548v-1970l471 985zM604 588l469 981h-940z" />
    <glyph glyph-name=".null" horiz-adv-x="0" 
 />
    <glyph glyph-name="nonmarkingreturn" horiz-adv-x="681" 
 />
    <glyph glyph-name="space" unicode=" " horiz-adv-x="385" 
 />
    <glyph glyph-name="exclam" unicode="!" horiz-adv-x="505" 
d="M264 444h-20v78q0 128 -42 402t-42 370q0 55 25 84q26 31 69 31q96 0 96 -115q0 -101 -43 -371t-43 -401v-78zM254 -16q-51 0 -84 33q-35 35 -35 83q0 50 36 84q37 35 83 35t83 -35q36 -34 36 -84q0 -48 -35 -83q-33 -33 -84 -33z" />
    <glyph glyph-name="quotedbl" unicode="&#x22;" horiz-adv-x="649" 
d="M186 922h-16q-5 155 -43 263q-39 109 -39 134q0 44 25 71q24 25 63 25q42 0 67 -25t25 -71q0 -32 -19 -76q-18 -42 -40 -126q-22 -83 -23 -195zM479 922h-16q-5 155 -43 263q-39 109 -39 134q0 44 25 71q24 25 63 25q42 0 67 -25t25 -71q0 -32 -19 -76q-18 -42 -40 -126
q-22 -83 -23 -195z" />
    <glyph glyph-name="numbersign" unicode="#" horiz-adv-x="1216" 
d="M217 934v20h279l118 416l21 -6l-117 -410h322l118 416l21 -6l-117 -410h273v-20h-279l-139 -479h272v-21h-278l-119 -416l-21 7l117 409h-321l-119 -416l-21 7l117 409h-272v21h278l139 479h-272zM512 934l-139 -479h321l140 479h-322z" />
    <glyph glyph-name="dollar" unicode="$" horiz-adv-x="1093" 
d="M571 -147h-22v147q-173 6 -312 86t-139 195q0 33 22 57q21 22 52 22q57 0 78 -61q0 -5 11 -39q3 -10 20 -57q35 -93 96 -136q63 -45 172 -49v617l-115 33q-131 39 -209 131t-78 229q0 157 110 262q109 105 292 105v147h22v-147q139 -5 260 -83q123 -80 123 -188
q0 -32 -21 -52q-20 -19 -48 -19q-53 0 -76 57q-6 12 -12 41q-5 22 -13 45q-30 92 -79 135t-134 45v-549l113 -32q315 -91 315 -377q0 -196 -127 -307q-128 -111 -292 -111h-9v-147zM899 315q0 122 -72 191t-221 112l-35 11v-611h7q148 0 234 85q87 85 87 212zM227 1114
q0 -102 64 -163t203 -101l55 -16v542q-158 0 -239 -74q-83 -75 -83 -188z" />
    <glyph glyph-name="percent" unicode="%" horiz-adv-x="1452" 
d="M406 709q-134 0 -216 98q-81 97 -81 252q0 154 81 251q82 99 216 99q100 0 174 -68q98 -94 211 -94q77 0 171 42t162 120l19 -10l-795 -1417l-18 10l764 1360q-56 -53 -140 -89t-163 -36q-86 0 -164 51q53 -91 53 -219q0 -148 -73 -250q-72 -100 -201 -100zM410 727
q115 0 181 94q66 95 66 238t-66 237q-66 95 -181 95q-93 0 -123 -83q-31 -85 -31 -249q0 -165 31 -250q30 -82 123 -82zM1059 -16q-136 0 -216 98q-81 99 -81 252q0 152 81 251t216 99q129 0 201 -100q71 -99 71 -250t-71 -250q-72 -100 -201 -100zM1063 2q115 0 181 94
q67 96 67 238q0 141 -67 237q-66 95 -181 95q-93 0 -123 -83q-31 -85 -31 -249q0 -165 31 -250q30 -82 123 -82z" />
    <glyph glyph-name="ampersand" unicode="&#x26;" horiz-adv-x="1613" 
d="M563 -20q-186 0 -303 113q-119 114 -119 292q0 174 110 282q107 106 267 144q-82 39 -132 116t-50 167q0 150 110 235q112 86 242 86q141 0 261 -73q118 -72 118 -154q0 -31 -19 -50q-20 -20 -49 -20q-61 0 -88 84q-60 193 -225 193q-99 0 -175 -58q-75 -57 -75 -151
q0 -163 254 -264q176 -69 265 -155q91 -87 120 -251l88 139q122 191 275 191q35 0 62 -19q26 -18 26 -49q0 -69 -90 -69q-30 0 -77 12t-69 12q-52 0 -112 -94l-95 -152q1 -6 5 -22.5t6 -26.5q8 -36 8 -39q44 -203 101 -278q58 -76 151 -76q106 0 174 137l14 -6
q-82 -190 -276 -190q-236 0 -312 284q-155 -290 -391 -290zM567 2q211 0 379 297q-17 93 -47 188q-30 101 -87 159q-58 59 -155 102q-64 30 -116 49q-104 -30 -161 -135q-56 -103 -56 -263q0 -397 243 -397z" />
    <glyph glyph-name="quotesingle" unicode="'" horiz-adv-x="356" 
d="M186 922h-16q-5 155 -43 263q-39 109 -39 134q0 44 25 71q24 25 63 25q42 0 67 -25t25 -71q0 -32 -19 -76q-18 -42 -40 -126q-22 -83 -23 -195z" />
    <glyph glyph-name="parenleft" unicode="(" horiz-adv-x="618" 
d="M285 565q0 -691 317 -909l-10 -14q-216 141 -343 394q-128 256 -128 529t128 531q126 254 343 395l10 -14q-317 -220 -317 -912z" />
    <glyph glyph-name="parenright" unicode=")" horiz-adv-x="618" 
d="M334 565q0 689 -318 912l11 14q215 -140 342 -395t127 -531q0 -275 -127 -529t-342 -394l-11 14q318 220 318 909z" />
    <glyph glyph-name="asterisk" unicode="*" horiz-adv-x="798" 
d="M399 1487q27 0 46 -18q20 -18 20 -44q0 -35 -29 -120q-28 -84 -30 -142q49 29 106 95q56 65 86 83q20 13 37 13q27 0 45 -21t18 -45q0 -30 -30 -53q-33 -21 -119 -39t-137 -45q50 -26 138 -43q89 -17 118 -37q30 -23 30 -51q0 -27 -17 -47q-18 -21 -44 -21q-19 0 -39 13
q-29 18 -86 82q-58 66 -106 94q2 -58 30 -142q29 -85 29 -120q0 -26 -20 -44q-19 -18 -46 -18t-46 18t-19 44q0 37 28 120q30 87 31 142q-48 -28 -106 -94q-57 -64 -86 -82q-19 -13 -39 -13q-26 0 -44 21t-18 47q0 28 31 51q29 20 118 37q88 17 138 43q-51 27 -137 45
t-119 39q-31 23 -31 53q0 23 19 45q18 21 45 21q18 0 37 -13q30 -18 86 -83q57 -66 106 -95q-1 55 -31 142q-28 83 -28 120q0 26 19 44t46 18z" />
    <glyph glyph-name="plus" unicode="+" horiz-adv-x="1089" 
d="M555 211h-23v438h-438v21h438v442h23v-442h440v-21h-440v-438z" />
    <glyph glyph-name="comma" unicode="," horiz-adv-x="468" 
d="M221 -10q-49 0 -81 33q-31 32 -31 79q0 49 33 82q35 35 87 35q54 0 93 -43q38 -42 38 -108q0 -123 -65 -198q-67 -77 -145 -95l-5 14q74 18 133 88q58 68 58 164q0 6 -2 20q-33 -71 -113 -71z" />
    <glyph glyph-name="hyphen" unicode="-" horiz-adv-x="626" 
d="M498 528h-369v97h369v-97z" />
    <glyph glyph-name="period" unicode="." horiz-adv-x="454" 
d="M227 -16q-51 0 -84 33q-34 34 -34 83q0 50 35 84q37 35 83 35q49 0 84 -35t35 -84q0 -48 -35 -83q-33 -33 -84 -33z" />
    <glyph glyph-name="slash" unicode="/" horiz-adv-x="720" 
d="M678 1477l-615 -1829l-20 6l614 1829z" />
    <glyph glyph-name="zero" unicode="0" horiz-adv-x="1245" 
d="M623 -2q73 0 126 22q54 23 89 71q34 47 57 106q22 55 34 143q9 67 15 166q4 71 4 192t-4 192q-5 97 -15 166q-12 87 -34 143q-23 57 -57 105q-34 47 -89 70t-126 23t-126 -23t-89 -70q-37 -51 -58 -105q-22 -56 -34 -143q-10 -69 -15 -166q-4 -71 -4 -192t4 -192
q6 -99 15 -166q12 -88 34 -143q22 -56 58 -106q35 -48 89 -71q53 -22 126 -22zM623 -20q-237 0 -380 204q-145 207 -145 514q0 309 144 513t381 204t381 -204q143 -203 143 -513q0 -307 -145 -514q-143 -204 -379 -204z" />
    <glyph glyph-name="one" unicode="1" horiz-adv-x="661" 
d="M547 0h-45q-26 0 -72 3t-80 3q-33 0 -81 -3t-72 -3h-86v16h24q71 0 99 22t28 87v987q0 59 -41 59q-23 0 -76 -24l-45 -23l-8 17q116 56 213 137q95 79 117 133h14v-1278q0 -68 22 -93q21 -24 85 -24h4v-16z" />
    <glyph glyph-name="two" unicode="2" horiz-adv-x="1011" 
d="M926 162l-62 -293l-12 2q1 75 -24 102q-26 27 -97 27h-704v8l274 297q208 227 314 410q104 179 104 370q0 166 -50 239t-153 73q-104 0 -163 -69q-59 -70 -99 -195q-27 -82 -86 -82q-32 0 -52 20q-22 22 -22 55q0 97 135 193t291 96q165 0 280 -90t115 -254
q0 -89 -33 -168q-34 -80 -104 -166q-67 -82 -131 -144q-74 -72 -166 -155q-100 -90 -155 -145l-131 -131h731z" />
    <glyph glyph-name="three" unicode="3" horiz-adv-x="1091" 
d="M524 -20q-198 0 -334 109q-137 110 -137 228q0 36 22 60q21 22 50 22q66 0 84 -82q73 -319 313 -319q136 0 213 105q76 104 76 313q0 188 -42 269t-132 81q-39 0 -100 -33l-150 -76l-10 19l180 94q90 46 129 123t39 211q0 142 -41 218q-40 75 -156 75q-192 0 -258 -258
q-21 -88 -90 -88q-30 0 -50 20q-21 21 -21 55q0 97 133 193q134 96 288 96q162 0 272 -83q109 -82 109 -216q0 -101 -80 -190t-204 -140q64 2 121 -15q65 -19 121 -57q62 -42 100 -116q39 -77 39 -176q0 -137 -78 -242q-76 -103 -187 -152q-108 -48 -219 -48z" />
    <glyph glyph-name="four" unicode="4" horiz-adv-x="1075" 
d="M1004 401h-238v-268q0 -69 21 -93t85 -24h5v-16h-46q-24 0 -72 3t-81 3q-32 0 -82 -3t-72 -3h-90v16h25q72 0 103 22q30 21 30 87v276h-584v11l600 983q19 0 35 -1t37 -1q16 0 36 1t50 1v-973h10q86 0 134 53q49 53 143 227l12 -4zM592 422v903l-551 -903h551z" />
    <glyph glyph-name="five" unicode="5" horiz-adv-x="1083" 
d="M504 -20q-158 0 -289 96t-131 190q0 36 21 57t53 21q63 0 86 -80q13 -45 28 -82q17 -41 46 -84q30 -45 77 -72q48 -28 105 -28q295 0 295 469q0 216 -54 324q-52 104 -194 104q-105 0 -214 -58q-111 -59 -161 -157l-20 6q102 709 104 709h522q76 0 111 15q34 15 57 69
l15 -4l-54 -242h-655l-74 -502q56 79 162 132q105 52 209 52q202 0 322 -114t120 -326q0 -226 -140 -360q-141 -135 -347 -135z" />
    <glyph glyph-name="six" unicode="6" horiz-adv-x="1140" 
d="M580 -20q-62 0 -122 15t-127 59t-117 112q-50 69 -83 180q-33 112 -33 256q0 305 232 535q230 229 573 280l2 -20q-524 -94 -598 -629q62 71 145 109t171 38q69 0 138 -21q63 -19 134 -69q65 -46 106 -136t41 -208q0 -235 -146 -368t-316 -133zM580 -2q268 0 268 479
q0 416 -240 416q-75 0 -159 -41q-81 -40 -144 -115q-8 -83 -8 -133q0 -234 36 -371q36 -138 95 -186q59 -49 152 -49z" />
    <glyph glyph-name="seven" unicode="7" horiz-adv-x="956" 
d="M485 84q0 -48 -27 -75t-69 -27q-45 0 -74 27q-28 27 -28 75q0 135 47 290q46 152 138 313q102 179 167 277q89 134 188 269h-559q-80 0 -121 -30t-69 -107l-15 2l80 379l15 -2q0 -46 26 -63t80 -17h688v-9q-98 -140 -170 -252q-55 -85 -127 -223q-69 -132 -98 -239
q-30 -112 -51 -259q-21 -148 -21 -329z" />
    <glyph glyph-name="eight" unicode="8" horiz-adv-x="1110" 
d="M563 -20q-215 0 -345 106t-130 281q0 111 78 205q80 97 217 153q-233 102 -233 319q0 159 115 265t292 106q164 0 280 -86q115 -85 115 -229q0 -208 -225 -316q148 -63 222 -154q75 -92 75 -233q0 -187 -130 -302t-331 -115zM563 -2q155 0 237 90q83 91 83 229
q0 210 -256 312l-221 86q-80 -45 -120 -138q-40 -92 -40 -196q0 -160 80 -272q80 -111 237 -111zM817 1102q0 137 -64 216t-198 79q-127 0 -205 -70q-76 -69 -76 -184q0 -175 218 -264l213 -86q112 91 112 309z" />
    <glyph glyph-name="nine" unicode="9" horiz-adv-x="1140" 
d="M561 1415q62 0 122 -15q58 -14 127 -60q69 -45 117 -111q50 -69 83 -180q32 -109 32 -256q0 -305 -231 -535q-232 -230 -573 -281l-2 21q524 94 598 629q-60 -68 -145 -108q-84 -40 -171 -40q-66 0 -138 22q-66 20 -134 68q-65 46 -107 137q-41 90 -41 207q0 235 147 369
q146 133 316 133zM561 1397q-268 0 -268 -479q0 -416 239 -416q76 0 160 41q82 41 144 114q8 83 8 134q0 233 -36 370q-37 139 -95 187q-59 49 -152 49z" />
    <glyph glyph-name="colon" unicode=":" horiz-adv-x="454" 
d="M227 717q-50 0 -84 34t-34 83q0 50 35 84t83 34q50 0 84 -34q35 -35 35 -84q0 -48 -35 -83q-34 -34 -84 -34zM227 -16q-51 0 -84 33q-34 34 -34 83q0 50 35 84q37 35 83 35q49 0 84 -35t35 -84q0 -48 -35 -83q-33 -33 -84 -33z" />
    <glyph glyph-name="semicolon" unicode=";" horiz-adv-x="468" 
d="M221 -10q-49 0 -81 33q-31 32 -31 79q0 49 33 82q35 35 87 35q54 0 93 -43q38 -42 38 -108q0 -123 -65 -198q-67 -77 -145 -95l-5 14q74 18 133 88q58 68 58 164q0 6 -2 20q-33 -71 -113 -71zM227 717q-50 0 -84 34t-34 83q0 50 35 84t83 34q50 0 84 -34q35 -35 35 -84
q0 -48 -35 -83q-34 -34 -84 -34z" />
    <glyph glyph-name="less" unicode="&#x3c;" horiz-adv-x="964" 
d="M90 672l770 356l8 -18l-753 -348l753 -349l-8 -18l-770 356v21z" />
    <glyph glyph-name="equal" unicode="=" horiz-adv-x="1007" 
d="M94 836v20h819v-20h-819zM94 469v20h819v-20h-819z" />
    <glyph glyph-name="greater" unicode="&#x3e;" horiz-adv-x="964" 
d="M104 1028l770 -356v-21l-770 -356l-8 18l752 349l-752 348z" />
    <glyph glyph-name="question" unicode="?" horiz-adv-x="722" 
d="M305 444h-20v412q138 28 217 109q78 79 78 170q0 66 -49 113q-47 46 -136 46q-51 0 -120 -30q-71 -31 -95 -31q-36 0 -56 23q-22 25 -22 59q0 94 142 94q169 0 276 -109t107 -264q0 -121 -81 -217t-241 -147v-228zM293 -16q-49 0 -82 33q-35 35 -35 83q0 49 35 84t82 35
q49 0 84 -35t35 -84q0 -48 -35 -83q-33 -33 -84 -33z" />
    <glyph glyph-name="at" unicode="@" horiz-adv-x="1710" 
d="M889 -297q-329 0 -557 231t-228 568q0 328 229 566q228 237 552 237q299 0 510 -189t211 -487q0 -134 -64 -274q-63 -138 -181 -232t-253 -94q-79 0 -132 43q-54 44 -54 121q0 85 67 243l144 334l-345 -494q-172 -247 -286 -247q-117 0 -117 131q0 104 85 293
q86 191 179 317q156 207 307 207q118 0 209 -139q79 24 119 53q39 29 72 90l12 -4l-246 -598q-69 -168 -69 -238q0 -86 75 -86q178 0 318 186q139 185 139 388q0 289 -207 472t-493 183q-319 0 -539 -230q-221 -232 -221 -552q0 -330 220 -554t544 -224q221 0 411 114
t269 314l18 -7q-78 -205 -274 -323q-197 -119 -424 -119zM590 102q56 0 184 187l375 538q-78 123 -164 123q-54 0 -101 -46q-48 -47 -124 -173q-83 -137 -144 -313q-63 -183 -63 -260q0 -56 37 -56z" />
    <glyph glyph-name="A" unicode="A" horiz-adv-x="1325" 
d="M1354 0h-51q-17 0 -72 3t-86 3q-37 0 -94 -3t-72 -3h-53v16q104 0 104 70q0 19 -16 61l-101 238h-643l-47 -119q-28 -72 -28 -127t37 -89t112 -34v-16h-25q-25 0 -88 3t-90 3q-17 0 -76 -3t-79 -3h-41v16q81 4 143 65q63 62 115 195l368 941l-73 178q31 0 52 -1t48 -1
q28 0 46 1t44 1l520 -1258q27 -67 61 -93q36 -28 85 -28v-16zM584 1192l-305 -784h626z" />
    <glyph glyph-name="B" unicode="B" horiz-adv-x="1271" 
d="M1190 358q0 -175 -140 -266q-142 -92 -337 -92h-226q-56 0 -100 1t-104 1q-49 0 -82 -1t-72 -1h-45v16h2q64 0 86 24q23 25 23 91v1133q0 66 -23 91q-22 23 -86 23h-2v17h45q39 0 72 -1t82 -1q63 0 103 1t93 1h170q203 0 333 -93t130 -255q0 -138 -103 -229t-255 -109
q181 -4 309 -93q127 -88 127 -258zM993 360q0 185 -72 260q-71 74 -229 74h-323v-674h325q161 0 230 79t69 261zM924 1047q0 167 -63 247t-226 80h-266v-659h276q159 0 219 83q60 82 60 249z" />
    <glyph glyph-name="C" unicode="C" horiz-adv-x="1267" 
d="M655 -16q-253 0 -419 203t-166 515q0 176 58 316q59 142 150 224q93 84 193 128q102 45 201 45q73 0 162 -19q94 -20 114 -20q36 0 53 16.5t15 49.5l12 4l178 -481l-14 -7q-139 241 -264 340q-124 99 -256 99q-183 0 -317 -151t-134 -398q0 -334 159 -539t390 -205
q282 0 424 283l14 -6q-77 -173 -223 -285t-330 -112z" />
    <glyph glyph-name="D" unicode="D" horiz-adv-x="1323" 
d="M1053 696q0 375 -101 527q-100 151 -362 151h-221v-1354h221q261 0 362 152t101 524zM1251 696q0 -325 -177 -511q-176 -185 -451 -185h-144q-53 0 -93 1t-103 1q-49 0 -82 -1t-72 -1h-45v16h2q64 0 86 24q23 25 23 91v1133q0 66 -23 91q-22 23 -86 23h-2v17h45
q39 0 72 -1t82 -1q63 0 103 1t93 1h144q276 0 452 -185t176 -514z" />
    <glyph glyph-name="E" unicode="E" horiz-adv-x="1269" 
d="M1022 -63l-12 2q4 28 -13 45q-16 16 -57 16h-471q-50 0 -89 1t-97 1q-49 0 -82 -1t-72 -1h-45v16h2q64 0 86 24q23 25 23 91v1133q0 66 -23 91q-22 23 -86 23h-2v17h45q39 0 72 -1t82 -1q59 0 101 1t93 1h440q42 0 60 15q19 15 14 46l13 4l180 -473l-15 -6
q-188 261 -241 317q-73 76 -193 76h-366v-655h245q114 0 152 65q39 65 55 209h17v-577h-17q-6 57 -12 93q-6 35 -21 76t-35 61q-22 22 -57 37t-82 15h-245v-678h385q66 0 109 17q42 17 93 69q92 101 244 347l14 -7z" />
    <glyph glyph-name="F" unicode="F" horiz-adv-x="1177" 
d="M842 399h-17q-6 61 -12 93q-7 38 -20 74q-16 43 -35 62q-21 21 -56 36q-32 14 -81 14h-252v-545q0 -67 33 -91q35 -26 116 -26h41v-16h-76q-31 0 -91 3t-101 3q-35 0 -86 -3t-76 -3h-45v16h2q64 0 86 24q23 25 23 91v1133q0 66 -23 91q-22 23 -86 23h-2v17h45q39 0 72 -1
t82 -1q51 0 86 1t75 1h453q41 0 59 15q19 16 15 46l12 4l180 -473l-14 -6q-184 256 -242 317q-73 76 -194 76h-344v-674h252q113 0 150 66q38 66 54 211h17v-578z" />
    <glyph glyph-name="G" unicode="G" horiz-adv-x="1349" 
d="M1196 487v-507h-14q-15 90 -150 147q-146 -143 -362 -143q-255 0 -427 200q-173 202 -173 496q0 190 58 336t152 231q93 84 196 126t208 42q90 0 179 -19q94 -20 108 -20q36 0 55 16q18 15 16 50l13 4l178 -481l-14 -7q-140 239 -265 340q-123 99 -270 99
q-187 0 -302 -166q-116 -167 -116 -522q0 -340 116 -519q115 -178 333 -178q91 0 175 41q82 40 132 92v342q0 68 -23 91q-22 22 -86 22h-4v16h45q24 0 74 -3q49 -3 82 -3t81 3t73 3h45v-16h-4q-64 0 -86 -22q-23 -23 -23 -91z" />
    <glyph glyph-name="H" unicode="H" horiz-adv-x="1445" 
d="M1251 131q0 -68 22 -92q21 -23 85 -23h4v-16h-45q-25 0 -73 3t-81 3t-81 -3t-72 -3h-45v16h2q66 0 87 23q21 22 21 92v567h-706v-567q0 -68 22 -91q23 -24 86 -24h4v-16h-45q-24 0 -72 3t-81 3t-82 -3t-72 -3h-45v16h2q64 0 86 24q23 25 23 91v1133q0 66 -23 91
q-22 23 -86 23h-2v17h45q23 0 72 -3q50 -3 82 -3q33 0 81 3t72 3h45v-17h-4q-64 0 -86 -23t-22 -91v-545h706v545q0 69 -21 92q-21 22 -87 22h-2v17h45q24 0 72 -3t81 -3t81 3t73 3h45v-17h-4q-64 0 -85 -22q-22 -24 -22 -92v-1133z" />
    <glyph glyph-name="I" unicode="I" horiz-adv-x="563" 
d="M369 131q0 -68 22 -91q23 -24 86 -24h4v-16h-45q-24 0 -72 3t-81 3t-82 -3t-72 -3h-45v16h2q64 0 86 24q23 25 23 91v1133q0 66 -23 91q-22 23 -86 23h-2v17h45q23 0 72 -3q50 -3 82 -3q33 0 81 3t72 3h45v-17h-4q-64 0 -86 -23t-22 -91v-1133z" />
    <glyph glyph-name="J" unicode="J" horiz-adv-x="622" 
d="M442 403q0 -311 -139 -466q-139 -156 -330 -156q-39 0 -61 19q-23 20 -23 53q0 30 21 51q20 20 53 20q28 0 97 -30q71 -31 100 -31q60 0 84 47t24 151v1203q0 68 -22 91t-86 23h-4v17h45q24 0 72 -3t81 -3q32 0 82 3t72 3h45v-17h-2q-64 0 -86 -23q-23 -25 -23 -91v-861z
" />
    <glyph glyph-name="K" unicode="K" horiz-adv-x="1361" 
d="M1364 0h-84q-16 0 -68 3t-88 3t-88 -3t-67 -3h-82v16h22q86 0 86 58q0 24 -24 63l-369 586l-233 -277v-315q0 -68 22 -91q23 -24 86 -24h4v-16h-45q-24 0 -72 3t-81 3t-82 -3t-72 -3h-45v16h2q64 0 86 24q23 25 23 91v1133q0 66 -23 91q-22 23 -86 23h-2v17h45
q23 0 72 -3q50 -3 82 -3q33 0 81 3t72 3h45v-17h-4q-64 0 -86 -23t-22 -91v-785l221 262l-78 123q5 0 15.5 -0.5t30 -1t37.5 -0.5q66 -2 99 0l269 322q59 71 59 121q0 73 -127 73v17h39q26 0 78 -3t80 -3q33 0 87 3t72 3h43v-17q-142 0 -313 -204l-262 -314l461 -731
q69 -113 184 -113v-16z" />
    <glyph glyph-name="L" unicode="L" horiz-adv-x="1159" 
d="M1153 475l-201 -538l-12 2q4 29 -12 45t-58 16h-434q-40 0 -72 1t-81 1t-82 -1t-72 -1h-45v16h2q64 0 86 24q23 25 23 91v1133q0 66 -23 91q-22 23 -86 23h-2v17h45q23 0 72 -3q50 -3 82 -3q33 0 81 3t72 3h45v-17h-4q-64 0 -86 -23t-22 -91v-1244h317q65 0 108 17
q41 16 91 69q69 75 254 375z" />
    <glyph glyph-name="M" unicode="M" horiz-adv-x="1779" 
d="M1585 131q0 -66 23 -91q22 -24 86 -24h4v-16h-45q-25 0 -73 3t-81 3t-82 -3t-71 -3h-46v16h3q63 0 86 24q22 23 22 91v1204l-491 -1161l77 -174q-33 0 -53 1t-43 1q-26 0 -45 -1t-49 -1l-567 1251v-977q0 -256 186 -258h2v-16h-45q-15 0 -67 3t-87 3t-87 -3t-66 -3h-45
v16h4q182 0 182 258v1002q-49 102 -135 102h-12v17h34q40 0 66 -1t61 -1q42 0 72 1t64 1l540 -1194l504 1194q3 0 9.5 -0.5t19 -1t24.5 -0.5q58 -2 74 -2q2 0 50 2t65 2h45v-17h-4q-64 0 -86 -23q-23 -25 -23 -91v-1133z" />
    <glyph glyph-name="N" unicode="N" horiz-adv-x="1421" 
d="M1321 0q-37 0 -58 1t-42 1q-31 0 -55 -1t-56 -1l-868 1245v-971q0 -256 186 -258h4v-16h-47q-15 0 -66 3t-86 3t-87 -3t-66 -3h-45v16h4q182 0 182 258v996q-50 75 -78 92q-26 16 -71 16h-4v17h26q43 0 68 -1t59 -1q42 0 69 1t62 1l834 -1190v915q0 256 -185 258h-4v17
h47q15 0 66 -3t86 -3q34 0 87 3q52 3 67 3h45v-17h-4q-185 0 -185 -258v-946z" />
    <glyph glyph-name="O" unicode="O" horiz-adv-x="1370" 
d="M686 -2q414 0 414 700q0 699 -414 699q-416 0 -416 -699q0 -700 416 -700zM686 -20q-265 0 -440 203q-176 205 -176 515q0 312 175 514q176 203 441 203q264 0 440 -203q177 -204 177 -514q0 -309 -177 -515q-175 -203 -440 -203z" />
    <glyph glyph-name="P" unicode="P" horiz-adv-x="1183" 
d="M559 0h-76q-31 0 -91 3t-101 3q-35 0 -86 -3t-76 -3h-45v16h2q64 0 86 24q23 25 23 91v1133q0 66 -23 91q-22 23 -86 23h-2v17h45q39 0 72 -1t82 -1q63 0 103 1t93 1h201q210 0 340 -99q131 -99 131 -276q0 -182 -130 -281q-129 -98 -341 -98h-311v-508q0 -69 26 -92
q28 -25 105 -25h59v-16zM672 662q165 0 224 84q60 86 60 274q0 186 -60 270t-224 84h-303v-712h303z" />
    <glyph glyph-name="Q" unicode="Q" horiz-adv-x="1370" 
d="M934 -481q-78 0 -170 78l-127 112q-80 74 -139 74q-54 0 -222 -84l-12 16l354 269q-241 24 -395 223q-153 198 -153 491q0 312 175 514q176 203 441 203q264 0 440 -203q177 -204 177 -514q0 -309 -177 -515q-175 -203 -440 -203h-41l-280 -216q175 86 262 86
q74 0 135 -55l102 -90q107 -100 168 -100q43 0 86 31q39 28 131 128l13 -12q-20 -22 -96 -102q-31 -33 -73 -68q-47 -39 -81 -51t-78 -12zM1100 698q0 699 -414 699q-416 0 -416 -699q0 -700 416 -700q414 0 414 700z" />
    <glyph glyph-name="R" unicode="R" horiz-adv-x="1316" 
d="M1309 0q-53 0 -103 3t-86 3q-24 0 -62 -3t-59 -3l-354 657h-276v-526q0 -68 22 -91q23 -24 86 -24h4v-16h-45q-24 0 -72 3t-81 3t-82 -3t-72 -3h-45v16h2q64 0 86 24q23 25 23 91v1133q0 66 -23 91q-22 23 -86 23h-2v17h45q39 0 72 -1t82 -1q58 0 97 1t89 1h215
q205 0 337 -99t132 -268q0 -155 -126 -263t-341 -108h-14q39 -63 86 -87q45 -23 143 -23l184 -342q62 -115 106 -151q41 -33 118 -38v-16zM961 1026q0 176 -63 262t-224 86h-305v-694h305q160 0 223 82q64 84 64 264z" />
    <glyph glyph-name="S" unicode="S" horiz-adv-x="1150" 
d="M1075 393q0 -192 -132 -303q-131 -110 -296 -110q-94 0 -214 31q-123 32 -136 32q-74 0 -68 -66l-12 -4l-158 484l15 6q84 -156 166 -254q84 -101 161 -142q80 -43 130 -56q51 -13 114 -13q133 0 222 81t89 195q0 220 -327 338l-170 64q-149 56 -244 151q-96 96 -96 238
q0 159 113 254q114 96 284 96q62 0 153 -19q95 -20 117 -20q35 0 54 16q18 15 16 50l12 4l170 -436l-14 -6q-134 225 -255 309t-253 84q-138 0 -215 -68q-76 -67 -76 -172q0 -104 73 -175q70 -69 237 -130l174 -66q366 -136 366 -393z" />
    <glyph glyph-name="T" unicode="T" horiz-adv-x="1327" 
d="M862 16v-16h-45q-25 0 -73 3t-80 3t-82 -3t-72 -3h-45v16h2q66 0 87 23q21 22 21 92v1243h-165q-58 0 -85 -12t-65 -59q-88 -111 -229 -383l-15 6l150 532l14 -2q0 -61 78 -61h221q39 0 80 -1t105 -1q61 0 102 1t82 1h219q80 0 80 61l12 2l150 -532l-15 -6
q-153 291 -227 383q-39 47 -67 59q-27 12 -82 12h-166v-1243q0 -69 21 -92t85 -23h4z" />
    <glyph glyph-name="U" unicode="U" horiz-adv-x="1286" 
d="M1110 434q0 -204 -119 -328q-118 -122 -329 -122q-247 0 -372 109q-126 109 -126 345v826q0 68 -22 92q-21 22 -87 22h-2v17h45q22 0 72 -3q49 -3 82 -3t81 3t73 3h45v-17h-5q-64 0 -85 -22q-21 -23 -21 -92v-754q0 -259 86 -378q85 -118 276 -118q172 0 279 115
q106 113 106 305v686q0 257 -184 258h-4v17h47q15 0 66 -3t86 -3q34 0 87 3t66 3h45v-17h-2q-184 0 -184 -258v-686z" />
    <glyph glyph-name="V" unicode="V" horiz-adv-x="1275" 
d="M1071 1116l-332 -938l68 -178q-30 0 -49 1t-45 1q-25 0 -43 -1t-49 -1l-500 1260q-45 118 -141 118h-5v17h54q15 0 72 -3t87 -3q38 0 95 3t69 3h51v-17h-4q-100 0 -100 -67q0 -25 12 -60l416 -1046l324 917q28 88 28 131q0 57 -38 92q-36 33 -111 33v17h24q25 0 88 -3
t91 -3q17 0 76 3t77 3h41v-17q-168 -6 -256 -262z" />
    <glyph glyph-name="W" unicode="W" horiz-adv-x="2013" 
d="M1565 0q-30 0 -49 1t-46 1q-22 0 -40 -1t-50 -1l-372 1090l-293 -910l63 -180q-30 0 -50 1t-46 1q-23 0 -41 -1t-49 -1l-463 1260q-46 118 -143 118v17h51q17 0 71 -3t85 -3q35 0 93 3q59 3 72 3h54v-17q-107 0 -107 -67q0 -32 14 -60l381 -1040l295 915l-45 136
q-39 116 -143 116v17h53q15 0 72 -3t90 -3q35 0 89 3t69 3h51v-17q-105 0 -105 -67q0 -23 13 -60l352 -1030l285 901q30 99 30 131q0 58 -37 92q-36 33 -112 33v17h26q24 0 87 -3t90 -3q18 0 76 3t77 3h41v-17q-177 -6 -256 -262l-295 -932z" />
    <glyph glyph-name="X" unicode="X" horiz-adv-x="1310" 
d="M1307 0h-76q-13 0 -68 3t-90 3t-96 -3t-76 -3h-74v16q107 0 107 60q0 29 -25 71l-303 484l-262 -367q-68 -92 -68 -151q0 -95 125 -97h2v-16h-28q-22 0 -85 3t-89 3q-16 0 -76 -3t-82 -3h-37v16h2q59 1 121 43q58 39 97 86q42 51 100 131l268 375l-383 613
q-72 114 -180 114v17h75q12 0 69 -3t91 -3q35 0 95 3t75 3h76v-17q-109 0 -109 -59q0 -29 27 -72l287 -463l231 346q66 96 66 152q0 94 -123 96h-2v17h26q25 0 86 -3t89 -3q16 0 76 3t81 3h39v-17h-4q-88 -2 -162 -69q-70 -64 -155 -191l-236 -352l395 -635
q73 -115 183 -115v-16z" />
    <glyph glyph-name="Y" unicode="Y" horiz-adv-x="1232" 
d="M721 131q0 -68 22 -91q23 -24 86 -24h2v-16h-45q-22 0 -71 3t-82 3t-81 -3t-73 -3h-45v16h4q63 0 86 24q23 25 23 91v504l-410 639q-39 58 -72 80q-36 24 -90 24v17h68q15 0 66 -3t86 -3t89 3t68 3h74v-17q-96 0 -96 -55q0 -27 20 -63l361 -560l260 430q59 93 59 146
q0 101 -133 102h-2v17h27q24 0 87 -3t89 -3q17 0 77 3t78 3h37v-17h-2q-87 -1 -155 -68q-67 -66 -146 -196l-266 -434v-549z" />
    <glyph glyph-name="Z" unicode="Z" horiz-adv-x="1206" 
d="M1169 446l-192 -512l-12 5q4 28 -13 45q-16 16 -57 16h-850v8l887 1366h-391q-126 0 -195 -76q-81 -90 -246 -331l-14 6l186 487l13 -4q-5 -29 13 -45q17 -16 60 -16h783v-9l-885 -1366h457q67 0 110 16t88 70q98 109 244 347z" />
    <glyph glyph-name="bracketleft" unicode="[" horiz-adv-x="589" 
d="M178 -356v1845q123 -6 357 -6v-19q-58 0 -90 -1t-87 -1q-49 0 -71 -1q-9 0 -27.5 -0.5t-26.5 -1.5q-14 -1 -22 -1q127 -385 127 -893q0 -506 -127 -891q8 0 22 -1t54 -1q45 0 71 -1q14 -1 43 -1.5t44 -0.5q32 -1 90 -1v-18q-234 0 -357 -6z" />
    <glyph glyph-name="backslash" unicode="\" horiz-adv-x="720" 
d="M657 -352l-614 1829l20 6l615 -1829z" />
    <glyph glyph-name="bracketright" unicode="]" horiz-adv-x="589" 
d="M412 1489v-1845q-123 6 -357 6v18q57 0 88 1q15 0 44 0.5t43 1.5q27 1 73 1q39 0 53 1t23 1q-127 385 -127 891q0 508 127 893q-9 0 -23 1q-8 1 -26 1.5t-27 0.5q-22 1 -73 1q-56 0 -87 1t-88 1v19q234 0 357 6z" />
    <glyph glyph-name="asciicircum" unicode="^" horiz-adv-x="923" 
d="M823 657l-18 -8l-344 766l-342 -766l-21 8l355 787h18z" />
    <glyph glyph-name="underscore" unicode="_" horiz-adv-x="927" 
d="M897 -180h-864v20h864v-20z" />
    <glyph glyph-name="grave" unicode="`" horiz-adv-x="497" 
d="M395 1114l-14 -8q-56 78 -145 159q-92 84 -117 119q-15 21 -15 48t20 45t48 18q36 0 59 -35q26 -39 73 -154q48 -117 91 -192z" />
    <glyph glyph-name="a" unicode="a" horiz-adv-x="1038" 
d="M831 -16q-65 0 -98 36q-35 38 -39 97q-157 -133 -323 -133q-125 0 -199 69t-74 191q0 216 328 350l264 106v166q0 77 -19 106t-81 29q-176 0 -316 -204q-41 -58 -77 -58q-25 0 -43 18q-19 19 -19 46q0 48 69 97q71 51 180 85q113 35 222 35q137 0 194 -51q56 -50 56 -152
v-711q0 -73 51 -73t92 80l13 -7q-55 -122 -181 -122zM414 14q132 0 278 123v9q0 12 -1 20t-1 22v494l-229 -94q-110 -46 -144 -123t-34 -209q0 -242 131 -242z" />
    <glyph glyph-name="b" unicode="b" horiz-adv-x="1091" 
d="M1001 502q0 -267 -113 -392q-114 -126 -267 -126q-161 0 -312 133q-134 -73 -145 -137h-12v1288q0 66 -22 90q-21 22 -89 22h-4v15h26q75 0 150 26q77 27 92 62h12v-590q145 127 304 127q153 0 267 -126q113 -125 113 -392zM813 502q0 162 -14 257q-15 101 -45 151
q-31 51 -64 69t-82 18q-144 0 -291 -129v-733q144 -129 291 -129q47 0 82 19q34 19 64 68t45 152q14 95 14 257z" />
    <glyph glyph-name="c" unicode="c" horiz-adv-x="972" 
d="M512 -16q-172 0 -302 140t-130 363q0 245 135 389t317 144q141 0 248 -89t107 -188q0 -29 -19 -50q-18 -19 -47 -19q-28 0 -46 17q-20 18 -21 50q-11 260 -219 260q-128 0 -198 -115q-71 -116 -71 -313q0 -249 90 -385q90 -137 228 -137q213 0 299 254l14 -4
q-46 -152 -146 -235q-98 -82 -239 -82z" />
    <glyph glyph-name="d" unicode="d" horiz-adv-x="1116" 
d="M471 -16q-153 0 -267 127t-114 391t114 391t267 127q158 0 303 -127v375q0 68 -21 90t-89 22h-5v15h25q77 0 152 26q77 27 92 62h12v-1356q0 -64 22 -89q21 -24 89 -24h4v-14h-39q-11 0 -75 2t-83 2q-13 0 -49 -2q-7 0 -15.5 -0.5t-13 -1t-6.5 -0.5v111
q-146 -127 -303 -127zM483 6q144 0 291 129v733q-147 129 -291 129q-49 0 -82 -18q-32 -17 -63 -69q-30 -50 -45 -151q-14 -95 -14 -257t14 -257q15 -103 45 -152q30 -50 63 -68q35 -19 82 -19z" />
    <glyph glyph-name="e" unicode="e" horiz-adv-x="989" 
d="M516 -16q-172 0 -304 139t-132 362q0 243 135 389t315 146q152 0 265 -102q112 -102 106 -273h-633q-2 -36 -2 -80q0 -223 88 -368q89 -146 234 -146q215 0 301 254l14 -4q-100 -317 -387 -317zM737 664q-6 340 -217 340q-106 0 -171 -92q-64 -91 -79 -248h467z" />
    <glyph glyph-name="f" unicode="f" horiz-adv-x="628" 
d="M690 1307q-22 0 -77 14t-93 14q-101 0 -138 -58q-38 -59 -38 -208v-65h305v-19h-305v-858q0 -64 30 -88q31 -25 99 -25h33v-14h-62q-30 0 -87 3t-97 3q-34 0 -84 -3q-49 -3 -74 -3h-39v14h5q67 0 88 23q20 21 20 90v702q0 96 12 156h-149v19h154q29 119 96 204
q80 104 187 163q111 61 206 61q78 0 78 -62q0 -63 -70 -63z" />
    <glyph glyph-name="g" unicode="g" horiz-adv-x="1062" 
d="M504 -479q-215 0 -344 65q-131 66 -131 154q0 144 309 221q-246 30 -246 160q0 70 67 117q69 49 177 88q-100 40 -160 126q-59 84 -59 201q0 160 110 263q112 104 279 104q132 0 229 -68q108 152 221 152q42 0 64 -18t22 -46q0 -26 -18 -44q-17 -17 -45 -17q-30 0 -65 17
q-38 18 -66 18q-45 0 -98 -72q145 -99 145 -287q0 -160 -111 -262t-278 -102q-81 0 -150 24q-79 -27 -116 -53q-39 -27 -39 -65q0 -71 200 -93l254 -28q355 -39 355 -262q0 -94 -75 -163q-77 -70 -186 -100q-111 -30 -245 -30zM506 307q217 0 217 348q0 349 -217 349
t-217 -349q0 -348 217 -348zM508 -463q178 0 285 58q104 56 104 153q0 138 -281 176l-241 31q-217 -61 -217 -209q0 -88 91 -148q93 -61 259 -61z" />
    <glyph glyph-name="h" unicode="h" horiz-adv-x="1120" 
d="M948 872v-745q0 -67 21 -90t88 -23h4v-14h-39q-24 0 -74 3t-84 3t-84 -3t-75 -3h-37v14h2q69 0 90 23q20 21 20 90v750q0 94 -71 94q-35 0 -162 -45l-203 -78v-721q0 -67 21 -90t88 -23h4v-14h-39q-24 0 -74 3t-84 3t-84 -3q-49 -3 -76 -3h-37v14h3q69 0 90 23
q20 21 20 90v1141q0 69 -20 90q-21 22 -90 22h-3v15h25q75 0 150 26q77 27 92 62h14v-617l219 86q175 68 254 68q131 0 131 -148z" />
    <glyph glyph-name="i" unicode="i" horiz-adv-x="534" 
d="M471 0h-37q-26 0 -76 3t-84 3t-84 -3t-73 -3h-39v14h4q67 0 88 23q20 21 20 90v682q0 67 -20 88q-21 23 -88 23h-4v16h24q73 0 151 26q77 26 93 60h12v-895q0 -67 21 -90t90 -23h2v-14zM272 1192q-43 0 -76 31q-32 30 -32 77q0 50 32 80q33 31 76 31q46 0 80 -31
q33 -30 33 -80q0 -47 -33 -77q-34 -31 -80 -31z" />
    <glyph glyph-name="j" unicode="j" horiz-adv-x="507" 
d="M-61 -483q-35 0 -56 17q-22 18 -22 46t18 45q19 17 49 17q28 0 83 -20q53 -19 87 -19q50 0 71 37q21 38 21 120v1049q0 65 -21 88t-89 23h-4v16h24q72 0 152 26q77 25 92 60h12v-936q0 -220 -108 -383q-128 -186 -309 -186zM272 1192q-45 0 -78 31q-32 30 -32 77
q0 50 32 80q33 31 78 31q46 0 79 -31q32 -30 32 -80q0 -47 -32 -77q-33 -31 -79 -31z" />
    <glyph glyph-name="k" unicode="k" horiz-adv-x="1099" 
d="M764 797l-127 -135l319 -545q33 -60 63 -81q31 -22 83 -22h2v-14h-35q-14 0 -65 3t-91 3q-37 0 -86 -3t-65 -3h-55v14h4q86 0 86 41q0 12 -17 41l-260 445l-176 -181v-233q0 -67 21 -90t88 -23h4v-14h-39q-24 0 -74 3t-84 3t-84 -3q-49 -3 -76 -3h-37v14h3q69 0 90 23
q20 21 20 90v1141q0 69 -20 90q-21 22 -90 22h-3v15h25q75 0 150 26q77 27 92 62h14v-1096l166 170l-61 105h163l136 143q67 71 67 117q0 67 -98 67h-6v15h28q8 0 70 -4q47 -3 84 -3t84 3q62 4 70 4h32v-15h-4q-127 0 -311 -192z" />
    <glyph glyph-name="l" unicode="l" horiz-adv-x="520" 
d="M344 127q0 -67 21 -90t88 -23h4v-14h-39q-24 0 -74 3t-84 3t-84 -3q-49 -3 -76 -3h-37v14h3q69 0 90 23q20 21 20 90v1141q0 69 -20 90q-21 22 -90 22h-3v15h25q75 0 150 26q77 27 92 62h14v-1356z" />
    <glyph glyph-name="m" unicode="m" horiz-adv-x="1699" 
d="M1640 0h-36q-26 0 -76 3t-84 3t-84 -3t-74 -3h-39v14h4q67 0 88 23t21 90v750q0 94 -70 94q-37 0 -160 -49l-186 -74v-721q0 -67 21 -90t88 -23h4v-14h-39q-27 0 -75 3t-83 3q-34 0 -84 -3t-76 -3h-36v14h2q69 0 90 23q20 21 20 90v750q0 94 -71 94q-37 0 -160 -49
l-187 -74v-721q0 -67 21 -90t90 -23h2v-14h-37q-26 0 -76 3t-84 3t-84 -3t-73 -3h-39v14h4q67 0 88 23q20 21 20 90v682q0 67 -20 88q-21 23 -88 23h-4v16h24q73 0 151 26q77 26 93 60h12v-154l205 80q174 72 250 72q129 0 129 -152l205 80q179 72 250 72q131 0 131 -148
v-745q0 -69 20 -90q21 -23 90 -23h2v-14z" />
    <glyph glyph-name="n" unicode="n" horiz-adv-x="1134" 
d="M1075 0h-37q-26 0 -75 3t-84 3t-84 -3t-74 -3h-39v14h4q67 0 88 23t21 90v750q0 94 -70 94q-37 0 -164 -45l-203 -78v-721q0 -67 21 -90t90 -23h2v-14h-37q-26 0 -76 3t-84 3t-84 -3t-73 -3h-39v14h4q67 0 88 23q20 21 20 90v682q0 67 -20 88q-21 23 -88 23h-4v16h24
q73 0 151 26q77 26 93 60h12v-156l222 86q175 68 251 68q132 0 132 -148v-745q0 -69 20 -90q21 -23 90 -23h2v-14z" />
    <glyph glyph-name="o" unicode="o" horiz-adv-x="1060" 
d="M530 -16q-186 0 -318 148t-132 370q0 220 132 369t318 149q187 0 319 -149t132 -369q0 -222 -132 -370t-319 -148zM530 0q131 0 197 106t66 396q0 288 -66 395t-197 107q-130 0 -196 -107t-66 -395q0 -290 66 -396t196 -106z" />
    <glyph glyph-name="p" unicode="p" horiz-adv-x="1116" 
d="M344 111v-447q0 -64 30 -88q31 -25 101 -25h31v-14h-62q-30 0 -87 3t-97 3q-34 0 -84 -3q-49 -3 -76 -3h-37v14h3q69 0 90 23q20 21 20 90v1145q0 67 -20 88q-21 23 -90 23h-3v16h25q70 0 150 26q77 25 92 60h14v-129q140 127 303 127q153 0 267 -127t114 -391t-114 -391
t-267 -127q-157 0 -303 127zM635 6q45 0 81 19q32 17 63 68q29 47 44 152q15 102 15 257t-15 257q-15 104 -44 151q-32 53 -63 69q-34 18 -81 18q-144 0 -291 -129v-733q144 -129 291 -129z" />
    <glyph glyph-name="q" unicode="q" horiz-adv-x="1091" 
d="M90 502q0 136 35 243q35 106 91 162q59 59 121 85q67 28 134 28q160 0 311 -133q134 74 146 137h12v-1360q0 -64 22 -89q21 -24 89 -24h4v-14h-39q-32 0 -75 4t-83 4t-84 -4t-76 -4h-69v14h30q68 0 92 24q23 23 23 89v447q-145 -127 -303 -127q-69 0 -134 27
q-62 26 -121 85q-56 56 -91 162q-35 107 -35 244zM279 502q0 -162 14 -257q15 -103 45 -152q30 -50 63 -68q35 -19 82 -19q147 0 291 129v733q-144 129 -291 129q-49 0 -82 -18q-32 -17 -63 -69q-30 -50 -45 -151q-14 -95 -14 -257z" />
    <glyph glyph-name="r" unicode="r" horiz-adv-x="749" 
d="M520 0h-63q-30 0 -87 3t-98 3q-35 0 -83 -3t-74 -3h-39v14h4q68 0 89 24t21 89v682q0 65 -21 88t-89 23h-4v16h24q73 0 151 26q77 26 93 60h12v-242q74 113 146 176q69 64 155 64q41 0 66 -19t25 -47q0 -67 -89 -67q-24 0 -67 13t-70 13q-65 0 -166 -161v-625
q0 -63 31 -88t102 -25h31v-14z" />
    <glyph glyph-name="s" unicode="s" horiz-adv-x="927" 
d="M502 -16q-64 0 -144 20q-84 21 -118 21q-21 0 -37 -13q-14 -12 -13 -32l-12 -3l-100 365l12 6q164 -348 414 -348q113 0 175 56t62 143q0 141 -231 229l-143 53q-234 89 -234 283q0 114 78 185q79 71 205 71q52 0 124 -18q68 -17 101 -17q25 0 40 12t13 33l13 2l98 -346
l-12 -6q-147 324 -377 324q-95 0 -146 -46q-49 -45 -49 -108q0 -67 52 -116q53 -50 171 -95l140 -55q127 -50 190 -118q62 -67 62 -171q0 -142 -96 -227q-94 -84 -238 -84z" />
    <glyph glyph-name="t" unicode="t" horiz-adv-x="591" 
d="M346 -16q-75 0 -124 43q-50 44 -50 147v811h-139v19h139v159q73 0 114 38q40 37 40 99v3h14v-299h207v-19h-207v-833q0 -113 78 -113q32 0 68 30q37 31 57 74l12 -6q-27 -63 -81 -108t-128 -45z" />
    <glyph glyph-name="u" unicode="u" horiz-adv-x="1107" 
d="M1047 0h-39q-11 0 -75 2t-83 2q-13 0 -49 -2q-7 0 -15.5 -0.5t-13 -1t-6.5 -0.5v135l-211 -84q-174 -67 -254 -67q-129 0 -129 147v678q0 65 -21 88t-90 23h-4v16h25q71 0 151 26q78 26 93 60h12v-895q0 -94 72 -94q50 0 161 45l195 78v653q0 64 -22 88q-21 23 -89 23h-4
v16h25q71 0 151 26q78 26 93 60h12v-895q0 -65 21 -89t89 -24h5v-14z" />
    <glyph glyph-name="v" unicode="v" horiz-adv-x="968" 
d="M571 166l60 -166q-30 0 -49 1t-41 1q-24 0 -43 -1t-45 -1l-328 881q-22 61 -52 85q-29 23 -85 23v15h51l64 -4q48 -3 85 -3q38 0 84 3l62 4h53v-15q-96 0 -96 -53q0 -17 6 -35l262 -708l215 600q17 46 17 90q0 106 -138 106v15h21q8 0 74 -4q49 -3 79 -3q33 0 82 3
q66 4 68 4h33v-15q-147 -6 -219 -207z" />
    <glyph glyph-name="w" unicode="w" horiz-adv-x="1554" 
d="M1221 0q-33 0 -51 1t-40 1q-24 0 -43 -1t-47 -1l-270 737l-199 -571l60 -166q-30 0 -48 1t-40 1q-24 0 -44 -1t-46 -1l-328 881q-22 61 -52 85q-29 23 -85 23v15h51l64 -4q48 -3 85 -3q38 0 84 3l62 4h53v-15q-96 0 -96 -53q0 -17 6 -35l262 -708l201 571l-41 117
q-22 61 -52 85q-29 23 -85 23v15h51q1 0 63 -4q46 -3 84 -3q37 0 85 3q12 1 27 2t23.5 1.5t12.5 0.5h53v-15q-96 0 -96 -53q0 -18 6 -35l258 -708l211 598q18 51 18 92q0 106 -139 106v15h21q10 0 76 -4q50 -3 79 -3q31 0 80 3q66 4 70 4h32v-15q-149 -6 -221 -209
l-217 -614z" />
    <glyph glyph-name="x" unicode="x" horiz-adv-x="1003" 
d="M997 0h-57q-16 0 -64 3t-85 3t-84 -3t-62 -3h-53v14q92 0 92 47q0 18 -14 39l-219 340l-166 -243q-41 -61 -41 -103q0 -39 23 -59q24 -21 89 -21h2v-14h-22q-24 0 -74 3t-78 3t-75 -3t-64 -3h-39v14h2q133 1 258 191l170 250l-260 411q-79 123 -158 123v15h56
q5 0 13.5 -0.5t24 -1.5t27.5 -2q49 -3 86 -3t83 3q12 1 26.5 2t22.5 1.5t12 0.5h53v-15q-90 0 -90 -47q0 -21 12 -39l207 -319l147 223q41 61 41 102q0 40 -23 60t-91 20h-2v15h22q6 0 72 -4q50 -3 80 -3q28 0 76 3q64 4 65 4h37v-15h-2q-134 -2 -258 -190l-152 -232
l277 -430q78 -123 157 -123v-14z" />
    <glyph glyph-name="y" unicode="y" horiz-adv-x="968" 
d="M645 0q-28 0 -46 1t-42 1q-17 0 -35 -1t-33 -1l-43 -98q-26 -60 -45 -103q-9 -21 -39 -82q-27 -56 -41 -74q-6 -7 -43 -53q-26 -31 -54 -43q-16 -7 -60 -20q-33 -10 -78 -10q-43 0 -66 17q-24 18 -24 46t18 45q19 17 47 17t83 -20q53 -19 77 -19q52 0 92 62
q41 63 117 243l39 92l-344 883q-24 61 -54 84q-29 22 -83 22v15h51l64 -4q48 -3 85 -3q38 0 84 3l62 4h53v-15q-96 0 -96 -53q0 -17 6 -35l268 -696l209 588q17 51 17 90q0 106 -138 106v15h21q8 0 74 -4q49 -3 79 -3q33 0 82 3q66 4 68 4h33v-15q-146 -6 -219 -207
l-216 -606z" />
    <glyph glyph-name="z" unicode="z" horiz-adv-x="927" 
d="M750 -45l-13 2q0 43 -82 43h-596v8l603 979h-228q-70 0 -105 -13q-37 -14 -71 -54q-92 -107 -180 -238l-12 6l137 361l12 -2q0 -43 80 -43h559v-9l-604 -979h260q78 0 121 19q41 18 90 78q92 116 162 221l12 -6z" />
    <glyph glyph-name="braceleft" unicode="{" horiz-adv-x="626" 
d="M373 -127q0 -98 42 -140q43 -43 167 -73l-4 -16q-186 45 -266 109q-81 65 -81 212q0 62 11 194q10 120 10 158q0 118 -33 175q-33 56 -135 61v20q102 4 135 62q33 57 33 174q0 39 -10 159q-11 132 -11 193q0 147 81 212q82 65 266 110l4 -17q-125 -30 -167 -72t-42 -141
q0 -49 10 -205t10 -210q0 -123 -55 -191q-55 -69 -203 -84q148 -15 203 -84q55 -68 55 -190q0 -54 -10 -210t-10 -206z" />
    <glyph glyph-name="bar" unicode="|" horiz-adv-x="430" 
d="M225 -444h-20v2021h20v-2021z" />
    <glyph glyph-name="braceright" unicode="}" horiz-adv-x="626" 
d="M254 -127q0 50 -10 206q-11 171 -11 210q0 121 57 190t204 84q-147 15 -204 84t-57 191q0 39 11 210q10 156 10 205q0 99 -42 141t-167 72l4 17q185 -45 267 -110q81 -65 81 -212q0 -73 -10 -193t-10 -159q0 -117 33 -174q33 -58 135 -62v-20q-102 -5 -135 -61
q-33 -57 -33 -175q0 -38 10 -158t10 -194q0 -147 -81 -212q-80 -64 -267 -109l-4 16q124 30 167 73q42 42 42 140z" />
    <glyph glyph-name="asciitilde" unicode="~" horiz-adv-x="1093" 
d="M778 575q-86 0 -236 65t-229 65q-122 0 -200 -119l-19 10q28 46 88 89q56 40 131 40q89 0 237 -63q151 -64 228 -64q125 0 203 119l18 -10q-29 -52 -88 -92t-133 -40z" />
    <glyph glyph-name="uni00A0" unicode="&#xa0;" horiz-adv-x="385" 
 />
    <glyph glyph-name="exclamdown" unicode="&#xa1;" horiz-adv-x="505" 
d="M242 559h20v-78q0 -130 43 -400t43 -372q0 -115 -96 -115q-43 0 -69 31q-25 29 -25 84q0 97 42 371t42 401v78zM252 1020q50 0 84 -34q35 -35 35 -83q0 -49 -36 -84q-37 -35 -83 -35t-83 35q-36 35 -36 84q0 48 35 83q34 34 84 34z" />
    <glyph glyph-name="cent" unicode="&#xa2;" horiz-adv-x="1034" 
d="M541 -16q-108 0 -199 55l-111 -332l-18 6l111 336q-98 63 -157 177q-58 113 -58 261q0 245 135 389t317 144q39 0 82 -10l94 282l19 -6l-94 -280q106 -28 180 -107q73 -77 73 -156q0 -31 -18 -50t-47 -19q-28 0 -46 17q-21 19 -22 50q-8 197 -127 244l-266 -803
q86 -131 223 -131q213 0 299 254l15 -4q-46 -151 -147 -235q-98 -82 -238 -82zM295 573q0 -225 80 -370l262 788q-33 10 -74 10q-127 0 -197 -115q-71 -116 -71 -313z" />
    <glyph glyph-name="sterling" unicode="&#xa3;" horiz-adv-x="1208" 
d="M883 -16q-59 0 -131 28q-76 30 -106 48q-63 39 -124 77q-106 -157 -284 -157q-74 0 -122 38q-50 39 -50 109q0 73 59 117q60 45 158 45q83 0 227 -51q4 40 4 65q-1 144 -98 340h-260v23h250q-70 141 -96 215q-31 87 -31 180q0 157 122 255q123 99 273 99q140 0 264 -81
q125 -81 125 -191q0 -32 -21 -53t-49 -21q-38 0 -57 25t-35 90q-27 114 -79 163q-53 50 -146 50q-104 0 -163 -66q-58 -65 -58 -168q0 -57 12 -125q10 -57 28 -116q11 -36 42 -131q22 -68 38 -125h353v-23h-348q32 -119 32 -207q0 -112 -41 -215q2 -1 21 -7.5t37 -12.5
q57 -21 61 -22q5 -1 12.5 -3.5t20 -6.5t22.5 -7q51 -16 63 -18l54 -9q27 -4 58 -4q163 0 163 176q0 101 -57 180l14 13q36 -50 58 -122q20 -67 20 -122q0 -126 -64 -199t-171 -73zM238 0q80 0 150 41q67 40 101 119q-157 94 -253 94q-63 0 -107 -35q-43 -34 -43 -92
q0 -57 44 -92t108 -35z" />
    <glyph glyph-name="currency" unicode="&#xa4;" horiz-adv-x="1361" 
d="M678 227q-204 0 -340 121l-227 -225l-15 14l228 228q-131 131 -131 340q0 206 133 339l-228 232l17 16l229 -231q133 121 334 121q206 0 342 -125l231 231l15 -14l-232 -230q131 -136 131 -339q0 -209 -131 -340l228 -232l-15 -14l-229 229q-136 -121 -340 -121zM678 248
q204 0 335 124q132 124 132 333q0 207 -133 331q-134 125 -334 125q-198 0 -331 -125q-132 -124 -132 -331q0 -209 132 -333q131 -124 331 -124z" />
    <glyph glyph-name="yen" unicode="&#xa5;" horiz-adv-x="1251" 
d="M829 0h-38q-25 0 -75 3t-85 3t-85 -3q-49 -3 -75 -3h-39v16h2q68 0 89 24q22 25 22 93v193h-309v22h309v187h-309v20h309v92l-377 627q-61 104 -162 104v17h68q14 0 65 -3t86 -3q33 0 88 3t72 3h74v-17q-97 0 -97 -55q0 -25 21 -63l324 -545l227 415q59 103 59 150
q0 98 -131 98h-2v17h27q23 0 86 -3t90 -3q16 0 76 3t78 3h36v-17h-2q-157 -1 -301 -264l-231 -420v-139h307v-20h-307v-187h307v-22h-307v-193q0 -69 21 -93t85 -24h4v-16z" />
    <glyph glyph-name="brokenbar" unicode="&#xa6;" horiz-adv-x="430" 
d="M225 -444h-20v895h20v-895zM225 698h-20v879h20v-879z" />
    <glyph glyph-name="section" unicode="&#xa7;" horiz-adv-x="1064" 
d="M371 -317q-172 0 -172 90q0 30 20 50q21 21 55 21q33 0 116 -44t149 -44q76 0 120 44q43 43 43 118q0 15 -3 30q-4 22 -5 27q-1 11 -11 29q-7 12 -13 27q-4 9 -18 28q-5 6 -11 15.5t-8 11.5q-1 1 -5 6.5t-9 11.5l-10 12q-5 5 -10 11.5t-8 10t-5 5.5q-9 9 -28 32t-28 32
l-249 285q-91 103 -125 168q-35 67 -35 143q0 174 151 297q21 140 142 225q122 86 280 86q172 0 172 -88q0 -30 -21 -51t-57 -21q-34 0 -116 43t-146 43q-76 0 -120 -44t-44 -117q0 -48 27 -100q28 -55 52 -83q30 -35 91 -106l250 -285q91 -101 125 -167q35 -67 35 -144
q0 -170 -151 -297q-18 -137 -140 -224t-280 -87zM862 166q0 69 -35 125q-35 55 -135 168l-264 299q-81 89 -118 161q-37 70 -38 156q-71 -65 -71 -145q0 -50 22 -97t50 -81q5 -7 100 -115l262 -301q82 -91 118 -159q39 -72 40 -159q69 67 69 148z" />
    <glyph glyph-name="dieresis" unicode="&#xa8;" horiz-adv-x="835" 
d="M324 1286q0 -44 -29 -71t-72 -27q-41 0 -68 27q-28 28 -28 71q0 40 28 70q27 28 68 28q42 0 71 -28q30 -28 30 -70zM715 1286q0 -44 -30 -71t-71 -27q-40 0 -69 27t-29 71q0 41 29 70q28 28 69 28q42 0 71 -28q30 -28 30 -70z" />
    <glyph glyph-name="copyright" unicode="&#xa9;" horiz-adv-x="1626" 
d="M813 -18q-302 0 -505 196q-204 196 -204 518q0 319 204 517t505 198q297 0 504 -199q205 -198 205 -516q0 -322 -205 -518t-504 -196zM813 2q293 0 490 191q196 190 196 503q0 310 -196 502q-198 193 -490 193q-291 0 -490 -193q-198 -192 -198 -502q0 -312 197 -503
t491 -191zM815 260q-160 0 -275 124q-116 125 -116 306q0 210 119 321t260 111q45 0 97 -11t73 -11q26 0 37.5 11.5t9.5 33.5l12 4l123 -293l-14 -8q-93 127 -174 191q-79 63 -166 63q-103 0 -170 -82q-68 -83 -68 -242q0 -186 96 -309t234 -123q82 0 156 41q71 39 116 121
l17 -8q-45 -101 -146 -170q-102 -70 -221 -70z" />
    <glyph glyph-name="ordfeminine" unicode="&#xaa;" horiz-adv-x="784" 
d="M575 739q-39 0 -67 22q-27 21 -33 58q-97 -80 -192 -80q-86 0 -136 47q-49 46 -49 129q0 136 197 220l176 73v101q0 51 -11 67q-13 19 -52 19q-103 0 -187 -127q-24 -45 -59 -45q-19 0 -32 14t-13 33q0 47 95 95t206 48q180 0 180 -151v-414q0 -62 37 -62q22 0 39 35
l12 -4q-21 -78 -111 -78zM328 770q58 0 145 70q0 14 -1 26t-1 31v291l-127 -53q-68 -29 -92 -74q-25 -47 -25 -123q0 -168 101 -168zM676 596h-572v18h572v-18z" />
    <glyph glyph-name="guillemotleft" unicode="&#xab;" horiz-adv-x="1050" 
d="M575 145l-10 -10q-52 53 -166 148q-94 78 -199 159q-82 63 -102 76q20 13 102 76q87 67 199 160q119 99 166 147l10 -10q-121 -139 -268 -373q147 -234 268 -373zM918 145l-13 -10q-52 53 -166 148q-94 78 -199 159q-82 63 -102 76q20 13 102 76q87 67 199 160
q119 99 166 147l13 -10q-108 -125 -269 -373q161 -248 269 -373z" />
    <glyph glyph-name="logicalnot" unicode="&#xac;" horiz-adv-x="1040" 
d="M946 219h-20v436h-832v21h852v-457z" />
    <glyph glyph-name="uni00AD" unicode="&#xad;" horiz-adv-x="626" 
d="M498 508h-369v96h369v-96z" />
    <glyph glyph-name="registered" unicode="&#xae;" horiz-adv-x="1069" 
d="M535 623q-184 0 -307 119q-124 120 -124 311q0 190 124 310t307 120q181 0 306 -120q124 -120 124 -310q0 -191 -124 -311q-123 -119 -306 -119zM535 643q171 0 289 114t118 296t-118 296q-117 113 -289 113q-174 0 -291 -113q-119 -114 -119 -296t119 -296
q118 -114 291 -114zM799 807q-28 0 -46 1t-42 1q-15 0 -28 -1t-28 -1l-110 223h-90v-168q0 -26 11 -33q13 -8 48 -8v-14h-33q-17 0 -32 1t-35 1t-34 -1t-32 -1h-33v14q36 0 47 8t11 33v379q0 25 -12 33q-13 8 -46 8v14h33q18 0 32 -1t34 -1t35 1t32 1h90q84 0 130 -34
q47 -35 47 -99q0 -57 -41 -95t-134 -38h-10q18 -35 64 -35h32l52 -108q20 -42 37 -54q16 -12 51 -12v-14zM666 1163q0 58 -22 88q-21 29 -79 29h-110v-231h114q97 0 97 114z" />
    <glyph glyph-name="macron" unicode="&#xaf;" horiz-adv-x="741" 
d="M618 1243h-497v47h497v-47z" />
    <glyph glyph-name="degree" unicode="&#xb0;" horiz-adv-x="647" 
d="M563 1174q0 -110 -69 -176t-170 -66t-170 66q-70 67 -70 176q0 108 70 175q69 66 170 66t170 -66t69 -175zM541 1174q0 97 -64 159t-153 62q-90 0 -155 -62t-65 -159q0 -98 65 -160t155 -62q89 0 153 62t64 160z" />
    <glyph glyph-name="plusminus" unicode="&#xb1;" horiz-adv-x="1007" 
d="M94 758v20h398v338h22v-338h399v-20h-399v-346h-22v346h-398zM94 227v21h819v-21h-819z" />
    <glyph glyph-name="twosuperior" unicode="&#xb2;" 
d="M498 1268q0 -44 -30 -91t-60 -75q-28 -27 -97 -80q-50 -38 -92 -76l-35 -31h322l-37 -170l-12 3q0 16 -2 32q-2 12 -17 23q-14 10 -43 10h-325v8l120 123q175 175 175 336q0 117 -68 117q-63 0 -92 -103q-16 -59 -58 -59q-49 0 -49 47t59 88t150 41q85 0 137 -37
q54 -39 54 -106z" />
    <glyph glyph-name="threesuperior" unicode="&#xb3;" 
d="M528 985q0 -80 -67 -134t-158 -54q-105 0 -169 45t-64 108q0 24 14 38q16 16 35 16q44 0 59 -58q15 -73 42 -103t79 -30q54 0 75 39t21 129q0 84 -14 115q-15 32 -45 32q-17 0 -41 -12l-70 -33l-6 17l82 39q59 28 59 143t-67 115q-61 0 -90 -105q-17 -57 -60 -57
q-49 0 -49 47q0 45 59 87q58 42 146 42q83 0 135 -32q51 -31 51 -89q0 -45 -41 -84q-40 -38 -106 -61q73 0 132 -44q58 -43 58 -116z" />
    <glyph glyph-name="acute" unicode="&#xb4;" horiz-adv-x="497" 
d="M115 1106l-13 8q47 83 91 191q46 112 73 155q23 35 60 35q28 0 48 -18q19 -18 19 -45q0 -26 -16 -48q-24 -33 -116 -119q-90 -84 -146 -159z" />
    <glyph glyph-name="mu" unicode="&#xb5;" horiz-adv-x="1107" 
d="M1047 0h-39q-11 0 -75 2t-83 2q-13 0 -49 -2q-7 0 -15.5 -0.5t-13 -1t-6.5 -0.5v135l-211 -84q-174 -67 -252 -67q-87 0 -115 55q10 -121 50 -260q38 -133 38 -166q0 -47 -23 -71q-24 -25 -63 -25q-36 0 -60 25q-24 26 -24 71q0 26 33 185t33 286v725q0 65 -21 88t-90 23
h-4v16h25q71 0 151 26q78 26 93 60h12v-895q0 -94 72 -94q50 0 161 45l195 78v653q0 64 -22 88q-21 23 -89 23h-4v16h25q71 0 151 26q78 26 93 60h12v-895q0 -65 21 -89t89 -24h5v-14z" />
    <glyph glyph-name="paragraph" unicode="&#xb6;" horiz-adv-x="1146" 
d="M848 -463h-23v463h-172q-243 0 -396 175t-153 523t152 523q152 174 397 174h391v-21h-196v-1354h196v-20h-196v-463zM664 20h161v1354h-161v-1354z" />
    <glyph glyph-name="periodcentered" unicode="&#xb7;" horiz-adv-x="524" 
d="M260 590q-50 0 -84 34q-35 35 -35 83q0 49 36 84q35 34 83 34q50 0 84 -34q35 -35 35 -84q0 -48 -35 -83q-34 -34 -84 -34z" />
    <glyph glyph-name="cedilla" unicode="&#xb8;" horiz-adv-x="600" 
d="M496 -240q0 -102 -123 -180q-121 -77 -269 -92l-2 14q130 18 212 83q81 65 81 136q0 82 -104 82q-69 0 -113 -22l-6 6l182 213h11l-70 -119q19 4 43 4q72 0 114 -33q44 -35 44 -92z" />
    <glyph glyph-name="onesuperior" unicode="&#xb9;" 
d="M463 813h-25q-22 0 -58 3t-69 3q-32 0 -68 -3t-59 -3h-51v14h35q49 0 65 21q17 22 17 82v289q0 47 -33 47q-6 0 -74 -31l-6 12l23 13q65 34 127 87q59 51 75 85h11v-502q0 -61 14 -81q16 -22 59 -22h17v-14z" />
    <glyph glyph-name="ordmasculine" unicode="&#xba;" horiz-adv-x="792" 
d="M393 756q81 0 119 68q39 69 39 249q0 182 -39 251t-119 69q-77 0 -115 -69q-38 -70 -38 -251q0 -180 39 -249q38 -68 114 -68zM393 737q-117 0 -207 96q-88 94 -88 240q0 149 87 243q87 95 208 95q123 0 212 -95t89 -243q0 -145 -89 -240q-90 -96 -212 -96zM680 596h-571
v18h571v-18z" />
    <glyph glyph-name="guillemotright" unicode="&#xbb;" horiz-adv-x="1050" 
d="M143 135l-10 10q85 98 268 373q-183 275 -268 373l10 10q47 -48 166 -147q85 -70 201 -160q82 -63 102 -76q-20 -13 -102 -76q-134 -103 -201 -159q-114 -95 -166 -148zM485 135l-10 10q85 98 268 373q-162 251 -268 373l10 10q47 -48 166 -147q98 -82 200 -160
q87 -67 101 -76q-14 -9 -101 -76q-119 -92 -200 -159q-114 -95 -166 -148z" />
    <glyph glyph-name="onequarter" unicode="&#xbc;" horiz-adv-x="800" 
d="M92 709h619v-19h-619v19zM559 813h-24q-23 0 -59 3t-68 3q-33 0 -69 -3t-58 -3h-52v14h35q50 0 66 21q16 20 16 82v289q0 47 -33 47q-3 0 -73 -31l-7 12l23 13q65 34 127 87q61 52 76 85h10v-502q0 -61 14 -81q16 -22 60 -22h16v-14zM590 0h-31q-13 0 -43 3t-65 3
q-36 0 -66 -3t-43 -3h-59v14h28q45 0 62 21q16 20 16 82v41h-260v10l274 414q13 0 25 -1t29 -1q14 0 26 1t29 1v-408h6q60 0 133 143l11 -2l-35 -157h-115v-41q0 -62 14 -82q15 -21 60 -21h4v-14zM389 174v354l-231 -354h231z" />
    <glyph glyph-name="onehalf" unicode="&#xbd;" horiz-adv-x="800" 
d="M92 709h619v-19h-619v19zM586 455q0 -44 -30 -91q-30 -46 -60 -75q-28 -27 -97 -80q-50 -38 -92 -76l-35 -31h322l-37 -170l-12 2q0 17 -2 33q-2 12 -17 23q-14 10 -43 10h-325v8l121 123q174 174 174 336q0 117 -68 117q-63 0 -92 -103q-16 -59 -57 -59q-50 0 -50 47
t59 88t150 41q85 0 137 -37q54 -39 54 -106zM559 813h-24q-23 0 -59 3t-68 3q-33 0 -69 -3t-58 -3h-52v14h35q50 0 66 21q16 20 16 82v289q0 47 -33 47q-3 0 -73 -31l-7 12l23 13q65 34 127 87q61 52 76 85h10v-502q0 -61 14 -81q16 -22 60 -22h16v-14z" />
    <glyph glyph-name="threequarters" unicode="&#xbe;" horiz-adv-x="800" 
d="M92 709h619v-19h-619v19zM635 985q0 -80 -68 -134q-67 -54 -157 -54q-104 0 -169 45t-65 108q0 24 14 38q16 16 35 16q45 0 60 -58q15 -73 42 -103t79 -30q53 0 74 39q22 41 22 129q0 82 -15 115q-15 32 -45 32q-17 0 -41 -12l-69 -33l-6 17l82 39q59 28 59 143t-68 115
q-61 0 -90 -105q-17 -57 -59 -57q-49 0 -49 47q0 45 58 87q59 42 147 42q83 0 135 -32q51 -31 51 -89q0 -45 -41 -84q-39 -38 -107 -61q74 0 133 -44q58 -43 58 -116zM590 0h-31q-13 0 -43 3t-65 3q-36 0 -66 -3t-43 -3h-59v14h28q45 0 62 21q16 20 16 82v41h-260v10
l274 414q13 0 25 -1t29 -1q14 0 26 1t29 1v-408h6q60 0 133 143l10 -2l-34 -157h-115v-41q0 -62 14 -82q15 -21 60 -21h4v-14zM389 174v354l-231 -354h231z" />
    <glyph glyph-name="questiondown" unicode="&#xbf;" horiz-adv-x="722" 
d="M418 559h20v-412q-138 -27 -216 -107q-79 -80 -79 -169q0 -68 50 -115t135 -47q48 0 119 31t96 31q35 0 56 -24q22 -25 22 -58q0 -95 -140 -95q-168 0 -277 109q-108 108 -108 264q0 121 81 217q82 97 241 148v227zM430 1020q50 0 84 -34q35 -35 35 -83t-35 -83
q-34 -34 -84 -34t-84 34q-35 35 -35 83t35 83q34 34 84 34z" />
    <glyph glyph-name="Agrave" unicode="&#xc0;" horiz-adv-x="1325" 
d="M1354 0h-51q-17 0 -72 3t-86 3q-37 0 -94 -3t-72 -3h-53v16q104 0 104 70q0 19 -16 61l-101 238h-643l-47 -119q-28 -72 -28 -127t37 -89t112 -34v-16h-25q-25 0 -88 3t-90 3q-17 0 -76 -3t-79 -3h-41v16q81 4 143 65q63 62 115 195l368 941l-73 178q31 0 52 -1t48 -1
q28 0 46 1t44 1l520 -1258q27 -67 61 -93q36 -28 85 -28v-16zM584 1192l-305 -784h626zM743 1501l-14 -8q-56 78 -145 159q-90 82 -117 120q-14 20 -14 47t19 45q20 18 48 18q37 0 60 -35q24 -35 72 -154q48 -117 91 -192z" />
    <glyph glyph-name="Aacute" unicode="&#xc1;" horiz-adv-x="1325" 
d="M1354 0h-51q-17 0 -72 3t-86 3q-37 0 -94 -3t-72 -3h-53v16q104 0 104 70q0 19 -16 61l-101 238h-643l-47 -119q-28 -72 -28 -127t37 -89t112 -34v-16h-25q-25 0 -88 3t-90 3q-17 0 -76 -3t-79 -3h-41v16q81 4 143 65q63 62 115 195l368 941l-73 178q31 0 52 -1t48 -1
q28 0 46 1t44 1l520 -1258q27 -67 61 -93q36 -28 85 -28v-16zM584 1192l-305 -784h626zM502 1493l-13 8q47 83 91 191q46 112 73 155q23 35 60 35q29 0 48 -18t19 -45q0 -25 -16 -47q-26 -36 -116 -120t-146 -159z" />
    <glyph glyph-name="Acircumflex" unicode="&#xc2;" horiz-adv-x="1325" 
d="M1354 0h-51q-17 0 -72 3t-86 3q-37 0 -94 -3t-72 -3h-53v16q104 0 104 70q0 19 -16 61l-101 238h-643l-47 -119q-28 -72 -28 -127t37 -89t112 -34v-16h-25q-25 0 -88 3t-90 3q-17 0 -76 -3t-79 -3h-41v16q81 4 143 65q63 62 115 195l368 941l-73 178q31 0 52 -1t48 -1
q28 0 46 1t44 1l520 -1258q27 -67 61 -93q36 -28 85 -28v-16zM584 1192l-305 -784h626zM860 1501l-12 -8q-38 47 -73 83q-55 57 -89 89q-33 31 -72 70l-97 -97q-89 -87 -134 -145l-12 8q54 86 164 305q24 46 37 58q17 16 42 16q27 0 44 -16q15 -14 38 -58q110 -219 164 -305
z" />
    <glyph glyph-name="Atilde" unicode="&#xc3;" horiz-adv-x="1325" 
d="M1354 0h-51q-17 0 -72 3t-86 3q-37 0 -94 -3t-72 -3h-53v16q104 0 104 70q0 19 -16 61l-101 238h-643l-47 -119q-28 -72 -28 -127t37 -89t112 -34v-16h-25q-25 0 -88 3t-90 3q-17 0 -76 -3t-79 -3h-41v16q81 4 143 65q63 62 115 195l368 941l-73 178q31 0 52 -1t48 -1
q28 0 46 1t44 1l520 -1258q27 -67 61 -93q36 -28 85 -28v-16zM584 1192l-305 -784h626zM698 1585q-42 0 -113 44t-124 44q-58 0 -127 -114l-15 8q0 1 2.5 4.5t7 10.5t8.5 13q12 19 21 35l5 7.5t8 12.5t9 13q12 18 26 34q10 11 27 27q22 20 32 25q18 9 34 14q19 6 40 6
q42 0 113 -44t124 -44q58 0 125 115l14 -8q0 -1 -23 -40q-6 -11 -12 -20.5t-11.5 -17.5t-6.5 -10q-5 -8 -31 -41q-23 -30 -39 -40q-12 -8 -42 -23q-22 -11 -52 -11z" />
    <glyph glyph-name="Adieresis" unicode="&#xc4;" horiz-adv-x="1325" 
d="M1354 0h-51q-17 0 -72 3t-86 3q-37 0 -94 -3t-72 -3h-53v16q104 0 104 70q0 19 -16 61l-101 238h-643l-47 -119q-28 -72 -28 -127t37 -89t112 -34v-16h-25q-25 0 -88 3t-90 3q-17 0 -76 -3t-79 -3h-41v16q81 4 143 65q63 62 115 195l368 941l-73 178q31 0 52 -1t48 -1
q28 0 46 1t44 1l520 -1258q27 -67 61 -93q36 -28 85 -28v-16zM584 1192l-305 -784h626zM520 1653q0 -44 -28 -71q-30 -28 -72 -28q-41 0 -69 28q-27 27 -27 71q0 41 27 69q27 29 69 29q40 0 71 -29q29 -28 29 -69zM911 1653q0 -45 -29 -71q-31 -28 -71 -28t-70 28
q-28 27 -28 71q0 41 28 69q29 29 70 29q40 0 71 -29q29 -28 29 -69z" />
    <glyph glyph-name="Aring" unicode="&#xc5;" horiz-adv-x="1325" 
d="M1354 0h-51q-17 0 -72 3t-86 3q-37 0 -94 -3t-72 -3h-53v16q104 0 104 70q0 19 -16 61l-101 238h-643l-47 -119q-28 -72 -28 -127t37 -89t112 -34v-16h-25q-25 0 -88 3t-90 3q-17 0 -76 -3t-79 -3h-41v16q81 4 143 65q63 62 115 195l368 941l-73 178q31 0 52 -1t48 -1
q28 0 46 1t44 1l520 -1258q27 -67 61 -93q36 -28 85 -28v-16zM584 1192l-305 -784h626zM788 1696q0 -75 -49 -124q-50 -50 -123 -50t-123 50q-51 51 -51 124t51 124q50 50 123 50t123 -50q49 -49 49 -124zM768 1696q0 62 -44 109q-43 46 -108 46q-66 0 -109 -46
q-44 -47 -44 -109q0 -63 44 -110q43 -46 109 -46q65 0 108 46q44 47 44 110z" />
    <glyph glyph-name="AE" unicode="&#xc6;" horiz-adv-x="2045" 
d="M971 408v872l-627 -872h627zM1798 -63l-12 2q5 29 -13 45q-17 16 -59 16h-471q-49 0 -87 1t-97 1q-49 0 -82 -1t-72 -1h-47v16h4q64 0 86 24q23 25 23 91v254h-643l-90 -123q-62 -83 -62 -141q0 -103 129 -105h4v-16h-24q-25 0 -94 3t-95 3q-19 0 -82 -3t-80 -3h-47v16h4
q153 5 328 260l709 981q24 33 24 68q0 53 -84 53h-14v17h51q39 0 72 -1t82 -1q61 0 101 1t91 1h443q41 0 59 15q19 15 14 46l13 4l180 -473l-14 -6q-188 260 -242 317q-72 76 -195 76h-364v-655h246q113 0 151 65q39 65 55 209h17v-577h-17q-6 57 -12 93q-7 40 -20 76
q-15 40 -36 61q-22 22 -56 37q-35 15 -82 15h-246v-678h383q65 0 110 17q44 17 95 69q89 98 243 347l15 -7z" />
    <glyph glyph-name="Ccedilla" unicode="&#xc7;" horiz-adv-x="1267" 
d="M762 -240q0 -102 -123 -180q-121 -77 -268 -92l-2 14q130 18 213 83q82 64 82 136q0 82 -105 82q-67 0 -115 -22l-6 6l166 199q-235 21 -384 221q-150 201 -150 495q0 176 58 316q59 142 150 224q93 84 193 128q102 45 201 45q73 0 162 -19q94 -20 114 -20q36 0 53 16.5
t15 49.5l12 4l178 -481l-14 -7q-139 241 -264 340q-124 99 -256 99q-183 0 -317 -151t-134 -398q0 -334 159 -539t390 -205q282 0 424 283l14 -6q-77 -173 -223 -285t-330 -112q-18 0 -32 2l-62 -105q19 4 43 4q72 0 114 -33q44 -35 44 -92z" />
    <glyph glyph-name="Egrave" unicode="&#xc8;" horiz-adv-x="1269" 
d="M1022 -63l-12 2q4 28 -13 45q-16 16 -57 16h-471q-50 0 -89 1t-97 1q-49 0 -82 -1t-72 -1h-45v16h2q64 0 86 24q23 25 23 91v1133q0 66 -23 91q-22 23 -86 23h-2v17h45q39 0 72 -1t82 -1q59 0 101 1t93 1h440q42 0 60 15q19 15 14 46l13 4l180 -473l-15 -6
q-188 261 -241 317q-73 76 -193 76h-366v-655h245q114 0 152 65q39 65 55 209h17v-577h-17q-6 57 -12 93q-6 35 -21 76t-35 61q-22 22 -57 37t-82 15h-245v-678h385q66 0 109 17q42 17 93 69q92 101 244 347l14 -7zM735 1501l-14 -8q-55 75 -146 159q-87 80 -116 120
q-15 21 -15 47q0 27 20 45t48 18q36 0 59 -35q26 -39 73 -154q48 -117 91 -192z" />
    <glyph glyph-name="Eacute" unicode="&#xc9;" horiz-adv-x="1269" 
d="M492 1493l-13 8q43 77 90 191q44 107 74 155q23 35 59 35q30 0 49 -18t19 -45q0 -25 -16 -47q-26 -36 -116 -120t-146 -159zM1022 -63l-12 2q4 28 -13 45q-16 16 -57 16h-471q-50 0 -89 1t-97 1q-49 0 -82 -1t-72 -1h-45v16h2q64 0 86 24q23 25 23 91v1133q0 66 -23 91
q-22 23 -86 23h-2v17h45q39 0 72 -1t82 -1q59 0 101 1t93 1h440q42 0 60 15q19 15 14 46l13 4l180 -473l-15 -6q-188 261 -241 317q-73 76 -193 76h-366v-655h245q114 0 152 65q39 65 55 209h17v-577h-17q-6 57 -12 93q-6 35 -21 76t-35 61q-22 22 -57 37t-82 15h-245v-678
h385q66 0 109 17q42 17 93 69q92 101 244 347l14 -7z" />
    <glyph glyph-name="Ecircumflex" unicode="&#xca;" horiz-adv-x="1269" 
d="M852 1501l-12 -8q-38 47 -73 83q-55 57 -89 89q-33 31 -72 70l-97 -97q-89 -87 -134 -145l-13 8q54 86 164 305q23 44 38 58q17 16 42 16q27 0 44 -16q15 -14 38 -58q110 -219 164 -305zM1022 -63l-12 2q4 28 -13 45q-16 16 -57 16h-471q-50 0 -89 1t-97 1q-49 0 -82 -1
t-72 -1h-45v16h2q64 0 86 24q23 25 23 91v1133q0 66 -23 91q-22 23 -86 23h-2v17h45q39 0 72 -1t82 -1q59 0 101 1t93 1h440q42 0 60 15q19 15 14 46l13 4l180 -473l-15 -6q-188 261 -241 317q-73 76 -193 76h-366v-655h245q114 0 152 65q39 65 55 209h17v-577h-17
q-6 57 -12 93q-6 35 -21 76t-35 61q-22 22 -57 37t-82 15h-245v-678h385q66 0 109 17q42 17 93 69q92 101 244 347l14 -7z" />
    <glyph glyph-name="Edieresis" unicode="&#xcb;" horiz-adv-x="1269" 
d="M512 1653q0 -44 -29 -71q-30 -28 -71 -28t-69 28t-28 71q0 39 28 69q27 29 69 29q39 0 70 -29q30 -28 30 -69zM903 1653q0 -44 -30 -71q-31 -28 -70 -28q-40 0 -70 28q-28 27 -28 71q0 41 28 69q29 29 70 29q39 0 70 -29q30 -28 30 -69zM1022 -63l-12 2q4 28 -13 45
q-16 16 -57 16h-471q-50 0 -89 1t-97 1q-49 0 -82 -1t-72 -1h-45v16h2q64 0 86 24q23 25 23 91v1133q0 66 -23 91q-22 23 -86 23h-2v17h45q39 0 72 -1t82 -1q59 0 101 1t93 1h440q42 0 60 15q19 15 14 46l13 4l180 -473l-15 -6q-188 261 -241 317q-73 76 -193 76h-366v-655
h245q114 0 152 65q39 65 55 209h17v-577h-17q-6 57 -12 93q-6 35 -21 76t-35 61q-22 22 -57 37t-82 15h-245v-678h385q66 0 109 17q42 17 93 69q92 101 244 347l14 -7z" />
    <glyph glyph-name="Igrave" unicode="&#xcc;" horiz-adv-x="563" 
d="M369 131q0 -68 22 -91q23 -24 86 -24h4v-16h-45q-24 0 -72 3t-81 3t-82 -3t-72 -3h-45v16h2q64 0 86 24q23 25 23 91v1133q0 66 -23 91q-22 23 -86 23h-2v17h45q23 0 72 -3q50 -3 82 -3q33 0 81 3t72 3h45v-17h-4q-64 0 -86 -23t-22 -91v-1133zM408 1501l-15 -8
q-56 78 -145 159q-90 82 -117 120q-14 20 -14 47t19 45q20 18 48 18q37 0 60 -35q24 -35 72 -154q45 -111 92 -192z" />
    <glyph glyph-name="Iacute" unicode="&#xcd;" horiz-adv-x="563" 
d="M369 131q0 -68 22 -91q23 -24 86 -24h4v-16h-45q-24 0 -72 3t-81 3t-82 -3t-72 -3h-45v16h2q64 0 86 24q23 25 23 91v1133q0 66 -23 91q-22 23 -86 23h-2v17h45q23 0 72 -3q50 -3 82 -3q33 0 81 3t72 3h45v-17h-4q-64 0 -86 -23t-22 -91v-1133zM166 1493l-12 8
q43 77 90 191q46 112 73 155q23 35 60 35q29 0 48 -18t19 -45q0 -25 -16 -47q-26 -36 -116 -120t-146 -159z" />
    <glyph glyph-name="Icircumflex" unicode="&#xce;" horiz-adv-x="563" 
d="M369 131q0 -68 22 -91q23 -24 86 -24h4v-16h-45q-24 0 -72 3t-81 3t-82 -3t-72 -3h-45v16h2q64 0 86 24q23 25 23 91v1133q0 66 -23 91q-22 23 -86 23h-2v17h45q23 0 72 -3q50 -3 82 -3q33 0 81 3t72 3h45v-17h-4q-64 0 -86 -23t-22 -91v-1133zM528 1501l-12 -8
q-38 47 -73 83q-55 57 -89 89q-16 15 -71 70q-37 -37 -98 -97q-89 -87 -134 -145l-12 8q54 86 164 305q23 44 38 58q17 16 42 16q27 0 44 -16q15 -14 38 -58q114 -227 163 -305z" />
    <glyph glyph-name="Idieresis" unicode="&#xcf;" horiz-adv-x="563" 
d="M369 131q0 -68 22 -91q23 -24 86 -24h4v-16h-45q-24 0 -72 3t-81 3t-82 -3t-72 -3h-45v16h2q64 0 86 24q23 25 23 91v1133q0 66 -23 91q-22 23 -86 23h-2v17h45q23 0 72 -3q50 -3 82 -3q33 0 81 3t72 3h45v-17h-4q-64 0 -86 -23t-22 -91v-1133zM188 1653q0 -44 -28 -71
q-30 -28 -72 -28q-41 0 -69 28q-27 27 -27 71q0 41 27 69q27 29 69 29q40 0 71 -29q29 -28 29 -69zM580 1653q0 -44 -30 -71q-31 -28 -71 -28q-39 0 -69 28q-29 27 -29 71q0 40 29 69t69 29t71 -29q30 -28 30 -69z" />
    <glyph glyph-name="Eth" unicode="&#xd0;" horiz-adv-x="1331" 
d="M1262 696q0 -326 -178 -512q-177 -184 -453 -184h-144q-53 0 -93 1t-103 1q-49 0 -81 -1t-71 -1h-47v16h4q64 0 85 23q22 24 22 92v569h-154v21h154v543q0 68 -22 92q-21 22 -85 22h-4v17h47q39 0 71 -1t81 -1q63 0 103 1t93 1h144q276 0 453 -185q178 -186 178 -514z
M649 700h-270v-680h219q262 0 364 152q101 150 101 524q0 377 -101 527q-102 151 -364 151h-219v-653h270v-21z" />
    <glyph glyph-name="Ntilde" unicode="&#xd1;" horiz-adv-x="1421" 
d="M1321 0q-37 0 -58 1t-42 1q-31 0 -55 -1t-56 -1l-868 1245v-971q0 -256 186 -258h4v-16h-47q-15 0 -66 3t-86 3t-87 -3t-66 -3h-45v16h4q182 0 182 258v996q-50 75 -78 92q-26 16 -71 16h-4v17h26q43 0 68 -1t59 -1q42 0 69 1t62 1l834 -1190v915q0 256 -185 258h-4v17
h47q15 0 66 -3t86 -3q34 0 87 3q52 3 67 3h45v-17h-4q-185 0 -185 -258v-946zM827 1585q-42 0 -113 44t-124 44q-58 0 -127 -114l-14 8q1 2 17 28q12 19 21 35l5 7.5t8 12.5t9 13q12 18 26 34q10 11 27 27q22 20 32 25q18 9 34 14q20 6 40 6q42 0 113 -44t124 -44
q58 0 125 115l14 -8q0 -1 -23 -40l-30 -48q-9 -14 -30 -41q-22 -28 -40 -40q-12 -8 -42 -23q-22 -11 -52 -11z" />
    <glyph glyph-name="Ograve" unicode="&#xd2;" horiz-adv-x="1370" 
d="M686 -2q414 0 414 700q0 699 -414 699q-416 0 -416 -699q0 -700 416 -700zM686 -20q-265 0 -440 203q-176 205 -176 515q0 312 175 514q176 203 441 203q264 0 440 -203q177 -204 177 -514q0 -309 -177 -515q-175 -203 -440 -203zM811 1501l-14 -8q-55 75 -146 159
q-87 80 -116 120q-15 21 -15 47q0 27 20 45t48 18q36 0 59 -35q26 -39 73 -154q48 -117 91 -192z" />
    <glyph glyph-name="Oacute" unicode="&#xd3;" horiz-adv-x="1370" 
d="M569 1493l-12 8q43 77 90 191q44 107 74 155q23 35 59 35q28 0 48 -18t20 -45q0 -24 -17 -47q-28 -39 -115 -120q-93 -87 -147 -159zM686 -2q414 0 414 700q0 699 -414 699q-416 0 -416 -699q0 -700 416 -700zM686 -20q-265 0 -440 203q-176 205 -176 515q0 312 175 514
q176 203 441 203q264 0 440 -203q177 -204 177 -514q0 -309 -177 -515q-175 -203 -440 -203z" />
    <glyph glyph-name="Ocircumflex" unicode="&#xd4;" horiz-adv-x="1370" 
d="M930 1501l-13 -8q-44 54 -72 83q-55 57 -89 89q-33 31 -72 70l-6 -6l-13 -13t-18.5 -19t-26.5 -26.5t-33 -32.5q-89 -87 -134 -145l-13 8q54 86 164 305q23 44 38 58q17 16 42 16q27 0 44 -16q15 -14 38 -58q110 -219 164 -305zM686 -2q414 0 414 700q0 699 -414 699
q-416 0 -416 -699q0 -700 416 -700zM686 -20q-265 0 -440 203q-176 205 -176 515q0 312 175 514q176 203 441 203q264 0 440 -203q177 -204 177 -514q0 -309 -177 -515q-175 -203 -440 -203z" />
    <glyph glyph-name="Otilde" unicode="&#xd5;" horiz-adv-x="1370" 
d="M686 -2q414 0 414 700q0 699 -414 699q-416 0 -416 -699q0 -700 416 -700zM686 -20q-265 0 -440 203q-176 205 -176 515q0 312 175 514q176 203 441 203q264 0 440 -203q177 -204 177 -514q0 -309 -177 -515q-175 -203 -440 -203zM766 1585q-43 0 -114 44t-124 44
q-58 0 -127 -114l-14 8q1 2 17 28q4 6 9 14t8 13t5 8q6 10 21 33q12 18 26 34q6 7 28 27q23 21 31 25q18 9 34 14q20 6 40 6q43 0 114 -44t124 -44q58 0 125 115l14 -8q0 -1 -3 -5.5t-9 -14.5l-12 -20q-14 -24 -29 -48q-5 -8 -31 -41q-22 -28 -40 -40q-12 -8 -42 -23
q-22 -11 -51 -11z" />
    <glyph glyph-name="Odieresis" unicode="&#xd6;" horiz-adv-x="1370" 
d="M590 1653q0 -44 -29 -71q-30 -28 -72 -28q-40 0 -68 28t-28 71q0 39 28 69q27 29 68 29q40 0 71 -29q30 -28 30 -69zM981 1653q0 -44 -30 -71q-31 -28 -70 -28q-40 0 -70 28q-29 27 -29 71q0 40 29 69t70 29q39 0 70 -29q30 -28 30 -69zM686 -2q414 0 414 700
q0 699 -414 699q-416 0 -416 -699q0 -700 416 -700zM686 -20q-265 0 -440 203q-176 205 -176 515q0 312 175 514q176 203 441 203q264 0 440 -203q177 -204 177 -514q0 -309 -177 -515q-175 -203 -440 -203z" />
    <glyph glyph-name="multiply" unicode="&#xd7;" horiz-adv-x="845" 
d="M768 993l-332 -331l334 -334l-14 -15l-334 334l-334 -334l-14 15l334 334l-332 331l14 15l332 -332l332 332z" />
    <glyph glyph-name="Oslash" unicode="&#xd8;" horiz-adv-x="1370" 
d="M686 -20q-201 0 -352 120l-131 -217l-19 13l133 217q-116 94 -182 247q-65 151 -65 338q0 312 175 514q176 203 441 203q196 0 350 -119l129 213l21 -12l-131 -215q115 -98 182 -249q66 -150 66 -335q0 -309 -177 -515q-175 -203 -440 -203zM686 1397q-416 0 -416 -699
q0 -344 95 -508l628 1037q-101 170 -307 170zM686 -2q414 0 414 700q0 348 -94 506l-631 -1034q100 -172 311 -172z" />
    <glyph glyph-name="Ugrave" unicode="&#xd9;" horiz-adv-x="1286" 
d="M1110 434q0 -204 -119 -328q-118 -122 -329 -122q-247 0 -372 109q-126 109 -126 345v826q0 68 -22 92q-21 22 -87 22h-2v17h45q22 0 72 -3q49 -3 82 -3t81 3t73 3h45v-17h-5q-64 0 -85 -22q-21 -23 -21 -92v-754q0 -259 86 -378q85 -118 276 -118q172 0 279 115
q106 113 106 305v686q0 257 -184 258h-4v17h47q15 0 66 -3t86 -3q34 0 87 3t66 3h45v-17h-2q-184 0 -184 -258v-686zM809 1501l-14 -8q-55 75 -146 159q-90 82 -117 120q-14 20 -14 47t20 45t48 18q36 0 59 -35q26 -39 73 -154q48 -117 91 -192z" />
    <glyph glyph-name="Uacute" unicode="&#xda;" horiz-adv-x="1286" 
d="M567 1493l-12 8q43 77 90 191q44 107 74 155q23 35 59 35q28 0 48 -18t20 -45q0 -24 -17 -47q-28 -39 -115 -120q-93 -87 -147 -159zM1110 434q0 -204 -119 -328q-118 -122 -329 -122q-247 0 -372 109q-126 109 -126 345v826q0 68 -22 92q-21 22 -87 22h-2v17h45
q22 0 72 -3q49 -3 82 -3t81 3t73 3h45v-17h-5q-64 0 -85 -22q-21 -23 -21 -92v-754q0 -259 86 -378q85 -118 276 -118q172 0 279 115q106 113 106 305v686q0 257 -184 258h-4v17h47q15 0 66 -3t86 -3q34 0 87 3t66 3h45v-17h-2q-184 0 -184 -258v-686z" />
    <glyph glyph-name="Ucircumflex" unicode="&#xdb;" horiz-adv-x="1286" 
d="M926 1501l-13 -8q-44 54 -72 83q-55 57 -89 89q-33 31 -72 70l-97 -97q-89 -87 -134 -145l-13 8q54 86 164 305q23 44 38 58q17 16 42 16q27 0 44 -16q15 -14 38 -58q110 -219 164 -305zM1110 434q0 -204 -119 -328q-118 -122 -330 -122q-246 0 -371 109
q-126 109 -126 345v826q0 68 -22 92q-21 22 -87 22h-2v17h45q22 0 72 -3q49 -3 82 -3t81 3t72 3h46v-17h-5q-64 0 -85 -22q-21 -23 -21 -92v-754q0 -259 86 -378q85 -118 276 -118q172 0 279 115q106 113 106 305v686q0 257 -184 258h-4v17h47q15 0 66 -3t86 -3q34 0 87 3
t66 3h45v-17h-2q-184 0 -184 -258v-686z" />
    <glyph glyph-name="Udieresis" unicode="&#xdc;" horiz-adv-x="1286" 
d="M586 1653q0 -44 -29 -71q-30 -28 -72 -28q-40 0 -68 28t-28 71q0 39 28 69q27 29 68 29q40 0 71 -29q30 -28 30 -69zM977 1653q0 -44 -30 -71q-31 -28 -70 -28q-40 0 -70 28q-29 27 -29 71q0 40 29 69t70 29q39 0 70 -29q30 -28 30 -69zM1110 434q0 -204 -119 -328
q-118 -122 -329 -122q-247 0 -372 109q-126 109 -126 345v826q0 68 -22 92q-21 22 -87 22h-2v17h45q22 0 72 -3q49 -3 82 -3t81 3t73 3h45v-17h-5q-64 0 -85 -22q-21 -23 -21 -92v-754q0 -259 86 -378q85 -118 276 -118q172 0 279 115q106 113 106 305v686q0 257 -184 258
h-4v17h47q15 0 66 -3t86 -3q34 0 87 3t66 3h45v-17h-2q-184 0 -184 -258v-686z" />
    <glyph glyph-name="Yacute" unicode="&#xdd;" horiz-adv-x="1232" 
d="M721 131q0 -68 22 -91q23 -24 86 -24h2v-16h-45q-22 0 -71 3t-82 3t-81 -3t-73 -3h-45v16h4q63 0 86 24q23 25 23 91v504l-410 639q-39 58 -72 80q-36 24 -90 24v17h68q15 0 66 -3t86 -3t89 3t68 3h74v-17q-96 0 -96 -55q0 -27 20 -63l361 -560l260 430q59 93 59 146
q0 101 -133 102h-2v17h27q24 0 87 -3t89 -3q17 0 77 3t78 3h37v-17h-2q-87 -1 -155 -68q-67 -66 -146 -196l-266 -434v-549zM541 1493l-13 8q43 77 90 191q44 107 74 155q23 35 60 35q28 0 48 -18q19 -18 19 -45q0 -25 -16 -47q-26 -36 -116 -120t-146 -159z" />
    <glyph glyph-name="Thorn" unicode="&#xde;" horiz-adv-x="1183" 
d="M481 0h-45q-24 0 -72 3t-81 3t-82 -3t-72 -3h-45v16h2q64 0 86 24q23 25 23 91v1133q0 66 -23 91q-22 23 -86 23h-2v17h45q23 0 72 -3q50 -3 82 -3q33 0 81 3t72 3h45v-17h-4q-64 0 -86 -23t-22 -91v-156h305q214 0 345 -98q132 -99 132 -277q0 -181 -133 -280
q-134 -99 -346 -99h-303v-223q0 -68 22 -91q23 -24 86 -24h4v-16zM369 375h290q175 0 236 84q61 83 61 274q0 189 -60 272q-60 82 -234 82h-293v-712z" />
    <glyph glyph-name="germandbls" unicode="&#xdf;" horiz-adv-x="1189" 
d="M1149 328q0 -155 -97 -249q-98 -95 -225 -95q-43 0 -116 20q-77 21 -97 21q-50 0 -45 -45l-12 -3l-100 365l12 6q180 -346 358 -346q91 0 148 66t57 159q0 166 -176 262l-133 76q-139 78 -139 174q0 52 25 92t96 111q118 124 118 268q0 97 -51 151t-154 54
q-147 0 -210 -88q-64 -90 -64 -268v-1059q-21 0 -41 1t-43 1q-51 0 -84 -1t-74 -1h-39v14h5q67 0 88 23q20 21 20 90v858h-137v19h137q10 200 124 314t318 114q135 0 236 -55q98 -53 98 -152q0 -105 -145 -217q-125 -92 -125 -160q0 -34 29 -65q27 -28 100 -68l129 -70
q209 -113 209 -317z" />
    <glyph glyph-name="agrave" unicode="&#xe0;" horiz-adv-x="1038" 
d="M831 -16q-65 0 -98 36q-35 38 -39 97q-157 -133 -323 -133q-125 0 -199 69t-74 191q0 216 328 350l264 106v166q0 77 -19 106t-81 29q-176 0 -316 -204q-41 -58 -77 -58q-25 0 -43 18q-19 19 -19 46q0 48 69 97q71 51 180 85q113 35 222 35q137 0 194 -51q56 -50 56 -152
v-711q0 -73 51 -73t92 80l13 -7q-55 -122 -181 -122zM414 14q132 0 278 123v9q0 12 -1 20t-1 22v494l-229 -94q-110 -46 -144 -123t-34 -209q0 -242 131 -242zM653 1114l-14 -8q-56 78 -145 159q-92 84 -117 119q-15 21 -15 48t20 45t48 18q36 0 59 -35q26 -39 73 -154
q48 -117 91 -192z" />
    <glyph glyph-name="aacute" unicode="&#xe1;" horiz-adv-x="1038" 
d="M831 -16q-65 0 -98 36q-35 38 -39 97q-157 -133 -323 -133q-125 0 -199 69t-74 191q0 216 328 350l264 106v166q0 77 -19 106t-81 29q-176 0 -316 -204q-41 -58 -77 -58q-25 0 -43 18q-19 19 -19 46q0 48 69 97q71 51 180 85q113 35 222 35q137 0 194 -51q56 -50 56 -152
v-711q0 -73 51 -73t92 80l13 -7q-55 -122 -181 -122zM414 14q132 0 278 123v9q0 12 -1 20t-1 22v494l-229 -94q-110 -46 -144 -123t-34 -209q0 -242 131 -242zM412 1106l-13 8q43 77 90 191q44 107 74 155q23 35 60 35q29 0 48 -18t19 -45q0 -26 -16 -48q-24 -33 -116 -119
q-90 -84 -146 -159z" />
    <glyph glyph-name="acircumflex" unicode="&#xe2;" horiz-adv-x="1038" 
d="M831 -16q-65 0 -98 36q-35 38 -39 97q-157 -133 -323 -133q-125 0 -199 69t-74 191q0 216 328 350l264 106v166q0 77 -19 106t-81 29q-176 0 -316 -204q-41 -58 -77 -58q-25 0 -43 18q-19 19 -19 46q0 48 69 97q71 51 180 85q113 35 222 35q137 0 194 -51q56 -50 56 -152
v-711q0 -73 51 -73t92 80l13 -7q-55 -122 -181 -122zM414 14q132 0 278 123v9q0 12 -1 20t-1 22v494l-229 -94q-110 -46 -144 -123t-34 -209q0 -242 131 -242zM770 1114l-12 -8q-38 47 -73 83q-55 57 -89 89q-33 31 -72 70l-6 -6l-13 -13t-18.5 -19t-26.5 -26.5t-33 -32.5
q-89 -87 -134 -145l-12 8q49 78 163 305q23 44 38 58q17 16 42 16q27 0 44 -16q15 -14 38 -58q110 -219 164 -305z" />
    <glyph glyph-name="atilde" unicode="&#xe3;" horiz-adv-x="1038" 
d="M831 -16q-65 0 -98 36q-35 38 -39 97q-157 -133 -323 -133q-125 0 -199 69t-74 191q0 216 328 350l264 106v166q0 77 -19 106t-81 29q-176 0 -316 -204q-41 -58 -77 -58q-25 0 -43 18q-19 19 -19 46q0 48 69 97q71 51 180 85q113 35 222 35q137 0 194 -51q56 -50 56 -152
v-711q0 -73 51 -73t92 80l13 -7q-55 -122 -181 -122zM414 14q132 0 278 123v9q0 12 -1 20t-1 22v494l-229 -94q-110 -46 -144 -123t-34 -209q0 -242 131 -242zM608 1198q-42 0 -113 44t-124 44q-57 0 -127 -115l-15 9q0 1 2.5 4.5t7 10.5t8.5 13q12 19 21 35l22 33
q15 23 25 34q6 7 28 27t32 25q18 9 34 14q19 6 40 6q42 0 113 -44t124 -44q58 0 125 115l14 -8q0 -1 -23 -40q-6 -11 -12 -20.5t-11.5 -17.5t-6.5 -10q-5 -8 -31 -41q-22 -28 -40 -40q-12 -8 -42 -23q-22 -11 -51 -11z" />
    <glyph glyph-name="adieresis" unicode="&#xe4;" horiz-adv-x="1038" 
d="M831 -16q-65 0 -98 36q-35 38 -39 97q-157 -133 -323 -133q-125 0 -199 69t-74 191q0 216 328 350l264 106v166q0 77 -19 106t-81 29q-176 0 -316 -204q-41 -58 -77 -58q-25 0 -43 18q-19 19 -19 46q0 48 69 97q71 51 180 85q113 35 222 35q137 0 194 -51q56 -50 56 -152
v-711q0 -73 51 -73t92 80l13 -7q-55 -122 -181 -122zM414 14q132 0 278 123v9q0 12 -1 20t-1 22v494l-229 -94q-110 -46 -144 -123t-34 -209q0 -242 131 -242zM430 1286q0 -44 -29 -71t-71 -27t-69 27q-28 28 -28 71q0 40 28 70q27 28 69 28q41 0 70 -28q30 -28 30 -70z
M821 1286q0 -45 -29 -71q-30 -27 -71 -27t-70 27q-28 27 -28 71q0 42 28 70t70 28t71 -28t29 -70z" />
    <glyph glyph-name="aring" unicode="&#xe5;" horiz-adv-x="1038" 
d="M831 -16q-65 0 -98 36q-35 38 -39 97q-157 -133 -323 -133q-125 0 -199 69t-74 191q0 216 328 350l264 106v166q0 77 -19 106t-81 29q-176 0 -316 -204q-41 -58 -77 -58q-25 0 -43 18q-19 19 -19 46q0 48 69 97q71 51 180 85q113 35 222 35q137 0 194 -51q56 -50 56 -152
v-711q0 -73 51 -73t92 80l13 -7q-55 -122 -181 -122zM414 14q132 0 278 123v9q0 12 -1 20t-1 22v494l-229 -94q-110 -46 -144 -123t-34 -209q0 -242 131 -242zM698 1309q0 -75 -49 -124q-50 -50 -123 -50q-74 0 -124 50t-50 124t50 124t124 50q73 0 123 -50q49 -49 49 -124z
M678 1309q0 62 -44 109q-43 46 -108 46q-66 0 -109 -46q-44 -47 -44 -109q0 -63 44 -110q43 -46 109 -46q65 0 108 46q44 47 44 110z" />
    <glyph glyph-name="ae" unicode="&#xe6;" horiz-adv-x="1585" 
d="M1112 -16q-99 0 -187 52q-92 55 -153 146q-168 -198 -373 -198q-125 0 -213 79t-88 240t132 260t329 99h133v202q0 78 -20 107q-21 30 -80 30q-173 0 -318 -202q-43 -60 -75 -60q-25 0 -44 18q-20 18 -20 46q0 48 69 97q71 51 180 85q113 35 222 35q110 0 156 -34
t63 -114q113 148 299 148q154 0 267 -102q112 -102 106 -273h-633q-2 -36 -2 -80q0 -223 87 -368q87 -146 233 -146q221 0 303 256l12 -6q-99 -317 -385 -317zM436 12q174 0 326 185q-70 131 -70 348v98h-125q-159 0 -222 -78q-62 -77 -62 -256q0 -297 153 -297zM1118 1004
q-102 0 -170 -86q-67 -85 -84 -254h467q-6 340 -213 340z" />
    <glyph glyph-name="ccedilla" unicode="&#xe7;" horiz-adv-x="972" 
d="M512 -16h-10l-62 -103q19 4 43 4q72 0 114 -33q44 -35 44 -92q0 -102 -123 -180q-121 -77 -268 -92l-2 14q130 18 213 83q82 64 82 136q0 82 -105 82q-70 0 -114 -22l-7 6l168 197q-162 12 -284 150q-121 137 -121 353q0 245 135 389t317 144q141 0 248 -89t107 -188
q0 -29 -19 -50q-18 -19 -47 -19q-28 0 -46 17q-20 18 -21 50q-11 260 -219 260q-128 0 -198 -115q-71 -116 -71 -313q0 -249 90 -385q90 -137 228 -137q213 0 299 254l14 -4q-46 -152 -146 -235q-98 -82 -239 -82z" />
    <glyph glyph-name="egrave" unicode="&#xe8;" horiz-adv-x="989" 
d="M516 -16q-172 0 -304 139t-132 362q0 243 135 389t315 146q152 0 265 -102q112 -102 106 -273h-633q-2 -36 -2 -80q0 -223 88 -368q89 -146 234 -146q215 0 301 254l14 -4q-100 -317 -387 -317zM737 664q-6 340 -217 340q-106 0 -171 -92q-64 -91 -79 -248h467zM651 1114
l-14 -8q-56 78 -145 159q-92 84 -117 119q-15 21 -15 48t20 45t48 18q36 0 59 -35q26 -39 73 -154q48 -117 91 -192z" />
    <glyph glyph-name="eacute" unicode="&#xe9;" horiz-adv-x="989" 
d="M410 1106l-13 8q43 77 90 191q44 107 74 155q23 35 60 35q29 0 48 -18t19 -45q0 -26 -16 -48q-24 -33 -116 -119q-90 -84 -146 -159zM516 -16q-172 0 -304 139t-132 362q0 243 135 389t315 146q152 0 265 -102q112 -102 106 -273h-633q-2 -36 -2 -80q0 -223 88 -368
q89 -146 234 -146q215 0 301 254l14 -4q-100 -317 -387 -317zM737 664q-6 340 -217 340q-106 0 -171 -92q-64 -91 -79 -248h467z" />
    <glyph glyph-name="ecircumflex" unicode="&#xea;" horiz-adv-x="989" 
d="M770 1114l-12 -8q-38 47 -73 83q-55 57 -89 89q-33 31 -72 70l-6 -6l-13 -13t-18.5 -19t-26.5 -26.5t-33 -32.5q-89 -87 -134 -145l-12 8q49 78 163 305q23 44 38 58q17 16 42 16q27 0 44 -16q15 -14 38 -58q110 -219 164 -305zM516 -16q-172 0 -304 139t-132 362
q0 243 135 389t315 146q152 0 265 -102q112 -102 106 -273h-633q-2 -36 -2 -80q0 -223 88 -368q89 -146 234 -146q215 0 301 254l14 -4q-100 -317 -387 -317zM737 664q-6 340 -217 340q-106 0 -171 -92q-64 -91 -79 -248h467z" />
    <glyph glyph-name="edieresis" unicode="&#xeb;" horiz-adv-x="989" 
d="M430 1286q0 -44 -29 -71t-71 -27t-69 27q-28 28 -28 71q0 40 28 70q27 28 69 28q41 0 70 -28q30 -28 30 -70zM821 1286q0 -45 -29 -71q-30 -27 -71 -27t-70 27q-28 27 -28 71q0 42 28 70t70 28t71 -28t29 -70zM516 -16q-172 0 -304 139t-132 362q0 243 135 389t315 146
q152 0 265 -102q112 -102 106 -273h-633q-2 -36 -2 -80q0 -223 88 -368q89 -146 234 -146q215 0 301 254l14 -4q-100 -317 -387 -317zM737 664q-6 340 -217 340q-106 0 -171 -92q-64 -91 -79 -248h467z" />
    <glyph glyph-name="igrave" unicode="&#xec;" horiz-adv-x="534" 
d="M471 0h-37q-26 0 -76 3t-84 3t-84 -3t-73 -3h-39v14h4q67 0 88 23q20 21 20 90v682q0 67 -20 88q-21 23 -88 23h-4v16h24q73 0 151 26q77 26 93 60h12v-895q0 -67 21 -90t90 -23h2v-14zM399 1114l-14 -8q-56 78 -145 159q-92 84 -117 119q-14 20 -14 48q0 27 19 45
q20 18 48 18q37 0 60 -35q24 -35 72 -154q48 -117 91 -192z" />
    <glyph glyph-name="iacute" unicode="&#xed;" horiz-adv-x="534" 
d="M158 1106l-13 8q47 83 91 191q46 112 73 155q23 35 60 35q29 0 48 -18t19 -45q0 -26 -16 -48q-24 -33 -116 -119q-90 -84 -146 -159zM471 0h-37q-26 0 -76 3t-84 3t-84 -3t-73 -3h-39v14h4q67 0 88 23q20 21 20 90v682q0 67 -20 88q-21 23 -88 23h-4v16h24q73 0 151 26
q77 26 93 60h12v-895q0 -67 21 -90t90 -23h2v-14z" />
    <glyph glyph-name="icircumflex" unicode="&#xee;" horiz-adv-x="534" 
d="M518 1114l-12 -8q-38 47 -73 83q-55 57 -89 89q-33 31 -72 70l-6 -6l-13 -13t-18.5 -19t-26.5 -26.5t-33 -32.5q-89 -87 -134 -145l-12 8q54 86 164 305q24 46 37 58q17 16 42 16q27 0 44 -16q15 -14 38 -58q110 -219 164 -305zM471 0h-37q-26 0 -76 3t-84 3t-84 -3
t-73 -3h-39v14h4q67 0 88 23q20 21 20 90v682q0 67 -20 88q-21 23 -88 23h-4v16h24q73 0 151 26q77 26 93 60h12v-895q0 -67 21 -90t90 -23h2v-14z" />
    <glyph glyph-name="idieresis" unicode="&#xef;" horiz-adv-x="534" 
d="M180 1286q0 -44 -28 -71t-72 -27q-42 0 -69 27t-27 71q0 42 27 70t69 28t71 -28t29 -70zM571 1286q0 -45 -29 -71q-30 -27 -71 -27t-70 27q-28 27 -28 71q0 42 28 70t70 28t71 -28t29 -70zM471 0h-37q-26 0 -76 3t-84 3t-84 -3t-73 -3h-39v14h4q67 0 88 23q20 21 20 90
v682q0 67 -20 88q-21 23 -88 23h-4v16h24q73 0 151 26q77 26 93 60h12v-895q0 -67 21 -90t90 -23h2v-14z" />
    <glyph glyph-name="eth" unicode="&#xf0;" horiz-adv-x="1060" 
d="M528 -16q-180 0 -315 145t-135 373q0 223 128 371q128 147 310 147q126 0 221 -78q-56 179 -182 295l-213 -141l-10 14l209 141q-135 116 -336 154l4 16q220 -39 377 -141l196 131l11 -14l-191 -127q176 -114 278 -290q101 -174 101 -378q0 -173 -43 -299
q-43 -125 -114 -192q-72 -68 -144 -97q-74 -30 -152 -30zM528 0q87 0 140 41t88 169q35 129 35 353q0 189 -46 348q-88 88 -215 88q-86 0 -138 -36q-54 -38 -90 -151q-36 -114 -36 -310q0 -278 67 -391q66 -111 195 -111z" />
    <glyph glyph-name="ntilde" unicode="&#xf1;" horiz-adv-x="1134" 
d="M1075 0h-37q-26 0 -75 3t-84 3t-84 -3t-74 -3h-39v14h4q67 0 88 23t21 90v750q0 94 -70 94q-37 0 -164 -45l-203 -78v-721q0 -67 21 -90t90 -23h2v-14h-37q-26 0 -76 3t-84 3t-84 -3t-73 -3h-39v14h4q67 0 88 23q20 21 20 90v682q0 67 -20 88q-21 23 -88 23h-4v16h24
q73 0 151 26q77 26 93 60h12v-156l222 86q175 68 251 68q132 0 132 -148v-745q0 -69 20 -90q21 -23 90 -23h2v-14zM662 1198q-43 0 -114 44t-124 44q-57 0 -127 -115l-14 9q1 2 17 28q4 6 9 14t8 13t5 8q6 11 21 33q12 18 26 34q10 11 27 27q22 20 32 25q18 9 34 14
q20 6 40 6q42 0 113 -44t124 -44q58 0 125 115l15 -8q0 -1 -3 -5.5t-9 -14.5l-12 -20l-30 -48q-9 -14 -30 -41q-22 -28 -40 -40q-12 -8 -42 -23q-22 -11 -51 -11z" />
    <glyph glyph-name="ograve" unicode="&#xf2;" horiz-adv-x="1060" 
d="M530 -16q-186 0 -318 148t-132 370q0 220 132 369t318 149q187 0 319 -149t132 -369q0 -222 -132 -370t-319 -148zM530 0q131 0 197 106t66 396q0 288 -66 395t-197 107q-130 0 -196 -107t-66 -395q0 -290 66 -396t196 -106zM657 1114l-14 -8q-56 78 -145 159
q-92 84 -117 119q-14 20 -14 48q0 27 19 45q20 18 48 18q37 0 60 -35q24 -35 72 -154q48 -117 91 -192z" />
    <glyph glyph-name="oacute" unicode="&#xf3;" horiz-adv-x="1060" 
d="M414 1106l-13 8q47 83 91 191q46 112 73 155q23 35 60 35q29 0 48 -18t19 -45q0 -26 -16 -48q-24 -33 -116 -119q-90 -84 -146 -159zM530 -16q-186 0 -318 148t-132 370q0 220 132 369t318 149q187 0 319 -149t132 -369q0 -222 -132 -370t-319 -148zM530 0q131 0 197 106
t66 396q0 288 -66 395t-197 107q-130 0 -196 -107t-66 -395q0 -290 66 -396t196 -106z" />
    <glyph glyph-name="ocircumflex" unicode="&#xf4;" horiz-adv-x="1060" 
d="M774 1114l-12 -8q-38 47 -73 83q-55 57 -89 89q-33 31 -72 70l-6 -6l-13 -13t-18.5 -19t-26.5 -26.5t-33 -32.5q-89 -87 -134 -145l-12 8q54 86 164 305q24 46 37 58q17 16 42 16q27 0 44 -16q15 -14 38 -58q110 -219 164 -305zM530 -16q-186 0 -318 148t-132 370
q0 220 132 369t318 149q187 0 319 -149t132 -369q0 -222 -132 -370t-319 -148zM530 0q131 0 197 106t66 396q0 288 -66 395t-197 107q-130 0 -196 -107t-66 -395q0 -290 66 -396t196 -106z" />
    <glyph glyph-name="otilde" unicode="&#xf5;" horiz-adv-x="1060" 
d="M530 -16q-186 0 -318 148t-132 370q0 220 132 369t318 149q187 0 319 -149t132 -369q0 -222 -132 -370t-319 -148zM530 0q131 0 197 106t66 396q0 288 -66 395t-197 107q-130 0 -196 -107t-66 -395q0 -290 66 -396t196 -106zM612 1198q-42 0 -113 44t-124 44
q-57 0 -127 -115l-15 9q0 1 2.5 4.5t7 10.5t8.5 13q12 19 21 35l22 33q15 23 25 34q6 7 28 27t32 25q18 9 34 14q20 6 40 6q42 0 113 -44t124 -44q58 0 125 115l14 -8q0 -1 -23 -40l-30 -48q-5 -8 -31 -41q-23 -30 -39 -40q-12 -8 -42 -23q-22 -11 -52 -11z" />
    <glyph glyph-name="odieresis" unicode="&#xf6;" horiz-adv-x="1060" 
d="M434 1286q0 -44 -28 -71t-72 -27q-42 0 -69 27t-27 71q0 42 27 70t69 28q41 0 70 -28q30 -28 30 -70zM825 1286q0 -45 -29 -71q-30 -27 -71 -27t-70 27q-28 27 -28 71q0 42 28 70t70 28t71 -28t29 -70zM530 -16q-186 0 -318 148t-132 370q0 220 132 369t318 149
q187 0 319 -149t132 -369q0 -222 -132 -370t-319 -148zM530 0q131 0 197 106t66 396q0 288 -66 395t-197 107q-130 0 -196 -107t-66 -395q0 -290 66 -396t196 -106z" />
    <glyph glyph-name="divide" unicode="&#xf7;" horiz-adv-x="1089" 
d="M532 870q-45 0 -79 32q-33 32 -33 79t33 80t79 33q47 0 80 -33t33 -80t-33 -79q-34 -32 -80 -32zM94 649v21h901v-21h-901zM532 227q-45 0 -79 32q-33 31 -33 79q0 47 33 80t79 33q47 0 80 -33t33 -80q0 -48 -33 -79q-34 -32 -80 -32z" />
    <glyph glyph-name="oslash" unicode="&#xf8;" horiz-adv-x="1060" 
d="M530 -16q-139 0 -251 86l-107 -172l-16 10l106 174q-182 151 -182 420q0 220 132 369t318 149q136 0 252 -88l107 176l16 -10l-108 -178q184 -153 184 -418q0 -222 -132 -370t-319 -148zM530 0q131 0 197 106t66 396q0 230 -43 340l-433 -701q60 -141 213 -141zM530 1004
q-130 0 -196 -107t-66 -395q0 -232 41 -338l432 700q-57 140 -211 140z" />
    <glyph glyph-name="ugrave" unicode="&#xf9;" horiz-adv-x="1107" 
d="M1047 0h-39q-11 0 -75 2t-83 2q-13 0 -49 -2q-7 0 -15.5 -0.5t-13 -1t-6.5 -0.5v135l-211 -84q-174 -67 -254 -67q-129 0 -129 147v678q0 65 -21 88t-90 23h-4v16h25q71 0 151 26q78 26 93 60h12v-895q0 -94 72 -94q50 0 161 45l195 78v653q0 64 -22 88q-21 23 -89 23h-4
v16h25q71 0 151 26q78 26 93 60h12v-895q0 -65 21 -89t89 -24h5v-14zM678 1114l-14 -8q-55 75 -146 159q-92 84 -117 119q-14 20 -14 48q0 27 20 45q19 18 48 18q36 0 59 -35q26 -39 73 -154q48 -117 91 -192z" />
    <glyph glyph-name="uacute" unicode="&#xfa;" horiz-adv-x="1107" 
d="M436 1106l-12 8q43 77 90 191q44 107 74 155q23 35 59 35q29 0 48 -18q20 -18 20 -45q0 -25 -17 -48q-26 -36 -115 -119q-93 -87 -147 -159zM1047 0h-39q-11 0 -75 2t-83 2q-13 0 -49 -2q-7 0 -15.5 -0.5t-13 -1t-6.5 -0.5v135l-211 -84q-174 -67 -254 -67
q-129 0 -129 147v678q0 65 -21 88t-90 23h-4v16h25q71 0 151 26q78 26 93 60h12v-895q0 -94 72 -94q50 0 161 45l195 78v653q0 64 -22 88q-21 23 -89 23h-4v16h25q71 0 151 26q78 26 93 60h12v-895q0 -65 21 -89t89 -24h5v-14z" />
    <glyph glyph-name="ucircumflex" unicode="&#xfb;" horiz-adv-x="1107" 
d="M797 1114l-13 -8q-44 54 -72 83q-55 57 -89 89q-33 31 -72 70l-6 -6l-13 -13t-18.5 -19t-26.5 -26.5t-33 -32.5q-93 -92 -135 -145l-12 8q54 86 164 305q23 44 38 58q17 16 42 16q27 0 44 -16q15 -14 38 -58q110 -219 164 -305zM1047 0h-39q-11 0 -75 2t-83 2
q-13 0 -49 -2q-7 0 -15.5 -0.5t-13 -1t-6.5 -0.5v135l-211 -84q-174 -67 -254 -67q-129 0 -129 147v678q0 65 -21 88t-90 23h-4v16h25q71 0 151 26q78 26 93 60h12v-895q0 -94 72 -94q50 0 161 45l195 78v653q0 64 -22 88q-21 23 -89 23h-4v16h25q71 0 151 26q78 26 93 60
h12v-895q0 -65 21 -89t89 -24h5v-14z" />
    <glyph glyph-name="udieresis" unicode="&#xfc;" horiz-adv-x="1107" 
d="M457 1286q0 -44 -29 -71q-28 -27 -72 -27q-41 0 -68 27q-28 28 -28 71q0 40 28 70q27 28 68 28q42 0 71 -28q30 -28 30 -70zM848 1286q0 -44 -30 -71t-70 -27q-42 0 -70 27q-29 27 -29 71q0 41 29 70q28 28 70 28q41 0 70 -28q30 -28 30 -70zM1047 0h-39q-11 0 -75 2
t-83 2q-13 0 -49 -2q-7 0 -15.5 -0.5t-13 -1t-6.5 -0.5v135l-211 -84q-174 -67 -254 -67q-129 0 -129 147v678q0 65 -21 88t-90 23h-4v16h25q71 0 151 26q78 26 93 60h12v-895q0 -94 72 -94q50 0 161 45l195 78v653q0 64 -22 88q-21 23 -89 23h-4v16h25q71 0 151 26
q78 26 93 60h12v-895q0 -65 21 -89t89 -24h5v-14z" />
    <glyph glyph-name="yacute" unicode="&#xfd;" horiz-adv-x="968" 
d="M645 0q-28 0 -46 1t-42 1q-17 0 -35 -1t-33 -1l-43 -98q-26 -60 -45 -103q-9 -21 -39 -82q-27 -56 -41 -74q-6 -7 -43 -53q-26 -31 -54 -43q-16 -7 -60 -20q-33 -10 -78 -10q-43 0 -66 17q-24 18 -24 46t18 45q19 17 47 17t83 -20q53 -19 77 -19q52 0 92 62
q41 63 117 243l39 92l-344 883q-24 61 -54 84q-29 22 -83 22v15h51l64 -4q48 -3 85 -3q38 0 84 3l62 4h53v-15q-96 0 -96 -53q0 -17 6 -35l268 -696l209 588q17 51 17 90q0 106 -138 106v15h21q8 0 74 -4q49 -3 79 -3q33 0 82 3q66 4 68 4h33v-15q-146 -6 -219 -207
l-216 -606zM393 1106l-12 8q43 77 90 191q44 107 74 155q23 35 59 35q28 0 48 -18t20 -45q0 -25 -17 -48q-26 -36 -115 -119q-93 -87 -147 -159z" />
    <glyph glyph-name="thorn" unicode="&#xfe;" horiz-adv-x="1114" 
d="M340 111v-447q0 -63 31 -88t102 -25h31v-14h-62q-30 0 -87 3t-97 3q-34 0 -84 -3q-49 -3 -76 -3h-39v14h4q69 0 90 24t21 89v1604q0 68 -21 90t-90 22h-4v15h25q77 0 152 26q77 27 92 62h12v-590q145 127 303 127q153 0 267 -127t114 -391t-114 -391t-267 -127
q-157 0 -303 127zM836 502q0 155 -15 257q-15 101 -45 151q-31 52 -63 69q-33 18 -82 18q-144 0 -291 -129v-733q147 -129 291 -129q47 0 82 19q33 18 63 68q30 49 45 152q15 102 15 257z" />
    <glyph glyph-name="ydieresis" unicode="&#xff;" horiz-adv-x="968" 
d="M645 0q-28 0 -46 1t-42 1q-17 0 -35 -1t-33 -1l-43 -98q-26 -60 -45 -103q-9 -21 -39 -82q-27 -56 -41 -74q-6 -7 -43 -53q-26 -31 -54 -43q-16 -7 -60 -20q-33 -10 -78 -10q-43 0 -66 17q-24 18 -24 46t18 45q19 17 47 17t83 -20q53 -19 77 -19q52 0 92 62
q41 63 117 243l39 92l-344 883q-24 61 -54 84q-29 22 -83 22v15h51l64 -4q48 -3 85 -3q38 0 84 3l62 4h53v-15q-96 0 -96 -53q0 -17 6 -35l268 -696l209 588q17 51 17 90q0 106 -138 106v15h21q8 0 74 -4q49 -3 79 -3q33 0 82 3q66 4 68 4h33v-15q-146 -6 -219 -207
l-216 -606zM414 1286q0 -44 -29 -71t-72 -27q-41 0 -68 27q-28 28 -28 71q0 40 28 70q27 28 68 28q42 0 71 -28q30 -28 30 -70zM805 1286q0 -44 -30 -71t-70 -27q-41 0 -70 27t-29 71q0 41 29 70q28 28 70 28q41 0 70 -28q30 -28 30 -70z" />
    <glyph glyph-name="Amacron" unicode="&#x100;" horiz-adv-x="1325" 
d="M1354 0h-51q-17 0 -72 3t-86 3q-37 0 -94 -3t-72 -3h-53v16q104 0 104 70q0 19 -16 61l-101 238h-643l-47 -119q-28 -72 -28 -127t37 -89t112 -34v-16h-25q-25 0 -88 3t-90 3q-17 0 -76 -3t-79 -3h-41v16q81 4 143 65q63 62 115 195l368 941l-73 178q31 0 52 -1t48 -1
q28 0 46 1t44 1l520 -1258q27 -67 61 -93q36 -28 85 -28v-16zM584 1192l-305 -784h626zM862 1630h-497v47h497v-47z" />
    <glyph glyph-name="amacron" unicode="&#x101;" horiz-adv-x="1038" 
d="M831 -16q-65 0 -98 36q-35 38 -39 97q-157 -133 -323 -133q-125 0 -199 69t-74 191q0 216 328 350l264 106v166q0 77 -19 106t-81 29q-176 0 -316 -204q-41 -58 -77 -58q-25 0 -43 18q-19 19 -19 46q0 48 69 97q71 51 180 85q113 35 222 35q137 0 194 -51q56 -50 56 -152
v-711q0 -73 51 -73t92 80l13 -7q-55 -122 -181 -122zM414 14q132 0 278 123v9q0 12 -1 20t-1 22v494l-229 -94q-110 -46 -144 -123t-34 -209q0 -242 131 -242zM772 1243h-498v47h498v-47z" />
    <glyph glyph-name="Abreve" unicode="&#x102;" horiz-adv-x="1325" 
d="M1354 0h-51q-17 0 -72 3t-86 3q-37 0 -94 -3t-72 -3h-53v16q104 0 104 70q0 19 -16 61l-101 238h-643l-47 -119q-28 -72 -28 -127t37 -89t112 -34v-16h-25q-25 0 -88 3t-90 3q-17 0 -76 -3t-79 -3h-41v16q81 4 143 65q63 62 115 195l368 941l-73 178q31 0 52 -1t48 -1
q28 0 46 1t44 1l520 -1258q27 -67 61 -93q36 -28 85 -28v-16zM584 1192l-305 -784h626zM616 1546q-171 0 -270 252l14 6q72 -141 256 -141q179 0 256 141l15 -6q-99 -252 -271 -252z" />
    <glyph glyph-name="abreve" unicode="&#x103;" horiz-adv-x="1038" 
d="M831 -16q-65 0 -98 36q-35 38 -39 97q-157 -133 -323 -133q-125 0 -199 69t-74 191q0 216 328 350l264 106v166q0 77 -19 106t-81 29q-176 0 -316 -204q-41 -58 -77 -58q-25 0 -43 18q-19 19 -19 46q0 48 69 97q71 51 180 85q113 35 222 35q137 0 194 -51q56 -50 56 -152
v-711q0 -73 51 -73t92 80l13 -7q-55 -122 -181 -122zM414 14q132 0 278 123v9q0 12 -1 20t-1 22v494l-229 -94q-110 -46 -144 -123t-34 -209q0 -242 131 -242zM526 1159q-171 0 -270 252l14 6q72 -141 256 -141q180 0 256 141l15 -6q-99 -252 -271 -252z" />
    <glyph glyph-name="Aogonek" unicode="&#x104;" horiz-adv-x="1327" 
d="M965 -367q-82 0 -130 39q-49 40 -49 99q0 111 283 239l-156 375h-643l-47 -119q-28 -72 -28 -127t37 -89t112 -34v-16h-25q-25 0 -88 3t-90 3q-17 0 -76 -3t-79 -3h-41v16q81 4 143 65q63 62 115 195l368 941l-73 178q31 0 52 -1t48 -1q28 0 46 1t44 1l520 -1258
q27 -67 61 -93q36 -28 85 -28v-16h-51q-17 0 -72 3t-86 3q-27 0 -51 -2q-179 -78 -179 -197q0 -55 36 -89q34 -33 91 -33q82 0 150 77l12 -8q-40 -52 -103 -86q-65 -35 -136 -35zM905 408l-321 784l-305 -784h626z" />
    <glyph glyph-name="aogonek" unicode="&#x105;" horiz-adv-x="1038" 
d="M831 -16q-65 0 -98 36q-35 38 -39 97q-157 -133 -323 -133q-125 0 -199 69t-74 191q0 216 328 350l264 106v166q0 77 -19 106t-81 29q-98 0 -169 -52q-75 -55 -149 -152q-35 -58 -75 -58q-25 0 -43 18q-19 19 -19 46q0 48 69 97q71 51 180 85q113 35 222 35
q137 0 194 -51q56 -50 56 -152v-711q0 -73 51 -73t92 80l13 -7q-33 -79 -119 -114q-160 -68 -160 -185q0 -55 36 -89q34 -33 91 -33q82 0 150 77l12 -8q-40 -52 -103 -86q-65 -35 -137 -35q-82 0 -130 39t-48 99q0 102 242 213h-15zM414 14q61 0 142 37q85 39 134 86v545
l-229 -94q-110 -46 -144 -123t-34 -209q0 -242 131 -242z" />
    <glyph glyph-name="Cacute" unicode="&#x106;" horiz-adv-x="1267" 
d="M555 1495l-12 8q43 77 90 191q44 107 74 155q23 35 59 35q28 0 48 -18t20 -45q0 -24 -17 -47q-26 -36 -116 -120t-146 -159zM655 -16q-253 0 -419 203t-166 515q0 176 58 316q59 142 150 224q93 84 193 128q102 45 201 45q73 0 162 -19q94 -20 114 -20q36 0 53 16.5
t15 49.5l12 4l178 -481l-14 -7q-139 241 -264 340q-124 99 -256 99q-183 0 -317 -151t-134 -398q0 -334 159 -539t390 -205q282 0 424 283l14 -6q-77 -173 -223 -285t-330 -112z" />
    <glyph glyph-name="cacute" unicode="&#x107;" horiz-adv-x="972" 
d="M410 1106l-13 8q43 77 90 191q44 107 74 155q23 35 60 35q29 0 48 -18t19 -45q0 -26 -16 -48q-24 -33 -116 -119q-90 -84 -146 -159zM512 -16q-172 0 -302 140t-130 363q0 245 135 389t317 144q141 0 248 -89t107 -188q0 -29 -19 -50q-18 -19 -47 -19q-28 0 -46 17
q-20 18 -21 50q-11 260 -219 260q-128 0 -198 -115q-71 -116 -71 -313q0 -249 90 -385q90 -137 228 -137q213 0 299 254l14 -4q-46 -152 -146 -235q-98 -82 -239 -82z" />
    <glyph glyph-name="Ccircumflex" unicode="&#x108;" horiz-adv-x="1267" 
d="M913 1503l-12 -8q-38 47 -73 83q-55 57 -89 89q-16 16 -71 70q-37 -37 -98 -97q-89 -87 -134 -145l-12 8q54 86 164 305q23 44 38 58q17 16 42 16q27 0 44 -16q15 -14 38 -58q114 -227 163 -305zM655 -16q-253 0 -419 203t-166 515q0 176 58 316q59 142 150 224
q93 84 193 128q102 45 201 45q73 0 162 -19q94 -20 114 -20q36 0 53 16.5t15 49.5l12 4l178 -481l-14 -7q-139 241 -264 340q-124 99 -256 99q-183 0 -317 -151t-134 -398q0 -334 159 -539t390 -205q282 0 424 283l14 -6q-77 -173 -223 -285t-330 -112z" />
    <glyph glyph-name="ccircumflex" unicode="&#x109;" horiz-adv-x="972" 
d="M770 1114l-12 -8q-38 47 -73 83q-55 57 -89 89q-33 31 -72 70l-6 -6l-13 -13t-18.5 -19t-26.5 -26.5t-33 -32.5q-89 -87 -134 -145l-12 8q49 78 163 305q23 44 38 58q17 16 42 16q27 0 44 -16q15 -14 38 -58q110 -219 164 -305zM512 -16q-172 0 -302 140t-130 363
q0 245 135 389t317 144q141 0 248 -89t107 -188q0 -29 -19 -50q-18 -19 -47 -19q-28 0 -46 17q-20 18 -21 50q-11 260 -219 260q-128 0 -198 -115q-71 -116 -71 -313q0 -249 90 -385q90 -137 228 -137q213 0 299 254l14 -4q-46 -152 -146 -235q-98 -82 -239 -82z" />
    <glyph glyph-name="Cdotaccent" unicode="&#x10a;" horiz-adv-x="1267" 
d="M655 -16q-253 0 -419 203t-166 515q0 176 58 316q59 142 150 224q93 84 193 128q102 45 201 45q73 0 162 -19q94 -20 114 -20q36 0 53 16.5t15 49.5l12 4l178 -481l-14 -7q-139 241 -264 340q-124 99 -256 99q-183 0 -317 -151t-134 -398q0 -334 159 -539t390 -205
q282 0 424 283l14 -6q-77 -173 -223 -285t-330 -112zM670 1544q-44 0 -75 29q-30 29 -30 74t30 75q31 31 75 31q41 0 74 -31q32 -30 32 -75q0 -43 -32 -73t-74 -30z" />
    <glyph glyph-name="cdotaccent" unicode="&#x10b;" horiz-adv-x="972" 
d="M512 -16q-172 0 -302 140t-130 363q0 245 135 389t317 144q141 0 248 -89t107 -188q0 -29 -19 -50q-18 -19 -47 -19q-28 0 -46 17q-20 18 -21 50q-11 260 -219 260q-128 0 -198 -115q-71 -116 -71 -313q0 -249 90 -385q90 -137 228 -137q213 0 299 254l14 -4
q-46 -152 -146 -235q-98 -82 -239 -82zM524 1176q-45 0 -74 28q-30 28 -30 74t30 76t74 30t75 -30q32 -30 32 -76q0 -43 -32 -73q-30 -29 -75 -29z" />
    <glyph glyph-name="Ccaron" unicode="&#x10c;" horiz-adv-x="1267" 
d="M668 1497q-25 0 -42 16q-15 14 -38 58q-110 219 -164 305l12 8q38 -47 73 -83q40 -42 88 -88q15 -15 39 -37.5t32 -30.5q17 18 70 67q58 54 91 89q43 44 72 83l12 -8q-49 -78 -163 -305q-23 -44 -38 -58q-17 -16 -44 -16zM655 -16q-253 0 -419 203t-166 515q0 176 58 316
q59 142 150 224q93 84 193 128q102 45 201 45q73 0 162 -19q94 -20 114 -20q36 0 53 16.5t15 49.5l12 4l178 -481l-14 -7q-139 241 -264 340q-124 99 -256 99q-183 0 -317 -151t-134 -398q0 -334 159 -539t390 -205q282 0 424 283l14 -6q-77 -173 -223 -285t-330 -112z" />
    <glyph glyph-name="ccaron" unicode="&#x10d;" horiz-adv-x="972" 
d="M524 1108q-25 0 -42 16q-15 14 -38 58q-114 227 -163 305l12 8q38 -47 73 -83q40 -42 88 -88q32 -31 70 -69q18 18 71 68q58 54 91 89q43 44 72 83l12 -8q-54 -86 -164 -305q-23 -44 -38 -58q-17 -16 -44 -16zM512 -16q-172 0 -302 140t-130 363q0 245 135 389t317 144
q141 0 248 -89t107 -188q0 -29 -19 -50q-18 -19 -47 -19q-28 0 -46 17q-20 18 -21 50q-11 260 -219 260q-128 0 -198 -115q-71 -116 -71 -313q0 -249 90 -385q90 -137 228 -137q213 0 299 254l14 -4q-46 -152 -146 -235q-98 -82 -239 -82z" />
    <glyph glyph-name="Dcaron" unicode="&#x10e;" horiz-adv-x="1323" 
d="M633 1497q-25 0 -42 16q-15 14 -38 58q-110 219 -164 305l12 8q38 -47 73 -83q40 -42 88 -88q15 -15 39 -37.5t32 -30.5q17 18 70 67q68 64 92 89q38 39 71 83l13 -8q-54 -86 -164 -305q-23 -44 -38 -58q-17 -16 -44 -16zM1053 696q0 375 -101 527q-100 151 -362 151
h-221v-1354h221q261 0 362 152t101 524zM1251 696q0 -325 -177 -511q-176 -185 -451 -185h-144q-53 0 -93 1t-103 1q-49 0 -82 -1t-72 -1h-45v16h2q64 0 86 24q23 25 23 91v1133q0 66 -23 91q-22 23 -86 23h-2v17h45q39 0 72 -1t82 -1q63 0 103 1t93 1h144q276 0 452 -185
t176 -514z" />
    <glyph glyph-name="dcaron" unicode="&#x10f;" horiz-adv-x="1161" 
d="M1133 995l-15 4q19 93 29 235q11 147 22 191q17 58 70 58q26 0 47 -18t21 -46q0 -16 -7 -37q-12 -38 -74 -163q-63 -127 -93 -224zM471 -16q-153 0 -267 127t-114 391t114 391t267 127q158 0 303 -127v375q0 68 -21 90t-89 22h-5v15h25q77 0 152 26q77 27 92 62h12v-1356
q0 -64 22 -89q21 -24 89 -24h4v-14h-39q-11 0 -75 2t-83 2q-13 0 -49 -2q-7 0 -15.5 -0.5t-13 -1t-6.5 -0.5v111q-146 -127 -303 -127zM483 6q144 0 291 129v733q-147 129 -291 129q-49 0 -82 -18q-32 -17 -63 -69q-30 -50 -45 -151q-14 -95 -14 -257t14 -257
q15 -103 45 -152q30 -50 63 -68q35 -19 82 -19z" />
    <glyph glyph-name="Dcroat" unicode="&#x110;" horiz-adv-x="1331" 
d="M1262 696q0 -326 -178 -512q-177 -184 -453 -184h-144q-53 0 -93 1t-103 1q-49 0 -81 -1t-71 -1h-47v16h4q64 0 85 23q22 24 22 92v569h-154v21h154v543q0 68 -22 92q-21 22 -85 22h-4v17h47q39 0 71 -1t81 -1q63 0 103 1t93 1h144q276 0 453 -185q178 -186 178 -514z
M649 700h-270v-680h219q262 0 364 152q101 150 101 524q0 377 -101 527q-102 151 -364 151h-219v-653h270v-21z" />
    <glyph glyph-name="dcroat" unicode="&#x111;" horiz-adv-x="1120" 
d="M471 -16q-153 0 -267 127t-114 391t114 391t267 127q158 0 303 -127v266h-221v17h221v92q0 68 -21 90t-89 22h-5v15h25q77 0 152 26q77 27 92 62h12v-307h135v-17h-135v-1032q0 -64 22 -89q21 -24 89 -24h4v-14h-39q-11 0 -75 2t-83 2q-13 0 -49 -2q-7 0 -15.5 -0.5
t-13 -1t-6.5 -0.5v111q-146 -127 -303 -127zM483 6q144 0 291 129v733q-147 129 -291 129q-49 0 -82 -18q-32 -17 -63 -69q-30 -50 -45 -151q-14 -95 -14 -257t14 -257q15 -103 45 -152q30 -50 63 -68q35 -19 82 -19z" />
    <glyph glyph-name="Emacron" unicode="&#x112;" horiz-adv-x="1269" 
d="M1022 -63l-12 2q4 28 -13 45q-16 16 -57 16h-471q-50 0 -89 1t-97 1q-49 0 -82 -1t-72 -1h-45v16h2q64 0 86 24q23 25 23 91v1133q0 66 -23 91q-22 23 -86 23h-2v17h45q39 0 72 -1t82 -1q59 0 101 1t93 1h440q42 0 60 15q19 15 14 46l13 4l180 -473l-15 -6
q-188 261 -241 317q-73 76 -193 76h-366v-655h245q114 0 152 65q39 65 55 209h17v-577h-17q-6 57 -12 93q-6 35 -21 76t-35 61q-22 22 -57 37t-82 15h-245v-678h385q66 0 109 17q42 17 93 69q92 101 244 347l14 -7zM854 1630h-498v47h498v-47z" />
    <glyph glyph-name="emacron" unicode="&#x113;" horiz-adv-x="989" 
d="M516 -16q-172 0 -304 139t-132 362q0 243 135 389t315 146q152 0 265 -102q112 -102 106 -273h-633q-2 -36 -2 -80q0 -223 88 -368q89 -146 234 -146q215 0 301 254l14 -4q-100 -317 -387 -317zM737 664q-6 340 -217 340q-106 0 -171 -92q-64 -91 -79 -248h467zM770 1243
h-498v47h498v-47z" />
    <glyph glyph-name="Ebreve" unicode="&#x114;" horiz-adv-x="1269" 
d="M1022 -63l-12 2q4 28 -13 45q-16 16 -57 16h-471q-50 0 -89 1t-97 1q-49 0 -82 -1t-72 -1h-45v16h2q64 0 86 24q23 25 23 91v1133q0 66 -23 91q-22 23 -86 23h-2v17h45q39 0 72 -1t82 -1q59 0 101 1t93 1h440q42 0 60 15q19 15 14 46l13 4l180 -473l-15 -6
q-188 261 -241 317q-73 76 -193 76h-366v-655h245q114 0 152 65q39 65 55 209h17v-577h-17q-6 57 -12 93q-6 35 -21 76t-35 61q-22 22 -57 37t-82 15h-245v-678h385q66 0 109 17q42 17 93 69q92 101 244 347l14 -7zM606 1546q-171 0 -270 252l14 6q72 -141 256 -141
q180 0 256 141l15 -6q-99 -252 -271 -252z" />
    <glyph glyph-name="ebreve" unicode="&#x115;" horiz-adv-x="989" 
d="M516 -16q-172 0 -304 139t-132 362q0 243 135 389t315 146q152 0 265 -102q112 -102 106 -273h-633q-2 -36 -2 -80q0 -223 88 -368q89 -146 234 -146q215 0 301 254l14 -4q-100 -317 -387 -317zM737 664q-6 340 -217 340q-106 0 -171 -92q-64 -91 -79 -248h467zM524 1159
q-171 0 -270 252l14 6q72 -141 256 -141q180 0 256 141l15 -6q-99 -252 -271 -252z" />
    <glyph glyph-name="Edotaccent" unicode="&#x116;" horiz-adv-x="1269" 
d="M1022 -63l-12 2q4 28 -13 45q-16 16 -57 16h-471q-50 0 -89 1t-97 1q-49 0 -82 -1t-72 -1h-45v16h2q64 0 86 24q23 25 23 91v1133q0 66 -23 91q-22 23 -86 23h-2v17h45q39 0 72 -1t82 -1q59 0 101 1t93 1h440q42 0 60 15q19 15 14 46l13 4l180 -473l-15 -6
q-188 261 -241 317q-73 76 -193 76h-366v-655h245q114 0 152 65q39 65 55 209h17v-577h-17q-6 57 -12 93q-6 35 -21 76t-35 61q-22 22 -57 37t-82 15h-245v-678h385q66 0 109 17q42 17 93 69q92 101 244 347l14 -7zM606 1542q-44 0 -75 29q-29 28 -29 74t29 75q31 31 75 31
q42 0 75 -31q32 -30 32 -75q0 -43 -32 -73q-31 -30 -75 -30z" />
    <glyph glyph-name="edotaccent" unicode="&#x117;" horiz-adv-x="989" 
d="M516 -16q-172 0 -304 139t-132 362q0 243 135 389t315 146q152 0 265 -102q112 -102 106 -273h-633q-2 -36 -2 -80q0 -223 88 -368q89 -146 234 -146q215 0 301 254l14 -4q-100 -317 -387 -317zM737 664q-6 340 -217 340q-106 0 -171 -92q-64 -91 -79 -248h467zM524 1176
q-45 0 -74 28q-30 28 -30 74t30 76t74 30t75 -30q32 -30 32 -76q0 -43 -32 -73q-30 -29 -75 -29z" />
    <glyph glyph-name="Eogonek" unicode="&#x118;" horiz-adv-x="1269" 
d="M1022 -63l-12 2q4 28 -13 45q-16 16 -57 16h-76q-172 -82 -172 -193q0 -55 36 -89q34 -33 91 -33q82 0 150 77l12 -8q-40 -52 -103 -86q-65 -35 -137 -35q-82 0 -130 39t-48 99q0 112 271 229h-365q-50 0 -89 1t-97 1q-49 0 -82 -1t-72 -1h-45v16h2q64 0 86 24
q23 25 23 91v1133q0 66 -23 91q-22 23 -86 23h-2v17h45q39 0 72 -1t82 -1q59 0 101 1t93 1h440q42 0 60 15q19 15 14 46l13 4l180 -473l-15 -6q-188 261 -241 317q-73 76 -193 76h-366v-655h245q114 0 152 65q39 65 55 209h17v-577h-17q-6 57 -12 93q-6 35 -21 76t-35 61
q-22 22 -57 37t-82 15h-245v-678h385q66 0 109 17q42 17 93 69q92 101 244 347l14 -7z" />
    <glyph glyph-name="eogonek" unicode="&#x119;" horiz-adv-x="989" 
d="M516 -16q-172 0 -304 139t-132 362q0 243 135 389t315 146q152 0 265 -102q112 -102 106 -273h-633q-2 -36 -2 -80q0 -223 88 -368q89 -146 234 -146q215 0 301 254l14 -4q-69 -220 -246 -299q-174 -80 -174 -195q0 -54 35 -89q33 -33 90 -33q85 0 150 77l12 -8
q-40 -52 -103 -86q-65 -35 -137 -35q-82 0 -130 39t-48 99q0 104 256 221q-35 -8 -92 -8zM737 664q-6 340 -217 340q-106 0 -171 -92q-64 -91 -79 -248h467z" />
    <glyph glyph-name="Ecaron" unicode="&#x11a;" horiz-adv-x="1269" 
d="M606 1495q-25 0 -42 16q-15 14 -38 58q-110 219 -164 305l13 8q44 -54 72 -83q26 -27 89 -88q32 -31 70 -69q19 18 71 68q58 54 91 89q43 44 72 83l12 -8q-54 -86 -164 -305q-23 -44 -38 -58q-17 -16 -44 -16zM1022 -63l-12 2q4 28 -13 45q-16 16 -57 16h-471
q-50 0 -89 1t-97 1q-49 0 -82 -1t-72 -1h-45v16h2q64 0 86 24q23 25 23 91v1133q0 66 -23 91q-22 23 -86 23h-2v17h45q39 0 72 -1t82 -1q59 0 101 1t93 1h441q41 0 59 15q19 15 14 46l13 4l180 -473l-15 -6q-188 261 -241 317q-73 76 -193 76h-366v-655h245q114 0 152 65
q39 65 55 209h17v-577h-17q-6 57 -12 93q-6 35 -21 76t-35 61q-22 22 -57 37t-82 15h-245v-678h385q66 0 109 17q42 17 93 69q92 101 244 347l14 -7z" />
    <glyph glyph-name="ecaron" unicode="&#x11b;" horiz-adv-x="989" 
d="M524 1108q-25 0 -42 16q-15 14 -38 58q-114 227 -163 305l12 8q38 -47 73 -83q40 -42 88 -88q32 -31 70 -69q18 18 71 68q58 54 91 89q43 44 72 83l12 -8q-54 -86 -164 -305q-23 -44 -38 -58q-17 -16 -44 -16zM516 -16q-172 0 -304 139t-132 362q0 243 135 389t315 146
q152 0 265 -102q112 -102 106 -273h-633q-2 -36 -2 -80q0 -223 88 -368q89 -146 234 -146q215 0 301 254l14 -4q-100 -317 -387 -317zM737 664q-6 340 -217 340q-106 0 -171 -92q-64 -91 -79 -248h467z" />
    <glyph glyph-name="Gcircumflex" unicode="&#x11c;" horiz-adv-x="1349" 
d="M946 1503l-12 -8q-38 47 -73 83q-55 57 -89 89q-33 31 -72 70l-97 -97q-89 -87 -134 -145l-12 8q54 86 164 305q24 46 37 58q17 16 42 16q27 0 44 -16q15 -14 38 -58q110 -219 164 -305zM1196 487v-507h-14q-15 90 -150 147q-146 -143 -362 -143q-255 0 -427 200
q-173 202 -173 496q0 190 58 336t152 231q93 84 196 126t208 42q90 0 179 -19q94 -20 108 -20q36 0 55 16q18 15 16 50l13 4l178 -481l-14 -7q-140 239 -265 340q-123 99 -270 99q-187 0 -302 -166q-116 -167 -116 -522q0 -340 116 -519q115 -178 333 -178q91 0 175 41
q82 40 132 92v342q0 68 -23 91q-22 22 -86 22h-4v16h45q24 0 74 -3q49 -3 82 -3t81 3t73 3h45v-16h-4q-64 0 -86 -22q-23 -23 -23 -91z" />
    <glyph glyph-name="gcircumflex" unicode="&#x11d;" horiz-adv-x="1062" 
d="M768 1114l-12 -8q-38 47 -73 83q-55 57 -89 89q-33 31 -72 70l-6 -6l-13 -13t-18.5 -19t-26.5 -26.5t-33 -32.5q-89 -87 -134 -145l-12 8q49 78 163 305q23 44 38 58q17 16 42 16q27 0 44 -16q15 -14 38 -58q110 -219 164 -305zM504 -479q-215 0 -344 65
q-131 66 -131 154q0 144 309 221q-246 30 -246 160q0 70 67 117q69 49 177 88q-100 40 -160 126q-59 84 -59 201q0 160 110 263q112 104 279 104q132 0 229 -68q108 152 221 152q42 0 64 -18t22 -46q0 -26 -18 -44q-17 -17 -45 -17q-30 0 -65 17q-38 18 -66 18
q-45 0 -98 -72q145 -99 145 -287q0 -160 -111 -262t-278 -102q-81 0 -150 24q-79 -27 -116 -53q-39 -27 -39 -65q0 -71 200 -93l254 -28q355 -39 355 -262q0 -94 -75 -163q-77 -70 -186 -100q-111 -30 -245 -30zM506 307q217 0 217 348q0 349 -217 349t-217 -349
q0 -348 217 -348zM508 -463q178 0 285 58q104 56 104 153q0 138 -281 176l-241 31q-217 -61 -217 -209q0 -88 91 -148q93 -61 259 -61z" />
    <glyph glyph-name="Gbreve" unicode="&#x11e;" horiz-adv-x="1349" 
d="M1196 487v-507h-14q-15 90 -150 147q-146 -143 -362 -143q-255 0 -427 200q-173 202 -173 496q0 190 58 336t152 231q93 84 196 126t208 42q90 0 179 -19q94 -20 108 -20q36 0 55 16q18 15 16 50l13 4l178 -481l-14 -7q-140 239 -265 340q-123 99 -270 99
q-187 0 -302 -166q-116 -167 -116 -522q0 -340 116 -519q115 -178 333 -178q91 0 175 41q82 40 132 92v342q0 68 -23 91q-22 22 -86 22h-4v16h45q24 0 74 -3q49 -3 82 -3t81 3t73 3h45v-16h-4q-64 0 -86 -22q-23 -23 -23 -91zM700 1548q-171 0 -270 252l14 6
q72 -141 256 -141q180 0 256 141l15 -6q-99 -252 -271 -252z" />
    <glyph glyph-name="gbreve" unicode="&#x11f;" horiz-adv-x="1062" 
d="M504 -479q-215 0 -344 65q-131 66 -131 154q0 144 309 221q-246 30 -246 160q0 70 67 117q69 49 177 88q-100 40 -160 126q-59 84 -59 201q0 160 110 263q112 104 279 104q132 0 229 -68q108 152 221 152q42 0 64 -18t22 -46q0 -26 -18 -44q-17 -17 -45 -17q-30 0 -65 17
q-38 18 -66 18q-45 0 -98 -72q145 -99 145 -287q0 -160 -111 -262t-278 -102q-81 0 -150 24q-79 -27 -116 -53q-39 -27 -39 -65q0 -71 200 -93l254 -28q355 -39 355 -262q0 -94 -75 -163q-77 -70 -186 -100q-111 -30 -245 -30zM506 307q217 0 217 348q0 349 -217 349
t-217 -349q0 -348 217 -348zM508 -463q178 0 285 58q104 56 104 153q0 138 -281 176l-241 31q-217 -61 -217 -209q0 -88 91 -148q93 -61 259 -61zM522 1159q-171 0 -270 252l14 6q72 -141 256 -141q179 0 256 141l15 -6q-99 -252 -271 -252z" />
    <glyph glyph-name="Gdotaccent" unicode="&#x120;" horiz-adv-x="1349" 
d="M1196 487v-507h-14q-15 90 -150 147q-146 -143 -362 -143q-255 0 -427 200q-173 202 -173 496q0 190 58 336t152 231q93 84 196 126t208 42q90 0 179 -19q94 -20 108 -20q36 0 55 16q18 15 16 50l13 4l178 -481l-14 -7q-140 239 -265 340q-123 99 -270 99
q-187 0 -302 -166q-116 -167 -116 -522q0 -340 116 -519q115 -178 333 -178q91 0 175 41q82 40 132 92v342q0 68 -23 91q-22 22 -86 22h-4v16h45q24 0 74 -3q49 -3 82 -3t81 3t73 3h45v-16h-4q-64 0 -86 -22q-23 -23 -23 -91zM702 1544q-43 0 -74 29q-30 29 -30 74t30 75
q31 31 74 31q42 0 75 -31q32 -30 32 -75q0 -43 -32 -73q-31 -30 -75 -30z" />
    <glyph glyph-name="gdotaccent" unicode="&#x121;" horiz-adv-x="1062" 
d="M504 -479q-215 0 -344 65q-131 66 -131 154q0 144 309 221q-246 30 -246 160q0 70 67 117q69 49 177 88q-100 40 -160 126q-59 84 -59 201q0 160 110 263q112 104 279 104q132 0 229 -68q108 152 221 152q42 0 64 -18t22 -46q0 -26 -18 -44q-17 -17 -45 -17q-30 0 -65 17
q-38 18 -66 18q-45 0 -98 -72q145 -99 145 -287q0 -160 -111 -262t-278 -102q-81 0 -150 24q-79 -27 -116 -53q-39 -27 -39 -65q0 -71 200 -93l254 -28q355 -39 355 -262q0 -94 -75 -163q-77 -70 -186 -100q-111 -30 -245 -30zM506 307q217 0 217 348q0 349 -217 349
t-217 -349q0 -348 217 -348zM508 -463q178 0 285 58q104 56 104 153q0 138 -281 176l-241 31q-217 -61 -217 -209q0 -88 91 -148q93 -61 259 -61zM522 1176q-46 0 -75 28t-29 74q0 47 29 76q30 30 75 30q44 0 75 -30q32 -30 32 -76q0 -43 -32 -73q-30 -29 -75 -29z" />
    <glyph glyph-name="Gcommaaccent" unicode="&#x122;" horiz-adv-x="1349" 
d="M676 -324q-41 0 -68 27q-26 26 -26 68q0 39 27 67q27 29 71 29q45 0 78 -36t33 -89q0 -101 -55 -165q-53 -62 -122 -77l-2 13q61 17 107 70q47 55 47 132q0 7 -2 21q-23 -60 -88 -60zM1196 487v-507h-14q-15 90 -150 147q-146 -143 -362 -143q-255 0 -427 200
q-173 202 -173 496q0 190 58 336t152 231q93 84 196 126t208 42q90 0 179 -19q94 -20 108 -20q36 0 55 16q18 15 16 50l13 4l178 -481l-14 -7q-140 239 -265 340q-123 99 -270 99q-187 0 -302 -166q-116 -167 -116 -522q0 -340 116 -519q115 -178 333 -178q91 0 175 41
q82 40 132 92v342q0 68 -23 91q-22 22 -86 22h-4v16h45q24 0 74 -3q49 -3 82 -3t81 3t73 3h45v-16h-4q-64 0 -86 -22q-23 -23 -23 -91z" />
    <glyph glyph-name="gcommaaccent" unicode="&#x123;" horiz-adv-x="1062" 
d="M504 -479q-215 0 -344 65q-131 66 -131 154q0 144 309 221q-246 30 -246 160q0 70 67 117q69 49 177 88q-100 40 -160 126q-59 84 -59 201q0 160 110 263q112 104 279 104q132 0 229 -68q108 152 221 152q42 0 64 -18t22 -46q0 -26 -18 -44q-17 -17 -45 -17q-30 0 -65 17
q-38 18 -66 18q-45 0 -98 -72q145 -99 145 -287q0 -160 -111 -262t-278 -102q-81 0 -150 24q-79 -27 -116 -53q-39 -27 -39 -65q0 -71 200 -93l254 -28q355 -39 355 -262q0 -94 -75 -163q-77 -70 -186 -100q-111 -30 -245 -30zM506 307q217 0 217 348q0 349 -217 349
t-217 -349q0 -348 217 -348zM508 -463q178 0 285 58q104 56 104 153q0 138 -281 176l-241 31q-217 -61 -217 -209q0 -88 91 -148q93 -61 259 -61zM532 1350q40 0 68 -28q27 -27 27 -69q0 -37 -28 -67q-27 -29 -71 -29t-77 36t-33 89q0 101 53 165q52 62 123 79l2 -15
q-61 -17 -107 -69q-47 -53 -47 -131q0 -7 2 -23q23 62 88 62z" />
    <glyph glyph-name="Hcircumflex" unicode="&#x124;" horiz-adv-x="1445" 
d="M967 1501l-13 -8q-44 54 -72 83q-55 57 -89 89q-33 31 -72 70l-97 -97q-93 -92 -135 -145l-12 8q54 86 164 305q23 44 38 58q17 16 42 16q27 0 44 -16q15 -14 38 -58q110 -219 164 -305zM1251 131q0 -68 22 -92q21 -23 85 -23h4v-16h-45q-25 0 -73 3t-81 3t-81 -3t-72 -3
h-45v16h2q66 0 87 23q21 22 21 92v567h-706v-567q0 -68 22 -91q23 -24 86 -24h4v-16h-45q-24 0 -72 3t-81 3t-82 -3t-72 -3h-45v16h2q64 0 86 24q23 25 23 91v1133q0 66 -23 91q-22 23 -86 23h-2v17h45q23 0 72 -3q50 -3 82 -3q33 0 81 3t72 3h45v-17h-4q-64 0 -86 -23
t-22 -91v-545h706v545q0 69 -21 92q-21 22 -87 22h-2v17h45q24 0 72 -3t81 -3t81 3t73 3h45v-17h-4q-64 0 -85 -22q-22 -24 -22 -92v-1133z" />
    <glyph glyph-name="hcircumflex" unicode="&#x125;" horiz-adv-x="1120" 
d="M489 1497l-12 -8q-38 47 -73 83q-55 57 -89 89q-17 15 -71 70q-37 -37 -98 -97q-89 -87 -134 -145l-12 8q54 86 164 305q23 44 38 58q17 16 42 16q27 0 44 -16q15 -14 38 -58q114 -227 163 -305zM948 872v-745q0 -67 21 -90t88 -23h4v-14h-39q-24 0 -74 3t-84 3t-84 -3
t-75 -3h-37v14h2q69 0 90 23q20 21 20 90v750q0 94 -71 94q-35 0 -162 -45l-203 -78v-721q0 -67 21 -90t88 -23h4v-14h-39q-24 0 -74 3t-84 3t-84 -3q-49 -3 -76 -3h-37v14h3q69 0 90 23q20 21 20 90v1141q0 69 -20 90q-21 22 -90 22h-3v15h25q75 0 150 26q77 27 92 62h14
v-617l219 86q175 68 254 68q131 0 131 -148z" />
    <glyph glyph-name="Hbar" unicode="&#x126;" horiz-adv-x="1468" 
d="M1376 0h-45q-25 0 -73 3t-80 3t-82 -3t-74 -3h-43v16h2q63 0 86 24q23 25 23 91v502h-707v-502q0 -69 21 -92t88 -23h2v-16h-45q-23 0 -72 3t-82 3t-81 -3t-73 -3h-45v16h4q64 0 85 23q22 24 22 92v836h-156v20h156v277q0 68 -22 92q-21 22 -85 22h-4v17h45q25 0 73 -3
t81 -3t82 3t72 3h45v-17h-2q-67 0 -88 -22q-21 -23 -21 -92v-277h707v277q0 66 -23 91q-22 23 -86 23h-2v17h43q24 0 74 -3t82 -3t80 3t73 3h45v-17h-4q-64 0 -86 -23t-22 -91v-277h153v-20h-153v-836q0 -68 22 -91q22 -24 86 -24h4v-16zM1090 653v314h-707v-314h707z" />
    <glyph glyph-name="hbar" unicode="&#x127;" horiz-adv-x="1120" 
d="M948 872v-745q0 -67 21 -90t88 -23h4v-14h-39q-24 0 -74 3t-84 3t-84 -3t-75 -3h-37v14h2q69 0 90 23q20 21 20 90v750q0 94 -71 94q-35 0 -162 -45l-203 -78v-721q0 -67 21 -90t88 -23h4v-14h-39q-24 0 -74 3t-84 3t-84 -3q-49 -3 -76 -3h-37v14h3q69 0 90 23
q20 21 20 90v1032h-133v17h133v92q0 69 -20 90q-21 22 -90 22h-3v15h25q75 0 150 26q77 27 92 62h14v-307h217v-17h-217v-293l219 86q175 68 254 68q131 0 131 -148z" />
    <glyph glyph-name="Itilde" unicode="&#x128;" horiz-adv-x="563" 
d="M369 131q0 -68 22 -91q23 -24 86 -24h4v-16h-45q-24 0 -72 3t-81 3t-82 -3t-72 -3h-45v16h2q64 0 86 24q23 25 23 91v1133q0 66 -23 91q-22 23 -86 23h-2v17h45q23 0 72 -3q50 -3 82 -3q33 0 81 3t72 3h45v-17h-4q-64 0 -86 -23t-22 -91v-1133zM365 1585q-43 0 -114 44
t-124 44q-58 0 -127 -114l-14 8q1 2 17 28q4 6 9 14t8 13t5 8q6 10 21 33q12 18 26 34q10 11 27 27q22 20 32 25q18 9 34 14q19 6 40 6q42 0 113 -44t124 -44q58 0 125 115l15 -8q0 -1 -3 -5.5t-9 -14.5l-12 -20l-30 -48q-9 -14 -30 -41q-22 -28 -40 -40q-12 -8 -42 -23
q-22 -11 -51 -11z" />
    <glyph glyph-name="itilde" unicode="&#x129;" horiz-adv-x="534" 
d="M471 0h-37q-26 0 -76 3t-84 3t-84 -3t-73 -3h-39v14h4q67 0 88 23q20 21 20 90v682q0 67 -20 88q-21 23 -88 23h-4v16h24q73 0 151 26q77 26 93 60h12v-895q0 -67 21 -90t90 -23h2v-14zM356 1198q-42 0 -113 44t-124 44q-57 0 -127 -115l-15 9q0 1 2.5 4.5t7 10.5t8.5 13
q12 19 21 35l22 33q15 23 25 34q6 7 28 27t32 25q18 9 34 14q20 6 40 6q42 0 113 -44t124 -44q58 0 125 115l14 -8q0 -1 -23 -40l-30 -48q-5 -8 -31 -41q-23 -30 -39 -40q-12 -8 -42 -23q-22 -11 -52 -11z" />
    <glyph glyph-name="Imacron" unicode="&#x12a;" horiz-adv-x="563" 
d="M369 131q0 -68 22 -91q23 -24 86 -24h4v-16h-45q-24 0 -72 3t-81 3t-82 -3t-72 -3h-45v16h2q64 0 86 24q23 25 23 91v1133q0 66 -23 91q-22 23 -86 23h-2v17h45q23 0 72 -3q50 -3 82 -3q33 0 81 3t72 3h45v-17h-4q-64 0 -86 -23t-22 -91v-1133zM528 1630h-497v47h497v-47
z" />
    <glyph glyph-name="imacron" unicode="&#x12b;" horiz-adv-x="534" 
d="M471 0h-37q-26 0 -76 3t-84 3t-84 -3t-73 -3h-39v14h4q67 0 88 23q20 21 20 90v682q0 67 -20 88q-21 23 -88 23h-4v16h24q73 0 151 26q77 26 93 60h12v-895q0 -67 21 -90t90 -23h2v-14zM520 1243h-497v47h497v-47z" />
    <glyph glyph-name="Ibreve" unicode="&#x12c;" horiz-adv-x="563" 
d="M369 131q0 -68 22 -91q23 -24 86 -24h4v-16h-45q-24 0 -72 3t-81 3t-82 -3t-72 -3h-45v16h2q64 0 86 24q23 25 23 91v1133q0 66 -23 91q-22 23 -86 23h-2v17h45q23 0 72 -3q50 -3 82 -3q33 0 81 3t72 3h45v-17h-4q-64 0 -86 -23t-22 -91v-1133zM283 1546q-172 0 -271 252
l15 6q72 -141 256 -141q179 0 256 141l14 -6q-99 -252 -270 -252z" />
    <glyph glyph-name="ibreve" unicode="&#x12d;" horiz-adv-x="534" 
d="M471 0h-37q-26 0 -76 3t-84 3t-84 -3t-73 -3h-39v14h4q67 0 88 23q20 21 20 90v682q0 67 -20 88q-21 23 -88 23h-4v16h24q73 0 151 26q77 26 93 60h12v-895q0 -67 21 -90t90 -23h2v-14zM274 1159q-171 0 -270 252l14 6q72 -141 256 -141q179 0 256 141l15 -6
q-99 -252 -271 -252z" />
    <glyph glyph-name="Iogonek" unicode="&#x12e;" horiz-adv-x="563" 
d="M369 131q0 -68 22 -91q23 -24 86 -24h4v-16h-45q-35 0 -90 4q-168 -83 -168 -197q0 -55 36 -89q34 -33 91 -33q82 0 150 77l12 -8q-40 -52 -103 -86q-65 -35 -137 -35q-82 0 -130 39t-48 99q0 47 54 99q51 50 106 82q51 30 108 54h-34q-33 0 -82 -3t-72 -3h-45v16h2
q64 0 86 24q23 25 23 91v1133q0 66 -23 91q-22 23 -86 23h-2v17h45q23 0 72 -3q50 -3 82 -3q33 0 81 3t72 3h45v-17h-4q-64 0 -86 -23t-22 -91v-1133z" />
    <glyph glyph-name="iogonek" unicode="&#x12f;" horiz-adv-x="534" 
d="M471 0h-37q-35 0 -86 4q-172 -82 -172 -197q0 -55 36 -89q34 -33 91 -33q82 0 150 77l12 -8q-39 -51 -104 -86t-136 -35q-82 0 -130 39t-48 99q0 114 272 235h-45q-34 0 -84 -3t-73 -3h-39v14h4q67 0 88 23q20 21 20 90v682q0 67 -20 88q-21 23 -88 23h-4v16h24
q73 0 151 26q77 26 93 60h12v-895q0 -67 21 -90t90 -23h2v-14zM272 1192q-43 0 -76 31q-32 30 -32 77q0 50 32 80q33 31 76 31q46 0 80 -31q33 -30 33 -80q0 -47 -33 -77q-34 -31 -80 -31z" />
    <glyph glyph-name="Idotaccent" unicode="&#x130;" horiz-adv-x="563" 
d="M369 131q0 -68 22 -91q23 -24 86 -24h4v-16h-45q-24 0 -72 3t-81 3t-82 -3t-72 -3h-45v16h2q64 0 86 24q23 25 23 91v1133q0 66 -23 91q-22 23 -86 23h-2v17h45q23 0 72 -3q50 -3 82 -3q33 0 81 3t72 3h45v-17h-4q-64 0 -86 -23t-22 -91v-1133zM281 1542q-44 0 -75 29
q-30 29 -30 74t30 75q31 31 75 31q41 0 74 -31q32 -30 32 -75q0 -43 -32 -73q-31 -30 -74 -30z" />
    <glyph glyph-name="dotlessi" unicode="&#x131;" horiz-adv-x="534" 
d="M471 0h-37q-26 0 -76 3t-84 3t-84 -3t-73 -3h-39v14h4q67 0 88 23q20 21 20 90v682q0 67 -20 88q-21 23 -88 23h-4v16h24q73 0 151 26q77 26 93 60h12v-895q0 -67 21 -90t90 -23h2v-14z" />
    <glyph glyph-name="IJ" unicode="&#x132;" horiz-adv-x="1187" 
d="M369 131q0 -68 22 -91q23 -24 86 -24h4v-16h-45q-24 0 -72 3t-81 3t-82 -3t-72 -3h-45v16h2q64 0 86 24q23 25 23 91v1133q0 66 -23 91q-22 23 -86 23h-2v17h45q23 0 72 -3q50 -3 82 -3q33 0 81 3t72 3h45v-17h-4q-64 0 -86 -23t-22 -91v-1133zM1006 403
q0 -309 -140 -466q-139 -156 -329 -156q-40 0 -62 19t-22 53q0 31 20 51t53 20q29 0 98 -30q71 -31 99 -31q60 0 84 47q24 46 24 151v1203q0 68 -22 91t-86 23h-4v17h45q25 0 73 -3t81 -3q32 0 81 3t72 3h45v-17h-2q-64 0 -86 -23t-22 -91v-861z" />
    <glyph glyph-name="ij" unicode="&#x133;" horiz-adv-x="1042" 
d="M471 0h-37q-26 0 -76 3t-84 3t-84 -3t-73 -3h-39v14h4q67 0 88 23q20 21 20 90v682q0 67 -20 88q-21 23 -88 23h-4v16h24q73 0 151 26q77 26 93 60h12v-895q0 -67 21 -90t90 -23h2v-14zM272 1192q-43 0 -76 31q-32 30 -32 77q0 50 32 80q33 31 76 31q46 0 80 -31
q33 -30 33 -80q0 -47 -33 -77q-34 -31 -80 -31zM471 -483q-34 0 -55 17q-23 18 -23 46t19 45t49 17q28 0 83 -20q53 -19 87 -19q49 0 70 37q22 39 22 120v1049q0 64 -22 88q-21 23 -89 23h-4v16h25q71 0 151 26q78 26 93 60h12v-936q0 -218 -109 -383q-128 -186 -309 -186z
M805 1192q-46 0 -79 31q-32 30 -32 77q0 50 32 80q33 31 79 31t79 -31q31 -30 31 -80q0 -47 -31 -77q-33 -31 -79 -31z" />
    <glyph glyph-name="Jcircumflex" unicode="&#x134;" horiz-adv-x="622" 
d="M600 1501l-12 -8q-38 47 -73 83q-55 57 -89 89q-33 31 -72 70l-97 -97q-89 -87 -134 -145l-12 8q49 78 163 305q23 44 38 58q17 16 42 16q27 0 44 -16q15 -14 38 -58q110 -219 164 -305zM442 403q0 -311 -139 -466q-139 -156 -330 -156q-39 0 -61 19q-23 20 -23 53
q0 30 21 51q20 20 53 20q28 0 97 -30q71 -31 100 -31q60 0 84 47t24 151v1203q0 68 -22 91t-86 23h-4v17h45q24 0 72 -3t81 -3q32 0 82 3t72 3h45v-17h-2q-64 0 -86 -23q-23 -25 -23 -91v-861z" />
    <glyph glyph-name="jcircumflex" unicode="&#x135;" horiz-adv-x="507" 
d="M356 86q0 -220 -108 -383q-128 -186 -309 -186q-35 0 -56 17q-22 18 -22 46t18 45q19 17 49 17q28 0 83 -20q53 -19 87 -19q92 0 92 147v1059q0 65 -21 88t-89 23h-4v16h24q72 0 152 26q77 25 92 60h12v-936zM518 1114l-12 -8q-38 47 -73 83q-55 57 -89 89q-33 31 -72 70
l-6 -6l-13 -13t-18.5 -19t-26.5 -26.5t-33 -32.5q-89 -87 -134 -145l-12 8q54 86 164 305q24 46 37 58q17 16 42 16q27 0 44 -16q15 -14 38 -58q110 -219 164 -305z" />
    <glyph glyph-name="Kcommaaccent" unicode="&#x136;" horiz-adv-x="1361" 
d="M682 -324q-41 0 -68 27q-26 26 -26 68q0 39 27 67q27 29 71 29q45 0 78 -36t33 -89q0 -101 -55 -165q-53 -62 -121 -77l-3 13q61 17 107 70q47 55 47 132q0 7 -2 21q-23 -60 -88 -60zM1364 0h-84q-16 0 -68 3t-88 3t-88 -3t-67 -3h-82v16h22q86 0 86 58q0 24 -24 63
l-369 586l-233 -277v-315q0 -68 22 -91q23 -24 86 -24h4v-16h-45q-24 0 -72 3t-81 3t-82 -3t-72 -3h-45v16h2q64 0 86 24q23 25 23 91v1133q0 66 -23 91q-22 23 -86 23h-2v17h45q23 0 72 -3q50 -3 82 -3q33 0 81 3t72 3h45v-17h-4q-64 0 -86 -23t-22 -91v-785l221 262
l-78 123q5 0 15.5 -0.5t30 -1t37.5 -0.5q66 -2 99 0l269 322q59 71 59 121q0 73 -127 73v17h39q26 0 78 -3t80 -3q33 0 87 3t72 3h43v-17q-142 0 -313 -204l-262 -314l461 -731q69 -113 184 -113v-16z" />
    <glyph glyph-name="kcommaaccent" unicode="&#x137;" horiz-adv-x="1099" 
d="M557 -324q-41 0 -68 27q-26 26 -26 68q0 39 27 67q27 29 71 29q45 0 78 -36t33 -89q0 -101 -55 -165q-53 -62 -121 -77l-2 13q60 16 106 70q47 55 47 132q0 7 -2 21q-23 -60 -88 -60zM764 797l-127 -135l319 -545q33 -60 63 -81q31 -22 83 -22h2v-14h-35q-14 0 -65 3
t-91 3q-37 0 -86 -3t-65 -3h-55v14h4q86 0 86 41q0 12 -17 41l-260 445l-176 -181v-233q0 -67 21 -90t88 -23h4v-14h-39q-24 0 -74 3t-84 3t-84 -3q-49 -3 -76 -3h-37v14h3q69 0 90 23q20 21 20 90v1141q0 69 -20 90q-21 22 -90 22h-3v15h25q75 0 150 26q77 27 92 62h14
v-1096l166 170l-61 105h163l136 143q67 71 67 117q0 67 -98 67h-6v15h28q8 0 70 -4q47 -3 84 -3t84 3q62 4 70 4h32v-15h-4q-127 0 -311 -192z" />
    <glyph glyph-name="kgreenlandic" unicode="&#x138;" horiz-adv-x="1114" 
d="M1118 0h-35q-14 0 -65 3t-90 3q-38 0 -87 -3t-65 -3h-55v14h4q84 0 84 41q0 16 -14 41l-260 445l-177 -181v-233q0 -67 21 -90t88 -23h4v-14h-39q-27 0 -75 3t-83 3q-34 0 -84 -3t-75 -3h-37v14h2q69 0 90 23q20 21 20 90v684q0 67 -20 88q-21 23 -90 23h-2v14h24
q72 0 150 27q77 27 92 61h14v-637l166 170l-61 105h51h60h53l135 143q67 71 67 117q0 67 -98 67h-6v15h29q9 0 71 -4q47 -3 82 -3t82 3q62 4 72 4h33v-15h-4q-128 0 -312 -192l-127 -135l320 -545q38 -61 64 -81q28 -22 81 -22h2v-14z" />
    <glyph glyph-name="Lacute" unicode="&#x139;" horiz-adv-x="1159" 
d="M178 1495l-12 8q43 77 90 191q44 107 74 155q23 35 59 35q29 0 48 -18q20 -18 20 -45q0 -24 -17 -47q-28 -39 -115 -120q-93 -87 -147 -159zM1153 475l-201 -538l-12 2q4 29 -12 45t-58 16h-434q-40 0 -72 1t-81 1t-82 -1t-72 -1h-45v16h2q64 0 86 24q23 25 23 91v1133
q0 66 -23 91q-22 23 -86 23h-2v17h45q23 0 72 -3q50 -3 82 -3q33 0 81 3t72 3h45v-17h-4q-64 0 -86 -23t-22 -91v-1244h317q65 0 108 17q41 16 91 69q69 75 254 375z" />
    <glyph glyph-name="lacute" unicode="&#x13a;" horiz-adv-x="520" 
d="M145 1571l-12 8q44 79 90 190q46 110 74 156q23 35 59 35q28 0 48 -18t20 -46q0 -25 -16 -47q-24 -33 -116 -119q-93 -87 -147 -159zM344 127q0 -67 21 -90t88 -23h4v-14h-39q-24 0 -74 3t-84 3t-84 -3q-49 -3 -76 -3h-37v14h3q69 0 90 23q20 21 20 90v1141q0 69 -20 90
q-21 22 -90 22h-3v15h25q75 0 150 26q77 27 92 62h14v-1356z" />
    <glyph glyph-name="Lcommaaccent" unicode="&#x13b;" horiz-adv-x="1159" 
d="M559 -324q-40 0 -67 27t-27 68q0 37 28 67q27 29 70 29q45 0 78 -36t33 -89q0 -102 -54 -165q-53 -62 -122 -77l-2 13q60 16 106 70q47 55 47 132q0 7 -2 21q-23 -60 -88 -60zM1153 475l-201 -538l-12 2q4 29 -12 45t-58 16h-434q-40 0 -72 1t-81 1t-82 -1t-72 -1h-45v16
h2q64 0 86 24q23 25 23 91v1133q0 66 -23 91q-22 23 -86 23h-2v17h45q23 0 72 -3q50 -3 82 -3q33 0 81 3t72 3h45v-17h-4q-64 0 -86 -23t-22 -91v-1244h317q65 0 108 17q41 16 91 69q69 75 254 375z" />
    <glyph glyph-name="lcommaaccent" unicode="&#x13c;" horiz-adv-x="520" 
d="M252 -324q-41 0 -68 27q-26 26 -26 68q0 39 27 67q27 29 71 29q45 0 78 -36t33 -89q0 -101 -55 -165q-53 -62 -122 -77l-2 13q61 17 107 70q47 55 47 132q0 7 -2 21q-23 -60 -88 -60zM344 127q0 -67 21 -90t88 -23h4v-14h-39q-24 0 -74 3t-84 3t-84 -3q-49 -3 -76 -3h-37
v14h3q69 0 90 23q20 21 20 90v1141q0 69 -20 90q-21 22 -90 22h-3v15h25q75 0 150 26q77 27 92 62h14v-1356z" />
    <glyph glyph-name="Lcaron" unicode="&#x13d;" horiz-adv-x="1161" 
d="M829 928l-14 4q19 94 29 234q11 149 22 192q16 57 70 57q27 0 47 -17q21 -18 21 -46q0 -16 -7 -37q-13 -40 -74 -164q-66 -134 -94 -223zM1153 475l-201 -538l-12 2q4 29 -12 45t-58 16h-434q-40 0 -72 1t-81 1t-82 -1t-72 -1h-45v16h2q64 0 86 24q23 25 23 91v1133
q0 66 -23 91q-22 23 -86 23h-2v17h45q23 0 72 -3q50 -3 82 -3q33 0 81 3t72 3h45v-17h-4q-64 0 -86 -23t-22 -91v-1244h317q65 0 108 17q41 16 91 69q69 75 254 375z" />
    <glyph glyph-name="lcaron" unicode="&#x13e;" horiz-adv-x="567" 
d="M537 995l-15 4q19 93 29 235q11 147 22 191q17 58 70 58q26 0 47 -18t21 -46q0 -19 -6 -37q-10 -32 -75 -163q-63 -127 -93 -224zM344 127q0 -67 21 -90t88 -23h4v-14h-39q-24 0 -74 3t-84 3t-84 -3q-49 -3 -76 -3h-37v14h3q69 0 90 23q20 21 20 90v1141q0 69 -20 90
q-21 22 -90 22h-3v15h25q75 0 150 26q77 27 92 62h14v-1356z" />
    <glyph glyph-name="Ldot" unicode="&#x13f;" horiz-adv-x="1159" 
d="M1153 475l-201 -538l-12 2q4 29 -12 45t-58 16h-434q-40 0 -72 1t-81 1t-82 -1t-72 -1h-45v16h2q64 0 86 24q23 25 23 91v1133q0 66 -23 91q-22 23 -86 23h-2v17h45q23 0 72 -3q50 -3 82 -3q33 0 81 3t72 3h45v-17h-4q-64 0 -86 -23t-22 -91v-1244h317q65 0 108 17
q41 16 91 69q69 75 254 375zM786 625q-45 0 -74 28q-30 29 -30 74q0 46 30 76q31 31 74 31q42 0 75 -31q32 -30 32 -76q0 -43 -32 -73q-30 -29 -75 -29z" />
    <glyph glyph-name="ldot" unicode="&#x140;" horiz-adv-x="813" 
d="M344 127q0 -67 21 -90t88 -23h4v-14h-39q-24 0 -74 3t-84 3t-84 -3q-49 -3 -76 -3h-37v14h3q69 0 90 23q20 21 20 90v1141q0 69 -20 90q-21 22 -90 22h-3v15h25q75 0 150 26q77 27 92 62h14v-1356zM668 459q-46 0 -75 28q-30 28 -30 74t30 76q31 31 75 31q41 0 74 -31
q32 -30 32 -76q0 -43 -32 -73q-30 -29 -74 -29z" />
    <glyph glyph-name="Lslash" unicode="&#x141;" horiz-adv-x="1177" 
d="M1171 475l-200 -538l-13 2q5 29 -13 45q-17 16 -56 16h-436q-39 0 -71 1t-81 1q-51 0 -83 -1t-73 -1h-45v16h4q64 0 86 24q23 25 23 91v459l-152 -78l-10 18l162 82v652q0 66 -23 91q-22 23 -86 23h-4v17h45q25 0 73 -3t83 -3q33 0 81 3t71 3h45v-17h-2q-64 0 -86 -23
q-23 -25 -23 -91v-559l254 133l10 -19l-264 -139v-660h318q64 0 107 17q41 16 91 69q69 75 254 375z" />
    <glyph glyph-name="lslash" unicode="&#x142;" horiz-adv-x="589" 
d="M551 782l-174 -90v-565q0 -65 21 -89t89 -24h5v-14h-39q-27 0 -76 3t-84 3t-83 -3t-75 -3h-39v14h4q68 0 89 24q22 25 22 89v479l-164 -84l-8 19l172 88v639q0 66 -22 90q-21 22 -89 22h-4v15h25q76 0 151 26q78 27 93 62h12v-768l166 84z" />
    <glyph glyph-name="Nacute" unicode="&#x143;" horiz-adv-x="1421" 
d="M641 1495l-12 8q43 77 90 191q44 107 74 155q23 35 59 35q28 0 48 -18t20 -45q0 -24 -17 -47q-26 -36 -116 -120t-146 -159zM1321 0q-37 0 -58 1t-42 1q-31 0 -55 -1t-56 -1l-868 1245v-971q0 -256 186 -258h4v-16h-47q-15 0 -66 3t-86 3t-87 -3t-66 -3h-45v16h4
q182 0 182 258v996q-50 75 -78 92q-26 16 -71 16h-4v17h26q43 0 68 -1t59 -1q42 0 69 1t62 1l834 -1190v915q0 256 -185 258h-4v17h47q15 0 66 -3t86 -3q34 0 87 3q52 3 67 3h45v-17h-4q-185 0 -185 -258v-946z" />
    <glyph glyph-name="nacute" unicode="&#x144;" horiz-adv-x="1134" 
d="M465 1106l-12 8q43 77 90 191q46 112 73 155q23 35 60 35q28 0 48 -18q19 -18 19 -45q0 -26 -16 -48q-24 -33 -116 -119q-90 -84 -146 -159zM1075 0h-37q-26 0 -75 3t-84 3t-84 -3t-74 -3h-39v14h4q67 0 88 23t21 90v750q0 94 -70 94q-37 0 -164 -45l-203 -78v-721
q0 -67 21 -90t90 -23h2v-14h-37q-26 0 -76 3t-84 3t-84 -3t-73 -3h-39v14h4q67 0 88 23q20 21 20 90v682q0 67 -20 88q-21 23 -88 23h-4v16h24q73 0 151 26q77 26 93 60h12v-156l222 86q175 68 251 68q132 0 132 -148v-745q0 -69 20 -90q21 -23 90 -23h2v-14z" />
    <glyph glyph-name="Ncommaaccent" unicode="&#x145;" horiz-adv-x="1421" 
d="M723 -324q-41 0 -68 27q-26 26 -26 68q0 39 27 67q27 29 71 29q45 0 78 -36t33 -89q0 -101 -55 -165q-53 -62 -121 -77l-3 13q61 17 107 70q47 55 47 132q0 7 -2 21q-23 -60 -88 -60zM1321 0q-37 0 -58 1t-42 1q-31 0 -55 -1t-56 -1l-868 1245v-971q0 -256 186 -258h4
v-16h-47q-15 0 -66 3t-86 3t-87 -3t-66 -3h-45v16h4q182 0 182 258v996q-50 75 -78 92q-26 16 -71 16h-4v17h26q43 0 68 -1t59 -1q42 0 69 1t62 1l834 -1190v915q0 256 -185 258h-4v17h47q15 0 66 -3t86 -3q34 0 87 3q52 3 67 3h45v-17h-4q-185 0 -185 -258v-946z" />
    <glyph glyph-name="ncommaaccent" unicode="&#x146;" horiz-adv-x="1134" 
d="M571 -324q-40 0 -67 27t-27 68q0 37 28 67q27 29 70 29q45 0 78 -36t33 -89q0 -102 -54 -165q-53 -62 -122 -77l-2 13q60 16 106 70q48 56 48 132l-3 21q-23 -60 -88 -60zM1075 0h-37q-26 0 -75 3t-84 3t-84 -3t-74 -3h-39v14h4q67 0 88 23t21 90v750q0 94 -70 94
q-37 0 -164 -45l-203 -78v-721q0 -67 21 -90t90 -23h2v-14h-37q-26 0 -76 3t-84 3t-84 -3t-73 -3h-39v14h4q67 0 88 23q20 21 20 90v682q0 67 -20 88q-21 23 -88 23h-4v16h24q73 0 151 26q77 26 93 60h12v-156l222 86q175 68 251 68q132 0 132 -148v-745q0 -69 20 -90
q21 -23 90 -23h2v-14z" />
    <glyph glyph-name="Ncaron" unicode="&#x147;" horiz-adv-x="1421" 
d="M756 1497q-25 0 -42 16q-15 14 -38 58q-110 219 -164 305l12 8q38 -47 73 -83q40 -42 88 -88q15 -15 39 -37.5t32 -30.5q18 18 70 67q68 64 92 89q38 39 71 83l12 -8q-49 -78 -163 -305q-23 -44 -38 -58q-17 -16 -44 -16zM1321 0q-37 0 -58 1t-42 1q-31 0 -55 -1t-56 -1
l-868 1245v-971q0 -256 186 -258h4v-16h-47q-15 0 -66 3t-86 3t-87 -3t-66 -3h-45v16h4q182 0 182 258v996q-50 75 -78 92q-26 16 -71 16h-4v17h26q43 0 68 -1t59 -1q42 0 69 1t62 1l834 -1190v915q0 256 -185 258h-4v17h47q15 0 66 -3t86 -3q34 0 87 3q52 3 67 3h45v-17h-4
q-185 0 -185 -258v-946z" />
    <glyph glyph-name="ncaron" unicode="&#x148;" horiz-adv-x="1134" 
d="M580 1108q-25 0 -42 16q-15 14 -38 58q-110 219 -164 305l12 8q38 -47 73 -83q40 -42 88 -88q64 -62 71 -69q35 35 70 68q58 54 91 89q43 44 72 83l12 -8q-49 -78 -163 -305q-23 -44 -38 -58q-17 -16 -44 -16zM1075 0h-37q-26 0 -75 3t-84 3t-84 -3t-74 -3h-39v14h4
q67 0 88 23t21 90v750q0 94 -70 94q-37 0 -164 -45l-203 -78v-721q0 -67 21 -90t90 -23h2v-14h-37q-26 0 -76 3t-84 3t-84 -3t-73 -3h-39v14h4q67 0 88 23q20 21 20 90v682q0 67 -20 88q-21 23 -88 23h-4v16h24q73 0 151 26q77 26 93 60h12v-156l222 86q175 68 251 68
q132 0 132 -148v-745q0 -69 20 -90q21 -23 90 -23h2v-14z" />
    <glyph glyph-name="napostrophe" unicode="&#x149;" horiz-adv-x="1341" 
d="M106 1198q-43 0 -74 31q-30 30 -30 76q0 42 32 74t79 32q49 0 85 -40q35 -39 35 -99q0 -117 -59 -185q-61 -71 -135 -88l-4 17q68 15 122 78t54 151q0 5 -2 21q-30 -68 -103 -68zM1282 0h-37q-27 0 -76 3t-84 3t-84 -3t-73 -3h-39v14h4q67 0 88 23q20 21 20 90v750
q0 94 -69 94q-36 0 -164 -45l-203 -78v-721q0 -67 21 -90t90 -23h2v-14h-37q-27 0 -76 3t-84 3t-84 -3t-73 -3h-39v14h4q67 0 88 23q20 21 20 90v682q0 67 -20 88q-21 23 -88 23h-4v16h24q73 0 151 26q76 26 93 60h12v-156l221 86q175 68 252 68q131 0 131 -148v-745
q0 -67 21 -90t90 -23h2v-14z" />
    <glyph glyph-name="Eng" unicode="&#x14a;" horiz-adv-x="1396" 
d="M750 -483q-40 0 -65 19q-26 20 -26 52q0 31 23 52q21 20 55 20q32 0 98 -30q64 -29 99 -29q67 0 146 106q80 107 102 295q-18 0 -37 -1t-35 -1l-868 1245v-971q0 -256 186 -258h4v-16h-47q-15 0 -66 3t-86 3t-87 -3t-66 -3h-45v16h4q182 0 182 258v996q-50 75 -78 92
q-26 16 -71 16h-4v17h26q43 0 68 -1t59 -1q42 0 69 1t62 1l834 -1190v915q0 256 -185 258h-4v17h47q15 0 66 -3t86 -3q34 0 87 3q52 3 67 3h45v-17h-4q-185 0 -185 -258v-946l115 -174q-32 0 -55 1t-62 1q-27 -249 -151 -367t-303 -118z" />
    <glyph glyph-name="eng" unicode="&#x14b;" horiz-adv-x="1114" 
d="M963 872v-786q0 -213 -111 -381q-127 -188 -307 -188q-34 0 -57 17t-23 46q0 62 70 62q26 0 80 -20q51 -19 85 -19q50 0 72 33q23 35 23 114v1127q0 94 -70 94q-37 0 -164 -45l-203 -78v-721q0 -67 21 -90t90 -23h2v-14h-37q-26 0 -76 3t-84 3t-84 -3t-73 -3h-39v14h4
q67 0 88 23q20 21 20 90v682q0 67 -20 88q-21 23 -88 23h-4v16h24q73 0 151 26q77 26 93 60h12v-156l222 86q175 68 251 68q132 0 132 -148z" />
    <glyph glyph-name="Omacron" unicode="&#x14c;" horiz-adv-x="1370" 
d="M930 1630h-498v47h498v-47zM686 -2q414 0 414 700q0 699 -414 699q-416 0 -416 -699q0 -700 416 -700zM686 -20q-265 0 -440 203q-176 205 -176 515q0 312 175 514q176 203 441 203q264 0 440 -203q177 -204 177 -514q0 -309 -177 -515q-175 -203 -440 -203z" />
    <glyph glyph-name="omacron" unicode="&#x14d;" horiz-adv-x="1060" 
d="M776 1243h-497v47h497v-47zM530 -16q-186 0 -318 148t-132 370q0 220 132 369t318 149q187 0 319 -149t132 -369q0 -222 -132 -370t-319 -148zM530 0q131 0 197 106t66 396q0 288 -66 395t-197 107q-130 0 -196 -107t-66 -395q0 -290 66 -396t196 -106z" />
    <glyph glyph-name="Obreve" unicode="&#x14e;" horiz-adv-x="1370" 
d="M686 -2q414 0 414 700q0 699 -414 699q-416 0 -416 -699q0 -700 416 -700zM686 -20q-265 0 -440 203q-176 205 -176 515q0 312 175 514q176 203 441 203q264 0 440 -203q177 -204 177 -514q0 -309 -177 -515q-175 -203 -440 -203zM684 1546q-171 0 -270 252l14 6
q72 -141 256 -141q180 0 256 141l14 -6q-99 -252 -270 -252z" />
    <glyph glyph-name="obreve" unicode="&#x14f;" horiz-adv-x="1060" 
d="M530 -16q-186 0 -318 148t-132 370q0 220 132 369t318 149q187 0 319 -149t132 -369q0 -222 -132 -370t-319 -148zM530 0q131 0 197 106t66 396q0 288 -66 395t-197 107q-130 0 -196 -107t-66 -395q0 -290 66 -396t196 -106zM528 1159q-171 0 -270 252l14 6
q72 -141 256 -141q180 0 256 141l15 -6q-99 -252 -271 -252z" />
    <glyph glyph-name="Ohungarumlaut" unicode="&#x150;" horiz-adv-x="1370" 
d="M541 1505l-13 8q41 81 77 188q35 104 57 144q18 37 57 37q29 0 46 -16t17 -43q0 -22 -12 -43q-21 -35 -102 -119q-82 -86 -127 -156zM793 1505l-13 8q41 81 77 188q36 109 56 144q18 37 58 37q29 0 46 -16t17 -43q0 -22 -12 -43q-21 -35 -102 -119q-82 -86 -127 -156z
M686 -2q414 0 414 700q0 699 -414 699q-416 0 -416 -699q0 -700 416 -700zM686 -20q-265 0 -440 203q-176 205 -176 515q0 312 175 514q176 203 441 203q264 0 440 -203q177 -204 177 -514q0 -309 -177 -515q-175 -203 -440 -203z" />
    <glyph glyph-name="ohungarumlaut" unicode="&#x151;" horiz-adv-x="1060" 
d="M385 1118l-12 8q41 81 77 188q36 109 56 144q18 37 57 37q29 0 46 -16q18 -17 18 -43q0 -20 -13 -43q-21 -35 -102 -119q-82 -86 -127 -156zM637 1118l-12 8q39 76 76 188q35 104 57 144q18 37 57 37q29 0 46 -16q18 -17 18 -43q0 -20 -13 -43q-21 -35 -102 -119
q-82 -86 -127 -156zM530 -16q-186 0 -318 148t-132 370q0 220 132 369t318 149q187 0 319 -149t132 -369q0 -222 -132 -370t-319 -148zM530 0q131 0 197 106t66 396q0 288 -66 395t-197 107q-130 0 -196 -107t-66 -395q0 -290 66 -396t196 -106z" />
    <glyph glyph-name="OE" unicode="&#x152;" horiz-adv-x="2025" 
d="M1780 -63l-13 4q2 30 -15 44.5t-54 14.5h-477q-45 0 -82 1t-101 1q-49 0 -80 -1t-69 -1h-189q-274 0 -452 185t-178 511q0 330 177 514q177 185 453 185h174q44 0 78 -1t86 -1q60 0 97 1t86 1h454q41 0 59 15t13 46l14 4l181 -473l-13 -8q-172 241 -243 319
q-72 76 -195 76h-365v-655h246q114 0 152 65q38 64 53 209h16v-577h-16q-6 57 -12 93q-5 32 -20 76q-13 38 -35 62q-20 21 -56 37q-32 14 -82 14h-246v-678h385q67 0 110 17q41 16 91 69q94 100 248 347l12 -7zM952 20v1354h-219q-262 0 -362 -151q-101 -152 -101 -527
q0 -372 101 -524t362 -152h219z" />
    <glyph glyph-name="oe" unicode="&#x153;" horiz-adv-x="1699" 
d="M1229 -16q-106 0 -197 55q-92 56 -149 156q-60 -100 -152 -156q-91 -55 -201 -55q-186 0 -318 148t-132 370q0 220 132 369t318 149q112 0 204 -58q93 -58 153 -161q60 107 153 163t203 56q152 0 263 -102q112 -103 106 -273h-631q-2 -36 -2 -80q0 -223 87 -368
q87 -146 232 -146q217 0 301 254l15 -4q-100 -317 -385 -317zM530 0q131 0 197 106t66 396q0 288 -66 395t-197 107q-130 0 -196 -107t-66 -395q0 -290 66 -396t196 -106zM1448 664q-6 340 -215 340q-106 0 -172 -92t-78 -248h465z" />
    <glyph glyph-name="Racute" unicode="&#x154;" horiz-adv-x="1316" 
d="M522 1493l-12 8q43 77 90 191q44 107 74 155q23 35 59 35q29 0 48 -18q20 -18 20 -45q0 -24 -17 -47q-28 -39 -115 -120q-93 -87 -147 -159zM1309 0q-53 0 -103 3t-86 3q-24 0 -62 -3t-59 -3l-354 657h-276v-526q0 -68 22 -91q23 -24 86 -24h4v-16h-45q-24 0 -72 3t-81 3
t-82 -3t-72 -3h-45v16h2q64 0 86 24q23 25 23 91v1133q0 66 -23 91q-22 23 -86 23h-2v17h45q39 0 72 -1t82 -1q58 0 97 1t89 1h215q205 0 337 -99t132 -268q0 -155 -126 -263t-341 -108h-14q39 -63 86 -87q45 -23 143 -23l184 -342q62 -115 106 -151q41 -33 118 -38v-16z
M961 1026q0 176 -63 262t-224 86h-305v-694h305q160 0 223 82q64 84 64 264z" />
    <glyph glyph-name="racute" unicode="&#x155;" horiz-adv-x="749" 
d="M297 1106l-12 8q43 77 90 191q44 107 74 155q23 35 59 35q28 0 48 -18q19 -18 19 -45q0 -26 -16 -48q-24 -33 -116 -119q-90 -84 -146 -159zM520 0h-63q-30 0 -87 3t-98 3q-35 0 -83 -3t-74 -3h-39v14h4q68 0 89 24t21 89v682q0 65 -21 88t-89 23h-4v16h24q73 0 151 26
q77 26 93 60h12v-242q74 113 146 176q69 64 155 64q41 0 66 -19t25 -47q0 -67 -89 -67q-24 0 -67 13t-70 13q-65 0 -166 -161v-625q0 -63 31 -88t102 -25h31v-14z" />
    <glyph glyph-name="Rcommaaccent" unicode="&#x156;" horiz-adv-x="1316" 
d="M666 -324q-41 0 -68 27t-27 68q0 37 28 67q27 29 71 29q45 0 78 -36q32 -35 32 -89q0 -102 -54 -165q-53 -62 -122 -77l-2 13q61 17 107 70q47 55 47 132q0 7 -2 21q-22 -60 -88 -60zM1309 0q-53 0 -103 3t-86 3q-24 0 -62 -3t-59 -3l-354 657h-276v-526q0 -68 22 -91
q23 -24 86 -24h4v-16h-45q-24 0 -72 3t-81 3t-82 -3t-72 -3h-45v16h2q64 0 86 24q23 25 23 91v1133q0 66 -23 91q-22 23 -86 23h-2v17h45q39 0 72 -1t82 -1q58 0 97 1t89 1h215q205 0 337 -99t132 -268q0 -155 -126 -263t-341 -108h-14q39 -63 86 -87q45 -23 143 -23
l184 -342q62 -115 106 -151q41 -33 118 -38v-16zM961 1026q0 176 -63 262t-224 86h-305v-694h305q160 0 223 82q64 84 64 264z" />
    <glyph glyph-name="rcommaaccent" unicode="&#x157;" horiz-adv-x="749" 
d="M268 -324q-40 0 -67 27t-27 68q0 37 28 67q27 29 70 29q45 0 78 -36t33 -89q0 -102 -54 -165q-53 -62 -122 -77l-2 13q60 16 106 70q47 55 47 132q0 7 -2 21q-22 -60 -88 -60zM520 0h-63q-30 0 -87 3t-98 3q-35 0 -83 -3t-74 -3h-39v14h4q68 0 89 24t21 89v682
q0 65 -21 88t-89 23h-4v16h24q73 0 151 26q77 26 93 60h12v-242q74 113 146 176q69 64 155 64q41 0 66 -19t25 -47q0 -67 -89 -67q-24 0 -67 13t-70 13q-65 0 -166 -161v-625q0 -63 31 -88t102 -25h31v-14z" />
    <glyph glyph-name="Rcaron" unicode="&#x158;" horiz-adv-x="1316" 
d="M635 1495q-25 0 -42 16q-15 14 -38 58q-110 219 -164 305l12 8q38 -47 73 -83q40 -42 88 -88q64 -62 71 -69q19 18 71 68q58 54 91 89q38 39 71 83l13 -8q-54 -86 -164 -305q-23 -44 -38 -58q-17 -16 -44 -16zM1309 0q-53 0 -103 3t-86 3q-24 0 -62 -3t-59 -3l-354 657
h-276v-526q0 -68 22 -91q23 -24 86 -24h4v-16h-45q-24 0 -72 3t-81 3t-82 -3t-72 -3h-45v16h2q64 0 86 24q23 25 23 91v1133q0 66 -23 91q-22 23 -86 23h-2v17h45q39 0 72 -1t82 -1q58 0 97 1t89 1h215q205 0 337 -99t132 -268q0 -155 -126 -263t-341 -108h-14
q39 -63 86 -87q45 -23 143 -23l184 -342q62 -115 106 -151q41 -33 118 -38v-16zM961 1026q0 176 -63 262t-224 86h-305v-694h305q160 0 223 82q64 84 64 264z" />
    <glyph glyph-name="rcaron" unicode="&#x159;" horiz-adv-x="749" 
d="M410 1108q-25 0 -42 16q-15 14 -38 58q-110 219 -164 305l12 8q38 -47 73 -83q40 -42 88 -88q64 -62 71 -69q35 35 70 68q58 54 91 89q43 44 72 83l12 -8q-49 -78 -163 -305q-23 -44 -38 -58q-17 -16 -44 -16zM520 0h-63q-30 0 -87 3t-98 3q-35 0 -83 -3t-74 -3h-39v14h4
q68 0 89 24t21 89v682q0 65 -21 88t-89 23h-4v16h24q73 0 151 26q77 26 93 60h12v-242q74 113 146 176q69 64 155 64q41 0 66 -19t25 -47q0 -67 -89 -67q-24 0 -67 13t-70 13q-65 0 -166 -161v-625q0 -63 31 -88t102 -25h31v-14z" />
    <glyph glyph-name="Sacute" unicode="&#x15a;" horiz-adv-x="1150" 
d="M424 1493l-12 8q43 77 90 191q46 112 73 155q23 35 60 35q29 0 48 -18t19 -45q0 -25 -16 -47q-26 -36 -116 -120t-146 -159zM1075 393q0 -192 -132 -303q-131 -110 -296 -110q-94 0 -214 31q-123 32 -136 32q-74 0 -68 -66l-12 -4l-158 484l15 6q84 -156 166 -254
q84 -101 161 -142q80 -43 130 -56q51 -13 114 -13q133 0 222 81t89 195q0 220 -327 338l-170 64q-149 56 -244 151q-96 96 -96 238q0 159 113 254q114 96 284 96q62 0 153 -19q95 -20 117 -20q35 0 54 16q18 15 16 50l12 4l170 -436l-14 -6q-134 225 -255 309t-253 84
q-138 0 -215 -68q-76 -67 -76 -172q0 -104 73 -175q70 -69 237 -130l174 -66q366 -136 366 -393z" />
    <glyph glyph-name="sacute" unicode="&#x15b;" horiz-adv-x="927" 
d="M319 1106l-12 8q43 77 90 191q44 107 74 155q23 35 59 35q30 0 49 -18t19 -45q0 -26 -16 -48q-24 -33 -116 -119q-93 -87 -147 -159zM502 -16q-64 0 -144 20q-84 21 -118 21q-21 0 -37 -13q-14 -12 -13 -32l-12 -3l-100 365l12 6q164 -348 414 -348q113 0 175 56t62 143
q0 141 -231 229l-143 53q-234 89 -234 283q0 114 78 185q79 71 205 71q52 0 124 -18q68 -17 101 -17q25 0 40 12t13 33l13 2l98 -346l-12 -6q-147 324 -377 324q-95 0 -146 -46q-49 -45 -49 -108q0 -67 52 -116q53 -50 171 -95l140 -55q127 -50 190 -118q62 -67 62 -171
q0 -142 -96 -227q-94 -84 -238 -84z" />
    <glyph glyph-name="Scircumflex" unicode="&#x15c;" horiz-adv-x="1150" 
d="M782 1501l-12 -8q-38 47 -73 83q-55 57 -89 89q-16 15 -71 70q-37 -37 -98 -97q-89 -87 -134 -145l-12 8q54 86 164 305q23 44 38 58q17 16 42 16q27 0 44 -16q13 -12 37 -58q110 -219 164 -305zM1075 393q0 -192 -132 -303q-131 -110 -296 -110q-94 0 -214 31
q-123 32 -136 32q-74 0 -68 -66l-12 -4l-158 484l15 6q84 -156 166 -254q84 -101 161 -142q80 -43 130 -56q51 -13 114 -13q133 0 222 81t89 195q0 220 -327 338l-170 64q-149 56 -244 151q-96 96 -96 238q0 159 113 254q114 96 284 96q62 0 153 -19q95 -20 117 -20
q35 0 54 16q18 15 16 50l12 4l170 -436l-14 -6q-134 225 -255 309t-253 84q-138 0 -215 -68q-76 -67 -76 -172q0 -104 73 -175q70 -69 237 -130l174 -66q366 -136 366 -393z" />
    <glyph glyph-name="scircumflex" unicode="&#x15d;" horiz-adv-x="927" 
d="M678 1114l-12 -8q-38 47 -73 83q-55 57 -89 89q-33 31 -72 70l-6 -6l-13 -13t-18.5 -19t-26.5 -26.5t-33 -32.5q-89 -87 -134 -145l-13 8q54 86 164 305q23 44 38 58q17 16 42 16q27 0 44 -16q15 -14 38 -58q110 -219 164 -305zM502 -16q-64 0 -144 20q-84 21 -118 21
q-21 0 -37 -13q-14 -12 -13 -32l-12 -3l-100 365l12 6q164 -348 414 -348q113 0 175 56t62 143q0 141 -231 229l-143 53q-234 89 -234 283q0 114 78 185q79 71 205 71q52 0 124 -18q68 -17 101 -17q25 0 40 12t13 33l13 2l98 -346l-12 -6q-147 324 -377 324q-95 0 -146 -46
q-49 -45 -49 -108q0 -67 52 -116q53 -50 171 -95l140 -55q127 -50 190 -118q62 -67 62 -171q0 -142 -96 -227q-94 -84 -238 -84z" />
    <glyph glyph-name="Scedilla" unicode="&#x15e;" horiz-adv-x="1150" 
d="M762 -240q0 -102 -123 -180q-121 -77 -268 -92l-2 14q130 18 212 83q81 65 81 136q0 82 -105 82q-69 0 -113 -22l-8 6l168 195q-78 6 -183 33q-109 28 -124 28q-74 0 -68 -66l-12 -4l-158 484l15 6q84 -156 166 -254q84 -101 161 -142q80 -43 130 -56q51 -13 114 -13
q133 0 222 81t89 195q0 220 -327 338l-170 64q-149 56 -244 151q-96 96 -96 238q0 159 113 254q114 96 284 96q62 0 153 -19q95 -20 117 -20q35 0 54 16q18 15 16 50l12 4l170 -436l-14 -6q-134 225 -255 309t-253 84q-138 0 -215 -68q-76 -67 -76 -172q0 -104 73 -175
q70 -69 237 -130l174 -66q366 -136 366 -393q0 -192 -132 -303q-131 -110 -296 -110h-26l-60 -99q19 4 43 4q72 0 114 -33q44 -35 44 -92z" />
    <glyph glyph-name="scedilla" unicode="&#x15f;" horiz-adv-x="927" 
d="M643 -240q0 -102 -123 -180q-121 -77 -270 -92l-2 14q130 18 213 83q82 64 82 136q0 82 -105 82q-66 0 -114 -22l-7 6l168 197q-53 2 -132 21q-82 20 -113 20q-21 0 -37 -13q-14 -12 -13 -32l-12 -3l-100 365l12 6q164 -348 414 -348q113 0 175 56t62 143q0 143 -235 231
l-144 53q-229 85 -229 281q0 114 78 185q79 71 205 71q52 0 124 -18q68 -17 101 -17q25 0 40 12t13 33l13 2l98 -346l-12 -6q-147 324 -377 324q-95 0 -146 -46q-49 -45 -49 -108q0 -67 52 -116q53 -50 171 -95l140 -55q127 -50 190 -118q62 -67 62 -171q0 -142 -96 -227
q-94 -84 -238 -84l-62 -103q21 4 43 4q72 0 115 -33q45 -34 45 -92z" />
    <glyph glyph-name="Scaron" unicode="&#x160;" horiz-adv-x="1150" 
d="M537 1495q-25 0 -42 16q-15 14 -38 58q-110 219 -164 305l12 8q38 -47 73 -83q40 -42 88 -88q64 -62 71 -69q35 35 70 68q58 54 91 89q43 44 72 83l12 -8q-54 -86 -164 -305q-24 -46 -37 -58q-17 -16 -44 -16zM1075 393q0 -192 -132 -303q-131 -110 -296 -110
q-94 0 -214 31q-123 32 -136 32q-74 0 -68 -66l-12 -4l-158 484l15 6q84 -156 166 -254q84 -101 161 -142q80 -43 130 -56q51 -13 114 -13q133 0 222 81t89 195q0 220 -327 338l-170 64q-149 56 -244 151q-96 96 -96 238q0 159 113 254q114 96 284 96q62 0 153 -19
q95 -20 117 -20q35 0 54 16q18 15 16 50l12 4l170 -436l-14 -6q-134 225 -255 309t-253 84q-138 0 -215 -68q-76 -67 -76 -172q0 -104 73 -175q70 -69 237 -130l174 -66q366 -136 366 -393z" />
    <glyph glyph-name="scaron" unicode="&#x161;" horiz-adv-x="927" 
d="M442 1108q-25 0 -42 16q-15 14 -38 58q-114 227 -163 305l12 8q38 -47 73 -83q40 -42 88 -88q32 -31 70 -69q19 18 71 68q58 54 91 89q43 44 72 83l12 -8q-54 -86 -164 -305q-23 -44 -38 -58q-17 -16 -44 -16zM502 -16q-64 0 -144 20q-84 21 -118 21q-21 0 -37 -13
q-14 -12 -13 -32l-12 -3l-100 365l12 6q164 -348 414 -348q113 0 175 56t62 143q0 141 -231 229l-143 53q-234 89 -234 283q0 114 78 185q79 71 205 71q52 0 124 -18q68 -17 101 -17q25 0 40 12t13 33l13 2l98 -346l-12 -6q-147 324 -377 324q-95 0 -146 -46
q-49 -45 -49 -108q0 -67 52 -116q53 -50 171 -95l140 -55q127 -50 190 -118q62 -67 62 -171q0 -142 -96 -227q-94 -84 -238 -84z" />
    <glyph glyph-name="Tcommaaccent" unicode="&#x162;" horiz-adv-x="1327" 
d="M817 -240q0 -102 -123 -180q-121 -77 -268 -92l-2 14q130 18 213 83q82 64 82 136q0 82 -105 82q-66 0 -114 -22l-6 6q84 110 182 219h-12q-32 0 -82 -3t-72 -3h-45v16h2q66 0 87 23q21 22 21 92v1243h-165q-58 0 -85 -12t-65 -59q-88 -111 -229 -383l-15 6l150 532
l14 -2q0 -61 78 -61h221q39 0 80 -1t105 -1q61 0 102 1t82 1h219q80 0 80 61l12 2l150 -532l-15 -6q-153 291 -227 383q-39 47 -67 59q-27 12 -82 12h-166v-1243q0 -69 21 -92t85 -23h4v-16h-45q-25 0 -68 3t-55 3l-78 -125q19 4 43 4q72 0 114 -33q44 -35 44 -92z" />
    <glyph glyph-name="tcommaaccent" unicode="&#x163;" horiz-adv-x="591" 
d="M469 -240q0 -102 -123 -180q-121 -77 -270 -92l-2 14q130 18 213 83q82 64 82 136q0 82 -105 82q-66 0 -114 -22l-7 6l170 199q-141 21 -141 188v811h-139v19h139v159q73 0 114 38q40 37 40 99v3h14v-299h207v-19h-207v-833q0 -113 78 -113q32 0 68 30q37 31 57 74l12 -6
q-27 -63 -81 -108t-128 -45h-18l-62 -103q21 4 45 4q72 0 114 -33q44 -35 44 -92z" />
    <glyph glyph-name="Tcaron" unicode="&#x164;" horiz-adv-x="1327" 
d="M662 1495q-25 0 -42 16q-15 14 -38 58q-110 219 -164 305l12 8q38 -47 73 -83q40 -42 88 -88q64 -62 71 -69q35 35 70 68q58 54 91 89q43 44 72 83l12 -8q-54 -86 -164 -305q-24 -46 -37 -58q-17 -16 -44 -16zM862 16v-16h-45q-25 0 -73 3t-80 3t-82 -3t-72 -3h-45v16h2
q66 0 87 23q21 22 21 92v1243h-165q-58 0 -85 -12t-65 -59q-88 -111 -229 -383l-15 6l150 532l14 -2q0 -61 78 -61h221q39 0 80 -1t105 -1q61 0 102 1t82 1h219q80 0 80 61l12 2l150 -532l-15 -6q-153 291 -227 383q-39 47 -67 59q-27 12 -82 12h-166v-1243q0 -69 21 -92
t85 -23h4z" />
    <glyph glyph-name="tcaron" unicode="&#x165;" horiz-adv-x="587" 
d="M451 1106l-15 4q19 93 29 235q11 147 22 191q17 57 70 57q27 0 47 -17q21 -18 21 -46q0 -16 -7 -37q-13 -40 -74 -164q-63 -128 -93 -223zM346 -16q-75 0 -124 43q-50 44 -50 147v811h-139v19h139v159q73 0 114 38q40 37 40 99v3h14v-299h207v-19h-207v-833
q0 -113 78 -113q32 0 68 30q37 31 57 74l12 -6q-27 -63 -81 -108t-128 -45z" />
    <glyph glyph-name="Tbar" unicode="&#x166;" horiz-adv-x="1327" 
d="M862 0h-45q-25 0 -73 3t-80 3t-82 -3t-72 -3h-45v16h2q66 0 87 23q21 22 21 92v567h-253v21h253v655h-165q-58 0 -85 -12t-65 -59q-88 -111 -229 -383l-15 6l150 532l14 -2q0 -61 78 -61h221q39 0 80 -1t105 -1q61 0 102 1t82 1h219q80 0 80 61l12 2l150 -532l-15 -6
q-153 291 -227 383q-39 47 -67 59q-27 12 -82 12h-166v-655h254v-21h-254v-567q0 -69 21 -92t85 -23h4v-16z" />
    <glyph glyph-name="tbar" unicode="&#x167;" horiz-adv-x="595" 
d="M557 137q-27 -63 -81 -108t-126 -45q-75 0 -125 43q-51 43 -51 147v510h-139v18h139v283h-139v19h139v159q71 0 114 38q42 37 42 99v3h12v-299h209v-19h-209v-283h176v-18h-176v-532q0 -113 78 -113q32 0 68 30q37 31 57 74z" />
    <glyph glyph-name="Utilde" unicode="&#x168;" horiz-adv-x="1286" 
d="M1110 434q0 -204 -119 -328q-118 -122 -329 -122q-247 0 -372 109q-126 109 -126 345v826q0 68 -22 92q-21 22 -87 22h-2v17h45q22 0 72 -3q49 -3 82 -3t81 3t73 3h45v-17h-5q-64 0 -85 -22q-21 -23 -21 -92v-754q0 -259 86 -378q85 -118 276 -118q172 0 279 115
q106 113 106 305v686q0 257 -184 258h-4v17h47q15 0 66 -3t86 -3q34 0 87 3t66 3h45v-17h-2q-184 0 -184 -258v-686zM764 1585q-43 0 -114 44t-124 44q-58 0 -127 -114l-14 8q1 2 17 28q4 6 9 14t8 13t5 8q6 10 21 33q12 18 26 34q6 7 28 27q23 21 31 25q18 9 34 14
q19 6 40 6q43 0 114 -44t124 -44q58 0 125 115l14 -8q0 -1 -3 -5.5t-9 -14.5l-12 -20q-14 -24 -29 -48q-5 -8 -31 -41q-22 -28 -40 -40q-12 -8 -42 -23q-22 -11 -51 -11z" />
    <glyph glyph-name="utilde" unicode="&#x169;" horiz-adv-x="1107" 
d="M1047 0h-39q-11 0 -75 2t-83 2q-13 0 -49 -2q-7 0 -15.5 -0.5t-13 -1t-6.5 -0.5v135l-211 -84q-174 -67 -254 -67q-129 0 -129 147v678q0 65 -21 88t-90 23h-4v16h25q71 0 151 26q78 26 93 60h12v-895q0 -94 72 -94q50 0 161 45l195 78v653q0 64 -22 88q-21 23 -89 23h-4
v16h25q71 0 151 26q78 26 93 60h12v-895q0 -65 21 -89t89 -24h5v-14zM633 1198q-43 0 -114 44t-124 44q-57 0 -127 -115l-14 9q1 2 17 28q4 6 9 14t8 13t5 8q6 11 21 33q12 18 26 34q6 7 28 27q23 21 31 25q18 9 34 14q20 6 40 6q43 0 114 -44t124 -44q58 0 125 115l14 -8
q0 -1 -3 -5.5t-9 -14.5l-12 -20q-14 -24 -29 -48q-5 -8 -31 -41q-22 -28 -40 -40q-12 -8 -42 -23q-22 -11 -51 -11z" />
    <glyph glyph-name="Umacron" unicode="&#x16a;" horiz-adv-x="1286" 
d="M1110 434q0 -204 -119 -328q-118 -122 -329 -122q-247 0 -372 109q-126 109 -126 345v826q0 68 -22 92q-21 22 -87 22h-2v17h45q22 0 72 -3q49 -3 82 -3t81 3t73 3h45v-17h-5q-64 0 -85 -22q-21 -23 -21 -92v-754q0 -259 86 -378q85 -118 276 -118q172 0 279 115
q106 113 106 305v686q0 257 -184 258h-4v17h47q15 0 66 -3t86 -3q34 0 87 3t66 3h45v-17h-2q-184 0 -184 -258v-686zM928 1630h-498v47h498v-47z" />
    <glyph glyph-name="umacron" unicode="&#x16b;" horiz-adv-x="1107" 
d="M1047 0h-39q-11 0 -75 2t-83 2q-13 0 -49 -2q-7 0 -15.5 -0.5t-13 -1t-6.5 -0.5v135l-211 -84q-174 -67 -254 -67q-129 0 -129 147v678q0 65 -21 88t-90 23h-4v16h25q71 0 151 26q78 26 93 60h12v-895q0 -94 72 -94q50 0 161 45l195 78v653q0 64 -22 88q-21 23 -89 23h-4
v16h25q71 0 151 26q78 26 93 60h12v-895q0 -65 21 -89t89 -24h5v-14zM797 1243h-498v47h498v-47z" />
    <glyph glyph-name="Ubreve" unicode="&#x16c;" horiz-adv-x="1286" 
d="M1110 434q0 -204 -119 -328q-118 -122 -329 -122q-247 0 -372 109q-126 109 -126 345v826q0 68 -22 92q-21 22 -87 22h-2v17h45q22 0 72 -3q49 -3 82 -3t81 3t73 3h45v-17h-5q-64 0 -85 -22q-21 -23 -21 -92v-754q0 -259 86 -378q85 -118 276 -118q172 0 279 115
q106 113 106 305v686q0 257 -184 258h-4v17h47q15 0 66 -3t86 -3q34 0 87 3t66 3h45v-17h-2q-184 0 -184 -258v-686zM680 1546q-171 0 -270 252l14 6q72 -141 256 -141q180 0 256 141l14 -6q-99 -252 -270 -252z" />
    <glyph glyph-name="ubreve" unicode="&#x16d;" horiz-adv-x="1107" 
d="M1047 0h-39q-11 0 -75 2t-83 2q-13 0 -49 -2q-7 0 -15.5 -0.5t-13 -1t-6.5 -0.5v135l-211 -84q-174 -67 -254 -67q-129 0 -129 147v678q0 65 -21 88t-90 23h-4v16h25q71 0 151 26q78 26 93 60h12v-895q0 -94 72 -94q50 0 161 45l195 78v653q0 64 -22 88q-21 23 -89 23h-4
v16h25q71 0 151 26q78 26 93 60h12v-895q0 -65 21 -89t89 -24h5v-14zM551 1159q-171 0 -270 252l14 6q72 -141 256 -141q179 0 256 141l14 -6q-99 -252 -270 -252z" />
    <glyph glyph-name="Uring" unicode="&#x16e;" horiz-adv-x="1286" 
d="M854 1696q0 -75 -49 -124q-50 -50 -123 -50q-74 0 -124 50t-50 124t50 124t124 50q73 0 123 -50q49 -49 49 -124zM834 1696q0 62 -44 109q-43 46 -108 46q-67 0 -110 -46q-44 -47 -44 -109q0 -63 44 -110q43 -46 110 -46q65 0 108 46q44 47 44 110zM1110 434
q0 -204 -119 -328q-118 -122 -329 -122q-247 0 -372 109q-126 109 -126 345v826q0 68 -22 92q-21 22 -87 22h-2v17h45q22 0 72 -3q49 -3 82 -3t81 3t73 3h45v-17h-5q-64 0 -85 -22q-21 -23 -21 -92v-754q0 -259 86 -378q85 -118 276 -118q172 0 279 115q106 113 106 305v686
q0 257 -184 258h-4v17h47q15 0 66 -3t86 -3q34 0 87 3t66 3h45v-17h-2q-184 0 -184 -258v-686z" />
    <glyph glyph-name="uring" unicode="&#x16f;" horiz-adv-x="1107" 
d="M723 1309q0 -75 -49 -124q-50 -50 -123 -50q-74 0 -124 50t-50 124t50 124t124 50q73 0 123 -50q49 -49 49 -124zM702 1309q0 62 -44 109q-43 46 -107 46q-67 0 -110 -46q-44 -47 -44 -109q0 -63 44 -110q43 -46 110 -46q64 0 107 46q44 47 44 110zM1047 0h-39
q-11 0 -75 2t-83 2q-13 0 -49 -2q-7 0 -15.5 -0.5t-13 -1t-6.5 -0.5v135l-211 -84q-174 -67 -254 -67q-129 0 -129 147v678q0 65 -21 88t-90 23h-4v16h25q71 0 151 26q78 26 93 60h12v-895q0 -94 72 -94q50 0 161 45l195 78v653q0 64 -22 88q-21 23 -89 23h-4v16h25
q71 0 151 26q78 26 93 60h12v-895q0 -65 21 -89t89 -24h5v-14z" />
    <glyph glyph-name="Uhungarumlaut" unicode="&#x170;" horiz-adv-x="1286" 
d="M1110 434q0 -204 -119 -328q-118 -122 -329 -122q-247 0 -372 109q-126 109 -126 345v826q0 68 -22 92q-21 22 -87 22h-2v17h45q22 0 72 -3q49 -3 82 -3t81 3t73 3h45v-17h-5q-64 0 -85 -22q-21 -23 -21 -92v-754q0 -259 86 -378q85 -118 276 -118q172 0 279 115
q106 113 106 305v686q0 257 -184 258h-4v17h47q15 0 66 -3t86 -3q34 0 87 3t66 3h45v-17h-2q-184 0 -184 -258v-686zM539 1505l-13 8q41 81 77 188q36 109 56 144q18 37 58 37q29 0 46 -16t17 -43q0 -22 -12 -43q-21 -35 -102 -119q-82 -86 -127 -156zM791 1505l-13 8
q41 81 77 188q36 109 56 144q18 37 58 37q29 0 46 -16t17 -43q0 -22 -12 -43q-21 -35 -102 -119q-82 -86 -127 -156z" />
    <glyph glyph-name="uhungarumlaut" unicode="&#x171;" horiz-adv-x="1107" 
d="M1047 0h-39q-11 0 -75 2t-83 2q-13 0 -49 -2q-7 0 -15.5 -0.5t-13 -1t-6.5 -0.5v135l-211 -84q-174 -67 -254 -67q-129 0 -129 147v678q0 65 -21 88t-90 23h-4v16h25q71 0 151 26q78 26 93 60h12v-895q0 -94 72 -94q50 0 161 45l195 78v653q0 64 -22 88q-21 23 -89 23h-4
v16h25q71 0 151 26q78 26 93 60h12v-895q0 -65 21 -89t89 -24h5v-14zM408 1118l-13 8q41 81 77 188q36 109 56 144q18 37 58 37q29 0 46 -16t17 -43q0 -22 -12 -43q-21 -35 -102 -119q-82 -86 -127 -156zM659 1118l-12 8q41 81 77 188q36 109 56 144q18 37 58 37
q29 0 46 -16t17 -43q0 -22 -12 -43q-19 -32 -103 -119q-82 -86 -127 -156z" />
    <glyph glyph-name="Uogonek" unicode="&#x172;" horiz-adv-x="1286" 
d="M1110 434q0 -180 -90 -294t-256 -154q-59 -15 -112 -65q-52 -49 -52 -114q0 -55 36 -89q34 -33 91 -33q82 0 150 77l12 -8q-39 -51 -104 -86t-136 -35q-82 0 -130 39t-48 99q0 63 79 123q77 58 169 92q-15 0 -29 -1t-28 -1q-247 0 -372 109q-126 109 -126 345v826
q0 68 -22 92q-21 22 -87 22h-2v17h45q22 0 72 -3q49 -3 82 -3t81 3t73 3h45v-17h-5q-64 0 -85 -22q-21 -23 -21 -92v-754q0 -259 86 -378q85 -118 276 -118q172 0 279 115q106 113 106 305v686q0 257 -184 258h-4v17h47q15 0 66 -3t86 -3q34 0 87 3t66 3h45v-17h-2
q-184 0 -184 -258v-686z" />
    <glyph glyph-name="uogonek" unicode="&#x173;" horiz-adv-x="1107" 
d="M1047 0h-39q-26 0 -44 1t-42 1q-168 -82 -168 -195q0 -55 36 -89q34 -33 91 -33q81 0 149 77l12 -8q-40 -52 -103 -86q-65 -35 -136 -35q-82 0 -130 39t-48 99q0 112 270 233h-45q-13 0 -49 -2q-7 0 -15.5 -0.5t-13 -1t-6.5 -0.5v135l-211 -84q-174 -67 -254 -67
q-129 0 -129 147v678q0 65 -21 88t-90 23h-4v16h25q71 0 151 26q78 26 93 60h12v-895q0 -94 72 -94q50 0 161 45l195 78v653q0 64 -22 88q-21 23 -89 23h-4v16h25q71 0 151 26q78 26 93 60h12v-895q0 -65 21 -89t89 -24h5v-14z" />
    <glyph glyph-name="Wcircumflex" unicode="&#x174;" horiz-adv-x="2013" 
d="M1247 1501l-12 -8q-38 47 -73 83q-55 57 -89 89q-33 31 -72 70l-97 -97q-89 -87 -134 -145l-12 8q54 86 164 305q24 46 37 58q17 16 42 16q28 0 45 -16q13 -12 37 -58q110 -219 164 -305zM1565 0q-30 0 -49 1t-46 1q-23 0 -41 -1t-49 -1l-372 1090l-293 -910l63 -180
q-30 0 -50 1t-46 1q-23 0 -41 -1t-49 -1l-463 1260q-46 118 -143 118v17h51q17 0 71 -3t84 -3q36 0 94 3q59 3 72 3h54v-17q-107 0 -107 -67q0 -32 14 -60l381 -1040l295 915l-45 136q-39 116 -143 116v17h53q15 0 72 -3t90 -3q35 0 89 3t69 3h51v-17q-105 0 -105 -67
q0 -23 13 -60l352 -1030l285 901q30 99 30 131q0 58 -37 92q-36 33 -112 33v17h26q24 0 87 -3t90 -3q18 0 76 3t77 3h41v-17q-177 -6 -256 -262l-295 -932z" />
    <glyph glyph-name="wcircumflex" unicode="&#x175;" horiz-adv-x="1554" 
d="M1024 1114l-12 -8q-38 47 -73 83q-55 57 -89 89q-33 31 -72 70l-6 -6l-13 -13t-18.5 -19t-26.5 -26.5t-33 -32.5q-89 -87 -134 -145l-12 8q49 78 163 305q23 44 38 58q17 16 42 16q27 0 44 -16q15 -14 38 -58q110 -219 164 -305zM1221 0q-33 0 -51 1t-40 1q-24 0 -43 -1
t-47 -1l-270 737l-199 -571l60 -166q-30 0 -48 1t-40 1q-24 0 -44 -1t-46 -1l-328 881q-22 61 -52 85q-29 23 -85 23v15h51l64 -4q48 -3 85 -3q38 0 84 3l62 4h53v-15q-96 0 -96 -53q0 -17 6 -35l262 -708l201 571l-41 117q-22 61 -52 85q-29 23 -85 23v15h51q1 0 63 -4
q46 -3 84 -3q37 0 85 3q12 1 27 2t23.5 1.5t12.5 0.5h53v-15q-96 0 -96 -53q0 -18 6 -35l258 -708l211 598q18 51 18 92q0 106 -139 106v15h21q10 0 76 -4q50 -3 79 -3q31 0 80 3q66 4 70 4h32v-15q-149 -6 -221 -209l-217 -614z" />
    <glyph glyph-name="Ycircumflex" unicode="&#x176;" horiz-adv-x="1232" 
d="M721 131q0 -68 22 -91q23 -24 86 -24h2v-16h-45q-22 0 -71 3t-82 3t-81 -3t-73 -3h-45v16h4q63 0 86 24q23 25 23 91v504l-410 639q-39 58 -72 80q-36 24 -90 24v17h68q15 0 66 -3t86 -3t89 3t68 3h74v-17q-96 0 -96 -55q0 -27 20 -63l361 -560l260 430q59 93 59 146
q0 101 -133 102h-2v17h27q24 0 87 -3t89 -3q17 0 77 3t78 3h37v-17h-2q-87 -1 -155 -68q-67 -66 -146 -196l-266 -434v-549zM901 1501l-12 -8q-38 47 -73 83q-55 57 -89 89q-33 31 -72 70l-97 -97q-89 -87 -134 -145l-12 8q49 78 163 305q23 44 38 58q17 16 42 16
q27 0 44 -16q15 -14 38 -58q110 -219 164 -305z" />
    <glyph glyph-name="ycircumflex" unicode="&#x177;" horiz-adv-x="968" 
d="M645 0q-28 0 -46 1t-42 1q-17 0 -35 -1t-33 -1l-43 -98q-26 -60 -45 -103q-9 -21 -39 -82q-27 -56 -41 -74q-6 -7 -43 -53q-26 -31 -54 -43q-16 -7 -60 -20q-33 -10 -78 -10q-43 0 -66 17q-24 18 -24 46t18 45q19 17 47 17t83 -20q53 -19 77 -19q52 0 92 62
q41 63 117 243l39 92l-344 883q-24 61 -54 84q-29 22 -83 22v15h51l64 -4q48 -3 85 -3q38 0 84 3l62 4h53v-15q-96 0 -96 -53q0 -17 6 -35l268 -696l209 588q17 51 17 90q0 106 -138 106v15h21q8 0 74 -4q49 -3 79 -3q33 0 82 3q66 4 68 4h33v-15q-146 -6 -219 -207
l-216 -606zM754 1114l-13 -8q-44 54 -72 83q-55 57 -89 89q-33 31 -72 70l-97 -97q-93 -92 -135 -145l-12 8q54 86 164 305q23 44 38 58q17 16 42 16q27 0 44 -16q15 -14 38 -58q110 -219 164 -305z" />
    <glyph glyph-name="Ydieresis" unicode="&#x178;" horiz-adv-x="1232" 
d="M721 131q0 -68 22 -91q23 -24 86 -24h2v-16h-45q-22 0 -71 3t-82 3t-81 -3t-73 -3h-45v16h4q63 0 86 24q23 25 23 91v504l-410 639q-39 58 -72 80q-36 24 -90 24v17h68q15 0 66 -3t86 -3t89 3t68 3h74v-17q-96 0 -96 -55q0 -27 20 -63l361 -560l260 430q59 93 59 146
q0 101 -133 102h-2v17h27q24 0 87 -3t89 -3q17 0 77 3t78 3h37v-17h-2q-87 -1 -155 -68q-67 -66 -146 -196l-266 -434v-549zM561 1653q0 -44 -29 -71q-30 -28 -71 -28t-69 28q-27 27 -27 71q0 41 27 69q27 29 69 29q39 0 70 -29q30 -28 30 -69zM952 1653q0 -45 -29 -71
q-31 -28 -71 -28t-70 28q-28 27 -28 71q0 41 28 69q29 29 70 29q40 0 71 -29q29 -28 29 -69z" />
    <glyph glyph-name="Zacute" unicode="&#x179;" horiz-adv-x="1206" 
d="M557 1493l-12 8q43 77 90 191q44 107 74 155q23 35 59 35q28 0 48 -18t20 -45q0 -24 -17 -47q-26 -36 -116 -120t-146 -159zM1169 446l-192 -512l-12 5q4 28 -13 45q-16 16 -57 16h-850v8l887 1366h-391q-126 0 -195 -76q-81 -90 -246 -331l-14 6l186 487l13 -4
q-5 -29 13 -45q17 -16 60 -16h783v-9l-885 -1366h457q67 0 110 16t88 70q98 109 244 347z" />
    <glyph glyph-name="zacute" unicode="&#x17a;" horiz-adv-x="927" 
d="M403 1106l-12 8q43 77 90 191q44 107 74 155q23 35 59 35q30 0 49 -18t19 -45q0 -26 -16 -48q-24 -33 -116 -119q-93 -87 -147 -159zM750 -45l-13 2q0 43 -82 43h-596v8l603 979h-228q-70 0 -105 -13q-37 -14 -71 -54q-92 -107 -180 -238l-12 6l137 361l12 -2
q0 -43 80 -43h559v-9l-604 -979h260q78 0 121 19q41 18 90 78q92 116 162 221l12 -6z" />
    <glyph glyph-name="Zdotaccent" unicode="&#x17b;" horiz-adv-x="1206" 
d="M1169 446l-192 -512l-12 5q4 28 -13 45q-16 16 -57 16h-850v8l887 1366h-391q-126 0 -195 -76q-81 -90 -246 -331l-14 6l186 487l13 -4q-5 -29 13 -45q17 -16 60 -16h783v-9l-885 -1366h457q67 0 110 16t88 70q98 109 244 347zM672 1542q-44 0 -75 29q-30 29 -30 74
t30 75q31 31 75 31q41 0 74 -31q32 -30 32 -75q0 -43 -32 -73t-74 -30z" />
    <glyph glyph-name="zdotaccent" unicode="&#x17c;" horiz-adv-x="927" 
d="M750 -45l-13 2q0 43 -82 43h-596v8l603 979h-228q-70 0 -105 -13q-37 -14 -71 -54q-92 -107 -180 -238l-12 6l137 361l12 -2q0 -43 80 -43h559v-9l-604 -979h260q78 0 121 19q41 18 90 78q92 116 162 221l12 -6zM518 1176q-46 0 -75 28t-29 74q0 47 29 76q30 30 75 30
q44 0 75 -30q32 -30 32 -76q0 -43 -32 -73q-30 -29 -75 -29z" />
    <glyph glyph-name="Zcaron" unicode="&#x17d;" horiz-adv-x="1206" 
d="M672 1495q-25 0 -42 16q-15 14 -38 58q-110 219 -164 305l12 8q38 -47 73 -83q40 -42 88 -88q64 -62 71 -69q35 35 70 68q68 64 92 89q38 39 71 83l13 -8q-54 -86 -164 -305q-23 -44 -38 -58q-17 -16 -44 -16zM1169 446l-192 -512l-12 5q4 28 -13 45q-16 16 -57 16h-850
v8l887 1366h-391q-126 0 -195 -76q-81 -90 -246 -331l-14 6l186 487l13 -4q-5 -29 13 -45q17 -16 60 -16h783v-9l-885 -1366h457q67 0 110 16t88 70q98 109 244 347z" />
    <glyph glyph-name="zcaron" unicode="&#x17e;" horiz-adv-x="927" 
d="M518 1108q-25 0 -42 16q-15 14 -38 58q-110 219 -164 305l13 8q44 -54 72 -83q40 -42 88 -88q64 -62 71 -69q18 18 71 68q58 54 91 89q43 44 72 83l12 -8q-54 -86 -164 -305q-23 -44 -38 -58q-17 -16 -44 -16zM750 -45l-13 2q0 43 -82 43h-596v8l603 979h-228
q-70 0 -105 -13q-37 -14 -71 -54q-92 -107 -180 -238l-12 6l137 361l12 -2q0 -43 80 -43h559v-9l-604 -979h260q78 0 121 19q41 18 90 78q92 116 162 221l12 -6z" />
    <glyph glyph-name="florin" unicode="&#x192;" horiz-adv-x="741" 
d="M702 668h-256v-551q0 -226 -118 -381q-73 -100 -184 -159q-109 -58 -203 -58q-37 0 -58 18q-20 17 -20 45q0 27 18 45q19 19 51 19q18 0 77 -15q55 -14 93 -14q103 0 140 58t37 208v785h-189v18h189v148q0 228 116 380q77 100 186 159q110 59 203 59q78 0 78 -62
q0 -63 -69 -63q-22 0 -78 14t-92 14q-103 0 -140 -58t-37 -208v-383h256v-18z" />
    <glyph glyph-name="uni01B5" unicode="&#x1b5;" horiz-adv-x="1206" 
d="M1169 446l-192 -512l-12 5q4 28 -14 45q-17 16 -58 16h-848v8l449 688h-281v23h295l424 655h-391q-124 0 -193 -74q-62 -65 -248 -333l-14 6l186 487l13 -4q-4 -28 14 -45q17 -16 59 -16h783v-9l-432 -667h264v-23h-279l-438 -676h453q66 0 111 16q42 15 91 70
q92 101 244 347z" />
    <glyph glyph-name="uni01B6" unicode="&#x1b6;" horiz-adv-x="927" 
d="M727 498h-180l-297 -482h260q82 0 122 18t89 79q100 126 162 221l12 -6l-145 -373l-13 2q0 28 -19 35q-21 8 -65 8h-594v8l301 490h-172v18h185l289 471h-228q-68 0 -103 -13t-73 -54q-87 -101 -180 -238l-12 6l137 361l12 -2q0 -43 82 -43h557v-9l-297 -479h170v-18z
" />
    <glyph glyph-name="Aringacute" unicode="&#x1fa;" horiz-adv-x="1325" 
d="M1354 0h-51q-17 0 -72 3t-86 3q-37 0 -94 -3t-72 -3h-53v16q104 0 104 70q0 19 -16 61l-101 238h-643l-47 -119q-28 -72 -28 -127t37 -89t112 -34v-16h-25q-25 0 -88 3t-90 3q-17 0 -76 -3t-79 -3h-41v16q81 4 143 65q63 62 115 195l368 941l-73 178q31 0 52 -1t48 -1
q28 0 46 1t44 1l520 -1258q27 -67 61 -93q36 -28 85 -28v-16zM584 1192l-305 -784h626zM788 1696q0 -74 -50 -124t-124 -50q-72 0 -122 50t-50 124q0 51 25 98q47 82 89 189q44 110 71 151q22 37 59 37q28 0 48 -20t20 -46t-15 -47q-25 -35 -109 -108q-87 -76 -122 -115
q44 35 106 35q74 0 124 -50t50 -124zM768 1696q0 62 -44 109q-43 46 -110 46q-64 0 -107 -46q-44 -47 -44 -109q0 -63 44 -110q43 -46 107 -46q67 0 110 46q44 47 44 110z" />
    <glyph glyph-name="aringacute" unicode="&#x1fb;" horiz-adv-x="1038" 
d="M831 -16q-65 0 -98 36q-35 38 -39 97q-157 -133 -323 -133q-125 0 -199 69t-74 191q0 216 328 350l264 106v166q0 77 -19 106t-81 29q-176 0 -316 -204q-41 -58 -77 -58q-25 0 -43 18q-19 19 -19 46q0 48 69 97q71 51 180 85q113 35 222 35q137 0 194 -51q56 -50 56 -152
v-711q0 -73 51 -73t92 80l13 -7q-55 -122 -181 -122zM414 14q132 0 278 123v9q0 12 -1 20t-1 22v494l-229 -94q-110 -46 -144 -123t-34 -209q0 -242 131 -242zM698 1309q0 -74 -50 -124t-124 -50q-73 0 -123 50q-49 49 -49 124q0 50 25 98q47 82 89 189q44 110 71 151
q22 37 59 37q28 0 48 -20t20 -46t-15 -47q-25 -35 -109 -108q-87 -76 -122 -115q44 35 106 35q74 0 124 -50t50 -124zM678 1309q0 62 -44 109q-43 46 -110 46q-64 0 -107 -46q-44 -47 -44 -109q0 -63 44 -110q43 -46 107 -46q67 0 110 46q44 47 44 110z" />
    <glyph glyph-name="AEacute" unicode="&#x1fc;" horiz-adv-x="2045" 
d="M1145 1497l-12 8q43 77 90 191q46 112 73 155q23 35 60 35q28 0 48 -18q19 -18 19 -45q0 -25 -16 -47q-26 -36 -116 -120t-146 -159zM971 408v872l-627 -872h627zM1798 -63l-12 2q5 29 -13 45q-17 16 -59 16h-471q-49 0 -87 1t-97 1q-49 0 -82 -1t-72 -1h-47v16h4
q64 0 86 24q23 25 23 91v254h-643l-90 -123q-62 -83 -62 -141q0 -103 129 -105h4v-16h-24q-25 0 -94 3t-95 3q-19 0 -82 -3t-80 -3h-47v16h4q153 5 328 260l709 981q24 33 24 68q0 53 -84 53h-14v17h51q39 0 72 -1t82 -1q61 0 101 1t91 1h443q41 0 59 15q19 15 14 46l13 4
l180 -473l-14 -6q-188 260 -242 317q-72 76 -195 76h-364v-655h246q113 0 151 65q39 65 55 209h17v-577h-17q-6 57 -12 93q-7 40 -20 76q-15 40 -36 61q-22 22 -56 37q-35 15 -82 15h-246v-678h383q65 0 110 17q44 17 95 69q89 98 243 347l15 -7z" />
    <glyph glyph-name="aeacute" unicode="&#x1fd;" horiz-adv-x="1585" 
d="M705 1106l-13 8q43 77 90 191q44 107 74 155q23 35 59 35q29 0 49 -18q19 -18 19 -45q0 -26 -16 -48q-24 -33 -116 -119q-90 -84 -146 -159zM1112 -16q-99 0 -187 52q-92 55 -153 146q-168 -198 -373 -198q-125 0 -213 79t-88 240t132 260t329 99h133v202q0 78 -20 107
q-21 30 -80 30q-173 0 -318 -202q-43 -60 -75 -60q-25 0 -44 18q-20 18 -20 46q0 48 69 97q71 51 180 85q113 35 222 35q110 0 156 -34t63 -114q113 148 299 148q154 0 267 -102q112 -102 106 -273h-633q-2 -36 -2 -80q0 -223 87 -368q87 -146 233 -146q221 0 303 256l12 -6
q-99 -317 -385 -317zM436 12q174 0 326 185q-70 131 -70 348v98h-125q-159 0 -222 -78q-62 -77 -62 -256q0 -297 153 -297zM1118 1004q-102 0 -170 -86q-67 -85 -84 -254h467q-6 340 -213 340z" />
    <glyph glyph-name="Oslashacute" unicode="&#x1fe;" horiz-adv-x="1370" 
d="M686 -20q-201 0 -352 120l-131 -217l-19 13l133 217q-116 94 -182 247q-65 151 -65 338q0 312 175 514q176 203 441 203q196 0 350 -119l129 213l21 -12l-131 -215q115 -98 182 -249q66 -150 66 -335q0 -309 -177 -515q-175 -203 -440 -203zM686 1397q-416 0 -416 -699
q0 -344 95 -508l628 1037q-101 170 -307 170zM686 -2q414 0 414 700q0 348 -94 506l-631 -1034q100 -172 311 -172zM600 1495l-12 8q43 77 90 191q44 107 74 155q23 35 59 35q29 0 48 -18q20 -18 20 -45q0 -24 -17 -47q-26 -36 -116 -120t-146 -159z" />
    <glyph glyph-name="oslashacute" unicode="&#x1ff;" horiz-adv-x="1060" 
d="M530 -16q-139 0 -251 86l-107 -172l-16 10l106 174q-182 151 -182 420q0 220 132 369t318 149q136 0 252 -88l107 176l16 -10l-108 -178q184 -153 184 -418q0 -222 -132 -370t-319 -148zM530 0q131 0 197 106t66 396q0 230 -43 340l-433 -701q60 -141 213 -141zM530 1004
q-130 0 -196 -107t-66 -395q0 -232 41 -338l432 700q-57 140 -211 140zM416 1106l-13 8q47 83 91 191q46 112 73 155q23 35 60 35q29 0 48 -18t19 -45q0 -26 -16 -48q-24 -33 -116 -119q-90 -84 -146 -159z" />
    <glyph glyph-name="Scommaaccent" unicode="&#x218;" horiz-adv-x="1150" 
d="M633 -324q-41 0 -68 27q-26 26 -26 68q0 39 27 67q27 29 71 29q45 0 78 -36t33 -89q0 -101 -55 -165q-53 -62 -122 -77l-2 13q61 17 107 70q47 55 47 132q0 7 -2 21q-23 -60 -88 -60zM1075 393q0 -192 -132 -303q-131 -110 -296 -110q-94 0 -214 31q-123 32 -136 32
q-74 0 -68 -66l-12 -4l-158 484l15 6q84 -156 166 -254q84 -101 161 -142q80 -43 130 -56q51 -13 114 -13q133 0 222 81t89 195q0 220 -327 338l-170 64q-149 56 -244 151q-96 96 -96 238q0 159 113 254q114 96 284 96q62 0 153 -19q95 -20 117 -20q35 0 54 16q18 15 16 50
l12 4l170 -436l-14 -6q-134 225 -255 309t-253 84q-138 0 -215 -68q-76 -67 -76 -172q0 -104 73 -175q70 -69 237 -130l174 -66q366 -136 366 -393z" />
    <glyph glyph-name="scommaaccent" unicode="&#x219;" horiz-adv-x="927" 
d="M494 -324q-41 0 -68 27t-27 68q0 37 28 67q27 29 71 29t77 -36t33 -89q0 -102 -54 -165q-53 -62 -122 -77l-2 13q61 17 107 70q47 55 47 132q0 7 -2 21q-22 -60 -88 -60zM502 -16q-64 0 -144 20q-84 21 -118 21q-21 0 -37 -13q-14 -12 -13 -32l-12 -3l-100 365l12 6
q164 -348 414 -348q113 0 175 56t62 143q0 141 -231 229l-143 53q-234 89 -234 283q0 114 78 185q79 71 205 71q52 0 124 -18q68 -17 101 -17q25 0 40 12t13 33l13 2l98 -346l-12 -6q-147 324 -377 324q-95 0 -146 -46q-49 -45 -49 -108q0 -67 52 -116q53 -50 171 -95
l140 -55q127 -50 190 -118q62 -67 62 -171q0 -142 -96 -227q-94 -84 -238 -84z" />
    <glyph glyph-name="uni021A" unicode="&#x21a;" horiz-adv-x="1327" 
d="M655 -324q-40 0 -67 27t-27 68q0 37 28 67q27 29 70 29q45 0 78 -36t33 -89q0 -102 -54 -165q-53 -62 -122 -77l-2 13q60 16 106 70q47 55 47 132q0 7 -2 21q-23 -60 -88 -60zM862 16v-16h-45q-25 0 -73 3t-80 3t-82 -3t-72 -3h-45v16h2q66 0 87 23q21 22 21 92v1243
h-165q-58 0 -85 -12t-65 -59q-88 -111 -229 -383l-15 6l150 532l14 -2q0 -61 78 -61h221q39 0 80 -1t105 -1q61 0 102 1t82 1h219q80 0 80 61l12 2l150 -532l-15 -6q-153 291 -227 383q-39 47 -67 59q-27 12 -82 12h-166v-1243q0 -69 21 -92t85 -23h4z" />
    <glyph glyph-name="uni021B" unicode="&#x21b;" horiz-adv-x="591" 
d="M299 -324q-41 0 -68 27q-26 26 -26 68q0 39 27 67q27 29 71 29q45 0 78 -36t33 -89q0 -101 -55 -165q-53 -62 -121 -77l-2 13q60 16 106 70q47 55 47 132q0 7 -2 21q-23 -60 -88 -60zM346 -16q-75 0 -124 43q-50 44 -50 147v811h-139v19h139v159q73 0 114 38q40 37 40 99
v3h14v-299h207v-19h-207v-833q0 -113 78 -113q32 0 68 30q37 31 57 74l12 -6q-27 -63 -81 -108t-128 -45z" />
    <glyph glyph-name="dotlessj" unicode="&#x237;" horiz-adv-x="507" 
d="M356 86q0 -220 -108 -383q-128 -186 -309 -186q-35 0 -56 17q-22 18 -22 46t18 45q19 17 49 17q28 0 83 -20q53 -19 87 -19q92 0 92 147v1059q0 65 -21 88t-89 23h-4v16h24q72 0 152 26q77 25 92 60h12v-936z" />
    <glyph glyph-name="circumflex" unicode="&#x2c6;" horiz-adv-x="694" 
d="M592 1114l-12 -8q-38 47 -73 83q-55 57 -89 89q-33 31 -72 70l-6 -6l-13 -13t-18.5 -19t-26.5 -26.5t-33 -32.5q-89 -87 -134 -145l-13 8q54 86 164 305q23 44 38 58q17 16 42 16q27 0 44 -16q15 -14 38 -58q110 -219 164 -305z" />
    <glyph glyph-name="caron" unicode="&#x2c7;" horiz-adv-x="694" 
d="M346 1108q-25 0 -42 16q-15 14 -38 58q-110 219 -164 305l13 8q44 -54 72 -83q40 -42 88 -88q64 -62 71 -69q18 18 71 68q58 54 91 89q43 44 72 83l12 -8q-54 -86 -164 -305q-23 -44 -38 -58q-17 -16 -44 -16z" />
    <glyph glyph-name="breve" unicode="&#x2d8;" horiz-adv-x="798" 
d="M399 1159q-171 0 -270 252l14 6q72 -141 256 -141q179 0 256 141l15 -6q-99 -252 -271 -252z" />
    <glyph glyph-name="dotaccent" unicode="&#x2d9;" horiz-adv-x="419" 
d="M209 1176q-46 0 -75 28q-30 28 -30 74t30 76t75 30q43 0 75 -30q31 -30 31 -76q0 -43 -31 -73q-30 -29 -75 -29z" />
    <glyph glyph-name="ring" unicode="&#x2da;" horiz-adv-x="552" 
d="M449 1309q0 -74 -50 -124t-123 -50t-123 50q-51 51 -51 124t51 124q50 50 123 50t123 -50t50 -124zM428 1309q0 62 -44 109q-43 46 -108 46q-66 0 -109 -46q-44 -47 -44 -109q0 -63 44 -110q43 -46 109 -46q65 0 108 46q44 47 44 110z" />
    <glyph glyph-name="ogonek" unicode="&#x2db;" horiz-adv-x="624" 
d="M381 0h27q-175 -83 -175 -193q0 -55 36 -89q34 -33 91 -33q82 0 150 77l12 -8q-40 -52 -103 -86q-65 -35 -136 -35q-82 0 -130 39q-49 40 -49 99q0 106 277 229z" />
    <glyph glyph-name="tilde" unicode="&#x2dc;" horiz-adv-x="835" 
d="M500 1198q-43 0 -114 44t-124 44q-57 0 -127 -115l-14 9q1 2 17 28q4 6 9 14t8 13t5 8q6 11 21 33q12 18 26 34q10 11 27 27q22 20 32 25q18 9 34 14q20 6 40 6q43 0 114 -44t124 -44q57 0 124 115l15 -8q0 -1 -3 -5.5t-9 -14.5l-12 -20q-14 -24 -29 -48q-5 -8 -31 -41
q-22 -28 -40 -40q-12 -8 -42 -23q-22 -11 -51 -11z" />
    <glyph glyph-name="hungarumlaut" unicode="&#x2dd;" horiz-adv-x="712" 
d="M115 1118l-13 8q41 81 77 188q35 104 57 144q18 37 57 37q29 0 46 -16t17 -43q0 -22 -12 -43q-21 -35 -102 -119q-82 -86 -127 -156zM367 1118l-13 8q41 81 77 188q36 109 56 144q18 37 58 37q29 0 46 -16t17 -43q0 -22 -12 -43q-21 -35 -102 -119q-82 -86 -127 -156z
" />
    <glyph glyph-name="pi" unicode="&#x3c0;" horiz-adv-x="1155" 
d="M1077 0h-39q-26 0 -74 3t-83 3t-84 -3t-76 -3h-37v14h2q69 0 90 23t21 90v858h-437v-858q0 -67 21 -90t88 -23h4v-14h-39q-27 0 -75 3t-83 3q-34 0 -83 -3t-76 -3h-37v14h2q69 0 90 23t21 90v750q0 67 -21 90q-21 22 -90 22h-2v15h37q10 0 76 -2q33 -1 83 -1q55 0 93 1
q76 2 82 2h254q7 0 83 -2q38 -1 93 -1q51 0 83 1q64 2 74 2h39v-15h-4q-67 0 -88 -22q-20 -21 -20 -90v-750q0 -69 20 -90q21 -23 88 -23h4v-14z" />
    <glyph glyph-name="Wgrave" unicode="&#x1e80;" horiz-adv-x="2013" 
d="M1565 0q-30 0 -49 1t-46 1q-22 0 -40 -1t-50 -1l-372 1090l-293 -910l63 -180q-30 0 -50 1t-46 1q-23 0 -41 -1t-49 -1l-463 1260q-46 118 -143 118v17h51q17 0 71 -3t85 -3q35 0 93 3q59 3 72 3h54v-17q-107 0 -107 -67q0 -32 14 -60l381 -1040l295 915l-45 136
q-39 116 -143 116v17h53q15 0 72 -3t90 -3q35 0 89 3t69 3h51v-17q-105 0 -105 -67q0 -23 13 -60l352 -1030l285 901q30 99 30 131q0 58 -37 92q-36 33 -112 33v17h26q24 0 87 -3t90 -3q18 0 76 3t77 3h41v-17q-177 -6 -256 -262l-295 -932zM1128 1501l-14 -8
q-56 78 -145 159q-90 82 -117 120q-14 20 -14 47t19 45t48 18q37 0 60 -35q24 -35 72 -154q48 -117 91 -192z" />
    <glyph glyph-name="wgrave" unicode="&#x1e81;" horiz-adv-x="1554" 
d="M1221 0q-33 0 -51 1t-40 1q-24 0 -43 -1t-47 -1l-270 737l-199 -571l60 -166q-30 0 -48 1t-40 1q-24 0 -44 -1t-46 -1l-328 881q-22 61 -52 85q-29 23 -85 23v15h51l64 -4q48 -3 85 -3q38 0 84 3l62 4h53v-15q-96 0 -96 -53q0 -17 6 -35l262 -708l201 571l-41 117
q-22 61 -52 85q-29 23 -85 23v15h51q1 0 63 -4q46 -3 84 -3q37 0 85 3q12 1 27 2t23.5 1.5t12.5 0.5h53v-15q-96 0 -96 -53q0 -18 6 -35l258 -708l211 598q18 51 18 92q0 106 -139 106v15h21q10 0 76 -4q50 -3 79 -3q31 0 80 3q66 4 70 4h32v-15q-149 -6 -221 -209
l-217 -614zM907 1114l-14 -8q-56 78 -145 159q-92 84 -117 119q-15 21 -15 48t20 45t48 18q36 0 59 -35q26 -39 73 -154q48 -117 91 -192z" />
    <glyph glyph-name="Wacute" unicode="&#x1e82;" horiz-adv-x="2013" 
d="M887 1493l-13 8q47 83 91 191q46 112 73 155q23 35 60 35q28 0 48 -18q19 -18 19 -45q0 -25 -16 -47q-26 -36 -116 -120t-146 -159zM1565 0q-30 0 -49 1t-46 1q-22 0 -40 -1t-50 -1l-372 1090l-293 -910l63 -180q-30 0 -50 1t-46 1q-23 0 -41 -1t-49 -1l-463 1260
q-46 118 -143 118v17h51q17 0 71 -3t85 -3q35 0 93 3q59 3 72 3h54v-17q-107 0 -107 -67q0 -32 14 -60l381 -1040l295 915l-45 136q-39 116 -143 116v17h53q15 0 72 -3t90 -3q35 0 89 3t69 3h51v-17q-105 0 -105 -67q0 -23 13 -60l352 -1030l285 901q30 99 30 131
q0 58 -37 92q-36 33 -112 33v17h26q24 0 87 -3t90 -3q18 0 76 3t77 3h41v-17q-177 -6 -256 -262l-295 -932z" />
    <glyph glyph-name="wacute" unicode="&#x1e83;" horiz-adv-x="1554" 
d="M666 1106l-13 8q43 77 90 191q44 107 74 155q23 35 60 35q29 0 48 -18t19 -45q0 -26 -16 -48q-24 -33 -116 -119q-90 -84 -146 -159zM1221 0q-33 0 -51 1t-39 1q-25 0 -44 -1t-47 -1l-270 737l-199 -571l60 -166q-30 0 -48 1t-40 1q-24 0 -44 -1t-46 -1l-328 881
q-22 61 -52 85q-29 23 -85 23v15h51l64 -4q48 -3 85 -3q38 0 84 3l62 4h53v-15q-96 0 -96 -53q0 -17 6 -35l262 -708l201 571l-41 117q-22 61 -52 85q-29 23 -85 23v15h51q1 0 63 -4q46 -3 84 -3q37 0 85 3q12 1 27 2t23.5 1.5t12.5 0.5h53v-15q-96 0 -96 -53q0 -18 6 -35
l258 -708l211 598q18 51 18 92q0 106 -139 106v15h21q10 0 76 -4q50 -3 79 -3q31 0 80 3q66 4 70 4h32v-15q-149 -6 -221 -209l-217 -614z" />
    <glyph glyph-name="Wdieresis" unicode="&#x1e84;" horiz-adv-x="2013" 
d="M907 1653q0 -44 -28 -71q-30 -28 -72 -28q-41 0 -69 28q-27 27 -27 71q0 41 27 69q27 29 69 29q40 0 71 -29q29 -28 29 -69zM1298 1653q0 -45 -29 -71q-31 -28 -71 -28t-70 28q-28 27 -28 71q0 41 28 69q29 29 70 29q40 0 71 -29q29 -28 29 -69zM1565 0q-30 0 -49 1
t-46 1q-22 0 -40 -1t-50 -1l-372 1090l-293 -910l63 -180q-30 0 -50 1t-46 1q-23 0 -41 -1t-49 -1l-463 1260q-46 118 -143 118v17h51q17 0 71 -3t85 -3q35 0 93 3q59 3 72 3h54v-17q-107 0 -107 -67q0 -32 14 -60l381 -1040l295 915l-45 136q-39 116 -143 116v17h53
q15 0 72 -3t90 -3q35 0 89 3t69 3h51v-17q-105 0 -105 -67q0 -23 13 -60l352 -1030l285 901q30 99 30 131q0 58 -37 92q-36 33 -112 33v17h26q24 0 87 -3t90 -3q18 0 76 3t77 3h41v-17q-177 -6 -256 -262l-295 -932z" />
    <glyph glyph-name="wdieresis" unicode="&#x1e85;" horiz-adv-x="1554" 
d="M684 1286q0 -44 -29 -71t-71 -27t-69 27q-28 28 -28 71q0 40 28 70q27 28 69 28q41 0 70 -28q30 -28 30 -70zM1075 1286q0 -45 -29 -71q-30 -27 -71 -27t-70 27q-28 27 -28 71q0 42 28 70t70 28t71 -28t29 -70zM1221 0q-33 0 -51 1t-40 1q-24 0 -43 -1t-47 -1l-270 737
l-199 -571l60 -166q-30 0 -48 1t-40 1q-24 0 -44 -1t-46 -1l-328 881q-22 61 -52 85q-29 23 -85 23v15h51l64 -4q48 -3 85 -3q38 0 84 3l62 4h53v-15q-96 0 -96 -53q0 -17 6 -35l262 -708l201 571l-41 117q-22 61 -52 85q-29 23 -85 23v15h51q1 0 63 -4q46 -3 84 -3
q37 0 85 3q12 1 27 2t23.5 1.5t12.5 0.5h53v-15q-96 0 -96 -53q0 -18 6 -35l258 -708l211 598q18 51 18 92q0 106 -139 106v15h21q10 0 76 -4q50 -3 79 -3q31 0 80 3q66 4 70 4h32v-15q-149 -6 -221 -209l-217 -614z" />
    <glyph glyph-name="uni1E8A" unicode="&#x1e8a;" horiz-adv-x="1310" 
d="M1307 0h-76q-13 0 -68 3t-90 3t-96 -3t-76 -3h-74v16q107 0 107 60q0 29 -25 71l-303 484l-262 -367q-68 -92 -68 -151q0 -95 125 -97h2v-16h-28q-22 0 -85 3t-89 3q-16 0 -76 -3t-82 -3h-37v16h2q59 1 121 43q58 39 97 86q42 51 100 131l268 375l-383 613
q-72 114 -180 114v17h75q12 0 69 -3t91 -3q35 0 95 3t75 3h76v-17q-109 0 -109 -59q0 -29 27 -72l287 -463l231 346q66 96 66 152q0 94 -123 96h-2v17h26q25 0 86 -3t89 -3q16 0 76 3t81 3h39v-17h-4q-88 -2 -162 -69q-70 -64 -155 -191l-236 -352l395 -635
q73 -115 183 -115v-16zM705 1542q-44 0 -75 29q-30 29 -30 74t30 75q31 31 75 31q41 0 74 -31q32 -30 32 -75q0 -43 -32 -73q-31 -30 -74 -30z" />
    <glyph glyph-name="uni1E8B" unicode="&#x1e8b;" horiz-adv-x="1003" 
d="M997 0h-57q-16 0 -64 3t-85 3t-84 -3t-62 -3h-53v14q92 0 92 47q0 18 -14 39l-219 340l-166 -243q-41 -61 -41 -103q0 -39 23 -59q24 -21 89 -21h2v-14h-22q-24 0 -74 3t-78 3t-75 -3t-64 -3h-39v14h2q133 1 258 191l170 250l-260 411q-79 123 -158 123v15h56
q5 0 13.5 -0.5t24 -1.5t27.5 -2q49 -3 86 -3t83 3q12 1 26.5 2t22.5 1.5t12 0.5h53v-15q-90 0 -90 -47q0 -21 12 -39l207 -319l147 223q41 61 41 102q0 40 -23 60t-91 20h-2v15h22q6 0 72 -4q50 -3 80 -3q28 0 76 3q64 4 65 4h37v-15h-2q-134 -2 -258 -190l-152 -232
l277 -430q78 -123 157 -123v-14zM502 1176q-46 0 -75 28q-30 28 -30 74t30 76t75 30q44 0 75 -30t31 -76q0 -43 -31 -73q-30 -29 -75 -29z" />
    <glyph glyph-name="Ygrave" unicode="&#x1ef2;" horiz-adv-x="1232" 
d="M721 131q0 -68 22 -91q23 -24 86 -24h2v-16h-45q-22 0 -71 3t-82 3t-81 -3t-73 -3h-45v16h4q63 0 86 24q23 25 23 91v504l-410 639q-39 58 -72 80q-36 24 -90 24v17h68q15 0 66 -3t86 -3t89 3t68 3h74v-17q-96 0 -96 -55q0 -27 20 -63l361 -560l260 430q59 93 59 146
q0 101 -133 102h-2v17h27q24 0 87 -3t89 -3q17 0 77 3t78 3h37v-17h-2q-87 -1 -155 -68q-67 -66 -146 -196l-266 -434v-549zM784 1501l-14 -8q-56 78 -145 159q-90 82 -117 120q-14 20 -14 47t19 45t48 18q37 0 60 -35q24 -35 72 -154q48 -117 91 -192z" />
    <glyph glyph-name="ygrave" unicode="&#x1ef3;" horiz-adv-x="968" 
d="M645 0q-28 0 -46 1t-42 1q-17 0 -35 -1t-33 -1l-43 -98q-26 -60 -45 -103q-9 -21 -39 -82q-27 -56 -41 -74q-6 -7 -43 -53q-26 -31 -54 -43q-16 -7 -60 -20q-33 -10 -78 -10q-43 0 -66 17q-24 18 -24 46t18 45q19 17 47 17t83 -20q53 -19 77 -19q52 0 92 62
q41 63 117 243l39 92l-344 883q-24 61 -54 84q-29 22 -83 22v15h51l64 -4q48 -3 85 -3q38 0 84 3l62 4h53v-15q-96 0 -96 -53q0 -17 6 -35l268 -696l209 588q17 51 17 90q0 106 -138 106v15h21q8 0 74 -4q49 -3 79 -3q33 0 82 3q66 4 68 4h33v-15q-146 -6 -219 -207
l-216 -606zM637 1114l-14 -8q-55 75 -146 159q-92 84 -117 119q-14 20 -14 48q0 27 20 45t48 18q36 0 59 -35q26 -39 73 -154q48 -117 91 -192z" />
    <glyph glyph-name="endash" unicode="&#x2013;" horiz-adv-x="1048" 
d="M956 565h-864v21h864v-21z" />
    <glyph glyph-name="emdash" unicode="&#x2014;" horiz-adv-x="2023" 
d="M1931 565h-1839v21h1839v-21z" />
    <glyph glyph-name="quoteleft" unicode="&#x2018;" horiz-adv-x="415" 
d="M219 1212q48 0 76 -28q29 -29 29 -76q0 -43 -32 -75t-79 -32q-49 0 -85 40q-36 41 -36 100q0 113 60 183q60 71 135 87l4 -14q-69 -15 -122 -79q-54 -64 -54 -151q0 -6 2 -20q28 65 102 65z" />
    <glyph glyph-name="quoteright" unicode="&#x2019;" horiz-adv-x="415" 
d="M197 1198q-44 0 -75 31q-30 30 -30 76q0 42 32 74t79 32q49 0 85 -40q36 -41 36 -99q0 -116 -60 -185q-61 -71 -135 -88l-4 17q68 15 122 78t54 151q0 5 -2 21q-30 -68 -102 -68z" />
    <glyph glyph-name="quotesinglbase" unicode="&#x201a;" horiz-adv-x="415" 
d="M197 -18q-46 0 -75 29q-30 30 -30 75t32 77t79 32q49 0 85 -40q36 -41 36 -100q0 -115 -60 -184q-61 -71 -135 -88l-4 16q68 15 122 78t54 152q0 4 -2 20q-28 -67 -102 -67z" />
    <glyph glyph-name="quotedblleft" unicode="&#x201c;" horiz-adv-x="720" 
d="M522 1212q48 0 76 -28q29 -29 29 -76q0 -43 -32 -75t-79 -32q-49 0 -85 40q-36 41 -36 100q0 113 60 183q60 71 135 87l4 -14q-69 -15 -122 -79q-54 -64 -54 -151q0 -6 2 -20q28 65 102 65zM219 1212q48 0 76 -28q29 -29 29 -76q0 -43 -32 -75t-79 -32q-49 0 -85 40
q-36 41 -36 100q0 113 60 183q60 71 135 87l4 -14q-69 -15 -122 -79q-54 -64 -54 -151q0 -6 2 -20q28 65 102 65z" />
    <glyph glyph-name="quotedblright" unicode="&#x201d;" horiz-adv-x="720" 
d="M197 1198q-44 0 -75 31q-30 30 -30 76q0 42 32 74t79 32q49 0 85 -40q36 -41 36 -99q0 -116 -60 -185q-61 -71 -135 -88l-4 17q68 15 122 78t54 151q0 5 -2 21q-30 -68 -102 -68zM500 1198q-44 0 -75 31q-30 30 -30 76q0 42 32 74t79 32q49 0 85 -40q36 -41 36 -99
q0 -116 -60 -185q-61 -71 -135 -88l-4 17q68 15 122 78t54 151q0 5 -2 21q-30 -68 -102 -68z" />
    <glyph glyph-name="quotedblbase" unicode="&#x201e;" horiz-adv-x="720" 
d="M197 -18q-46 0 -75 29q-30 30 -30 75t32 77t79 32q49 0 85 -40q36 -41 36 -100q0 -115 -60 -184q-61 -71 -135 -88l-4 16q68 15 122 78t54 152q0 4 -2 20q-28 -67 -102 -67zM500 -18q-46 0 -75 29q-30 30 -30 75t32 77t79 32q49 0 85 -40t36 -100q0 -115 -60 -184
q-61 -71 -135 -88l-4 16q68 15 122 78t54 152q0 4 -2 20q-28 -67 -102 -67z" />
    <glyph glyph-name="dagger" unicode="&#x2020;" horiz-adv-x="892" 
d="M455 -20h-17q0 466 -57 825q15 34 34 99q22 74 23 108q-35 -1 -130 -31q-93 -29 -126 -29q-84 0 -84 70q0 78 84 78q33 0 126 -35q95 -36 130 -37q-6 107 -40 200q-33 90 -33 126q0 40 23 64q24 26 58 26q35 0 59 -26q23 -24 23 -64q0 -36 -33 -126q-34 -93 -40 -200
q35 1 130 37q93 35 126 35q84 0 84 -78q0 -70 -84 -70q-33 0 -126 29q-95 30 -130 31q1 -34 23 -108q19 -65 34 -99q-57 -359 -57 -825z" />
    <glyph glyph-name="daggerdbl" unicode="&#x2021;" horiz-adv-x="892" 
d="M455 737h-17q0 39 -6 72t-12 48q-1 3 -16 35q-9 19 -11 21q0 2 2 7t6 15.5t7 18.5q12 33 21 66q10 36 11 53q-36 -1 -131 -31q-90 -28 -127 -28q-84 0 -84 69q0 78 84 78q34 0 127 -35q91 -34 131 -36q-6 101 -41 170q-34 67 -34 94q0 40 23 64q24 26 58 26q35 0 59 -26
q23 -24 23 -64q0 -27 -34 -94q-35 -69 -41 -170q40 2 131 36q93 35 127 35q84 0 84 -78q0 -69 -84 -69q-37 0 -127 28q-95 30 -131 31q1 -17 11 -53q9 -33 21 -66q3 -8 7 -18.5t6 -15.5t2 -7q-4 -4 -12 -21q-8 -16 -15 -35q-6 -15 -12 -48t-6 -72zM438 690h17q0 -39 6 -72
t12 -48q5 -11 15 -34q9 -19 12 -22q-1 -3 -14 -41q-6 -18 -20 -66q-10 -34 -11 -53q35 1 130 31q93 29 126 29q84 0 84 -70q0 -78 -84 -78q-33 0 -126 35q-95 36 -130 37q6 -104 40 -170q33 -65 33 -94q0 -41 -23 -65q-24 -25 -59 -25q-34 0 -58 25q-23 24 -23 65
q0 29 33 94q34 66 40 170q-35 -1 -130 -37q-93 -35 -126 -35q-84 0 -84 78q0 70 84 70q33 0 126 -29q95 -30 130 -31q-1 19 -11 53q-14 48 -20 66q-13 38 -14 41q2 2 11 22l8 16t8 18q6 15 12 48t6 72z" />
    <glyph glyph-name="bullet" unicode="&#x2022;" horiz-adv-x="690" 
d="M346 535q-79 0 -131 52q-53 53 -53 130t53 130q52 52 131 52q78 0 130 -52t52 -130t-52 -130t-130 -52z" />
    <glyph glyph-name="ellipsis" unicode="&#x2026;" horiz-adv-x="1366" 
d="M227 -16q-51 0 -84 33q-34 34 -34 83q0 50 35 84q37 35 83 35q49 0 84 -35t35 -84q0 -48 -35 -83q-33 -33 -84 -33zM682 -16q-49 0 -82 33q-35 35 -35 83q0 49 35 84t82 35q49 0 84 -35t35 -84q0 -48 -35 -83q-33 -33 -84 -33zM1139 -16q-51 0 -84 33q-35 35 -35 83
q0 49 35 84t84 35q46 0 83 -35q35 -34 35 -84q0 -49 -34 -83q-33 -33 -84 -33z" />
    <glyph glyph-name="perthousand" unicode="&#x2030;" horiz-adv-x="2148" 
d="M406 709q-134 0 -216 98q-81 97 -81 252q0 154 81 251q82 99 216 99q100 0 174 -68q98 -94 211 -94q77 0 171 42t162 120l19 -10l-795 -1417l-18 10l764 1360q-56 -53 -140 -89t-163 -36q-86 0 -164 51q53 -91 53 -219q0 -148 -73 -250q-72 -100 -201 -100zM410 727
q115 0 181 94q66 95 66 238t-66 237q-66 95 -181 95q-93 0 -123 -83q-31 -85 -31 -249q0 -165 31 -250q30 -82 123 -82zM1059 -16q-136 0 -216 98q-81 99 -81 252q0 152 81 251t216 99q129 0 201 -100q71 -99 71 -250t-71 -250q-72 -100 -201 -100zM1063 2q115 0 181 94
q67 96 67 238q0 141 -67 237q-66 95 -181 95q-93 0 -123 -83q-31 -85 -31 -249q0 -165 31 -250q30 -82 123 -82zM1786 -16q-136 0 -216 98q-81 99 -81 252q0 152 81 251t216 99q129 0 201 -100q71 -99 71 -250t-71 -250q-72 -100 -201 -100zM1790 2q115 0 181 94
q67 96 67 238q0 141 -67 237q-66 95 -181 95q-93 0 -123 -83q-31 -85 -31 -249q0 -165 31 -250q30 -82 123 -82z" />
    <glyph glyph-name="guilsinglleft" unicode="&#x2039;" horiz-adv-x="708" 
d="M565 135q-52 53 -166 148q-94 78 -199 159q-82 63 -102 76q20 13 102 76q87 67 199 160q119 99 166 147l10 -10q-85 -98 -268 -373q8 -13 40 -60q21 -31 68 -100q31 -46 78 -108q61 -80 82 -105z" />
    <glyph glyph-name="guilsinglright" unicode="&#x203a;" horiz-adv-x="708" 
d="M143 135l-10 10q85 98 268 373q-13 21 -40 61q-14 21 -39.5 58t-27.5 41q-32 46 -78 108q-54 71 -83 105l10 10q47 -48 166 -147q85 -70 201 -160q82 -63 102 -76q-20 -13 -102 -76q-134 -103 -201 -159q-114 -95 -166 -148z" />
    <glyph glyph-name="fraction" unicode="&#x2044;" horiz-adv-x="122" 
d="M584 1415l-1030 -1454l-17 12l1030 1454z" />
    <glyph glyph-name="uni2070" unicode="&#x2070;" 
d="M176 1104q0 -140 27 -217q27 -76 96 -76q123 0 123 293t-123 293q-69 0 -96 -76q-27 -77 -27 -217zM553 1104q0 -132 -73 -220q-72 -87 -181 -87q-111 0 -183 86q-73 87 -73 221t73 221q72 86 183 86q109 0 181 -87q73 -88 73 -220z" />
    <glyph glyph-name="uni2074" unicode="&#x2074;" 
d="M483 813h-30q-13 0 -43 3t-66 3q-35 0 -65 -3t-43 -3h-60v14h29q45 0 61 21q17 22 17 82v41h-260v10l274 414q13 0 25 -1t28 -1q15 0 27 1t29 1v-408h6q60 0 133 143l10 -2l-35 -157h-114v-41q0 -62 14 -82q15 -21 59 -21h4v-14zM283 987v354l-232 -354h232z" />
    <glyph glyph-name="uni2075" unicode="&#x2075;" 
d="M510 1006q0 -92 -69 -151q-68 -58 -156 -58q-96 0 -160 41t-64 96q0 21 15 36t35 15q47 0 57 -55q15 -69 40 -92q27 -25 75 -25q53 0 74 43q22 46 22 148q0 99 -20 136q-19 36 -74 36q-105 0 -154 -82l-14 4l45 297h225q70 0 88 51l12 -2l-34 -152h-289l-25 -159
q57 61 154 61q95 0 156 -51t61 -137z" />
    <glyph glyph-name="uni2076" unicode="&#x2076;" 
d="M63 1069q0 135 117 230q119 96 289 120l2 -16q-235 -30 -270 -254q49 61 131 61q84 0 143 -52q60 -52 60 -140q0 -94 -73 -158q-72 -63 -157 -63q-90 0 -165 68q-77 69 -77 204zM197 1071q0 -152 26 -205q27 -55 82 -55q98 0 98 203q0 99 -19 138q-19 40 -67 40
q-63 0 -118 -66q-2 -22 -2 -55z" />
    <glyph glyph-name="uni2077" unicode="&#x2077;" 
d="M254 797q-28 0 -49 18t-21 51q0 53 20 107q20 55 66 118q34 47 76 98q8 10 21 25t34 38.5t37 41.5h-256q-71 0 -98 -71l-12 2l47 221l12 -2q-2 -30 12 -39q14 -10 47 -10h338v-9q-18 -24 -61 -79q-28 -35 -56 -74q-4 -6 -38 -64q-27 -46 -33 -82q-8 -45 -14 -92
q-9 -68 -9 -129q0 -33 -18 -51t-45 -18z" />
    <glyph glyph-name="uni2078" unicode="&#x2078;" 
d="M303 797q-94 0 -159 43q-66 44 -66 110q0 107 145 150q-43 18 -79 57q-35 38 -35 96q0 71 58 114q59 44 142 44q79 0 132 -37q55 -38 55 -94q0 -36 -30 -71q-29 -34 -83 -52q147 -60 147 -176q0 -82 -66 -133t-161 -51zM305 813q59 0 92 34q33 35 33 87q0 80 -108 125
l-80 35q-64 -41 -64 -142q0 -139 127 -139zM412 1280q0 53 -28 84t-77 31q-53 0 -82 -26q-28 -25 -28 -62q0 -72 94 -111l76 -33q45 45 45 117z" />
    <glyph glyph-name="uni2079" unicode="&#x2079;" 
d="M535 1139q0 -137 -117 -231q-117 -95 -289 -117l-2 14q235 30 270 254q-53 -62 -129 -62q-84 0 -145 53q-60 52 -60 140q0 92 74 157q73 64 156 64q89 0 166 -68q76 -67 76 -204zM401 1139q0 148 -25 202q-26 56 -83 56q-96 0 -96 -203q0 -101 19 -139q20 -39 67 -39
q65 0 116 67q2 22 2 56z" />
    <glyph glyph-name="parenleft.sups" unicode="&#x207d;" horiz-adv-x="370" 
d="M178 1104q0 -104 31 -212q31 -107 90 -159l-10 -12q-217 166 -217 383t217 383l10 -12q-59 -52 -90 -159q-31 -108 -31 -212z" />
    <glyph glyph-name="parenright.sups" unicode="&#x207e;" horiz-adv-x="370" 
d="M193 1104q0 104 -31 212q-31 107 -90 159l10 12q217 -166 217 -383t-217 -383l-10 12q59 52 90 159q31 108 31 212z" />
    <glyph glyph-name="uni2080" unicode="&#x2080;" 
d="M176 291q0 -141 27 -217t96 -76q123 0 123 293t-123 293q-69 0 -96 -76t-27 -217zM553 291q0 -132 -73 -220q-72 -87 -181 -87q-111 0 -183 86q-73 87 -73 221t73 221q72 86 183 86q109 0 181 -87q73 -88 73 -220z" />
    <glyph glyph-name="uni2081" unicode="&#x2081;" 
d="M463 0h-25q-22 0 -58 3t-69 3q-32 0 -68 -3t-59 -3h-51v14h35q49 0 65 21q17 22 17 82v289q0 47 -33 47q-6 0 -74 -31l-6 12l23 12q62 32 127 88q60 51 75 84h11v-501q0 -61 14 -81q16 -22 59 -22h17v-14z" />
    <glyph glyph-name="uni2082" unicode="&#x2082;" 
d="M498 455q0 -44 -30 -91q-30 -46 -60 -75q-28 -27 -97 -80q-50 -38 -92 -76l-35 -31h322l-37 -170l-12 2q0 17 -2 33q-2 12 -17 23q-14 10 -43 10h-325v8l120 123q175 175 175 336q0 117 -68 117q-63 0 -92 -103q-16 -59 -58 -59q-49 0 -49 47t59 88t150 41q85 0 137 -37
q54 -39 54 -106z" />
    <glyph glyph-name="uni2083" unicode="&#x2083;" 
d="M528 172q0 -80 -67 -134t-158 -54q-105 0 -169 45t-64 108q0 24 14 38q15 15 35 15q44 0 59 -57q15 -73 42 -103t79 -30q54 0 75 39t21 129q0 84 -14 115q-15 32 -45 32q-17 0 -41 -12l-70 -33l-6 17l82 39q59 30 59 143q0 115 -67 115q-61 0 -90 -105q-17 -57 -60 -57
q-49 0 -49 47q0 45 59 87q58 42 146 42q83 0 135 -32q51 -32 51 -89q0 -45 -41 -84q-40 -38 -106 -61q73 0 132 -44q58 -43 58 -116z" />
    <glyph glyph-name="uni2084" unicode="&#x2084;" 
d="M483 0h-30q-13 0 -43 3t-66 3q-35 0 -65 -3t-43 -3h-60v14h29q45 0 61 21q17 22 17 82v41h-260v10l274 414q13 0 25 -1t28 -1q15 0 27 1t29 1v-408h6q60 0 133 143l10 -2l-35 -157h-114v-41q0 -62 14 -82q15 -21 59 -21h4v-14zM283 174v354l-232 -354h232z" />
    <glyph glyph-name="uni2085" unicode="&#x2085;" 
d="M510 193q0 -93 -69 -151q-68 -58 -156 -58q-96 0 -160 41t-64 96q0 21 15 36t35 15q47 0 57 -55q15 -69 40 -92q27 -25 75 -25q53 0 74 43q22 46 22 147q0 100 -20 137q-19 35 -74 35q-105 0 -154 -81l-14 4l45 297h225q70 0 88 51l12 -2l-34 -152h-289l-25 -160
q57 62 154 62q95 0 156 -51t61 -137z" />
    <glyph glyph-name="uni2086" unicode="&#x2086;" 
d="M63 256q0 136 117 230q119 96 289 120l2 -16q-235 -30 -270 -254q49 61 131 61q84 0 143 -52q60 -53 60 -140q0 -94 -73 -158q-72 -63 -157 -63q-90 0 -165 68q-77 69 -77 204zM197 258q0 -152 26 -205q27 -55 82 -55q98 0 98 203q0 99 -19 138q-19 40 -67 40
q-63 0 -118 -66q-2 -22 -2 -55z" />
    <glyph glyph-name="uni2087" unicode="&#x2087;" 
d="M254 -16q-28 0 -49 18t-21 51q0 53 20 107q20 52 66 117q40 55 76 99q8 10 21 25t34 38.5t37 41.5h-256q-71 0 -98 -71l-12 2l47 221l12 -2q-2 -30 12 -39q14 -10 47 -10h338v-9q-18 -24 -61 -79q-28 -35 -56 -74q-4 -6 -38 -64q-27 -46 -33 -82q-8 -45 -14 -92
q-9 -68 -9 -129q0 -33 -18 -51t-45 -18z" />
    <glyph glyph-name="uni2088" unicode="&#x2088;" 
d="M303 -16q-94 0 -159 43q-66 43 -66 110q0 107 145 150q-43 18 -79 57q-35 38 -35 96q0 71 58 114q59 44 142 44q79 0 132 -37q55 -38 55 -94q0 -37 -30 -71q-29 -34 -83 -52q147 -60 147 -176q0 -82 -66 -133t-161 -51zM305 0q59 0 92 34t33 87q0 80 -108 125l-80 35
q-64 -41 -64 -142q0 -139 127 -139zM412 467q0 53 -28 84t-77 31q-53 0 -82 -26q-28 -25 -28 -62q0 -72 94 -111l76 -33q45 45 45 117z" />
    <glyph glyph-name="uni2089" unicode="&#x2089;" 
d="M535 326q0 -136 -117 -231q-119 -96 -289 -118l-2 15q235 30 270 254q-53 -62 -129 -62q-84 0 -145 53q-60 53 -60 140q0 92 74 157q73 64 156 64q89 0 166 -68q76 -67 76 -204zM401 326q0 148 -25 202q-26 56 -83 56q-96 0 -96 -203q0 -101 19 -139q20 -39 67 -39
q65 0 116 67q2 22 2 56z" />
    <glyph glyph-name="Euro" unicode="&#x20ac;" horiz-adv-x="1304" 
d="M244 696q0 53 6 113h-203v22h205q30 256 178 421q147 163 369 163q151 0 278 -87t127 -185q0 -33 -20 -53q-21 -21 -51 -21q-49 0 -70 47q0 1 -2 5.5t-4.5 13t-6.5 20t-10 29t-12 35.5q-29 93 -85 136q-54 42 -144 42q-102 0 -171 -42t-105 -124q-36 -83 -51 -175
q-14 -89 -19 -225h503v-22h-503v-225h503v-23h-503q5 -110 13 -182q9 -78 33 -153q25 -78 60 -123q37 -48 97 -76q61 -29 143 -29q180 0 231 180q17 64 31 96q21 50 69 50q32 0 53 -21t21 -53q0 -107 -133 -189q-131 -81 -272 -81q-223 0 -369 161q-148 163 -178 420h-205
v23h203q-6 56 -6 112z" />
    <glyph glyph-name="trademark" unicode="&#x2122;" horiz-adv-x="1622" 
d="M1483 807h-35q-6 0 -42 2t-44 2q-4 0 -44 -2t-42 -2h-33v14h2q41 0 53 12q13 13 13 41v478l-185 -453l41 -92q-18 0 -30 1t-27 1q-11 0 -24 -1t-29 -1l-223 514v-410q0 -45 21 -67q21 -23 75 -23h4v-14h-21q-2 0 -6.5 0.5t-14 1t-18.5 0.5q-44 2 -49 2t-49 -2
q-9 0 -18.5 -0.5t-14 -1t-6.5 -0.5h-14v14h4q52 0 70 23q18 22 18 67v394q0 73 -80 75h-4v15q34 0 57 -1t43 -1q23 0 41 1t39 1l203 -475l195 475q13 0 27 -1t28 -1q25 0 43 1t41 1h35v-15h-4q-41 0 -53 -11q-13 -12 -13 -40v-455q0 -29 12 -41t54 -12h4v-14zM530 807h-20
q-3 0 -9 0.5t-17 1t-21 0.5q-50 2 -55 2t-53 -2q-9 0 -20.5 -0.5t-17.5 -1t-10 -0.5h-18v14h6q38 0 50 12q11 11 11 41v504h-53q-43 0 -76 -35q-22 -24 -102 -147l-10 4l73 225l11 -2q0 -28 37 -28h94q14 0 32 -1t46 -1t46 1t33 1h95q36 0 36 28l11 2l73 -225l-10 -4
q-80 121 -102 147q-35 35 -76 35h-53v-504q0 -29 12 -41t51 -12h6v-14z" />
    <glyph glyph-name="Omega" unicode="&#x2126;" horiz-adv-x="1517" 
d="M1386 801q0 -196 -139 -374q-140 -179 -360 -245v-162h108q73 0 116 20t95 85q84 100 230 313l12 -8l-168 -491l-12 2q0 59 -72 59h-330v197q156 69 234 244t78 360q0 122 -21 224q-22 106 -66 187q-48 87 -130 136q-83 49 -201 49q-117 0 -202 -49q-83 -48 -131 -136
q-46 -84 -67 -187q-20 -97 -20 -224q0 -185 78 -360t233 -244v-197h-327q-74 0 -74 -59l-12 -2l-168 491l12 8q154 -227 231 -315q52 -62 95 -83q42 -20 114 -20h109v162q-221 66 -361 245q-139 178 -139 374q0 258 181 436t448 178q264 0 445 -178t181 -436z" />
    <glyph glyph-name="uni2153" unicode="&#x2153;" horiz-adv-x="800" 
d="M92 709h619v-19h-619v19zM635 172q0 -80 -68 -134q-67 -54 -157 -54q-104 0 -169 45t-65 108q0 24 14 38q15 15 35 15q45 0 60 -57q15 -73 42 -103t79 -30q53 0 74 39q22 41 22 129q0 82 -15 115q-15 32 -45 32q-17 0 -41 -12l-69 -33l-6 17l82 39q59 30 59 143
q0 115 -68 115q-61 0 -90 -105q-17 -57 -59 -57q-49 0 -49 47q0 45 58 87q59 42 147 42q83 0 135 -32q51 -32 51 -89q0 -45 -41 -84q-39 -38 -107 -61q74 0 133 -44q58 -43 58 -116zM559 813h-24q-23 0 -59 3t-68 3q-33 0 -69 -3t-58 -3h-52v14h35q50 0 66 21q16 20 16 82
v289q0 47 -33 47q-3 0 -73 -31l-7 12l23 13q65 34 127 87q61 52 76 85h10v-502q0 -61 14 -81q16 -22 60 -22h16v-14z" />
    <glyph glyph-name="uni2154" unicode="&#x2154;" horiz-adv-x="800" 
d="M92 709h619v-19h-619v19zM635 172q0 -80 -68 -134q-67 -54 -157 -54q-104 0 -169 45t-65 108q0 24 14 38q15 15 35 15q45 0 60 -57q15 -73 42 -103t79 -30q53 0 74 39q22 41 22 129q0 82 -15 115q-15 32 -45 32q-17 0 -41 -12l-69 -33l-6 17l82 39q59 30 59 143
q0 115 -68 115q-61 0 -90 -105q-17 -57 -59 -57q-49 0 -49 47q0 45 58 87q59 42 147 42q83 0 135 -32q51 -32 51 -89q0 -45 -41 -84q-39 -38 -107 -61q74 0 133 -44q58 -43 58 -116zM614 1268q0 -46 -29 -91q-28 -44 -61 -75t-96 -80q-50 -38 -92 -76l-35 -31h322l-37 -170
l-13 3q0 16 -2 32q-2 13 -16 23t-43 10h-326v8l121 123q174 174 174 336q0 117 -67 117q-63 0 -92 -103q-16 -59 -58 -59q-49 0 -49 47q0 48 58 88q59 41 151 41q85 0 137 -37q53 -38 53 -106z" />
    <glyph glyph-name="uni2155" unicode="&#x2155;" horiz-adv-x="800" 
d="M92 709h619v-19h-619v19zM559 813h-24q-23 0 -59 3t-68 3q-33 0 -69 -3t-58 -3h-52v14h35q50 0 66 21q16 20 16 82v289q0 47 -33 47q-3 0 -73 -31l-7 12l23 13q65 34 127 87q61 52 76 85h10v-502q0 -61 14 -81q16 -22 60 -22h16v-14zM596 193q0 -93 -69 -151
q-68 -58 -156 -58q-96 0 -160 41t-64 96q0 21 15 36t35 15q47 0 57 -55q15 -69 40 -92q27 -25 75 -25q53 0 74 43q22 46 22 147q0 100 -20 137q-19 35 -74 35q-105 0 -154 -81l-14 4l45 297h225q70 0 88 51l12 -2l-34 -152h-289l-25 -160q57 62 154 62q95 0 156 -51t61 -137
z" />
    <glyph glyph-name="uni2156" unicode="&#x2156;" horiz-adv-x="800" 
d="M92 709h619v-19h-619v19zM614 1268q0 -46 -29 -91q-28 -44 -61 -75t-96 -80q-50 -38 -92 -76l-35 -31h322l-37 -170l-13 3q0 16 -2 32q-2 13 -16 23t-43 10h-326v8l121 123q174 174 174 336q0 117 -67 117q-63 0 -92 -103q-16 -59 -58 -59q-49 0 -49 47q0 48 58 88
q59 41 151 41q85 0 137 -37q53 -38 53 -106zM596 193q0 -93 -69 -151q-68 -58 -156 -58q-96 0 -160 41t-64 96q0 21 15 36t35 15q47 0 57 -55q15 -69 40 -92q27 -25 75 -25q53 0 74 43q22 46 22 147q0 100 -20 137q-19 35 -74 35q-105 0 -154 -81l-14 4l45 297h225
q70 0 88 51l12 -2l-34 -152h-289l-25 -160q57 62 154 62q95 0 156 -51t61 -137z" />
    <glyph glyph-name="uni2157" unicode="&#x2157;" horiz-adv-x="800" 
d="M92 709h619v-19h-619v19zM635 985q0 -80 -68 -134q-67 -54 -157 -54q-104 0 -169 45t-65 108q0 24 14 38q16 16 35 16q45 0 60 -58q15 -73 42 -103t79 -30q53 0 74 39q22 41 22 129q0 82 -15 115q-15 32 -45 32q-17 0 -41 -12l-69 -33l-6 17l82 39q59 28 59 143t-68 115
q-61 0 -90 -105q-17 -57 -59 -57q-49 0 -49 47q0 45 58 87q59 42 147 42q83 0 135 -32q51 -31 51 -89q0 -45 -41 -84q-39 -38 -107 -61q74 0 133 -44q58 -43 58 -116zM596 193q0 -93 -69 -151q-68 -58 -156 -58q-96 0 -160 41t-64 96q0 21 15 36t35 15q47 0 57 -55
q15 -69 40 -92q27 -25 75 -25q53 0 74 43q22 46 22 147q0 100 -20 137q-19 35 -74 35q-105 0 -154 -81l-14 4l45 297h225q70 0 88 51l12 -2l-34 -152h-289l-25 -160q57 62 154 62q95 0 156 -51t61 -137z" />
    <glyph glyph-name="uni2158" unicode="&#x2158;" horiz-adv-x="800" 
d="M92 709h619v-19h-619v19zM590 813h-31q-13 0 -43 3t-65 3q-36 0 -66 -3t-43 -3h-59v14h28q45 0 62 21q16 20 16 82v41h-260v10l274 414q13 0 25 -1t29 -1q14 0 26 1t29 1v-408h6q60 0 133 143l11 -2l-35 -157h-115v-41q0 -62 14 -82q15 -21 60 -21h4v-14zM389 987v354
l-231 -354h231zM596 193q0 -93 -69 -151q-68 -58 -156 -58q-96 0 -160 41t-64 96q0 21 15 36t35 15q47 0 57 -55q15 -69 40 -92q27 -25 75 -25q53 0 74 43q22 46 22 147q0 100 -20 137q-19 35 -74 35q-105 0 -154 -81l-14 4l45 297h225q70 0 88 51l12 -2l-34 -152h-289
l-25 -160q57 62 154 62q95 0 156 -51t61 -137z" />
    <glyph glyph-name="uni2159" unicode="&#x2159;" horiz-adv-x="800" 
d="M92 709h619v-19h-619v19zM172 256q0 136 117 230q119 96 289 120l2 -16q-236 -30 -271 -254q49 61 131 61q85 0 144 -52t59 -140q0 -94 -73 -158q-72 -63 -156 -63q-90 0 -165 68q-77 69 -77 204zM305 258q0 -150 27 -205t82 -55q98 0 98 203q0 99 -19 138q-19 40 -67 40
q-64 0 -119 -66q-2 -22 -2 -55zM559 813h-24q-23 0 -59 3t-68 3q-33 0 -69 -3t-58 -3h-52v14h35q50 0 66 21q16 20 16 82v289q0 47 -33 47q-3 0 -73 -31l-7 12l23 13q65 34 127 87q61 52 76 85h10v-502q0 -61 14 -81q16 -22 60 -22h16v-14z" />
    <glyph glyph-name="uni215A" unicode="&#x215a;" horiz-adv-x="800" 
d="M92 709h619v-19h-619v19zM631 1006q0 -92 -69 -151q-68 -58 -156 -58q-96 0 -160 41t-64 96q0 21 15 36t34 15q48 0 58 -55q15 -69 40 -92q27 -25 74 -25q54 0 75 43q22 46 22 148q0 99 -20 136q-20 36 -74 36q-105 0 -154 -82l-14 4l45 297h225q70 0 88 51l12 -2
l-35 -152h-288l-25 -159q57 61 154 61q94 0 155 -51q62 -51 62 -137zM172 256q0 136 117 230q119 96 289 120l2 -16q-236 -30 -271 -254q49 61 131 61q85 0 144 -52t59 -140q0 -94 -73 -158q-72 -63 -156 -63q-90 0 -165 68q-77 69 -77 204zM305 258q0 -150 27 -205t82 -55
q98 0 98 203q0 99 -19 138q-19 40 -67 40q-64 0 -119 -66q-2 -22 -2 -55z" />
    <glyph glyph-name="uni215B" unicode="&#x215b;" horiz-adv-x="800" 
d="M92 709h619v-19h-619v19zM395 -16q-93 0 -158 43q-67 44 -67 110q0 107 145 150q-41 17 -78 57q-36 39 -36 96q0 71 58 114q59 44 142 44q80 0 133 -37q54 -37 54 -94q0 -37 -30 -71q-29 -34 -83 -52q148 -60 148 -176q0 -81 -67 -133q-66 -51 -161 -51zM397 0
q59 0 92 34t33 87q0 80 -108 125l-80 35q-64 -41 -64 -142q0 -139 127 -139zM504 467q0 53 -28 84t-77 31q-53 0 -82 -26q-28 -25 -28 -62q0 -72 94 -111l76 -33q45 45 45 117zM559 813h-24q-23 0 -59 3t-68 3q-33 0 -69 -3t-58 -3h-52v14h35q50 0 66 21q16 20 16 82v289
q0 47 -33 47q-3 0 -73 -31l-7 12l23 13q65 34 127 87q61 52 76 85h10v-502q0 -61 14 -81q16 -22 60 -22h16v-14z" />
    <glyph glyph-name="uni215C" unicode="&#x215c;" horiz-adv-x="800" 
d="M92 709h619v-19h-619v19zM395 -16q-93 0 -158 43q-67 44 -67 110q0 107 145 150q-41 17 -78 57q-36 39 -36 96q0 71 58 114q59 44 142 44q80 0 133 -37q54 -37 54 -94q0 -37 -30 -71q-29 -34 -83 -52q148 -60 148 -176q0 -81 -67 -133q-66 -51 -161 -51zM397 0
q59 0 92 34t33 87q0 80 -108 125l-80 35q-64 -41 -64 -142q0 -139 127 -139zM504 467q0 53 -28 84t-77 31q-53 0 -82 -26q-28 -25 -28 -62q0 -72 94 -111l76 -33q45 45 45 117zM635 985q0 -80 -68 -134q-67 -54 -157 -54q-104 0 -169 45t-65 108q0 24 14 38q16 16 35 16
q45 0 60 -58q15 -73 42 -103t79 -30q53 0 74 39q22 41 22 129q0 82 -15 115q-15 32 -45 32q-17 0 -41 -12l-69 -33l-6 17l82 39q59 28 59 143t-68 115q-61 0 -90 -105q-17 -57 -59 -57q-49 0 -49 47q0 45 58 87q59 42 147 42q83 0 135 -32q51 -31 51 -89q0 -45 -41 -84
q-39 -38 -107 -61q74 0 133 -44q58 -43 58 -116z" />
    <glyph glyph-name="uni215D" unicode="&#x215d;" horiz-adv-x="800" 
d="M92 709h619v-19h-619v19zM395 -16q-93 0 -158 43q-67 44 -67 110q0 107 145 150q-41 17 -78 57q-36 39 -36 96q0 71 58 114q59 44 142 44q80 0 133 -37q54 -37 54 -94q0 -37 -30 -71q-29 -34 -83 -52q148 -60 148 -176q0 -81 -67 -133q-66 -51 -161 -51zM397 0
q59 0 92 34t33 87q0 80 -108 125l-80 35q-64 -41 -64 -142q0 -139 127 -139zM504 467q0 53 -28 84t-77 31q-53 0 -82 -26q-28 -25 -28 -62q0 -72 94 -111l76 -33q45 45 45 117zM631 1006q0 -92 -69 -151q-68 -58 -156 -58q-96 0 -160 41t-64 96q0 21 15 36t34 15
q48 0 58 -55q15 -69 40 -92q27 -25 74 -25q54 0 75 43q22 46 22 148q0 99 -20 136q-20 36 -74 36q-105 0 -154 -82l-14 4l45 297h225q70 0 88 51l12 -2l-35 -152h-288l-25 -159q57 61 154 61q94 0 155 -51q62 -51 62 -137z" />
    <glyph glyph-name="uni215E" unicode="&#x215e;" horiz-adv-x="800" 
d="M92 709h619v-19h-619v19zM395 -16q-93 0 -158 43q-67 44 -67 110q0 107 145 150q-41 17 -78 57q-36 39 -36 96q0 71 58 114q59 44 142 44q80 0 133 -37q54 -37 54 -94q0 -37 -30 -71q-29 -34 -83 -52q148 -60 148 -176q0 -81 -67 -133q-66 -51 -161 -51zM397 0
q59 0 92 34t33 87q0 80 -108 125l-80 35q-64 -41 -64 -142q0 -139 127 -139zM504 467q0 53 -28 84t-77 31q-53 0 -82 -26q-28 -25 -28 -62q0 -72 94 -111l76 -33q45 45 45 117zM389 797q-28 0 -49 18t-21 51q0 53 20 107q19 52 67 118q41 57 75 98q8 10 21 25t34 38.5
t37 41.5h-256q-71 0 -98 -71l-12 2l47 221l12 -2q-2 -29 13 -39q14 -10 47 -10h338v-9q-5 -7 -62 -79q-28 -35 -56 -74q-4 -6 -38 -64q-27 -46 -33 -82q-8 -45 -14 -92q-8 -61 -8 -129q0 -32 -19 -51q-18 -18 -45 -18z" />
    <glyph glyph-name="partialdiff" unicode="&#x2202;" horiz-adv-x="1062" 
d="M530 -16q-180 0 -315 145t-135 373q0 223 128 371q128 147 310 147q124 0 219 -78q-129 390 -530 463l4 16q331 -53 551 -283q221 -232 221 -536q0 -173 -43 -299q-43 -125 -114 -192q-72 -68 -144 -97q-73 -30 -152 -30zM530 0q87 0 140 41t88 169q35 129 35 353
q0 190 -45 346q-85 90 -216 90q-86 0 -138 -36q-54 -38 -90 -151q-36 -114 -36 -310q0 -278 67 -391q66 -111 195 -111z" />
    <glyph glyph-name="Delta" unicode="&#x2206;" horiz-adv-x="1290" 
d="M1225 8v-8h-1162v8l474 1209l-72 178q31 0 51 -1t47 -1q28 0 46 1t44 1zM551 1192l-459 -1172h936z" />
    <glyph glyph-name="product" unicode="&#x220f;" horiz-adv-x="1445" 
d="M1362 0h-45q-25 0 -73 3t-81 3t-81 -3t-72 -3h-45v16h2q66 0 87 23q21 22 21 92v1243h-706v-1243q0 -68 22 -91q23 -24 86 -24h4v-16h-45q-24 0 -72 3t-81 3t-82 -3t-72 -3h-45v16h2q64 0 86 24q23 25 23 91v1133q0 66 -23 91q-22 23 -86 23h-2v17h43q37 0 70 -1t82 -1
q48 0 80 1t73 1h582q38 0 71 -1t82 -1t80 1t72 1h43v-17h-4q-64 0 -85 -22q-22 -24 -22 -92v-1133q0 -68 22 -92q21 -23 85 -23h4v-16z" />
    <glyph glyph-name="summation" unicode="&#x2211;" horiz-adv-x="1245" 
d="M1102 -131l-15 2q4 77 -23 103q-28 26 -103 26h-879v8l526 598l-385 666q-40 67 -63 85q-27 21 -90 21h-7v17h50q39 0 66 -1t75 -1q59 0 91 1t81 1h475q44 0 62 15q19 15 14 46l12 4l180 -473l-14 -6q-168 238 -237 313q-72 80 -195 80h-354l379 -649l-496 -561h909z" />
    <glyph glyph-name="minus" unicode="&#x2212;" horiz-adv-x="1007" 
d="M94 649v21h819v-21h-819z" />
    <glyph glyph-name="radical" unicode="&#x221a;" horiz-adv-x="1054" 
d="M969 1536l-539 -1536h-18l-322 909l21 6l309 -878l528 1505z" />
    <glyph glyph-name="infinity" unicode="&#x221e;" horiz-adv-x="1544" 
d="M94 666q0 111 77 200q76 88 194 88q37 0 78 -12q37 -11 67 -26q27 -14 70 -49q41 -34 60 -53q35 -35 68 -69q49 -50 64 -67q16 18 65 68q57 59 67 68q6 6 26.5 23.5t34.5 29.5q39 34 68 49q28 14 67 26t80 12q117 0 193 -88q77 -89 77 -200q0 -112 -77 -201
q-76 -88 -193 -88q-33 0 -61 7q-40 10 -52 14q-25 8 -53 28q-43 30 -47 33q-8 6 -49 43q-33 30 -47 44l-10.5 10.5t-18.5 19t-21 22.5q-10 10 -21.5 22t-17.5 18.5t-10 10.5l-9 -9t-12 -12.5t-16 -17t-19 -19.5q-50 -52 -59 -60q-17 -15 -51 -48t-57 -45l-55 -30
q-35 -19 -64 -25q-30 -6 -65 -6q-118 0 -194 88q-77 89 -77 201zM1180 934q-38 0 -76 -12q-33 -11 -64 -26q-27 -14 -65 -47q-10 -9 -23 -20.5t-21.5 -19t-14.5 -12.5q-1 -1 -65 -67q-31 -32 -65 -66l66 -66l66 -66q21 -20 58 -52q37 -31 64 -46q18 -10 65 -25
q37 -12 75 -12q107 0 177 82t70 187q0 104 -70 186t-177 82zM115 666q0 -105 70 -187t180 -82q33 0 74 13q42 14 64 25q24 13 65 46q43 35 59 51q3 3 65 67q31 32 64 65q-34 34 -65 66q-16 16 -37.5 39t-27.5 29q-8 8 -58 52q-37 32 -64 46q-29 14 -65 26q-37 12 -74 12
q-110 0 -180 -82t-70 -186z" />
    </font>
</defs>
</svg>
