<svg width="28" height="21" viewBox="0 0 28 21" fill="none" xmlns="http://www.w3.org/2000/svg">
<path fill-rule="evenodd" clip-rule="evenodd" d="M27.5087 11.134H0V9.21478H27.5087V11.134Z" fill="#FF4D00"/>
<path fill-rule="evenodd" clip-rule="evenodd" d="M21.2185 7.82478C19.8465 5.82552 19.1914 3.13006 19.1914 0.258484H20.5571C20.5571 2.94943 21.1745 5.35294 22.3473 7.06203C23.5024 8.74542 25.2068 9.77885 27.508 9.77885V11.134C24.7206 11.134 22.608 9.84974 21.2185 7.82478Z" fill="#FF4D00"/>
<path fill-rule="evenodd" clip-rule="evenodd" d="M21.2185 12.524C19.8465 14.5233 19.1914 17.2188 19.1914 20.0903H20.5571C20.5571 17.3994 21.1745 14.9959 22.3473 13.2868C23.5024 11.6034 25.2068 10.57 27.508 10.57V9.21478C24.7206 9.21478 22.608 10.4991 21.2185 12.524Z" fill="#FF4D00"/>
</svg>
