<svg width="73" height="91" viewBox="0 0 73 91" fill="none" xmlns="http://www.w3.org/2000/svg">
<g clip-path="url(#clip0_182_489)">
<path d="M64.0097 33.41C63.9897 33.76 63.9297 34.11 63.7297 34.4C63.5497 34.68 63.2397 34.89 62.9097 34.87C62.5597 34.85 62.2697 34.56 62.0797 34.27C61.6997 33.69 61.2297 32.37 61.7497 31.74C61.7897 31.7 61.8397 31.67 61.8897 31.64C58.4397 29.08 54.3797 27.6 50.0197 27.6C46.8297 27.6 43.7397 28.38 40.8397 29.93C39.2997 30.78 38.6397 32.93 39.3597 34.72C39.8597 35.98 40.9597 36.79 42.1497 36.79C42.6097 36.79 43.0497 36.68 43.4497 36.45C45.5197 35.36 47.7297 34.8 50.0197 34.8C58.9997 34.8 66.3097 43.53 66.3097 54.26C66.3097 57.5 65.6397 60.56 64.4597 63.26C65.1397 63.28 65.9497 63.57 66.2897 63.79C66.4497 63.89 66.6097 64.03 66.6197 64.22C66.6197 64.31 66.5997 64.4 66.5697 64.48C66.4697 64.78 66.3397 65.08 66.0897 65.26C65.6797 65.57 65.0997 65.48 64.6097 65.32C64.2997 65.22 63.9997 65.11 63.7497 64.9C63.7297 64.88 63.7097 64.86 63.6797 64.83C60.7697 70.17 55.7397 73.71 50.0197 73.71C49.4597 73.71 48.3097 73.6 48.2997 73.6L47.2997 73.51L47.2797 74.69C47.2297 77.37 46.4197 78.99 46.4197 79.01L45.6397 80.47L47.0997 80.7C48.0597 80.85 49.0497 80.93 50.0297 80.93C52.3097 80.93 54.5597 80.52 56.7197 79.72C66.1497 76.22 72.4797 65.99 72.4797 54.27C72.4797 45.84 69.1597 38.32 64.0097 33.43V33.41ZM44.8997 33.54C44.7697 33.65 44.5997 33.7 44.4397 33.74C43.9997 33.83 43.5297 33.8 43.1397 33.59C43.0397 33.53 42.9397 33.46 42.8897 33.36C42.5697 32.78 43.1797 31.35 43.9397 31.46C44.1597 31.49 44.3297 31.65 44.4797 31.81C44.7197 32.05 44.9597 32.3 45.0697 32.62C45.1897 32.94 45.1497 33.34 44.8897 33.55L44.8997 33.54ZM57.7697 77.21C57.6897 77.41 57.4797 77.53 57.2697 77.56C57.0597 77.59 56.8397 77.56 56.6297 77.55C56.3797 77.53 56.1197 77.55 55.8897 77.44C54.5197 76.81 56.2297 74.63 57.4497 75.7C57.7897 75.99 57.8397 76.49 57.8197 76.94C57.8197 77.03 57.8197 77.13 57.7797 77.22L57.7697 77.21ZM68.1797 48.38C67.8197 48.1 67.6497 47.6 67.7497 47.16C67.7597 47.11 67.7797 47.06 67.8197 47.02C67.8597 46.99 67.9097 46.97 67.9597 46.96C68.1197 46.93 68.2897 46.9 68.4597 46.87C68.5497 46.85 68.6397 46.84 68.7297 46.87C68.8297 46.9 68.9097 46.98 68.9797 47.05C69.2197 47.33 69.8397 48 69.6897 48.42C69.4697 49 68.5197 48.64 68.1897 48.38H68.1797Z" fill="#FF4D00"/>
<path d="M35.7192 12.47C35.7192 12.47 32.1792 16.39 37.0492 17.89L37.9492 17.12C37.4392 16.78 36.9592 16.21 37.0692 14.78C37.1892 13.24 36.4092 12.76 35.7292 12.47H35.7192Z" fill="#FF4D00"/>
<path d="M35.7591 52.7001C34.8691 55.1601 34.2091 57.9401 33.7291 60.7301C34.6391 60.6601 35.7591 61.1301 35.3391 62.0001C35.2191 62.2401 34.9491 62.3601 34.6891 62.4101C34.2891 62.4901 33.8591 62.4601 33.4691 62.3301C32.2091 70.7901 32.4491 78.9801 32.4491 78.9801C29.1391 72.2201 33.2891 55.9101 33.2891 46.7301C33.2891 45.6301 33.1891 44.6401 33.0091 43.7601C32.9591 43.7601 32.9191 43.7701 32.8691 43.8001C32.8191 43.8301 32.7791 43.8801 32.7291 43.9301C32.5891 44.0601 32.3791 44.1001 32.1791 44.0701C31.9891 44.0401 31.8091 43.9501 31.6391 43.8601C31.5291 43.8001 31.4291 43.7401 31.3591 43.6401C31.2791 43.5301 31.2691 43.3901 31.2591 43.2601C31.2091 42.6501 31.5591 41.5801 32.2191 41.2801C30.2591 36.8701 26.2991 35.3401 26.2991 31.0401C26.2991 27.6201 27.4391 23.9601 28.5891 21.6601C30.5091 19.6901 34.2991 21.6801 36.1991 22.3701C38.0991 23.0601 39.2191 21.8801 39.9091 20.9901C40.0191 20.8501 40.0691 20.7301 40.0791 20.6301H40.0891L40.2491 16.9901C40.2591 16.7601 39.9891 16.6201 39.8091 16.7801L36.9491 19.2401C32.7091 17.6701 32.8391 15.6801 33.7791 13.3801C34.7691 10.9501 36.7891 10.0901 40.4091 9.46005L42.6491 12.5401C42.8091 12.7601 43.1391 12.6801 43.1991 12.4201L44.1091 8.27005C45.4691 7.22005 45.5291 5.72005 45.3391 5.04005C44.9191 3.57005 43.0391 3.66005 40.4191 2.64005C38.6591 1.95005 37.3391 0.280053 33.9191 0.630053C30.6091 0.980053 27.5891 2.68005 27.5891 2.68005C26.8991 2.50005 23.2291 0.880053 22.3991 0.460053C21.5691 0.0400528 20.8491 -0.249947 20.5291 0.410053C20.2091 1.08005 19.9491 3.88005 21.3391 5.96005C22.7891 8.14005 22.7591 13.1801 22.7591 13.1801C21.5691 9.37005 20.1991 8.53005 20.1991 8.53005C18.7391 9.76005 17.4891 11.0201 16.4191 12.2901C16.6491 12.2601 16.8891 12.2701 17.0891 12.3501C17.8591 12.6501 17.7391 13.4201 17.7491 14.0901C17.7491 14.2701 17.7491 14.4501 17.6891 14.6201C17.6191 14.8201 17.4791 14.9901 17.3191 15.1401C16.8791 15.5401 16.2791 15.7901 15.6891 15.7201C15.1691 15.6601 14.6791 15.3401 14.4591 14.8701C11.5991 19.0901 10.6291 22.9701 10.6291 24.9401C10.6291 30.6701 15.0991 33.3701 15.0991 33.3701C7.1791 31.6701 7.9891 23.6801 7.9891 23.6801C2.2891 31.7701 -0.130901 42.6601 -0.000900812 52.7501C0.189099 52.5801 0.399099 52.4501 0.599099 52.4101C1.4591 52.2301 1.9591 53.4401 1.9691 54.1301C1.9791 54.5301 1.8391 54.9501 1.5391 55.2201C1.2491 55.4801 0.829099 55.5801 0.429099 55.5401C0.319099 55.5301 0.199099 55.5001 0.0990992 55.4701C0.269099 58.3401 0.649099 61.1201 1.2191 63.7201C3.9491 76.0901 0.799099 80.7801 0.0990992 84.2701C-0.130901 85.44 0.0990992 86.4301 0.689099 87.2201C0.789099 86.5301 1.1591 85.4301 2.3991 84.6901C2.3991 84.6901 1.1691 86.9001 2.2991 88.3901C2.2991 88.3901 2.5391 88.59 2.8391 88.7701C3.1091 88.87 3.3791 88.9701 3.6791 89.0501C3.6791 89.0301 3.4291 86.4501 5.0791 85.3701C5.0791 85.3701 4.0791 88.1601 5.5491 89.3001L7.2991 89.3201C7.2991 89.3201 7.3391 89.3201 7.3591 89.3201C7.3391 89.2701 6.6191 86.8601 7.8991 85.5701C7.8991 85.5701 7.6391 88.5401 9.2591 88.8801C11.4491 87.9 11.7591 85.5701 11.8991 84.2001C13.5491 67.66 7.2191 60.4301 7.2191 60.4301C16.4491 66.3701 14.4191 81.9601 14.4191 81.9601C18.0491 82.8 20.1491 81.8901 20.1491 81.8901C17.6291 67.2101 23.9191 62.1101 23.9191 62.1101C22.8791 63.9801 22.2491 66.8801 21.9591 70.09C21.9691 70.09 21.9891 70.0901 21.9991 70.0801C22.4391 69.9901 23.1991 69.9201 23.5791 70.2001C23.6391 70.2501 23.6991 70.3101 23.7291 70.3801C23.7591 70.4501 23.7591 70.5301 23.7591 70.6101C23.7591 71.1501 23.6191 71.69 23.3791 72.1701C23.3291 72.2701 23.2691 72.3601 23.1791 72.4201C23.0891 72.48 22.9791 72.5001 22.8791 72.5101C22.5691 72.5501 22.2591 72.5601 21.9491 72.5301C21.8991 72.5301 21.8491 72.5101 21.7991 72.5101C21.5291 79.2801 22.5491 86.66 24.1991 88.7401C24.6591 89.3201 25.1991 89.7401 25.7791 90.0401C25.8291 89.9201 26.3791 88.66 26.2791 86.5201C26.2791 86.5201 27.5891 87.5701 27.4391 90.59C27.9791 90.68 28.5391 90.7101 29.0891 90.6801C29.1191 90.6101 29.9991 88.0101 29.0191 86.4301C29.0191 86.4301 30.4991 87.5101 30.8191 89.9101C31.0691 90.0701 31.1991 90.15 31.4491 90.3101L32.3091 90.0501C32.3091 90.0501 32.3591 90.0301 32.3891 90.0201C32.3991 89.98 33.1691 87.1901 31.9191 86.2201C31.9191 86.2201 33.3991 86.8401 33.9891 89.3601C34.0791 89.3101 34.1791 89.2701 34.2591 89.2201C36.8991 87.8201 33.9091 83.2801 33.9091 83.2801C40.7791 83.2801 43.6691 81.8601 44.6791 78.1801C47.2091 68.9501 43.7291 63.2601 39.9691 59.5401C37.1591 56.7601 35.7291 52.6901 35.7291 52.6901L35.7591 52.7001ZM41.3391 5.12005L42.7191 4.42005C42.7191 4.42005 44.6191 4.55005 44.0091 6.43005L41.4191 5.84005C41.0691 5.76005 41.0091 5.29005 41.3291 5.12005H41.3391ZM32.8591 2.69005C35.6291 1.00005 38.8191 3.64005 38.8191 3.64005C35.1391 3.36005 33.5691 5.28005 33.5691 5.28005C32.0191 3.84005 32.8591 2.69005 32.8591 2.69005ZM6.9891 77.4601C6.7791 77.73 6.4291 77.8601 6.0891 77.8901C5.8191 77.9201 5.5191 77.8901 5.2991 77.7101C5.0191 77.48 4.9491 77.0801 4.9991 76.7201C5.0591 76.2901 5.3691 75.4401 5.8991 75.4001C6.4091 75.3601 6.7091 76.2001 6.9991 76.5201C7.2391 76.7701 7.1991 77.1901 6.9991 77.4601H6.9891ZM8.1391 36.7801C7.7791 37.2801 7.0691 37.5601 6.5291 37.2701C6.1691 37.0701 5.9591 36.6701 5.8691 36.2701C5.5891 35.1101 6.5891 31.9401 8.1091 33.7401C8.2591 33.9201 8.4191 34.1101 8.4991 34.3401C8.5791 34.5601 8.5891 34.8001 8.5891 35.0301C8.5891 35.6401 8.4991 36.2901 8.1391 36.7901V36.7801ZM16.6191 64.1701C16.5791 64.2401 16.5391 64.3101 16.4691 64.3501C16.3991 64.4001 16.2991 64.4001 16.2191 64.4101C15.9791 64.4201 15.7291 64.4201 15.4991 64.3501C14.2791 63.9701 15.3091 61.9301 16.1791 61.6601C17.8991 61.1301 17.0091 63.4701 16.6291 64.1701H16.6191ZM18.9691 44.2901C18.9091 44.3701 18.8191 44.4201 18.7291 44.4701C18.3491 44.6701 17.9291 44.7901 17.4991 44.7901C17.1991 44.7901 16.8691 44.7301 16.6691 44.5101C16.4791 44.3101 16.4291 44.0201 16.4791 43.7601C16.5591 43.3601 17.0291 42.6301 17.4891 42.6201C17.7891 42.6101 18.4791 43.1301 18.7391 43.3001C18.9491 43.4501 19.0791 43.7001 19.0791 43.9601C19.0791 44.0801 19.0391 44.1901 18.9691 44.2901ZM23.3691 27.5801C23.3291 27.7301 23.2591 27.8701 23.1391 27.9801C22.9291 28.1701 22.6091 28.1601 22.3291 28.1401C21.8191 28.1101 21.3091 28.0801 20.8391 27.8801C20.7891 27.8601 20.7491 27.8401 20.7191 27.8001C20.6791 27.7501 20.6791 27.6801 20.6691 27.6101C20.6491 26.8101 21.0491 25.5801 22.0891 25.8401C22.8891 26.0401 23.6391 26.6801 23.3691 27.5801ZM28.0491 51.0901C27.6791 51.6001 27.0091 51.8001 26.3791 51.8201C25.8491 51.8401 25.2491 51.7001 24.9991 51.2301C24.9291 51.0901 24.8891 50.9401 24.8891 50.7801C24.8591 49.8501 25.9691 48.7301 26.9191 48.6901C27.4391 48.6701 27.5391 48.9701 27.5691 49.4401C27.5991 49.8801 27.5691 49.8101 27.8191 50.1201C27.9891 50.3201 28.2291 50.4401 28.1891 50.7601C28.1791 50.8801 28.1091 51.0001 28.0391 51.0901H28.0491ZM40.7291 76.1801C40.6091 76.3101 40.4491 76.3901 40.2991 76.4801C39.9691 76.6701 39.6191 76.9001 39.2491 76.8201C38.0191 76.5501 38.9091 74.8101 39.6291 74.4801C40.6391 74.0201 41.4391 75.4101 40.7291 76.1801Z" fill="#FF4D00"/>
</g>
<defs>
<clipPath id="clip0_182_489">
<rect width="72.48" height="90.7" fill="white"/>
</clipPath>
</defs>
</svg>
