<svg width="131" height="40" viewBox="0 0 131 40" fill="none" xmlns="http://www.w3.org/2000/svg">
<path d="M23.6857 29.1407L11.8397 1.32721H6.57902L9.69507 8.6489L0 29.1407H1.31833L5.70224 19.8696H14.4764L18.4251 29.1407H23.6857ZM6.32671 18.5424L10.3195 10.1094L13.9087 18.5424H6.32671Z" fill="#222222"/>
<path d="M57.9804 10.5158C56.6306 9.72835 55.0599 9.27114 53.3884 9.27114C48.3043 9.27114 44.179 13.4241 44.179 18.5423C44.179 22.2825 46.3804 25.4957 49.5532 26.9626C46.1912 27.2166 44.2547 29.0073 44.2547 29.0073C42.3119 30.633 41.4036 33.1857 42.1605 35.5797C43.1824 38.8119 46.8535 40.5137 50.3543 39.3898C50.9977 39.1802 51.5843 38.8818 52.1205 38.5325L52.1016 38.5643C52.1773 38.5135 52.2467 38.4627 52.3224 38.4119C52.3539 38.3928 52.3791 38.3738 52.4107 38.3547C56.0313 35.8464 57.1667 32.3348 59.4249 30.2075C60.3143 29.4391 61.393 28.9819 62.5599 28.9819C65.5687 28.9819 68.0098 31.9855 68.0161 35.6813L61.1848 38.4119V39.739H66.906H68.2306C68.8298 38.5579 69.1705 37.1736 69.1705 35.694C69.1705 31.3442 66.2058 27.8199 62.5536 27.8199C61.1028 27.8199 59.7655 28.3723 58.6743 29.3121C58.6743 29.3121 57.3875 30.2646 55.1546 32.9888C54.385 33.9985 53.2244 34.7796 51.7483 35.0145C49.3198 35.4019 47.1121 34.1763 46.8093 32.2649C46.5697 30.7346 47.6231 29.2359 49.3072 28.4993C50.7013 27.8961 53.3884 27.8072 53.3884 27.8072C58.4725 27.8072 62.5977 23.6542 62.5977 18.536C62.5977 15.5959 61.2353 12.9796 59.1095 11.2778C59.7403 9.61405 63.0582 1.98755 70.6654 2.0574L70.7159 5.81033L71.6242 6.19768L74.6646 0.90168C62.623 -1.22561 58.3526 9.49975 57.9804 10.4967V10.5158ZM57.3371 22.5175C57.3371 24.7146 55.5709 26.4927 53.3884 26.4927C51.2059 26.4927 49.4397 24.7146 49.4397 22.5175V14.5671C49.4397 12.37 51.2059 10.592 53.3884 10.592C55.5709 10.592 57.3371 12.37 57.3371 14.5671V22.5175Z" fill="#222222"/>
<path d="M130.993 22.5176H111.256V23.8448H116.214C114.189 25.0195 112.612 26.8928 111.824 29.1408H116.523V28.4803C116.523 25.9212 118.586 23.8448 121.128 23.8448C123.67 23.8448 125.732 25.9212 125.732 28.4803V29.1408H130.432C129.643 26.8928 128.066 25.0195 126.041 23.8448H130.999V22.5176H130.993Z" fill="#222222"/>
<path d="M121.128 0C115.678 0 111.256 4.44509 111.256 9.93159C111.256 15.4181 115.671 19.8632 121.121 19.8632C126.571 19.8632 130.987 15.4181 130.987 9.93159C130.987 4.44509 126.577 0 121.128 0ZM125.732 13.9068C125.732 16.4659 123.67 18.5424 121.128 18.5424C118.586 18.5424 116.523 16.4659 116.523 13.9068V5.96277C116.523 3.40367 118.586 1.32718 121.128 1.32718C123.67 1.32718 125.732 3.40367 125.732 5.96277V13.9131V13.9068Z" fill="#222222"/>
<path d="M107.366 10.5984V9.26483H98.9574V0H93.6967V9.27118H89.748V10.5984L93.6967 13.2464V23.2097C93.6967 26.8674 96.7119 29.8329 100.711 29.8329C105.253 29.8329 107.372 26.8674 107.372 23.2097H106.054C106.054 25.4068 104.862 27.5468 102.679 27.5468C100.497 27.5468 98.9574 25.4068 98.9574 23.2097V10.5984H107.366Z" fill="#222222"/>
<path d="M31.4872 14.2243V10.592H23.5898V11.9192L28.8505 14.5672V29.1344H34.1112V18.5424C32.6794 18.5424 31.525 17.393 31.4872 15.9642C33.7328 13.3924 36.2054 11.9764 38.2555 11.2588L39.3719 15.888H40.6903L42.3114 10.6428L42.6583 9.51886C42.6583 9.51886 36.6911 8.93464 31.4746 14.2179L31.4872 14.2243Z" fill="#222222"/>
<path d="M85.01 25.5783V14.021C85.01 14.021 85.4074 9.20129 80.5504 9.20129C77.0433 9.20129 72.6089 12.0588 70.4138 13.6527L73.2649 16.6563L74.2931 16.2436L74.2489 12.5034C75.4978 11.8302 76.7846 11.2651 77.6046 11.2651C79.5285 11.2651 79.7871 13.2019 79.7871 15.3927V16.3388C74.6652 18.2629 67.9727 18.6503 67.9727 24.848C67.9727 28.2199 70.4201 29.9916 73.3469 29.9979C75.8069 30.0043 77.4533 28.8359 79.7871 26.3784V29.128H88.6811V27.7564L85.01 25.5783ZM76.2485 27.1467C73.9777 27.1467 73.3469 25.1401 73.3469 23.6351C73.3469 19.2281 76.608 18.809 79.7871 17.5517V24.7083C78.6454 26.1117 77.6362 27.1404 76.2548 27.1404L76.2485 27.1467Z" fill="#222222"/>
</svg>
