<svg xmlns="http://www.w3.org/2000/svg" viewBox="0 0 31.47 29.73"><defs><style>.cls-1{fill:#222;}</style></defs><title>Recurso 2</title><g id="Capa_2" data-name="Capa 2"><g id="Capa_1-2" data-name="Capa 1"><path class="cls-1" d="M30.77,1.56c-2.43-1.62-7.14,2.28-7.14,2.28C15.19,1.32,9,3.48,9,3.48c-.95-.67-1.85-1.27-2.7-1.78l-.23.2a4.46,4.46,0,0,0-.28.63.58.58,0,0,1-.53.39c.18-.51-.29-1-.32-1.54A.92.92,0,0,1,5,1C3.14,0,1.64-.33.79.37-1.51,2.24,2,8.77,2,8.77s-2.4,4.84,1.19,8.55,4.66,5.75,4.65,8.2a4.65,4.65,0,0,0,0,.66,6.34,6.34,0,0,1,1,0c.11.16,0,.38.1.55a1,1,0,0,0,.14.15,1.47,1.47,0,0,1,.43.9.49.49,0,0,1,0,.21.32.32,0,0,1-.17.11,1.11,1.11,0,0,1-.31.09c1.14.92,3.11,1.47,6.17,1.5,5.43,0,6.62-1.72,6.91-4.59s2.18-4.59,4.95-8.3a1.39,1.39,0,0,0-1.19-.22,1.19,1.19,0,0,1-.32.05.4.4,0,0,1-.24-.6,1,1,0,0,1,.63-.41,2.82,2.82,0,0,1,1.88.07c2.1-3.39.88-5.54.88-5.54s4.47-7,2.05-8.65ZM5.64,15A.74.74,0,0,1,5.28,15l-.61-.27a.51.51,0,0,1-.18-.09A.59.59,0,0,1,4.3,14a1.82,1.82,0,0,1,.35-.6l.09,0c.09.31.51.37.85.38.06.06,0,.16,0,.22a.54.54,0,0,0-.21.16c-.07.13.09.28.24.35s.34.16.33.31S5.76,15,5.64,15ZM14,5.9a.58.58,0,0,1,.52-.2,1.84,1.84,0,0,1,.56.18l0,.07c.21-.08.37.21.31.41s-.23.36-.29.56a4.52,4.52,0,0,0,0,.52.67.67,0,0,1-.3.45.3.3,0,0,1-.27.05c-.17-.08-.09-.32-.07-.51a1.35,1.35,0,0,0-.3-.76A.71.71,0,0,1,14,5.89ZM6.42,9.72a.81.81,0,0,1,.55-1c6-1.73,5.59,3.61,2.17,3.59-1.65,0-2.41-1.57-2.72-2.55Zm10,18.35a.5.5,0,0,1-.74.08c-.13-.15-.13-.39-.3-.49s-.51,0-.7-.11-.08-.47.15-.56a1.09,1.09,0,0,1,.71.05l.92.28s0,0,0,0l.08,0-.06,0a.79.79,0,0,1,0,.76Zm2.65-3.25L17.22,22.7l-1.71,2.53h-.67L13.17,22.7l-1.91,2.1a2.64,2.64,0,0,1-2.15-2.65c0-1.58.47-2.35,1-2.71C10.6,20,12,21.51,12,21.51s1-1.82,1.39-2.57c.94-.19,1.86-.66,1.87-1.74,0-1.91-4-1.59-4-3.27s3.2-1.69,4-1.69c1.26,0,3.9,0,3.88,1.42s-3.52,1.74-3.53,3.52c0,1.07.75,1.54,1.8,1.74.25.59,1.43,2.64,1.43,2.64l1.56-2a3.17,3.17,0,0,1,.7,2.43,2.86,2.86,0,0,1-2,2.89ZM24.61,9.31A2.81,2.81,0,0,1,21.9,12a1.77,1.77,0,0,1-1.42-2.87.65.65,0,0,1-.4-.14.25.25,0,0,1-.14-.22c0-.19.3-.19.48-.23A1.25,1.25,0,0,0,21.07,8a.79.79,0,0,1,.73-.34.57.57,0,0,1,.37.41,1.66,1.66,0,0,1,0,.22A5.49,5.49,0,0,1,24,8.37a.81.81,0,0,1,.66.94Zm3.25-4.16c-.22,0-.45.23-.37.43a.89.89,0,0,1-.6-.06.86.86,0,0,1,.52-1h0a2.47,2.47,0,0,1,1.42.18c.13.18-.08.42-.3.46s-.45,0-.67,0Z"/><path class="cls-1" d="M16,14.52a2.84,2.84,0,0,1,.9-.27c.24,0,.52,0,.66-.22a.6.6,0,0,0,.06-.42.19.19,0,0,0-.05-.14.37.37,0,0,0-.33-.11,1.46,1.46,0,0,0-.69.08,1.58,1.58,0,0,0-.29.22,2.79,2.79,0,0,0-.44.47c-.17.25-.2.57.18.39Z"/><path class="cls-1" d="M14.45,13.75a1,1,0,0,0-.31-.16,1.86,1.86,0,0,0-.34-.07l-.41,0a.3.3,0,0,0-.16,0,.2.2,0,0,0-.08.1c-.1.2-.19.44-.06.61a.56.56,0,0,0,.33.17c.37.08.76,0,1.14.07.1,0,.39.13.47.06s-.08-.36-.16-.44a2,2,0,0,0-.42-.35Z"/></g></g></svg>