<svg xmlns="http://www.w3.org/2000/svg" viewBox="0 0 43.95 37.79"><defs><style>.cls-1{fill:#222;}</style></defs><title>Recurso 6</title><g id="Capa_2" data-name="Capa 2"><g id="Capa_1-2" data-name="Capa 1"><path class="cls-1" d="M42.73,1.65H37.16a1.22,1.22,0,0,0-1.08.62,17.05,17.05,0,0,1-11.66,8.61,1,1,0,0,0-.81,1l.11,1.91a.89.89,0,0,1-.45.85,2.93,2.93,0,0,1-2.27.26,1,1,0,0,1-.7-.71l-.64-2.79a1,1,0,0,0-.76-.72,18.57,18.57,0,0,1-6.5-2.6l-.18.38h0l-.06.07,0-.06a.85.85,0,0,1-.79-.12.46.46,0,0,1,0-.71,1.45,1.45,0,0,1,.22-.09A9.21,9.21,0,0,1,8.19,2.62a1.22,1.22,0,0,0-.81-.84L1.57.05A1.19,1.19,0,0,0,.06,1.53L2,6.93a1.2,1.2,0,0,0,1.09.78c7.89.36,6.65,8.82,7.1,17,0,.28,0,.53.06.78l.08,0a1.12,1.12,0,0,1,.72.05l.92.28s0,0,0,0l.08.05-.06,0a.82.82,0,0,1,0,.76.5.5,0,0,1-.74.07c-.13-.14-.13-.38-.31-.49s-.36,0-.54-.05c1.17,7,8,6.76,8,6.76a5.67,5.67,0,0,1,1.38-4A3.47,3.47,0,0,1,20,31.3c-.38,1.32-2.46,6.51,2.42,6.49-1.84-1.5-1-2.68-.1-5.1a3.1,3.1,0,0,0-.77-3.64c2,.83,1.66,2.73,1.35,3.66a4.6,4.6,0,0,0,.88,4.94c3.59-.76,2-4.44,1.28-5.86A4,4,0,0,1,24.73,29c2.19.34,2.81,3.67,2.81,3.67,3.15-.38,4.77-2.55,4.77-11.69-.13.11-.23.24-.36.35a.63.63,0,0,1-.65.16c.37-.4.17-1,.37-1.53a1,1,0,0,1,.63-.57c0-.41,0-.82,0-1.25C32,9.83,36.43,8.21,39,8a1.93,1.93,0,0,0-.28-.53.71.71,0,0,1-.09-.78.6.6,0,0,1,.52-.2,1.84,1.84,0,0,1,.56.18l-.05.07c.21-.07.37.21.31.41s-.23.36-.29.57a.93.93,0,0,0,0,.24H40a1.24,1.24,0,0,0,1.06-.53l2.68-3.95a1.16,1.16,0,0,0-1-1.79ZM4.84,5.28a.65.65,0,0,1-.36-.1l-.61-.26-.19-.09a.61.61,0,0,1-.18-.64,1.93,1.93,0,0,1,.35-.6l.09,0c.09.31.51.38.85.38.06.06,0,.16,0,.22a.56.56,0,0,0-.21.16c-.07.14.09.28.24.35s.34.16.33.32S5,5.27,4.84,5.28Zm20.8,8.23c.06-.19.3-.25.5-.29,1.17-.19,2.34-.39,3.52-.57a.39.39,0,0,1,.26,0c.13.07.15.23.16.37,0,.42,0,.85,0,1.27a.4.4,0,0,1,0,.19c-.08.17-.32.17-.51.16a13.31,13.31,0,0,0-3.09.11c-.54.08-.61-.53-.77-.92a.54.54,0,0,1-.05-.35Zm-5,6.33a1.14,1.14,0,0,1,.16-.14,2.43,2.43,0,0,1,1.66-.41c.37.05,1.21.22,1.29.66s-.25.54-.48.75a2.42,2.42,0,0,0-.52.67,1.14,1.14,0,0,1-.15.23.52.52,0,0,1-.5,0,1.83,1.83,0,0,1-.44-.28,5.11,5.11,0,0,0-.94-.59c-.06,0-.13-.05-.16-.11a.36.36,0,0,1-.05-.23.94.94,0,0,1,.13-.6Zm-7.91-5.62c.05-.44.11-.86.16-1.29a.39.39,0,0,1,.2-.37.42.42,0,0,1,.27,0c1.17.3,2.33.61,3.49.93.2.05.43.14.47.33a.56.56,0,0,1-.09.35c-.21.37-.34,1-.89.85a13.47,13.47,0,0,0-3.1-.43c-.19,0-.44,0-.5-.21a.45.45,0,0,1,0-.2Zm1,6.8a.24.24,0,0,1-.12,0,.7.7,0,0,1-.16-.1.56.56,0,0,0-.68.08.5.5,0,0,1-.12.13.26.26,0,0,1-.33-.11.5.5,0,0,1,0-.36,1,1,0,0,1,.73-.64v0h0s0,0,0,0a.38.38,0,0,1,.13.4.88.88,0,0,1,.6.12c.16.12.16.44,0,.49Zm1.56-3.69a1.53,1.53,0,0,1,.7-1.07,1.64,1.64,0,0,1,.74-.09c.95,0,2.28.15,2.64,1.19a2.34,2.34,0,0,1-.1,1.54,1.42,1.42,0,0,1-.43.69,1.76,1.76,0,0,1-1.22.23,4.21,4.21,0,0,1-1.54-.34,1.64,1.64,0,0,1-.93-1.16,2.33,2.33,0,0,1,.13-1ZM24.7,28.2c-2.34-1.62-5,0-5,0s-3.78.69-4.1-1.88a2.33,2.33,0,0,1,1.64-2.72c-.12.26,2.43,2.45,2.43,2.45L21,23l.8,0,1.11,0,1.69,2.84,1.85-2.27A2.64,2.64,0,0,1,28,25.66c.39,2.58-3.33,2.54-3.33,2.54Zm3.91-9.33a.77.77,0,0,1-.33.42,1,1,0,0,1-.3.09l-.28,0a1,1,0,0,0-.12.26c0,.17,0,.35,0,.52a.67.67,0,0,1-.3.45.28.28,0,0,1-.26.05c-.18-.08-.09-.32-.07-.51a1.08,1.08,0,0,0-.27-.7,2,2,0,0,1-1.78-.75,2,2,0,0,1-.15-1.13,2,2,0,0,1,.66-1.55,2,2,0,0,1,1.08-.29,1.87,1.87,0,0,1,1.87.92,2.33,2.33,0,0,1,.28,2.18Zm2.29,7.92c-.16.2-.52.13-.69.32a.78.78,0,0,0-.13.34.34.34,0,0,1-.23.27c-.17,0-.28-.15-.35-.3a1.18,1.18,0,0,1-.08-.76.61.61,0,0,1,.56-.47h-.06c0-.08.14-.09.22-.08a1.36,1.36,0,0,1,.63.15.38.38,0,0,1,.13.53ZM35,7.12a.42.42,0,0,1-.16.09,3.34,3.34,0,0,1-.88.22.65.65,0,0,0-.23.06.51.51,0,0,0-.17.21,1.17,1.17,0,0,1-.34.39.55.55,0,0,1-.51.07c0-.14.1-.25.2-.33.39-.33,1.4-1.52,2-1.19a.31.31,0,0,1,.1.47Z"/></g></g></svg>