<svg xmlns="http://www.w3.org/2000/svg" viewBox="0 0 33.03 34.84"><defs><style>.cls-1{fill:#222;}</style></defs><title>Recurso 1</title><g id="Capa_2" data-name="Capa 2"><g id="Capa_1-2" data-name="Capa 1"><path class="cls-1" d="M15.78,14.41a.65.65,0,0,0,.51-.08.84.84,0,0,0,.31-.43.55.55,0,0,0,0-.31c-.18-.94-2.24-.42-1.3.54a.87.87,0,0,0,.45.27Z"/><path class="cls-1" d="M17.49,14.33a.52.52,0,0,0,.16.06.67.67,0,0,0,.28,0,1.09,1.09,0,0,0,.35-.15,1.14,1.14,0,0,0,.3-.23c.42-.46-.29-.8-.69-.89s-.64.56-.57.92a.4.4,0,0,0,.16.26Z"/><path class="cls-1" d="M30.12,11.85c2,1.65,1,8.31-3.44,8.8-3.46.37-3.66-2-3.66-2s3.76,1.43,5.33-1.28c0,0,.95-3.14-.63-9.25a8.25,8.25,0,0,0-3-2.92s1.19.1,3.63,2.07A9.82,9.82,0,0,0,30,3.3a.84.84,0,0,1-.49.08h0a2.32,2.32,0,0,1-1.15-.81c0-.22.27-.34.49-.27s.38.23.59.3.51,0,.53-.21a.05.05,0,0,1,0,0,3.32,3.32,0,0,0-.16-.81S26.48.15,23.09,4a23.9,23.9,0,0,0-6.26-.82.43.43,0,0,1,0,.16c-.06.21-.23.37-.29.57a4.35,4.35,0,0,0,0,.52.67.67,0,0,1-.3.45.3.3,0,0,1-.27,0c-.17-.09-.09-.33-.07-.52a1.23,1.23,0,0,0-.3-.75,1.21,1.21,0,0,1-.17-.43,18.26,18.26,0,0,0-3.77.61S9.6,0,5.48,0c0,0-2.12,2.44-.09,6.54,2.54-1.75,3.9-1.65,3.9-1.65A6.43,6.43,0,0,0,6,7.65s-2.25,5.43-.83,10.8a6.7,6.7,0,0,0,5.46.37S10.23,21.3,6.45,21c-7-.47-2.85-8.48-2.85-8.48s-4,1-3.57,6.06C.43,23.46,5.71,24,5.71,24c-.59,6,5.47,6.74,5.47,6.74a6.09,6.09,0,0,1,2.15-4.17c-2.5,8.54,3.19,8.25,3.19,8.25-1.16-1-1.21-2.61-.12-4.22,1.23-1.83-.45-5.57-.45-5.57,2.3,1.72,1.8,4.6.93,6.9a1.65,1.65,0,0,0,1.85,2.29c4-1.6.3-7.67.3-7.67A7.57,7.57,0,0,1,22.41,31a6.85,6.85,0,0,0,5.17-7.23,6.83,6.83,0,0,0,4.5-3,1.46,1.46,0,0,0-.55,0,.87.87,0,0,1-.32.06.4.4,0,0,1-.24-.6,1,1,0,0,1,.64-.41,3.08,3.08,0,0,1,1-.13,7.59,7.59,0,0,0,.42-2c.39-5.35-2.87-5.77-2.87-5.77Zm-5.48,3.22-.08,0c.14.16-.09.4-.3.42s-.43-.09-.65-.07a5.18,5.18,0,0,0-.53.14.73.73,0,0,1-.54-.11.28.28,0,0,1-.14-.23c0-.18.3-.18.49-.22a1.37,1.37,0,0,0,.64-.53.75.75,0,0,1,.73-.34.57.57,0,0,1,.37.41,1.32,1.32,0,0,1,0,.56ZM21.33,8.3a2.7,2.7,0,0,1,.6-.51,1.11,1.11,0,0,1,.34-.18,2.84,2.84,0,0,1,1.32.11,1.47,1.47,0,0,1,.94.83,1.32,1.32,0,0,1,0,.28,3.37,3.37,0,0,1-.4,1.66.66.66,0,0,1-.32.3.77.77,0,0,1-.26,0,6.14,6.14,0,0,1-1.29-.14,1.48,1.48,0,0,1-.54-.21,1.17,1.17,0,0,1-.34-.36,1.58,1.58,0,0,1-.06-1.81Zm-6.66,4.06A4.29,4.29,0,0,1,18.74,12a1.52,1.52,0,0,1,.89,1.87,4.32,4.32,0,0,1-1.7,2.32,1.64,1.64,0,0,1-1.46.18A3.53,3.53,0,0,1,14,13.9a1.46,1.46,0,0,1,.66-1.54ZM9.51,8.55a1.61,1.61,0,0,1,.17-.43,1,1,0,0,1,.2-.31,2.15,2.15,0,0,1,2.92.39,1.26,1.26,0,0,1,0,.72,2.43,2.43,0,0,1-.3.83,1.38,1.38,0,0,1-.68.56,1.92,1.92,0,0,1-.79.07,2,2,0,0,1-.6-.11,1.45,1.45,0,0,1-1-1.72Zm.88,6.06c-.13-.14-.13-.39-.3-.49s-.51,0-.7-.1-.08-.48.15-.57a1.12,1.12,0,0,1,.72.05l.92.28s0,0,0,0l.08,0-.06,0a.79.79,0,0,1,0,.76.51.51,0,0,1-.74.08Zm10.73,9.81-1,1.77c-1-.08-.91-1.19-.91-1.19,0-1.43-1-1.5-1.59-1.58a17.85,17.85,0,0,0-3,.13c-1.16.13-1,1.08-1.06,1.81a.62.62,0,0,1-.82.54l-.9-2L10.2,25.73c-1.13-.41-.84-2-.84-2,4.32-1.05,4.47-4,4.47-4h.48L16,21.59l1.17-2,1.42,2,1.24-1.95.37,0c.39,3.35,4.48,4.11,4.48,4.11A2.36,2.36,0,0,1,22.62,26l-1.49-1.63Zm4.52,3c0,.23-.24.4-.42.56l-.72.59h0l-.09,0,.06,0a.83.83,0,0,1-.66-.42.48.48,0,0,1,.33-.65c.2,0,.41.1.59,0s.24-.43.47-.52.46.19.42.42Z"/></g></g></svg>