<svg xmlns="http://www.w3.org/2000/svg" viewBox="0 0 28.74 38.94"><defs><style>.cls-1{fill:#222;}</style></defs><title>Recurso 4</title><g id="Capa_2" data-name="Capa 2"><g id="Capa_1-2" data-name="Capa 1"><path class="cls-1" d="M28.71,15.43c.16-2.15-.29-3.56-1.85-3.67a2.35,2.35,0,0,0-2.19.91c.07,5.58-1.56,8.16-1.56,8.16C23.19,14.14,20.53-.08,14,0S5.43,19.9,5.43,19.9C4.19,19,3.81,11.26,3.81,11.26,1.89,10.4-.22,12.1,0,15.4s2.55,4.43,2.44,5.87-1,2.31-1.1,3.86a2.3,2.3,0,0,0,2.22,2.45c1.84.13,2.05-1.85,2.05-1.85.67,5.8,3.61,13.32,9.88,13.21S23,26.9,23,26.9c.85,2.4,4,1.92,4.17-.75s-1.05-2.43-.93-4.13,2.31-4.43,2.47-6.59ZM4.6,24.19a4.48,4.48,0,0,1-.11.5A.92.92,0,0,1,4.4,25a.51.51,0,0,1-.42.19A1.16,1.16,0,0,1,3.51,25a1.28,1.28,0,0,1-.4-.25.76.76,0,0,1-.23-.71c.11-.53.62-.64,1.1-.65a.63.63,0,0,1,.62.77ZM17,11.9a2.2,2.2,0,0,1,3.56,0,.66.66,0,0,1,0,.92,2.26,2.26,0,0,1-3.54,0,.64.64,0,0,1,0-.9ZM13.56,6a1.34,1.34,0,0,1,.22-.41,1.21,1.21,0,0,1,.53-.3,1.15,1.15,0,0,1,.55,0,1.3,1.3,0,0,1,.32.14.65.65,0,0,1,.34.41.58.58,0,0,1-.11.38c-.22.39-.57.94-1.17.76A.71.71,0,0,1,14,6.76c-.23-.14-.47-.32-.47-.57A.6.6,0,0,1,13.57,6Zm.3,8.87a.57.57,0,0,1,.56-.51l.59,0a.58.58,0,0,1,.59.46l1.7,10.58a.56.56,0,0,1-.55.65l-3.3.08a.57.57,0,0,1-.59-.59l1-10.64Zm-5.18-3a2.2,2.2,0,0,1,3.56,0,.65.65,0,0,1,0,.91,2.26,2.26,0,0,1-3.54,0,.64.64,0,0,1,0-.9Zm3,6.73c-2,2.93-3.31.92-3.86-.44a.16.16,0,0,1,.26-.16,3.06,3.06,0,0,0,3.41.37.16.16,0,0,1,.2.23Zm5.74,16.52a2,2,0,0,1-2.09,1.8c-.58,0-2.09-.35-2.15-1.68-.06-1.71,2.12-2.87,2.12-2.87s2.23,1.27,2.12,2.76Zm.28-4.82-5.2,0a.59.59,0,0,1-.61-.58V28.45a.58.58,0,0,1,.6-.59l5.19,0a.6.6,0,0,1,.62.58v1.24A.58.58,0,0,1,17.69,30.24ZM21.34,17.8c-.43,1.4-1.53,3.5-3.81.75a.16.16,0,0,1,.17-.25,3.06,3.06,0,0,0,3.37-.63A.15.15,0,0,1,21.34,17.8ZM26,25.09c0,.25-.08.55-.31.66a.65.65,0,0,1-.24.06,1.29,1.29,0,0,1-.48,0,1.39,1.39,0,0,1-.52-.31,1,1,0,0,1-.31-.43.92.92,0,0,1,0-.33.64.64,0,0,1,.21-.49.76.76,0,0,1,.4-.08c.46,0,1.13,0,1.25.63a.71.71,0,0,1,0,.29Z"/></g></g></svg>