<svg xmlns="http://www.w3.org/2000/svg" viewBox="0 0 20.77 43"><defs><style>.cls-1{fill:#222;}</style></defs><title>Recurso 5</title><g id="Capa_2" data-name="Capa 2"><g id="Capa_1-2" data-name="Capa 1"><path class="cls-1" d="M10.53,39a2.12,2.12,0,0,0,1.09,0,1.54,1.54,0,0,0,.84-.65,1.68,1.68,0,0,0,.19-.76,1,1,0,0,0-.2-.77,2.54,2.54,0,0,0-1.81-.52,1,1,0,0,0-.45.09.75.75,0,0,0-.29.24,1.85,1.85,0,0,0-.49,1.1,1.25,1.25,0,0,0,.48,1.07,1.62,1.62,0,0,0,.64.25Z"/><path class="cls-1" d="M20.46,20.92s-5.25-3.35-5.91-7.61-1-5.51-2.43-6.49c0,0,3.76.62,4.69,6.5l3.48,0S21.24.05,9.9,0,.07,14.22.07,14.22l4.09,0S4.54,7.44,8.44,6.8a8.13,8.13,0,0,0-2.15,5.75c0,3.67-3.82,8.16-5.66,9.08A47.58,47.58,0,0,0,1.12,36a7.57,7.57,0,0,0,4.24.51c2.19-.46,2.47-1.56,2.47-1.56l5.46,0a6,6,0,0,0,6.49.62S21.45,27.61,20.46,20.92ZM7.66,29.45A.67.67,0,0,1,7,30.1l-3.26,0a.66.66,0,0,1-.67-.65v-.57a.67.67,0,0,1,.68-.65l3.26,0a.66.66,0,0,1,.67.65Zm0-4.36a2.1,2.1,0,0,1-.23.9,1.74,1.74,0,0,1-1,.78,2.63,2.63,0,0,1-1.31.06,2,2,0,0,1-.76-.31,1.49,1.49,0,0,1-.57-1.27A2.21,2.21,0,0,1,4.39,24a1.12,1.12,0,0,1,.35-.3,1.35,1.35,0,0,1,.53-.1,3.11,3.11,0,0,1,2.17.62A1.3,1.3,0,0,1,7.68,25.09ZM8.84,2.94A1,1,0,0,1,9,2.53,1,1,0,0,1,9.5,2.2c1.55-.55,2.47,1.36,1,2.07A1.42,1.42,0,0,1,9.2,4.2a.84.84,0,0,1-.29-.27,1.37,1.37,0,0,1-.07-1Zm3.45,28.87-.65.86a1,1,0,0,1-1.53,0l-1-1.12a.92.92,0,0,1,0-1.15l.61-.78a.8.8,0,0,0,.19-.5c.11-1.72.64-11.15-.47-18.44a1,1,0,0,1,1.92-.28,85,85,0,0,1,.4,19.15.9.9,0,0,0,.16.59l.39.54a.92.92,0,0,1,0,1.07Zm2-6.9a2.13,2.13,0,0,1,.14-.51c.74-1.73,3.46-1,3.75.63a2.07,2.07,0,0,1-.27,1.21,1.39,1.39,0,0,1-.43.56A1.45,1.45,0,0,1,17,27a3.38,3.38,0,0,1-1.45-.05,1.73,1.73,0,0,1-1.11-.85,1.82,1.82,0,0,1-.11-1.15Zm4.55,4.59a.67.67,0,0,1-.68.64H14.88a.67.67,0,0,1-.68-.65v-.57a.68.68,0,0,1,.69-.65l3.25,0a.67.67,0,0,1,.68.65Z"/><path class="cls-1" d="M15.39,38.54c-4.19,3.81-8.51.35-8.51.35a5.91,5.91,0,0,0-3.28.35S5.46,43,10.85,43a7.8,7.8,0,0,0,7.25-4.19,5.45,5.45,0,0,0-2.72-.27Z"/></g></g></svg>