<svg xmlns="http://www.w3.org/2000/svg" viewBox="0 0 27.09 34.84"><defs><style>.cls-1{fill:#222;}</style></defs><title>Recurso 3</title><g id="Capa_2" data-name="Capa 2"><g id="Capa_1-2" data-name="Capa 1"><path class="cls-1" d="M24.69,7.52a59.89,59.89,0,0,0-6.48-6,7,7,0,0,0-8.88.19A67.91,67.91,0,0,0,2.14,9.09,9.21,9.21,0,0,0,.83,18.82,55.67,55.67,0,0,0,11,33.52a4.31,4.31,0,0,0,6.6-.48,106.22,106.22,0,0,0,8.68-15.47,9.14,9.14,0,0,0-1.54-10Zm-6-2.36A4.16,4.16,0,0,1,16,9.11,3.58,3.58,0,0,1,18.73,5.16Zm-5-1.43c2.5,2,.69,5.68.69,5.68C11.51,7.07,13.78,3.73,13.78,3.73Zm-1,18.54a6.5,6.5,0,0,1,3.06-.05.46.46,0,0,1,.3.67,5.47,5.47,0,0,1-1.31,1.56.49.49,0,0,1-.48.07A3.86,3.86,0,0,1,12.43,23,.47.47,0,0,1,12.74,22.27ZM12.33,9.05a3.4,3.4,0,0,1-3.4-3.34C12,5.77,12.33,9.05,12.33,9.05ZM5.65,13.16C6.16,12,7.76,9.93,10.27,11a3.53,3.53,0,0,1,2,4,.18.18,0,0,1-.35,0,3.42,3.42,0,0,0-2.33-2.55c-1.29-.41-2.91.45-3.67.93A.18.18,0,0,1,5.65,13.16Zm5.17,7.14-4.25.11a.7.7,0,0,1-.72-.66l0-1.07A.68.68,0,0,1,6.49,18l4.28-.17a.69.69,0,0,1,.73.67v1.13a.68.68,0,0,1-.68.68Zm5.2,10-1.71,1.57a.22.22,0,0,1-.29,0l-2-1.6a.21.21,0,0,1,.14-.37l3.67,0A.22.22,0,0,1,16,30.28ZM16.34,29l-4.67,0a.38.38,0,0,1-.24-.68l2.44-1.72a.4.4,0,0,1,.48,0l2.24,1.74A.37.37,0,0,1,16.34,29Zm5-9-4.25.1a.69.69,0,0,1-.72-.65l0-1.07a.7.7,0,0,1,.68-.69l4.27-.16a.68.68,0,0,1,.73.66l0,1.14a.7.7,0,0,1-.68.68Zm.82-6.45c-.68-.57-2.16-1.65-3.5-1.41A3.49,3.49,0,0,0,16,14.32a.18.18,0,0,1-.34-.07,3.57,3.57,0,0,1,2.55-3.66c2.64-.72,3.93,1.54,4.25,2.76a.18.18,0,0,1-.29.17Z"/></g></g></svg>