<svg width="99" height="139" viewBox="0 0 99 139" fill="none" xmlns="http://www.w3.org/2000/svg">
<path d="M49.1677 101.571C50.1008 101.273 50.9562 100.855 51.7397 100.353V100.365C51.8055 100.317 51.8773 100.264 51.9491 100.216C52.0388 100.156 52.1345 100.09 52.2242 100.025C57.4999 96.376 59.1687 91.2882 62.4705 88.2068C63.7745 87.0842 65.3596 86.4273 67.0703 86.4273C71.4786 86.4273 75.0675 90.7985 75.0735 96.173L65.0605 100.144V102.073H73.4525H75.3965C76.2698 100.353 76.7723 98.3406 76.7723 96.1849C76.7723 89.861 72.4297 84.7313 67.0703 84.7313C64.9469 84.7313 62.979 85.5375 61.3819 86.905C61.3819 86.905 59.4977 88.2904 56.2139 92.2556C55.0894 93.7246 53.3846 94.8592 51.2134 95.2055C47.6544 95.7728 44.4124 93.9814 43.9698 91.2105C43.6169 88.9891 45.1661 86.8095 47.6304 85.7346C49.6701 84.8567 53.6119 84.7313 53.6119 84.7313C61.0709 84.7313 67.1181 78.694 67.1181 71.2474C67.1181 66.5418 64.7016 62.4035 61.0409 59.991C62.2552 58.6414 64.3188 56.9574 67.0224 56.9335L67.1181 63.6396L68.452 64.2069L72.9082 56.5035C64.3128 52.6399 59.737 58.3309 59.2465 58.9937C57.5298 58.2054 55.6277 57.7516 53.6119 57.7516C53.0796 57.7516 52.5592 57.7874 52.0448 57.8472L40.1416 30.115H32.4255L36.9953 40.7624L22.7773 70.5727H24.7094L31.1395 57.0888H44.0057L45.4651 60.4926C42.2112 62.9529 40.1057 66.8404 40.1057 71.2295C40.1057 76.6637 43.3357 81.3335 47.9714 83.4713C43.0426 83.8416 40.2074 86.4571 40.2074 86.4571C37.3542 88.8159 36.0263 92.5362 37.1389 96.0177C38.6403 100.717 44.0236 103.196 49.1617 101.559L49.1677 101.571ZM32.0606 55.1778L37.9105 42.9062L43.1802 55.1778H32.0606ZM47.8278 65.4729C47.8278 62.2781 50.4178 59.6924 53.6179 59.6924C56.818 59.6924 59.408 62.2781 59.408 65.4729V77.0339C59.408 80.2287 56.818 82.8144 53.6179 82.8144C50.4178 82.8144 47.8278 80.2287 47.8278 77.0339V65.4729Z" fill="#FF4D00"/>
<path d="M3.36671 88.2484V50.675H1.47656V88.2484C1.47656 108.773 14.5162 127.082 33.9321 133.812L34.5542 132.032C15.8979 125.565 3.36671 107.973 3.36671 88.2544V88.2484Z" fill="#FF4D00"/>
<path d="M96.1814 88.2485C96.1814 107.973 83.6502 125.565 64.9939 132.026C64.0847 132.343 63.1576 132.63 62.2305 132.886L62.7329 134.702C63.7079 134.433 64.6649 134.134 65.616 133.806C85.0259 127.082 98.0716 108.773 98.0716 88.2426V50.6692H96.1814V88.2426V88.2485Z" fill="#FF4D00"/>
<path d="M7.39911 41.4728L4.66556 40.8577L5.28764 38.1108L3.95377 37.8062L3.33169 40.5532L1.65089 40.177L2.29091 37.3464L0.957039 37.0479L0 41.2698L7.08807 42.8702L7.39911 41.4728Z" fill="#FF4D00"/>
<path d="M5.01241 35.8297C5.98739 36.2417 6.95639 36.2477 7.90745 35.8595C8.86449 35.4714 9.54638 34.7906 9.95312 33.8232C10.3599 32.8558 10.3718 31.8944 9.97705 30.9329C9.58825 29.9775 8.90636 29.2967 7.92539 28.8847C6.95041 28.4726 5.98141 28.4667 5.02437 28.8608C4.06733 29.2549 3.38544 29.9357 2.9787 30.9031C2.57196 31.8705 2.55999 32.8319 2.95477 33.7874C3.34357 34.7428 4.03144 35.4236 5.00643 35.8297H5.01241ZM4.2707 31.4405C4.52791 30.8314 4.94661 30.4015 5.53878 30.1626C6.12496 29.9237 6.74106 29.9357 7.38108 30.2044C8.0211 30.4731 8.45775 30.8971 8.69701 31.4823C8.93028 32.0675 8.9243 32.6647 8.6671 33.2798C8.40989 33.8889 7.99119 34.3188 7.405 34.5577C6.81882 34.8025 6.20871 34.7846 5.56869 34.5219C4.92867 34.2532 4.49202 33.8292 4.25276 33.238C4.0135 32.6468 4.01948 32.0496 4.27668 31.4405H4.2707Z" fill="#FF4D00"/>
<path d="M12.9798 27.6308L10.8743 26.2454L11.4725 25.3377L14.3854 25.499L15.2348 24.2091L12.0646 24.0479C12.1364 23.588 12.0766 23.1461 11.8971 22.7222C11.7177 22.2982 11.4425 21.9638 11.0657 21.7189C10.5094 21.3547 9.9053 21.2412 9.25332 21.3726C8.60134 21.504 8.09291 21.8503 7.72206 22.4116L6.125 24.8361L12.1902 28.8252L12.9798 27.6308ZM10.635 24.3285L9.82156 25.5587L8.02711 24.3823L8.83462 23.1521C8.98415 22.9312 9.19351 22.7938 9.47464 22.7401C9.75577 22.6923 10.019 22.752 10.2702 22.9133C10.5214 23.0745 10.6769 23.2954 10.7487 23.5701C10.8205 23.8508 10.7786 24.1016 10.6291 24.3226L10.635 24.3285Z" fill="#FF4D00"/>
<path d="M16.0119 21.7786C17.0467 21.7547 17.9559 21.3367 18.7275 20.5245C19.4572 19.7662 19.8161 18.9301 19.8101 18.0045C19.8101 17.0789 19.4333 16.2608 18.6796 15.5442L18.2729 15.1561L15.7547 17.7836L16.6699 18.6614L18.1951 17.073C18.4165 17.4671 18.4882 17.8791 18.4105 18.3091C18.3387 18.739 18.1054 19.1571 17.7226 19.5512C17.2082 20.0886 16.628 20.3693 15.9939 20.3872C15.3599 20.4051 14.7917 20.1782 14.3012 19.7064C13.8047 19.2287 13.5415 18.6733 13.5236 18.0344C13.5056 17.4014 13.7389 16.8341 14.2174 16.3325C14.5165 16.022 14.8515 15.807 15.2283 15.6816C15.6052 15.5562 15.964 15.5383 16.293 15.6219L16.634 14.2544C16.0478 14.123 15.4496 14.1528 14.8395 14.3439C14.2294 14.535 13.6911 14.8754 13.2185 15.3651C12.4709 16.1414 12.112 17.0491 12.1359 18.0822C12.1598 19.1152 12.5546 19.999 13.3202 20.7276C14.0799 21.4561 14.9771 21.8025 16.0119 21.7786Z" fill="#FF4D00"/>
<path d="M26.1812 14.129L25.3737 13.0242L22.8974 14.8276L21.9403 13.5139L24.1595 11.8956L23.3639 10.8087L21.1388 12.4271L20.2296 11.185L22.6581 9.41139L21.8506 8.30664L18.2617 10.9222L22.5504 16.7804L26.1812 14.129Z" fill="#FF4D00"/>
<path d="M30.2248 11.8775C31.116 11.4296 31.7022 10.7488 31.9833 9.82322C32.2645 8.90359 32.1747 7.98396 31.7202 7.07031C31.2596 6.15665 30.5777 5.5356 29.6625 5.21314C28.7533 4.89067 27.8501 4.95039 26.9589 5.39826L24.3809 6.68812L27.6408 13.1673L30.2188 11.8715L30.2248 11.8775ZM27.575 6.62244C28.1372 6.34177 28.6875 6.29997 29.2259 6.49106C29.7642 6.68812 30.1889 7.08822 30.488 7.68538C30.793 8.28254 30.8588 8.85582 30.6913 9.41118C30.5298 9.96057 30.165 10.3786 29.6027 10.6592L28.3047 11.3102L26.271 7.27334L27.569 6.62244H27.575Z" fill="#FF4D00"/>
<path d="M38.0638 1.3369L36.6719 1.6875L38.4497 8.72256L39.8417 8.37196L38.0638 1.3369Z" fill="#FF4D00"/>
<path d="M43.3546 7.68546L42.8462 3.27841L46.4471 7.32717L47.5357 7.20176L46.6983 0L45.2747 0.161234L45.7831 4.55037L42.1823 0.51953L41.0996 0.644934L41.931 7.85267L43.3546 7.68546Z" fill="#FF4D00"/>
<path d="M56.6386 7.91813C57.6794 8.07937 58.5766 7.89425 59.3303 7.36277C60.0839 6.8313 60.5445 6.05499 60.706 5.02787L60.7897 4.47848L57.1889 3.91715L56.9915 5.16522L59.1688 5.5056C58.9714 5.9057 58.6783 6.20428 58.2775 6.3894C57.8827 6.57452 57.4102 6.62826 56.8599 6.53869C56.1182 6.42523 55.5619 6.10874 55.1851 5.60115C54.8083 5.09356 54.6707 4.4964 54.7724 3.82161C54.88 3.14084 55.1911 2.60937 55.6995 2.23316C56.2079 1.85695 56.8061 1.7196 57.488 1.82709C57.9127 1.89278 58.2835 2.04207 58.6005 2.28093C58.9175 2.5198 59.1389 2.79449 59.2645 3.11696L60.5804 2.60937C60.3531 2.05998 59.9823 1.58822 59.4798 1.1941C58.9774 0.805944 58.3852 0.555136 57.7153 0.453619C56.6446 0.286414 55.6995 0.507363 54.8621 1.12244C54.0247 1.73154 53.5282 2.5616 53.3667 3.60663C53.2052 4.64569 53.4325 5.57726 54.0486 6.41329C54.6647 7.24334 55.526 7.75093 56.6326 7.9241L56.6386 7.91813Z" fill="#FF4D00"/>
<path d="M64.3004 9.87689C65.072 10.1516 65.7718 10.1635 66.4178 9.90675C67.0579 9.64997 67.5125 9.1603 67.7697 8.44371L69.4146 3.85154L68.0687 3.36784L66.4597 7.85252C66.3281 8.21081 66.1247 8.45565 65.8496 8.593C65.5685 8.73034 65.2096 8.7184 64.7729 8.56314C64.3363 8.40788 64.0492 8.1929 63.9236 7.90626C63.792 7.62559 63.792 7.30313 63.9236 6.9508L65.5266 2.46015L64.1867 1.98242L62.5418 6.58056C62.2846 7.30313 62.3205 7.96598 62.6555 8.56911C62.9904 9.17224 63.5407 9.61414 64.3004 9.88286V9.87689Z" fill="#FF4D00"/>
<path d="M72.7639 13.7466L73.4279 12.5463L70.7422 11.0713L71.5318 9.65006L73.9363 10.9698L74.5883 9.79338L72.1837 8.46768L72.9314 7.1181L75.5633 8.56323L76.2213 7.36891L72.3333 5.2251L68.8281 11.5789L72.7639 13.7466Z" fill="#FF4D00"/>
<path d="M75.4038 15.5979L76.947 13.6094L77.8024 14.2722L77.4196 17.1625L78.6458 18.106L79.0525 14.9589C79.5071 15.0664 79.9498 15.0425 80.3864 14.8992C80.823 14.7499 81.1819 14.5051 81.4571 14.1468C81.8638 13.6213 82.0253 13.0301 81.9416 12.3732C81.8579 11.7164 81.5528 11.1789 81.0204 10.7728L78.7235 8.99927L74.2793 14.732L75.4098 15.6098L75.4038 15.5979ZM79.0286 10.9162L80.195 11.8179C80.4043 11.9851 80.53 12.206 80.5539 12.4867C80.5778 12.7674 80.5 13.0241 80.3206 13.263C80.1412 13.4959 79.9079 13.6392 79.6267 13.687C79.3456 13.7348 79.0944 13.675 78.885 13.5138L77.7187 12.6121L79.0346 10.9162H79.0286Z" fill="#FF4D00"/>
<path d="M80.7854 20.2736L82.6337 18.5597L83.3694 19.354L82.52 22.1427L83.5728 23.2713L84.488 20.2318C84.9186 20.4109 85.3612 20.4587 85.8158 20.3871C86.2704 20.3154 86.6652 20.1243 86.9942 19.8197C87.4787 19.3659 87.7359 18.8105 87.7598 18.1477C87.7838 17.4849 87.5684 16.9056 87.1138 16.4159L85.1399 14.29L79.8164 19.2226L80.7914 20.2736H80.7854ZM85.128 16.2487L86.1269 17.3296C86.3123 17.5267 86.3901 17.7655 86.3721 18.0522C86.3542 18.3328 86.2345 18.5777 86.0132 18.7807C85.7979 18.9837 85.5407 19.0852 85.2536 19.0852C84.9665 19.0852 84.7332 18.9897 84.5478 18.7926L83.5489 17.7118L85.122 16.2547L85.128 16.2487Z" fill="#FF4D00"/>
<path d="M87.0728 28.3533L88.2093 27.5889L86.4986 25.057L87.8504 24.1493L89.3876 26.4245L90.5062 25.672L88.9689 23.3969L90.2549 22.531L91.9297 25.0271L93.0722 24.2627L90.5899 20.5842L84.5605 24.633L87.0728 28.3533Z" fill="#FF4D00"/>
<path d="M88.5494 31.1657L90.8344 30.0968L91.295 31.0762L89.6381 33.4708L90.296 34.8681L92.0905 32.2526C92.4434 32.5512 92.8501 32.7363 93.3107 32.802C93.7713 32.8677 94.196 32.8079 94.6027 32.6168C95.2068 32.3362 95.6196 31.8823 95.8469 31.2553C96.0742 30.6283 96.0443 30.0132 95.7571 29.4041L94.525 26.7766L87.9453 29.852L88.5554 31.1478L88.5494 31.1657ZM93.9148 28.6517L94.5429 29.9834C94.6565 30.2282 94.6625 30.479 94.5549 30.7418C94.4472 31.0045 94.2618 31.2016 93.9926 31.327C93.7234 31.4524 93.4543 31.4703 93.1791 31.3867C92.904 31.2971 92.7126 31.1359 92.5989 30.8911L91.9709 29.5594L93.9148 28.6457V28.6517Z" fill="#FF4D00"/>
<path d="M98.8749 37.7463C98.6117 36.7311 98.0375 35.9608 97.1463 35.4353C96.255 34.9158 95.298 34.7844 94.2751 35.0471C93.2523 35.3158 92.4747 35.8891 91.9483 36.7789C91.428 37.6687 91.2964 38.6182 91.5596 39.6333C91.8227 40.6485 92.397 41.4188 93.2882 41.9503C94.1794 42.4818 95.1365 42.6072 96.1593 42.3444C97.1821 42.0757 97.9597 41.5024 98.4801 40.6067C99.0005 39.7169 99.1321 38.7615 98.8689 37.7463H98.8749ZM97.2958 39.8782C96.9728 40.4216 96.4763 40.7858 95.8064 40.959C95.1365 41.1322 94.5324 41.0605 93.988 40.7321C93.4437 40.4096 93.0848 39.9259 92.9233 39.287C92.7558 38.648 92.8336 38.0508 93.1506 37.5074C93.4736 36.964 93.9641 36.5997 94.634 36.4266C95.304 36.2534 95.9141 36.325 96.4644 36.6475C97.0087 36.97 97.3676 37.4537 97.5351 38.0926C97.7025 38.7376 97.6248 39.3288 97.3018 39.8782H97.2958Z" fill="#FF4D00"/>
<path d="M48.8217 134.045H47.2486V135.926H45.185L47.8108 130.796H46.136L43.4922 135.926V137.377H47.2486V138.727H48.8217V137.377H49.6711V135.926H48.8217V134.045Z" fill="#FF4D00"/>
<path d="M50.8848 132.289H54.2763L51.6743 138.727H53.3252L56.0169 132.122V130.796H50.8848V132.289Z" fill="#FF4D00"/>
</svg>
