<svg width="158" height="219" viewBox="0 0 158 219" fill="none" xmlns="http://www.w3.org/2000/svg">
<path d="M78.5862 160.327C80.0591 159.856 81.4092 159.196 82.6461 158.405V158.423C82.7499 158.348 82.8632 158.263 82.9765 158.188C83.1181 158.093 83.2692 157.99 83.4108 157.886C91.7383 152.127 94.3726 144.096 99.5843 139.232C101.643 137.46 104.145 136.423 106.845 136.423C113.803 136.423 119.468 143.323 119.478 151.806L103.673 158.075V161.119H116.919H119.988C121.366 158.405 122.159 155.228 122.159 151.825C122.159 141.843 115.305 133.746 106.845 133.746C103.493 133.746 100.387 135.019 97.866 137.177C97.866 137.177 94.8919 139.364 89.7084 145.623C87.9334 147.942 85.2425 149.733 81.8152 150.279C76.1974 151.175 71.0801 148.347 70.3814 143.973C69.8243 140.467 72.2697 137.026 76.1597 135.33C79.3793 133.944 85.6013 133.746 85.6013 133.746C97.375 133.746 106.92 124.216 106.92 112.462C106.92 105.034 103.106 98.5021 97.3278 94.694C99.2444 92.5637 102.502 89.9055 106.769 89.8678L106.92 100.453L109.026 101.349L116.06 89.1892C102.492 83.0905 95.2695 92.0735 94.4953 93.1198C91.7856 91.8756 88.7831 91.1592 85.6013 91.1592C84.761 91.1592 83.9396 91.2158 83.1276 91.31L64.3387 47.5355H52.159L59.3724 64.3421L36.9297 111.397H39.9793L50.1291 90.1129H70.438L72.7418 95.4858C67.6055 99.3693 64.2821 105.506 64.2821 112.434C64.2821 121.011 69.3806 128.383 76.6978 131.757C68.9179 132.342 64.4426 136.47 64.4426 136.47C59.9389 140.193 57.8429 146.066 59.599 151.561C61.9689 158.98 70.4664 162.891 78.5767 160.309L78.5862 160.327ZM51.5831 87.0966L60.817 67.7261L69.1351 87.0966H51.5831ZM76.4712 103.347C76.4712 98.3041 80.5595 94.2227 85.6107 94.2227C90.662 94.2227 94.7502 98.3041 94.7502 103.347V121.596C94.7502 126.639 90.662 130.72 85.6107 130.72C80.5595 130.72 76.4712 126.639 76.4712 121.596V103.347Z" fill="#222222"/>
<path d="M6.2941 139.298V79.9891H3.31055V139.298C3.31055 171.695 23.8933 200.595 54.5408 211.218L55.5228 208.409C26.0743 198.201 6.2941 170.432 6.2941 139.307V139.298Z" fill="#222222"/>
<path d="M152.796 139.298C152.796 170.432 133.016 198.201 103.567 208.4C102.132 208.9 100.669 209.352 99.2051 209.758L99.9982 212.623C101.537 212.199 103.048 211.728 104.549 211.209C135.187 200.596 155.779 171.695 155.779 139.289V79.9801H152.796V139.289V139.298Z" fill="#222222"/>
<path d="M12.6559 65.4638L8.34103 64.4929L9.32296 60.157L7.21748 59.6762L6.23555 64.0122L3.58245 63.4184L4.59271 58.9504L2.48722 58.4791L0.976562 65.1433L12.1649 67.6695L12.6559 65.4638Z" fill="#222222"/>
<path d="M8.88926 56.5563C10.4282 57.2067 11.9578 57.2161 13.459 56.6034C14.9697 55.9907 16.046 54.9162 16.6881 53.3891C17.3301 51.8621 17.349 50.3445 16.7258 48.8269C16.1121 47.3188 15.0358 46.2442 13.4873 45.5938C11.9484 44.9434 10.4188 44.934 8.90815 45.5561C7.39749 46.1782 6.32114 47.2528 5.67911 48.7798C5.03708 50.3068 5.0182 51.8244 5.64134 53.3326C6.25505 54.8407 7.34084 55.9153 8.87982 56.5563H8.88926ZM7.7185 49.6281C8.12449 48.6667 8.78541 47.988 9.72013 47.611C10.6454 47.2339 11.6179 47.2528 12.6281 47.677C13.6384 48.1011 14.3276 48.7704 14.7053 49.6941C15.0735 50.6179 15.0641 51.5605 14.6581 52.5314C14.2521 53.4928 13.5912 54.1715 12.6659 54.5485C11.7406 54.935 10.7776 54.9067 9.76734 54.492C8.75708 54.0678 8.06784 53.3986 7.69018 52.4654C7.31251 51.5322 7.32195 50.5896 7.72794 49.6281H7.7185Z" fill="#222222"/>
<path d="M21.4666 43.6142L18.1431 41.4274L19.0873 39.9946L23.6854 40.2491L25.0261 38.2131L20.022 37.9586C20.1353 37.2328 20.0409 36.5353 19.7577 35.866C19.4744 35.1968 19.0401 34.6689 18.4453 34.2824C17.5672 33.7075 16.6136 33.5284 15.5845 33.7357C14.5553 33.9431 13.7528 34.4898 13.1674 35.3759L10.6465 39.2028L20.2203 45.4994L21.4666 43.6142ZM17.7655 38.4016L16.4814 40.3434L13.6489 38.4865L14.9235 36.5447C15.1596 36.1959 15.49 35.9791 15.9338 35.8943C16.3776 35.8189 16.793 35.9132 17.1895 36.1677C17.5861 36.4222 17.8316 36.7709 17.9449 37.2045C18.0582 37.6475 17.9921 38.0434 17.756 38.3922L17.7655 38.4016Z" fill="#222222"/>
<path d="M26.2528 34.3768C27.8862 34.3391 29.3213 33.6792 30.5393 32.3973C31.6911 31.2002 32.2576 29.8805 32.2482 28.4195C32.2482 26.9585 31.6534 25.6671 30.4637 24.536L29.8217 23.9233L25.8468 28.0707L27.2913 29.4564L29.699 26.949C30.0483 27.5712 30.1616 28.2216 30.0389 28.9002C29.9256 29.5789 29.5573 30.2387 28.9531 30.8609C28.1411 31.7092 27.2252 32.1522 26.2244 32.1805C25.2236 32.2088 24.3267 31.8506 23.5525 31.1059C22.7688 30.3518 22.3534 29.4752 22.325 28.4666C22.2967 27.4675 22.6649 26.572 23.4203 25.7802C23.8924 25.2901 24.4211 24.9507 25.0159 24.7528C25.6107 24.5548 26.1772 24.5266 26.6965 24.6585L27.2347 22.5C26.3094 22.2926 25.3652 22.3397 24.4022 22.6413C23.4392 22.943 22.5894 23.4803 21.8435 24.2532C20.6633 25.4786 20.0968 26.9113 20.1346 28.542C20.1723 30.1727 20.7955 31.5678 22.004 32.7178C23.2031 33.8678 24.6194 34.4145 26.2528 34.3768Z" fill="#222222"/>
<path d="M42.3015 22.3022L41.0269 20.5584L37.118 23.405L35.6074 21.3313L39.1102 18.7769L37.8545 17.0613L34.3422 19.6158L32.9071 17.6552L36.7404 14.8556L35.4658 13.1118L29.8008 17.2404L36.5704 26.4874L42.3015 22.3022Z" fill="#222222"/>
<path d="M48.6854 18.7484C50.0922 18.0414 51.0175 16.9669 51.4613 15.5058C51.905 14.0542 51.7634 12.6026 51.0458 11.1604C50.3188 9.71825 49.2425 8.73794 47.7979 8.22893C46.3628 7.71993 44.9371 7.81419 43.5303 8.52114L39.4609 10.5572L44.6066 20.7844L48.676 18.739L48.6854 18.7484ZM44.5028 10.4535C45.3903 10.0105 46.2589 9.94447 47.1087 10.2461C47.9584 10.5572 48.6288 11.1887 49.1008 12.1313C49.5824 13.0739 49.6862 13.9788 49.4219 14.8554C49.1669 15.7226 48.591 16.3825 47.7035 16.8255L45.6546 17.8529L42.4445 11.4809L44.4933 10.4535H44.5028Z" fill="#222222"/>
<path d="M61.0565 2.1101L58.8594 2.66351L61.6657 13.7682L63.8628 13.2148L61.0565 2.1101Z" fill="#222222"/>
<path d="M69.4091 12.1313L68.6066 5.17489L74.2904 11.5657L76.0088 11.3678L74.687 0L72.4399 0.254503L73.2424 7.18264L67.5585 0.820065L65.8496 1.01801L67.162 12.3952L69.4091 12.1313Z" fill="#222222"/>
<path d="M90.3807 12.4987C92.0236 12.7532 93.4398 12.461 94.6294 11.6221C95.8191 10.7832 96.5461 9.55778 96.801 7.9365L96.9332 7.0693L91.2493 6.18326L90.9378 8.1533L94.3745 8.69058C94.0629 9.32213 93.6003 9.79343 92.9677 10.0856C92.3446 10.3778 91.5987 10.4627 90.73 10.3213C89.5593 10.1422 88.6812 9.64261 88.0864 8.8414C87.4916 8.04019 87.2744 7.09758 87.4349 6.03244C87.6049 4.95787 88.0958 4.11895 88.8984 3.52511C89.7009 2.93127 90.6451 2.71448 91.7214 2.88414C92.3918 2.98783 92.9772 3.22348 93.4776 3.60052C93.978 3.97756 94.3273 4.41116 94.5256 4.92017L96.6027 4.11895C96.244 3.25176 95.6586 2.5071 94.8655 1.88498C94.0724 1.27229 93.1377 0.876399 92.0802 0.716157C90.3901 0.452228 88.8984 0.800991 87.5765 1.77187C86.2547 2.73333 85.4711 4.04355 85.2161 5.6931C84.9612 7.33323 85.32 8.80369 86.2925 10.1233C87.265 11.4336 88.6246 12.2348 90.3713 12.5081L90.3807 12.4987Z" fill="#222222"/>
<path d="M102.472 15.5905C103.69 16.0241 104.795 16.0429 105.814 15.6376C106.825 15.2323 107.542 14.4594 107.948 13.3282L110.545 6.07962L108.42 5.31611L105.88 12.3951C105.673 12.9606 105.352 13.3471 104.917 13.5639C104.474 13.7807 103.907 13.7618 103.218 13.5168C102.529 13.2717 102.075 12.9323 101.877 12.4799C101.669 12.0369 101.669 11.5279 101.877 10.9717L104.407 3.88335L102.293 3.12927L99.6961 10.3873C99.2901 11.5279 99.3468 12.5742 99.8755 13.5262C100.404 14.4782 101.273 15.1757 102.472 15.5999V15.5905Z" fill="#222222"/>
<path d="M115.834 21.6986L116.882 19.804L112.642 17.4758L113.889 15.2324L117.684 17.3155L118.713 15.4586L114.918 13.366L116.098 11.2357L120.252 13.5168L121.291 11.6316L115.154 8.24768L109.621 18.277L115.834 21.6986Z" fill="#222222"/>
<path d="M119.998 24.6209L122.434 21.482L123.784 22.5283L123.18 27.0905L125.115 28.5798L125.757 23.6123C126.475 23.782 127.173 23.7443 127.863 23.5181C128.552 23.2824 129.118 22.8959 129.553 22.3304C130.195 21.5009 130.45 20.5677 130.317 19.5308C130.185 18.494 129.704 17.6456 128.863 17.0047L125.238 14.2051L118.223 23.2541L120.007 24.6398L119.998 24.6209ZM125.719 17.2309L127.56 18.6542C127.891 18.9182 128.089 19.2669 128.127 19.7099C128.165 20.153 128.042 20.5583 127.759 20.9353C127.475 21.3029 127.107 21.5292 126.663 21.6046C126.22 21.68 125.823 21.5857 125.493 21.3312L123.652 19.9079L125.729 17.2309H125.719Z" fill="#222222"/>
<path d="M128.494 32.0013L131.412 29.2961L132.573 30.5497L131.232 34.9517L132.894 36.7332L134.339 31.9354C135.019 32.2181 135.717 32.2936 136.435 32.1804C137.152 32.0673 137.776 31.7657 138.295 31.285C139.06 30.5686 139.466 29.692 139.503 28.6457C139.541 27.5994 139.201 26.6851 138.484 25.9121L135.368 22.5565L126.965 30.3424L128.504 32.0013H128.494ZM135.349 25.6482L136.926 27.3543C137.218 27.6654 137.341 28.0424 137.313 28.4949C137.285 28.9379 137.096 29.3244 136.746 29.6448C136.406 29.9653 136 30.1256 135.547 30.1256C135.094 30.1256 134.726 29.9747 134.433 29.6637L132.856 27.9576L135.34 25.6576L135.349 25.6482Z" fill="#222222"/>
<path d="M138.419 44.7547L140.213 43.5482L137.512 39.5516L139.646 38.1188L142.073 41.7101L143.838 40.5224L141.412 36.9311L143.442 35.5643L146.085 39.5044L147.889 38.2979L143.97 32.4915L134.453 38.8823L138.419 44.7547Z" fill="#222222"/>
<path d="M140.749 49.1942L144.355 47.5069L145.082 49.0528L142.467 52.8326L143.505 55.0383L146.338 50.9097C146.895 51.381 147.537 51.6732 148.264 51.7769C148.991 51.8806 149.661 51.7863 150.303 51.4847C151.257 51.0417 151.909 50.3253 152.267 49.3356C152.626 48.3458 152.579 47.375 152.126 46.4135L150.181 42.2661L139.795 47.1205L140.758 49.1659L140.749 49.1942ZM149.218 45.2258L150.209 47.3278C150.388 47.7143 150.398 48.1102 150.228 48.5249C150.058 48.9397 149.765 49.2507 149.34 49.4487C148.916 49.6466 148.491 49.6749 148.056 49.543C147.622 49.4016 147.32 49.1471 147.141 48.7606L146.149 46.6586L149.218 45.2164V45.2258Z" fill="#222222"/>
<path d="M157.046 59.5818C156.631 57.9793 155.724 56.7634 154.318 55.9339C152.911 55.1138 151.4 54.9064 149.786 55.3212C148.171 55.7454 146.944 56.6503 146.113 58.0547C145.291 59.4592 145.084 60.958 145.499 62.5604C145.915 64.1628 146.821 65.3788 148.228 66.2177C149.635 67.0566 151.145 67.2545 152.76 66.8398C154.374 66.4156 155.602 65.5107 156.423 64.0968C157.244 62.6923 157.452 61.1842 157.037 59.5818H157.046ZM154.554 62.9468C154.044 63.8046 153.26 64.3796 152.203 64.653C151.145 64.9263 150.192 64.8132 149.332 64.2948C148.473 63.7858 147.907 63.0223 147.652 62.0137C147.387 61.0051 147.51 60.0625 148.011 59.2047C148.52 58.3469 149.295 57.772 150.352 57.4986C151.41 57.2252 152.373 57.3384 153.241 57.8474C154.1 58.3564 154.667 59.1199 154.931 60.1285C155.196 61.1465 155.073 62.0797 154.563 62.9468H154.554Z" fill="#222222"/>
<path d="M78.0414 211.586H75.5582V214.555H72.3009L76.4458 206.458H73.8021L69.6289 214.555V216.846H75.5582V218.976H78.0414V216.846H79.3821V214.555H78.0414V211.586Z" fill="#222222"/>
<path d="M81.2969 208.815H86.6503L82.5432 218.976H85.1491L89.3978 208.551V206.458H81.2969V208.815Z" fill="#222222"/>
</svg>
